<svg width="439" height="182" viewBox="0 0 439 182" fill="none" xmlns="http://www.w3.org/2000/svg">
<path d="M0 12C0 5.37258 5.37258 0 12 0H427C433.627 0 439 5.37258 439 12V170C439 176.627 433.627 182 427 182H12C5.37259 182 0 176.627 0 170V12Z" fill="#F4F4F5"/>
<path fill-rule="evenodd" clip-rule="evenodd" d="M217.466 32.3245C217.152 32.6422 217.14 32.7111 217.169 34.1001C217.186 34.8949 217.146 35.5994 217.081 35.6656C217.015 35.7317 216.318 35.8805 215.533 35.996C212.09 36.5029 209.195 37.5242 206.122 39.3161C203.904 40.61 202.701 41.5204 200.884 43.2812C199.006 45.1017 197.766 46.6891 196.169 49.3187C195.711 50.0741 194.829 51.8416 194.829 52.0058C194.829 52.0395 194.685 52.3851 194.509 52.7737C193.521 54.9595 192.641 58.9949 192.609 61.4912C192.587 63.2177 192.655 63.1436 190.947 63.3015C189.652 63.4212 189.447 63.4739 189.232 63.7426C188.894 64.1649 188.926 64.6251 189.323 65.0262C189.656 65.3626 189.672 65.3648 191.108 65.2797C191.905 65.2324 194.31 65.1068 196.451 65.0005C198.593 64.8942 201.368 64.7486 202.617 64.677C206.205 64.4714 207.113 64.424 208.913 64.3494C210.683 64.2759 213.937 64.1014 217.545 63.8867C218.723 63.8165 220.538 63.7281 221.578 63.6902C222.618 63.6523 223.932 63.5949 224.499 63.5629C225.065 63.5309 226.93 63.4422 228.644 63.3658C230.357 63.2895 232.694 63.1711 233.836 63.1027C234.978 63.0344 236.585 62.9446 237.406 62.9031C238.227 62.8616 239.249 62.8023 239.677 62.7713C240.106 62.7404 241.186 62.6808 242.079 62.6388C247.898 62.3655 249.467 62.2322 249.733 61.988C250.082 61.6688 250.091 60.8639 249.748 60.5507C249.539 60.3588 249.275 60.3285 248.062 60.3567C247.272 60.3752 246.582 60.3471 246.53 60.2944C246.478 60.2415 246.337 59.5371 246.217 58.7288C245.973 57.0881 245.926 56.856 245.659 56.0125C245.556 55.6876 245.403 55.1561 245.32 54.8312C245.237 54.5064 245.116 54.1381 245.052 54.0127C244.987 53.8874 244.934 53.718 244.934 53.6365C244.934 53.3288 243.699 50.5459 243.054 49.3979C242.199 47.8782 241.446 46.7083 241.058 46.2954C240.891 46.1174 240.6 45.7651 240.412 45.5125C239.614 44.4425 237.991 42.8027 236.664 41.7266C235.634 40.8902 232.789 38.9963 231.954 38.5905C228.269 36.8002 224.824 35.882 221.137 35.7072C219.973 35.6519 219.416 35.573 219.29 35.4453C219.181 35.3351 219.105 34.9653 219.098 34.514C219.073 32.8147 219.036 32.5442 218.791 32.27C218.451 31.89 217.872 31.9138 217.466 32.3245ZM207.158 41.739C207.156 41.8293 206.908 42.2954 206.606 42.775C205.778 44.0908 204.175 47.1334 204.175 47.3912C204.175 47.45 204.029 47.8209 203.85 48.2154C203.672 48.61 203.526 49.0078 203.526 49.0995C203.526 49.1911 203.472 49.3224 203.405 49.3909C203.23 49.5718 202.411 52.8482 202.176 54.3062C201.974 55.557 201.901 56.302 201.774 58.375C201.662 60.2143 201.329 60.4691 198.993 60.505C197.182 60.533 196.851 60.3924 196.523 59.4545C196.28 58.7581 196.448 57.8403 197.298 55.225C197.995 53.0802 198.144 52.7022 198.882 51.2218C200.056 48.8676 201.078 47.2922 202.63 45.4468C204.731 42.9495 207.171 40.951 207.158 41.739ZM225.139 68.0505C222.99 68.103 217.268 68.3676 214.365 68.5487C211.999 68.6964 210.945 68.7558 207.42 68.9409C205.385 69.0476 203.02 69.1925 202.163 69.2628C201.306 69.3332 198.941 69.4559 196.906 69.5356C194.871 69.6154 193.126 69.7071 193.027 69.7395C192.843 69.8002 192.857 70.0144 193.129 71.3687C193.331 72.37 193.905 74.2851 194.182 74.8816C194.327 75.1935 194.54 75.6971 194.654 76.0009C195.239 77.5515 196.49 79.7453 197.617 81.1958C197.961 81.6381 198.252 82 198.264 82C198.275 82 198.573 81.8597 198.926 81.6883C200.725 80.8132 201.572 80.4318 202.141 80.2391C203.984 79.616 207.065 79.2126 209.167 79.3196C211.121 79.419 221.369 79.4159 222.802 79.3154C224.302 79.2104 225.184 79.031 226.048 78.6555C226.333 78.5313 227.209 78.1643 227.995 77.8402C228.78 77.516 229.481 77.2039 229.552 77.1465C229.624 77.0891 230.366 76.7425 231.201 76.3762C232.036 76.0099 232.825 75.6518 232.954 75.5806C233.233 75.4254 234.247 74.9603 236.692 73.866C237.691 73.4186 238.801 72.9133 239.158 72.7431C239.515 72.5727 240.158 72.2761 240.586 72.0838C241.442 71.6995 242.491 71.2087 244.115 70.4328C244.7 70.1535 245.215 69.925 245.259 69.925C245.444 69.925 246.734 69.272 246.817 69.1367C246.867 69.0559 246.799 68.8671 246.667 68.7174C246.082 68.0531 244.942 67.9188 243.433 68.3366C242.132 68.6967 240.368 69.2481 240.067 69.3888C239.924 69.4554 239.34 69.6616 238.769 69.8468C237.182 70.3615 233.696 71.5942 233.22 71.8088C232.988 71.9138 232.505 72.0994 232.148 72.2213C231.791 72.3431 230.915 72.6484 230.201 72.8998C228.777 73.4011 224.397 74.3488 222.921 74.475C221.78 74.5726 221.376 74.4802 221.104 74.0603C220.633 73.3342 220.985 72.3308 221.826 72.0029C222.277 71.8269 224.134 71.5054 224.715 71.5024C225.197 71.5 228.161 71.0215 230.003 70.6484C231.303 70.3852 232.274 69.8789 232.532 69.3291C232.784 68.7915 232.783 68.6806 232.52 68.2752L232.307 67.9472L229.307 67.9845C227.657 68.0051 225.781 68.0347 225.139 68.0505Z" fill="#EF4444"/>
<path d="M143.759 94.3636H146.515L149.168 99.375H149.282L151.935 94.3636H154.691L150.447 101.886V106H148.004V101.886L143.759 94.3636ZM158.104 106.17C157.222 106.17 156.459 105.983 155.815 105.608C155.174 105.229 154.68 104.703 154.332 104.028C153.983 103.35 153.809 102.564 153.809 101.67C153.809 100.769 153.983 99.9811 154.332 99.3068C154.68 98.6288 155.174 98.1023 155.815 97.7273C156.459 97.3485 157.222 97.1591 158.104 97.1591C158.987 97.1591 159.748 97.3485 160.388 97.7273C161.032 98.1023 161.529 98.6288 161.877 99.3068C162.226 99.9811 162.4 100.769 162.4 101.67C162.4 102.564 162.226 103.35 161.877 104.028C161.529 104.703 161.032 105.229 160.388 105.608C159.748 105.983 158.987 106.17 158.104 106.17ZM158.116 104.295C158.517 104.295 158.853 104.182 159.121 103.955C159.39 103.723 159.593 103.409 159.729 103.011C159.87 102.614 159.94 102.161 159.94 101.653C159.94 101.146 159.87 100.693 159.729 100.295C159.593 99.8977 159.39 99.5833 159.121 99.3523C158.853 99.1212 158.517 99.0057 158.116 99.0057C157.71 99.0057 157.37 99.1212 157.093 99.3523C156.82 99.5833 156.614 99.8977 156.474 100.295C156.337 100.693 156.269 101.146 156.269 101.653C156.269 102.161 156.337 102.614 156.474 103.011C156.614 103.409 156.82 103.723 157.093 103.955C157.37 104.182 157.71 104.295 158.116 104.295ZM169.57 102.284V97.2727H171.991V106H169.667V104.415H169.576C169.379 104.926 169.051 105.337 168.593 105.648C168.138 105.958 167.584 106.114 166.928 106.114C166.345 106.114 165.832 105.981 165.388 105.716C164.945 105.451 164.599 105.074 164.349 104.585C164.103 104.097 163.978 103.511 163.974 102.83V97.2727H166.394V102.398C166.398 102.913 166.536 103.32 166.809 103.619C167.082 103.919 167.447 104.068 167.906 104.068C168.197 104.068 168.47 104.002 168.724 103.869C168.978 103.733 169.182 103.532 169.337 103.267C169.496 103.002 169.574 102.674 169.57 102.284ZM173.927 106V97.2727H176.273V98.7955H176.364C176.523 98.2538 176.79 97.8447 177.165 97.5682C177.54 97.2879 177.972 97.1477 178.461 97.1477C178.582 97.1477 178.713 97.1553 178.853 97.1705C178.993 97.1856 179.116 97.2064 179.222 97.233V99.3807C179.109 99.3466 178.951 99.3163 178.751 99.2898C178.55 99.2633 178.366 99.25 178.2 99.25C177.844 99.25 177.525 99.3277 177.245 99.483C176.969 99.6345 176.749 99.8466 176.586 100.119C176.427 100.392 176.347 100.706 176.347 101.062V106H173.927ZM188.12 106.17C187.226 106.17 186.457 105.981 185.813 105.602C185.173 105.22 184.681 104.689 184.336 104.011C183.995 103.333 183.825 102.553 183.825 101.67C183.825 100.777 183.997 99.9924 184.342 99.3182C184.69 98.6402 185.184 98.1117 185.825 97.733C186.465 97.3504 187.226 97.1591 188.109 97.1591C188.87 97.1591 189.537 97.2973 190.109 97.5739C190.681 97.8504 191.133 98.2386 191.467 98.7386C191.8 99.2386 191.984 99.8258 192.018 100.5H189.734C189.669 100.064 189.499 99.714 189.222 99.4489C188.95 99.1799 188.592 99.0455 188.148 99.0455C187.773 99.0455 187.446 99.1477 187.165 99.3523C186.889 99.553 186.673 99.8466 186.518 100.233C186.362 100.619 186.285 101.087 186.285 101.636C186.285 102.193 186.361 102.667 186.512 103.057C186.667 103.447 186.885 103.744 187.165 103.949C187.446 104.153 187.773 104.256 188.148 104.256C188.425 104.256 188.673 104.199 188.893 104.085C189.116 103.972 189.3 103.807 189.444 103.591C189.592 103.371 189.688 103.108 189.734 102.801H192.018C191.98 103.468 191.798 104.055 191.472 104.562C191.15 105.066 190.705 105.46 190.137 105.744C189.569 106.028 188.897 106.17 188.12 106.17ZM196.056 106.165C195.499 106.165 195.003 106.068 194.567 105.875C194.132 105.678 193.787 105.388 193.533 105.006C193.283 104.619 193.158 104.138 193.158 103.562C193.158 103.078 193.247 102.67 193.425 102.341C193.603 102.011 193.846 101.746 194.153 101.545C194.46 101.345 194.808 101.193 195.198 101.091C195.592 100.989 196.005 100.917 196.437 100.875C196.944 100.822 197.353 100.773 197.664 100.727C197.975 100.678 198.2 100.606 198.34 100.511C198.48 100.417 198.55 100.277 198.55 100.091V100.057C198.55 99.697 198.437 99.4186 198.21 99.2216C197.986 99.0246 197.668 98.9261 197.255 98.9261C196.819 98.9261 196.473 99.0227 196.215 99.2159C195.958 99.4053 195.787 99.6439 195.704 99.9318L193.465 99.75C193.579 99.2197 193.802 98.7614 194.136 98.375C194.469 97.9848 194.899 97.6856 195.425 97.4773C195.956 97.2652 196.569 97.1591 197.266 97.1591C197.751 97.1591 198.215 97.2159 198.658 97.3295C199.105 97.4432 199.501 97.6193 199.846 97.858C200.194 98.0966 200.469 98.4034 200.67 98.7784C200.871 99.1496 200.971 99.5947 200.971 100.114V106H198.675V104.79H198.607C198.467 105.062 198.28 105.303 198.045 105.511C197.81 105.716 197.528 105.877 197.198 105.994C196.869 106.108 196.488 106.165 196.056 106.165ZM196.749 104.494C197.105 104.494 197.42 104.424 197.692 104.284C197.965 104.14 198.179 103.947 198.335 103.705C198.49 103.462 198.567 103.187 198.567 102.881V101.955C198.492 102.004 198.388 102.049 198.255 102.091C198.126 102.129 197.98 102.165 197.817 102.199C197.655 102.229 197.492 102.258 197.329 102.284C197.166 102.307 197.018 102.328 196.886 102.347C196.602 102.388 196.353 102.455 196.141 102.545C195.929 102.636 195.764 102.759 195.647 102.915C195.53 103.066 195.471 103.256 195.471 103.483C195.471 103.812 195.59 104.064 195.829 104.239C196.071 104.409 196.378 104.494 196.749 104.494ZM202.849 106V97.2727H205.195V98.7955H205.286C205.445 98.2538 205.712 97.8447 206.087 97.5682C206.462 97.2879 206.894 97.1477 207.383 97.1477C207.504 97.1477 207.635 97.1553 207.775 97.1705C207.915 97.1856 208.038 97.2064 208.144 97.233V99.3807C208.031 99.3466 207.873 99.3163 207.673 99.2898C207.472 99.2633 207.288 99.25 207.121 99.25C206.765 99.25 206.447 99.3277 206.167 99.483C205.89 99.6345 205.671 99.8466 205.508 100.119C205.349 100.392 205.269 100.706 205.269 101.062V106H202.849ZM214.475 97.2727V99.0909H209.219V97.2727H214.475ZM210.413 95.1818H212.833V103.318C212.833 103.542 212.867 103.716 212.935 103.841C213.004 103.962 213.098 104.047 213.219 104.097C213.344 104.146 213.488 104.17 213.651 104.17C213.765 104.17 213.879 104.161 213.992 104.142C214.106 104.119 214.193 104.102 214.254 104.091L214.634 105.892C214.513 105.93 214.343 105.973 214.123 106.023C213.903 106.076 213.636 106.108 213.322 106.119C212.738 106.142 212.227 106.064 211.788 105.886C211.352 105.708 211.013 105.432 210.771 105.057C210.528 104.682 210.409 104.208 210.413 103.636V95.1818ZM219.755 106V97.2727H222.175V106H219.755ZM220.971 96.1477C220.611 96.1477 220.302 96.0284 220.045 95.7898C219.791 95.5473 219.664 95.2576 219.664 94.9205C219.664 94.5871 219.791 94.3011 220.045 94.0625C220.302 93.8201 220.611 93.6989 220.971 93.6989C221.331 93.6989 221.638 93.8201 221.891 94.0625C222.149 94.3011 222.278 94.5871 222.278 94.9205C222.278 95.2576 222.149 95.5473 221.891 95.7898C221.638 96.0284 221.331 96.1477 220.971 96.1477ZM231.376 99.7614L229.16 99.8977C229.122 99.7083 229.04 99.5379 228.915 99.3864C228.79 99.2311 228.626 99.108 228.421 99.017C228.22 98.9223 227.98 98.875 227.7 98.875C227.325 98.875 227.008 98.9545 226.751 99.1136C226.493 99.2689 226.364 99.4773 226.364 99.7386C226.364 99.947 226.448 100.123 226.614 100.267C226.781 100.411 227.067 100.527 227.472 100.614L229.052 100.932C229.9 101.106 230.533 101.386 230.95 101.773C231.366 102.159 231.575 102.667 231.575 103.295C231.575 103.867 231.406 104.369 231.069 104.801C230.736 105.233 230.277 105.57 229.694 105.812C229.114 106.051 228.446 106.17 227.688 106.17C226.533 106.17 225.612 105.93 224.927 105.449C224.245 104.964 223.845 104.305 223.728 103.472L226.109 103.347C226.181 103.699 226.355 103.968 226.631 104.153C226.908 104.335 227.262 104.426 227.694 104.426C228.118 104.426 228.459 104.345 228.717 104.182C228.978 104.015 229.111 103.801 229.114 103.54C229.111 103.32 229.018 103.14 228.836 103C228.654 102.856 228.374 102.746 227.995 102.67L226.484 102.369C225.631 102.199 224.997 101.903 224.58 101.483C224.167 101.062 223.961 100.527 223.961 99.875C223.961 99.3144 224.112 98.8314 224.415 98.4261C224.722 98.0208 225.152 97.7083 225.705 97.4886C226.262 97.2689 226.914 97.1591 227.66 97.1591C228.762 97.1591 229.629 97.392 230.262 97.858C230.898 98.3239 231.27 98.9583 231.376 99.7614ZM240.779 106.17C239.881 106.17 239.109 105.989 238.461 105.625C237.817 105.258 237.321 104.739 236.972 104.068C236.624 103.394 236.45 102.597 236.45 101.676C236.45 100.778 236.624 99.9905 236.972 99.3125C237.321 98.6345 237.811 98.1061 238.444 97.7273C239.08 97.3485 239.826 97.1591 240.683 97.1591C241.258 97.1591 241.794 97.2519 242.29 97.4375C242.79 97.6193 243.226 97.8939 243.597 98.2614C243.972 98.6288 244.264 99.0909 244.472 99.6477C244.681 100.201 244.785 100.848 244.785 101.591V102.256H237.415V100.756H242.506C242.506 100.407 242.431 100.098 242.279 99.8295C242.128 99.5606 241.917 99.3504 241.648 99.1989C241.383 99.0436 241.075 98.9659 240.722 98.9659C240.355 98.9659 240.029 99.0511 239.745 99.2216C239.465 99.3883 239.245 99.6136 239.086 99.8977C238.927 100.178 238.845 100.491 238.842 100.835V102.261C238.842 102.693 238.921 103.066 239.08 103.381C239.243 103.695 239.472 103.938 239.768 104.108C240.063 104.278 240.414 104.364 240.819 104.364C241.088 104.364 241.334 104.326 241.558 104.25C241.781 104.174 241.972 104.061 242.131 103.909C242.29 103.758 242.412 103.572 242.495 103.352L244.734 103.5C244.62 104.038 244.387 104.508 244.035 104.909C243.686 105.307 243.236 105.617 242.683 105.841C242.133 106.061 241.499 106.17 240.779 106.17ZM246.364 106V97.2727H248.671V98.8125H248.773C248.955 98.3011 249.258 97.8977 249.683 97.6023C250.107 97.3068 250.614 97.1591 251.205 97.1591C251.804 97.1591 252.313 97.3087 252.734 97.608C253.154 97.9034 253.434 98.3049 253.575 98.8125H253.665C253.844 98.3125 254.165 97.9129 254.631 97.6136C255.101 97.3106 255.656 97.1591 256.296 97.1591C257.111 97.1591 257.772 97.4186 258.279 97.9375C258.79 98.4527 259.046 99.1837 259.046 100.131V106H256.631V100.608C256.631 100.123 256.503 99.7595 256.245 99.517C255.987 99.2746 255.665 99.1534 255.279 99.1534C254.84 99.1534 254.497 99.2936 254.251 99.5739C254.004 99.8504 253.881 100.216 253.881 100.67V106H251.535V100.557C251.535 100.129 251.412 99.7879 251.165 99.5341C250.923 99.2803 250.603 99.1534 250.205 99.1534C249.936 99.1534 249.694 99.2216 249.478 99.358C249.266 99.4905 249.097 99.678 248.972 99.9205C248.847 100.159 248.785 100.439 248.785 100.761V106H246.364ZM260.958 109.273V97.2727H263.344V98.7386H263.452C263.558 98.5038 263.712 98.2652 263.913 98.0227C264.117 97.7765 264.382 97.572 264.708 97.4091C265.038 97.2424 265.447 97.1591 265.935 97.1591C266.572 97.1591 267.159 97.3258 267.697 97.6591C268.235 97.9886 268.665 98.4867 268.987 99.1534C269.308 99.8163 269.469 100.648 269.469 101.648C269.469 102.621 269.312 103.443 268.998 104.114C268.687 104.78 268.263 105.286 267.725 105.631C267.191 105.972 266.593 106.142 265.93 106.142C265.46 106.142 265.06 106.064 264.731 105.909C264.405 105.754 264.138 105.559 263.93 105.324C263.721 105.085 263.562 104.845 263.452 104.602H263.379V109.273H260.958ZM263.327 101.636C263.327 102.155 263.399 102.608 263.543 102.994C263.687 103.381 263.896 103.682 264.168 103.898C264.441 104.11 264.772 104.216 265.163 104.216C265.557 104.216 265.89 104.108 266.163 103.892C266.435 103.672 266.642 103.369 266.782 102.983C266.926 102.593 266.998 102.144 266.998 101.636C266.998 101.133 266.928 100.689 266.788 100.307C266.647 99.9242 266.441 99.625 266.168 99.4091C265.896 99.1932 265.56 99.0852 265.163 99.0852C264.769 99.0852 264.435 99.1894 264.163 99.3977C263.894 99.6061 263.687 99.9015 263.543 100.284C263.399 100.667 263.327 101.117 263.327 101.636ZM275.725 97.2727V99.0909H270.469V97.2727H275.725ZM271.663 95.1818H274.083V103.318C274.083 103.542 274.117 103.716 274.185 103.841C274.254 103.962 274.348 104.047 274.469 104.097C274.594 104.146 274.738 104.17 274.901 104.17C275.015 104.17 275.129 104.161 275.242 104.142C275.356 104.119 275.443 104.102 275.504 104.091L275.884 105.892C275.763 105.93 275.593 105.973 275.373 106.023C275.153 106.076 274.886 106.108 274.572 106.119C273.988 106.142 273.477 106.064 273.038 105.886C272.602 105.708 272.263 105.432 272.021 105.057C271.778 104.682 271.659 104.208 271.663 103.636V95.1818ZM279.91 100.955V106H277.489V94.3636H279.842V98.8125H279.944C280.141 98.2973 280.459 97.8939 280.898 97.6023C281.338 97.3068 281.889 97.1591 282.552 97.1591C283.158 97.1591 283.686 97.2917 284.137 97.5568C284.592 97.8182 284.944 98.1951 285.194 98.6875C285.448 99.1761 285.573 99.7614 285.569 100.443V106H283.148V100.875C283.152 100.337 283.016 99.9186 282.739 99.6193C282.467 99.3201 282.084 99.1705 281.592 99.1705C281.262 99.1705 280.97 99.2405 280.717 99.3807C280.467 99.5208 280.27 99.7254 280.126 99.9943C279.986 100.259 279.914 100.58 279.91 100.955ZM288.656 109.273C288.349 109.273 288.061 109.248 287.792 109.199C287.527 109.153 287.307 109.095 287.133 109.023L287.678 107.216C287.962 107.303 288.218 107.35 288.445 107.358C288.676 107.366 288.875 107.313 289.042 107.199C289.212 107.085 289.351 106.892 289.457 106.619L289.599 106.25L286.468 97.2727H289.013L290.82 103.682H290.911L292.735 97.2727H295.298L291.906 106.943C291.743 107.413 291.521 107.822 291.241 108.17C290.964 108.523 290.614 108.794 290.19 108.983C289.765 109.176 289.254 109.273 288.656 109.273Z" fill="#09090B"/>
<path d="M64.9201 130V121.273H65.9769V125.159H70.6303V121.273H71.6871V130H70.6303V126.097H65.9769V130H64.9201ZM77.7915 127.324V123.455H78.7972V130H77.7915V128.892H77.7234C77.57 129.224 77.3313 129.507 77.0075 129.74C76.6836 129.97 76.2745 130.085 75.7802 130.085C75.3711 130.085 75.0075 129.996 74.6893 129.817C74.3711 129.635 74.1211 129.362 73.9393 128.999C73.7575 128.632 73.6665 128.17 73.6665 127.614V123.455H74.6722V127.545C74.6722 128.023 74.8058 128.403 75.0728 128.688C75.3427 128.972 75.6864 129.114 76.104 129.114C76.354 129.114 76.6083 129.05 76.8668 128.922C77.1282 128.794 77.3469 128.598 77.5231 128.334C77.7021 128.07 77.7915 127.733 77.7915 127.324ZM81.6449 126.062V130H80.6392V123.455H81.6108V124.477H81.696C81.8494 124.145 82.0824 123.878 82.3949 123.676C82.7074 123.472 83.1108 123.369 83.6051 123.369C84.0483 123.369 84.4361 123.46 84.7685 123.642C85.1009 123.821 85.3594 124.094 85.544 124.46C85.7287 124.824 85.821 125.284 85.821 125.841V130H84.8153V125.909C84.8153 125.395 84.6818 124.994 84.4148 124.707C84.1477 124.418 83.7813 124.273 83.3153 124.273C82.9943 124.273 82.7074 124.342 82.4545 124.482C82.2045 124.621 82.0071 124.824 81.8622 125.091C81.7173 125.358 81.6449 125.682 81.6449 126.062ZM90.3008 132.591C89.815 132.591 89.3974 132.528 89.0479 132.403C88.6985 132.281 88.4073 132.119 88.1744 131.918C87.9442 131.719 87.761 131.506 87.6246 131.278L88.4258 130.716C88.5167 130.835 88.6317 130.972 88.771 131.125C88.9102 131.281 89.1005 131.416 89.342 131.53C89.5863 131.646 89.9059 131.705 90.3008 131.705C90.8292 131.705 91.2653 131.577 91.609 131.321C91.9528 131.065 92.1246 130.665 92.1246 130.119V128.79H92.0394C91.9656 128.909 91.8604 129.057 91.7241 129.233C91.5906 129.406 91.3974 129.561 91.1445 129.697C90.8945 129.831 90.5565 129.898 90.1303 129.898C89.6019 129.898 89.1275 129.773 88.707 129.523C88.2894 129.273 87.9585 128.909 87.7141 128.432C87.4727 127.955 87.3519 127.375 87.3519 126.693C87.3519 126.023 87.4698 125.439 87.7056 124.942C87.9414 124.442 88.2695 124.055 88.69 123.783C89.1104 123.507 89.5962 123.369 90.1474 123.369C90.5735 123.369 90.9116 123.44 91.1616 123.582C91.4144 123.722 91.6076 123.881 91.7411 124.06C91.8775 124.236 91.9826 124.381 92.0565 124.494H92.1587V123.455H93.1303V130.188C93.1303 130.75 93.0025 131.207 92.7468 131.56C92.494 131.915 92.1531 132.175 91.7241 132.339C91.2979 132.507 90.8235 132.591 90.3008 132.591ZM90.2667 128.994C90.6701 128.994 91.011 128.902 91.2894 128.717C91.5678 128.533 91.7795 128.267 91.9244 127.92C92.0692 127.574 92.1417 127.159 92.1417 126.676C92.1417 126.205 92.0707 125.788 91.9286 125.428C91.7866 125.067 91.5763 124.784 91.2979 124.58C91.0195 124.375 90.6758 124.273 90.2667 124.273C89.8406 124.273 89.4854 124.381 89.2013 124.597C88.9201 124.812 88.7085 125.102 88.5664 125.466C88.4272 125.83 88.3576 126.233 88.3576 126.676C88.3576 127.131 88.4286 127.533 88.5707 127.882C88.7156 128.229 88.9286 128.501 89.2099 128.7C89.494 128.896 89.8462 128.994 90.2667 128.994ZM94.9712 130V123.455H95.9428V124.443H96.011C96.1303 124.119 96.3462 123.857 96.6587 123.655C96.9712 123.453 97.3235 123.352 97.7156 123.352C97.7894 123.352 97.8817 123.354 97.9925 123.357C98.1033 123.359 98.1871 123.364 98.244 123.369V124.392C98.2099 124.384 98.1317 124.371 98.0096 124.354C97.8903 124.334 97.7638 124.324 97.6303 124.324C97.3121 124.324 97.0281 124.391 96.7781 124.524C96.5309 124.655 96.3349 124.837 96.19 125.07C96.0479 125.3 95.9769 125.562 95.9769 125.858V130H94.9712ZM100.283 132.455C100.113 132.455 99.9606 132.44 99.8271 132.412C99.6935 132.386 99.6012 132.361 99.5501 132.335L99.8058 131.449C100.05 131.511 100.266 131.534 100.453 131.517C100.641 131.5 100.807 131.416 100.952 131.266C101.1 131.118 101.235 130.878 101.357 130.545L101.544 130.034L99.1239 123.455H100.215L102.022 128.67H102.09L103.897 123.455H104.988L102.209 130.955C102.084 131.293 101.929 131.572 101.745 131.794C101.56 132.018 101.346 132.185 101.101 132.293C100.86 132.401 100.587 132.455 100.283 132.455ZM107.627 127.545V127.494C107.633 126.952 107.69 126.52 107.798 126.199C107.906 125.878 108.059 125.618 108.258 125.419C108.457 125.22 108.696 125.037 108.974 124.869C109.142 124.767 109.292 124.646 109.426 124.507C109.559 124.365 109.664 124.202 109.741 124.017C109.821 123.832 109.86 123.628 109.86 123.403C109.86 123.125 109.795 122.884 109.664 122.679C109.534 122.474 109.359 122.317 109.14 122.206C108.922 122.095 108.679 122.04 108.412 122.04C108.179 122.04 107.954 122.088 107.738 122.185C107.522 122.281 107.342 122.433 107.197 122.641C107.052 122.848 106.968 123.119 106.946 123.455H105.872C105.895 122.972 106.02 122.558 106.247 122.214C106.477 121.871 106.779 121.608 107.154 121.426C107.532 121.244 107.951 121.153 108.412 121.153C108.912 121.153 109.346 121.253 109.716 121.452C110.088 121.651 110.375 121.923 110.576 122.27C110.781 122.616 110.883 123.011 110.883 123.455C110.883 123.767 110.835 124.05 110.738 124.303C110.645 124.555 110.508 124.781 110.329 124.98C110.153 125.179 109.94 125.355 109.69 125.509C109.44 125.665 109.24 125.83 109.089 126.003C108.939 126.173 108.829 126.376 108.761 126.612C108.693 126.848 108.656 127.142 108.65 127.494V127.545H107.627ZM108.173 130.068C107.963 130.068 107.782 129.993 107.632 129.842C107.481 129.692 107.406 129.511 107.406 129.301C107.406 129.091 107.481 128.911 107.632 128.76C107.782 128.609 107.963 128.534 108.173 128.534C108.383 128.534 108.564 128.609 108.714 128.76C108.865 128.911 108.94 129.091 108.94 129.301C108.94 129.44 108.904 129.568 108.833 129.685C108.765 129.801 108.673 129.895 108.556 129.966C108.443 130.034 108.315 130.068 108.173 130.068ZM114.852 130.84H126.852V118.84H114.852V130.84ZM131.641 130H130.533L133.738 121.273H134.829L138.033 130H136.925L134.317 122.653H134.249L131.641 130ZM132.05 126.591H136.516V127.528H132.05V126.591ZM141.728 130.136C141.183 130.136 140.701 129.999 140.283 129.723C139.866 129.445 139.539 129.053 139.303 128.547C139.067 128.038 138.95 127.438 138.95 126.744C138.95 126.057 139.067 125.46 139.303 124.955C139.539 124.449 139.867 124.058 140.288 123.783C140.708 123.507 141.194 123.369 141.745 123.369C142.171 123.369 142.508 123.44 142.755 123.582C143.005 123.722 143.195 123.881 143.326 124.06C143.46 124.236 143.563 124.381 143.637 124.494H143.722V121.273H144.728V130H143.756V128.994H143.637C143.563 129.114 143.458 129.264 143.322 129.446C143.185 129.625 142.991 129.786 142.738 129.928C142.485 130.067 142.148 130.136 141.728 130.136ZM141.864 129.233C142.268 129.233 142.609 129.128 142.887 128.918C143.165 128.705 143.377 128.411 143.522 128.036C143.667 127.658 143.739 127.222 143.739 126.727C143.739 126.239 143.668 125.811 143.526 125.445C143.384 125.075 143.174 124.788 142.896 124.584C142.617 124.376 142.273 124.273 141.864 124.273C141.438 124.273 141.083 124.382 140.799 124.601C140.518 124.817 140.306 125.111 140.164 125.483C140.025 125.852 139.955 126.267 139.955 126.727C139.955 127.193 140.026 127.616 140.168 127.997C140.313 128.375 140.526 128.676 140.808 128.901C141.092 129.122 141.444 129.233 141.864 129.233ZM149.181 130.136C148.636 130.136 148.154 129.999 147.737 129.723C147.319 129.445 146.992 129.053 146.756 128.547C146.521 128.038 146.403 127.438 146.403 126.744C146.403 126.057 146.521 125.46 146.756 124.955C146.992 124.449 147.32 124.058 147.741 123.783C148.161 123.507 148.647 123.369 149.198 123.369C149.624 123.369 149.961 123.44 150.208 123.582C150.458 123.722 150.648 123.881 150.779 124.06C150.913 124.236 151.016 124.381 151.09 124.494H151.175V121.273H152.181V130H151.21V128.994H151.09C151.016 129.114 150.911 129.264 150.775 129.446C150.638 129.625 150.444 129.786 150.191 129.928C149.938 130.067 149.602 130.136 149.181 130.136ZM149.317 129.233C149.721 129.233 150.062 129.128 150.34 128.918C150.619 128.705 150.83 128.411 150.975 128.036C151.12 127.658 151.192 127.222 151.192 126.727C151.192 126.239 151.121 125.811 150.979 125.445C150.837 125.075 150.627 124.788 150.349 124.584C150.07 124.376 149.727 124.273 149.317 124.273C148.891 124.273 148.536 124.382 148.252 124.601C147.971 124.817 147.759 125.111 147.617 125.483C147.478 125.852 147.408 126.267 147.408 126.727C147.408 127.193 147.479 127.616 147.621 127.997C147.766 128.375 147.979 128.676 148.261 128.901C148.545 129.122 148.897 129.233 149.317 129.233ZM162.174 124.92L161.271 125.176C161.214 125.026 161.13 124.879 161.019 124.737C160.911 124.592 160.763 124.473 160.576 124.379C160.388 124.286 160.148 124.239 159.856 124.239C159.455 124.239 159.121 124.331 158.854 124.516C158.59 124.697 158.458 124.929 158.458 125.21C158.458 125.46 158.549 125.658 158.731 125.803C158.913 125.947 159.197 126.068 159.583 126.165L160.555 126.403C161.14 126.545 161.576 126.763 161.863 127.055C162.15 127.345 162.293 127.719 162.293 128.176C162.293 128.551 162.185 128.886 161.969 129.182C161.756 129.477 161.458 129.71 161.075 129.881C160.691 130.051 160.245 130.136 159.737 130.136C159.069 130.136 158.516 129.991 158.079 129.702C157.641 129.412 157.364 128.989 157.248 128.432L158.202 128.193C158.293 128.545 158.465 128.81 158.718 128.986C158.974 129.162 159.308 129.25 159.719 129.25C160.188 129.25 160.56 129.151 160.836 128.952C161.114 128.75 161.254 128.509 161.254 128.227C161.254 128 161.174 127.81 161.015 127.656C160.856 127.5 160.612 127.384 160.282 127.307L159.191 127.051C158.592 126.909 158.151 126.689 157.87 126.391C157.592 126.089 157.452 125.713 157.452 125.261C157.452 124.892 157.556 124.565 157.763 124.281C157.974 123.997 158.259 123.774 158.62 123.612C158.984 123.45 159.396 123.369 159.856 123.369C160.504 123.369 161.012 123.511 161.381 123.795C161.754 124.08 162.018 124.455 162.174 124.92ZM166.466 130.136C165.875 130.136 165.357 129.996 164.911 129.714C164.468 129.433 164.121 129.04 163.871 128.534C163.624 128.028 163.5 127.437 163.5 126.761C163.5 126.08 163.624 125.484 163.871 124.976C164.121 124.467 164.468 124.072 164.911 123.791C165.357 123.51 165.875 123.369 166.466 123.369C167.057 123.369 167.574 123.51 168.017 123.791C168.463 124.072 168.81 124.467 169.057 124.976C169.307 125.484 169.432 126.08 169.432 126.761C169.432 127.437 169.307 128.028 169.057 128.534C168.81 129.04 168.463 129.433 168.017 129.714C167.574 129.996 167.057 130.136 166.466 130.136ZM166.466 129.233C166.915 129.233 167.284 129.118 167.574 128.888C167.864 128.658 168.078 128.355 168.218 127.98C168.357 127.605 168.426 127.199 168.426 126.761C168.426 126.324 168.357 125.916 168.218 125.538C168.078 125.161 167.864 124.855 167.574 124.622C167.284 124.389 166.915 124.273 166.466 124.273C166.017 124.273 165.648 124.389 165.358 124.622C165.069 124.855 164.854 125.161 164.715 125.538C164.576 125.916 164.506 126.324 164.506 126.761C164.506 127.199 164.576 127.605 164.715 127.98C164.854 128.355 165.069 128.658 165.358 128.888C165.648 129.118 166.017 129.233 166.466 129.233ZM170.967 130V123.455H171.939V124.477H172.024C172.161 124.128 172.381 123.857 172.685 123.663C172.989 123.467 173.354 123.369 173.78 123.369C174.212 123.369 174.571 123.467 174.858 123.663C175.148 123.857 175.374 124.128 175.536 124.477H175.604C175.771 124.139 176.023 123.871 176.358 123.672C176.693 123.47 177.095 123.369 177.564 123.369C178.149 123.369 178.628 123.553 179 123.919C179.372 124.283 179.558 124.849 179.558 125.619V130H178.553V125.619C178.553 125.136 178.42 124.791 178.156 124.584C177.892 124.376 177.581 124.273 177.223 124.273C176.763 124.273 176.406 124.412 176.153 124.69C175.901 124.966 175.774 125.315 175.774 125.739V130H174.751V125.517C174.751 125.145 174.631 124.845 174.389 124.618C174.148 124.388 173.837 124.273 173.456 124.273C173.195 124.273 172.95 124.342 172.723 124.482C172.499 124.621 172.317 124.814 172.178 125.061C172.041 125.305 171.973 125.588 171.973 125.909V130H170.967ZM184.141 130.136C183.511 130.136 182.967 129.997 182.509 129.719C182.055 129.438 181.704 129.045 181.457 128.543C181.212 128.037 181.09 127.449 181.09 126.778C181.09 126.108 181.212 125.517 181.457 125.006C181.704 124.491 182.048 124.091 182.488 123.804C182.931 123.514 183.448 123.369 184.039 123.369C184.38 123.369 184.717 123.426 185.049 123.54C185.381 123.653 185.684 123.838 185.957 124.094C186.229 124.347 186.447 124.682 186.609 125.099C186.771 125.517 186.852 126.031 186.852 126.642V127.068H181.806V126.199H185.829C185.829 125.83 185.755 125.5 185.607 125.21C185.462 124.92 185.255 124.692 184.985 124.524C184.718 124.357 184.403 124.273 184.039 124.273C183.638 124.273 183.292 124.372 182.999 124.571C182.71 124.767 182.487 125.023 182.33 125.338C182.174 125.653 182.096 125.991 182.096 126.352V126.932C182.096 127.426 182.181 127.845 182.352 128.189C182.525 128.53 182.765 128.79 183.072 128.969C183.379 129.145 183.735 129.233 184.141 129.233C184.406 129.233 184.644 129.196 184.857 129.122C185.073 129.045 185.259 128.932 185.415 128.781C185.572 128.628 185.692 128.437 185.778 128.21L186.749 128.483C186.647 128.812 186.475 129.102 186.234 129.352C185.992 129.599 185.694 129.793 185.339 129.932C184.984 130.068 184.585 130.136 184.141 130.136ZM194.228 130.136C193.683 130.136 193.201 129.999 192.783 129.723C192.366 129.445 192.039 129.053 191.803 128.547C191.567 128.038 191.45 127.438 191.45 126.744C191.45 126.057 191.567 125.46 191.803 124.955C192.039 124.449 192.367 124.058 192.788 123.783C193.208 123.507 193.694 123.369 194.245 123.369C194.671 123.369 195.008 123.44 195.255 123.582C195.505 123.722 195.695 123.881 195.826 124.06C195.96 124.236 196.063 124.381 196.137 124.494H196.222V121.273H197.228V130H196.256V128.994H196.137C196.063 129.114 195.958 129.264 195.822 129.446C195.685 129.625 195.491 129.786 195.238 129.928C194.985 130.067 194.648 130.136 194.228 130.136ZM194.364 129.233C194.768 129.233 195.109 129.128 195.387 128.918C195.665 128.705 195.877 128.411 196.022 128.036C196.167 127.658 196.239 127.222 196.239 126.727C196.239 126.239 196.168 125.811 196.026 125.445C195.884 125.075 195.674 124.788 195.396 124.584C195.117 124.376 194.773 124.273 194.364 124.273C193.938 124.273 193.583 124.382 193.299 124.601C193.018 124.817 192.806 125.111 192.664 125.483C192.525 125.852 192.455 126.267 192.455 126.727C192.455 127.193 192.526 127.616 192.668 127.997C192.813 128.375 193.026 128.676 193.308 128.901C193.592 129.122 193.944 129.233 194.364 129.233ZM201.954 130.136C201.323 130.136 200.779 129.997 200.322 129.719C199.867 129.438 199.516 129.045 199.269 128.543C199.025 128.037 198.903 127.449 198.903 126.778C198.903 126.108 199.025 125.517 199.269 125.006C199.516 124.491 199.86 124.091 200.3 123.804C200.744 123.514 201.261 123.369 201.852 123.369C202.192 123.369 202.529 123.426 202.862 123.54C203.194 123.653 203.496 123.838 203.769 124.094C204.042 124.347 204.259 124.682 204.421 125.099C204.583 125.517 204.664 126.031 204.664 126.642V127.068H199.619V126.199H203.641C203.641 125.83 203.567 125.5 203.42 125.21C203.275 124.92 203.067 124.692 202.798 124.524C202.531 124.357 202.215 124.273 201.852 124.273C201.451 124.273 201.104 124.372 200.812 124.571C200.522 124.767 200.299 125.023 200.143 125.338C199.987 125.653 199.908 125.991 199.908 126.352V126.932C199.908 127.426 199.994 127.845 200.164 128.189C200.337 128.53 200.577 128.79 200.884 128.969C201.191 129.145 201.548 129.233 201.954 129.233C202.218 129.233 202.457 129.196 202.67 129.122C202.886 129.045 203.072 128.932 203.228 128.781C203.384 128.628 203.505 128.437 203.59 128.21L204.562 128.483C204.46 128.812 204.288 129.102 204.046 129.352C203.805 129.599 203.506 129.793 203.151 129.932C202.796 130.068 202.397 130.136 201.954 130.136ZM207.2 121.273V130H206.194V121.273H207.2ZM209.042 130V123.455H210.047V130H209.042ZM209.553 122.364C209.357 122.364 209.188 122.297 209.046 122.163C208.907 122.03 208.837 121.869 208.837 121.682C208.837 121.494 208.907 121.334 209.046 121.2C209.188 121.067 209.357 121 209.553 121C209.749 121 209.917 121.067 210.056 121.2C210.198 121.334 210.269 121.494 210.269 121.682C210.269 121.869 210.198 122.03 210.056 122.163C209.917 122.297 209.749 122.364 209.553 122.364ZM214.548 130.136C213.935 130.136 213.406 129.991 212.963 129.702C212.52 129.412 212.179 129.013 211.94 128.504C211.702 127.996 211.582 127.415 211.582 126.761C211.582 126.097 211.705 125.51 211.949 125.001C212.196 124.49 212.54 124.091 212.98 123.804C213.423 123.514 213.94 123.369 214.531 123.369C214.991 123.369 215.406 123.455 215.776 123.625C216.145 123.795 216.447 124.034 216.683 124.341C216.919 124.648 217.065 125.006 217.122 125.415H216.116C216.04 125.116 215.869 124.852 215.605 124.622C215.344 124.389 214.991 124.273 214.548 124.273C214.156 124.273 213.813 124.375 213.517 124.58C213.224 124.781 212.996 125.067 212.831 125.436C212.669 125.803 212.588 126.233 212.588 126.727C212.588 127.233 212.668 127.673 212.827 128.048C212.989 128.423 213.216 128.714 213.509 128.922C213.804 129.129 214.151 129.233 214.548 129.233C214.81 129.233 215.047 129.188 215.26 129.097C215.473 129.006 215.653 128.875 215.801 128.705C215.949 128.534 216.054 128.33 216.116 128.091H217.122C217.065 128.477 216.925 128.825 216.7 129.135C216.479 129.442 216.185 129.686 215.818 129.868C215.455 130.047 215.031 130.136 214.548 130.136ZM218.592 130V123.455H219.598V130H218.592ZM219.104 122.364C218.908 122.364 218.739 122.297 218.597 122.163C218.457 122.03 218.388 121.869 218.388 121.682C218.388 121.494 218.457 121.334 218.597 121.2C218.739 121.067 218.908 121 219.104 121C219.3 121 219.467 121.067 219.607 121.2C219.749 121.334 219.82 121.494 219.82 121.682C219.82 121.869 219.749 122.03 219.607 122.163C219.467 122.297 219.3 122.364 219.104 122.364ZM224.099 130.136C223.508 130.136 222.99 129.996 222.544 129.714C222.1 129.433 221.754 129.04 221.504 128.534C221.257 128.028 221.133 127.437 221.133 126.761C221.133 126.08 221.257 125.484 221.504 124.976C221.754 124.467 222.1 124.072 222.544 123.791C222.99 123.51 223.508 123.369 224.099 123.369C224.69 123.369 225.207 123.51 225.65 123.791C226.096 124.072 226.443 124.467 226.69 124.976C226.94 125.484 227.065 126.08 227.065 126.761C227.065 127.437 226.94 128.028 226.69 128.534C226.443 129.04 226.096 129.433 225.65 129.714C225.207 129.996 224.69 130.136 224.099 130.136ZM224.099 129.233C224.548 129.233 224.917 129.118 225.207 128.888C225.497 128.658 225.711 128.355 225.85 127.98C225.99 127.605 226.059 127.199 226.059 126.761C226.059 126.324 225.99 125.916 225.85 125.538C225.711 125.161 225.497 124.855 225.207 124.622C224.917 124.389 224.548 124.273 224.099 124.273C223.65 124.273 223.281 124.389 222.991 124.622C222.701 124.855 222.487 125.161 222.348 125.538C222.208 125.916 222.139 126.324 222.139 126.761C222.139 127.199 222.208 127.605 222.348 127.98C222.487 128.355 222.701 128.658 222.991 128.888C223.281 129.118 223.65 129.233 224.099 129.233ZM232.725 127.324V123.455H233.731V130H232.725V128.892H232.657C232.504 129.224 232.265 129.507 231.941 129.74C231.617 129.97 231.208 130.085 230.714 130.085C230.305 130.085 229.941 129.996 229.623 129.817C229.305 129.635 229.055 129.362 228.873 128.999C228.691 128.632 228.6 128.17 228.6 127.614V123.455H229.606V127.545C229.606 128.023 229.739 128.403 230.006 128.688C230.276 128.972 230.62 129.114 231.038 129.114C231.288 129.114 231.542 129.05 231.8 128.922C232.062 128.794 232.281 128.598 232.457 128.334C232.636 128.07 232.725 127.733 232.725 127.324ZM240.209 124.92L239.306 125.176C239.249 125.026 239.165 124.879 239.054 124.737C238.946 124.592 238.799 124.473 238.611 124.379C238.424 124.286 238.184 124.239 237.891 124.239C237.49 124.239 237.157 124.331 236.89 124.516C236.625 124.697 236.493 124.929 236.493 125.21C236.493 125.46 236.584 125.658 236.766 125.803C236.948 125.947 237.232 126.068 237.618 126.165L238.59 126.403C239.175 126.545 239.611 126.763 239.898 127.055C240.185 127.345 240.328 127.719 240.328 128.176C240.328 128.551 240.221 128.886 240.005 129.182C239.792 129.477 239.493 129.71 239.11 129.881C238.726 130.051 238.28 130.136 237.772 130.136C237.104 130.136 236.551 129.991 236.114 129.702C235.676 129.412 235.4 128.989 235.283 128.432L236.238 128.193C236.328 128.545 236.5 128.81 236.753 128.986C237.009 129.162 237.343 129.25 237.755 129.25C238.223 129.25 238.596 129.151 238.871 128.952C239.15 128.75 239.289 128.509 239.289 128.227C239.289 128 239.209 127.81 239.05 127.656C238.891 127.5 238.647 127.384 238.317 127.307L237.226 127.051C236.627 126.909 236.186 126.689 235.905 126.391C235.627 126.089 235.488 125.713 235.488 125.261C235.488 124.892 235.591 124.565 235.799 124.281C236.009 123.997 236.294 123.774 236.655 123.612C237.019 123.45 237.431 123.369 237.891 123.369C238.539 123.369 239.047 123.511 239.417 123.795C239.789 124.08 240.053 124.455 240.209 124.92ZM247.689 130.136C247.143 130.136 246.662 129.999 246.244 129.723C245.827 129.445 245.5 129.053 245.264 128.547C245.028 128.038 244.911 127.438 244.911 126.744C244.911 126.057 245.028 125.46 245.264 124.955C245.5 124.449 245.828 124.058 246.249 123.783C246.669 123.507 247.155 123.369 247.706 123.369C248.132 123.369 248.469 123.44 248.716 123.582C248.966 123.722 249.156 123.881 249.287 124.06C249.42 124.236 249.524 124.381 249.598 124.494H249.683V121.273H250.689V130H249.717V128.994H249.598C249.524 129.114 249.419 129.264 249.283 129.446C249.146 129.625 248.952 129.786 248.699 129.928C248.446 130.067 248.109 130.136 247.689 130.136ZM247.825 129.233C248.229 129.233 248.57 129.128 248.848 128.918C249.126 128.705 249.338 128.411 249.483 128.036C249.628 127.658 249.7 127.222 249.7 126.727C249.7 126.239 249.629 125.811 249.487 125.445C249.345 125.075 249.135 124.788 248.857 124.584C248.578 124.376 248.234 124.273 247.825 124.273C247.399 124.273 247.044 124.382 246.76 124.601C246.479 124.817 246.267 125.111 246.125 125.483C245.986 125.852 245.916 126.267 245.916 126.727C245.916 127.193 245.987 127.616 246.129 127.997C246.274 128.375 246.487 128.676 246.768 128.901C247.053 129.122 247.405 129.233 247.825 129.233ZM252.67 130V123.455H253.676V130H252.67ZM253.182 122.364C252.986 122.364 252.817 122.297 252.675 122.163C252.536 122.03 252.466 121.869 252.466 121.682C252.466 121.494 252.536 121.334 252.675 121.2C252.817 121.067 252.986 121 253.182 121C253.378 121 253.545 121.067 253.685 121.2C253.827 121.334 253.898 121.494 253.898 121.682C253.898 121.869 253.827 122.03 253.685 122.163C253.545 122.297 253.378 122.364 253.182 122.364ZM260.154 124.92L259.251 125.176C259.194 125.026 259.11 124.879 259 124.737C258.892 124.592 258.744 124.473 258.556 124.379C258.369 124.286 258.129 124.239 257.836 124.239C257.436 124.239 257.102 124.331 256.835 124.516C256.571 124.697 256.439 124.929 256.439 125.21C256.439 125.46 256.529 125.658 256.711 125.803C256.893 125.947 257.177 126.068 257.564 126.165L258.535 126.403C259.12 126.545 259.556 126.763 259.843 127.055C260.13 127.345 260.274 127.719 260.274 128.176C260.274 128.551 260.166 128.886 259.95 129.182C259.737 129.477 259.439 129.71 259.055 129.881C258.672 130.051 258.225 130.136 257.717 130.136C257.049 130.136 256.497 129.991 256.059 129.702C255.622 129.412 255.345 128.989 255.228 128.432L256.183 128.193C256.274 128.545 256.446 128.81 256.699 128.986C256.954 129.162 257.288 129.25 257.7 129.25C258.169 129.25 258.541 129.151 258.816 128.952C259.095 128.75 259.234 128.509 259.234 128.227C259.234 128 259.154 127.81 258.995 127.656C258.836 127.5 258.592 127.384 258.262 127.307L257.172 127.051C256.572 126.909 256.132 126.689 255.85 126.391C255.572 126.089 255.433 125.713 255.433 125.261C255.433 124.892 255.537 124.565 255.744 124.281C255.954 123.997 256.24 123.774 256.6 123.612C256.964 123.45 257.376 123.369 257.836 123.369C258.484 123.369 258.993 123.511 259.362 123.795C259.734 124.08 259.998 124.455 260.154 124.92ZM262.793 126.062V130H261.788V121.273H262.793V124.477H262.879C263.032 124.139 263.262 123.871 263.569 123.672C263.879 123.47 264.29 123.369 264.805 123.369C265.251 123.369 265.641 123.459 265.977 123.638C266.312 123.814 266.572 124.085 266.756 124.452C266.944 124.815 267.038 125.278 267.038 125.841V130H266.032V125.909C266.032 125.389 265.897 124.987 265.627 124.703C265.36 124.416 264.989 124.273 264.515 124.273C264.185 124.273 263.89 124.342 263.629 124.482C263.37 124.621 263.165 124.824 263.015 125.091C262.867 125.358 262.793 125.682 262.793 126.062ZM271.622 130.136C270.991 130.136 270.447 129.997 269.99 129.719C269.535 129.438 269.184 129.045 268.937 128.543C268.693 128.037 268.571 127.449 268.571 126.778C268.571 126.108 268.693 125.517 268.937 125.006C269.184 124.491 269.528 124.091 269.968 123.804C270.412 123.514 270.929 123.369 271.52 123.369C271.86 123.369 272.197 123.426 272.529 123.54C272.862 123.653 273.164 123.838 273.437 124.094C273.71 124.347 273.927 124.682 274.089 125.099C274.251 125.517 274.332 126.031 274.332 126.642V127.068H269.287V126.199H273.309C273.309 125.83 273.235 125.5 273.088 125.21C272.943 124.92 272.735 124.692 272.466 124.524C272.199 124.357 271.883 124.273 271.52 124.273C271.119 124.273 270.772 124.372 270.48 124.571C270.19 124.767 269.967 125.023 269.811 125.338C269.654 125.653 269.576 125.991 269.576 126.352V126.932C269.576 127.426 269.662 127.845 269.832 128.189C270.005 128.53 270.245 128.79 270.552 128.969C270.859 129.145 271.216 129.233 271.622 129.233C271.886 129.233 272.125 129.196 272.338 129.122C272.554 129.045 272.74 128.932 272.896 128.781C273.052 128.628 273.173 128.437 273.258 128.21L274.23 128.483C274.127 128.812 273.956 129.102 273.714 129.352C273.473 129.599 273.174 129.793 272.819 129.932C272.464 130.068 272.065 130.136 271.622 130.136ZM280.498 124.92L279.595 125.176C279.538 125.026 279.454 124.879 279.343 124.737C279.235 124.592 279.088 124.473 278.9 124.379C278.713 124.286 278.473 124.239 278.18 124.239C277.779 124.239 277.446 124.331 277.179 124.516C276.914 124.697 276.782 124.929 276.782 125.21C276.782 125.46 276.873 125.658 277.055 125.803C277.237 125.947 277.521 126.068 277.907 126.165L278.879 126.403C279.464 126.545 279.9 126.763 280.187 127.055C280.474 127.345 280.618 127.719 280.618 128.176C280.618 128.551 280.51 128.886 280.294 129.182C280.081 129.477 279.782 129.71 279.399 129.881C279.015 130.051 278.569 130.136 278.061 130.136C277.393 130.136 276.841 129.991 276.403 129.702C275.966 129.412 275.689 128.989 275.572 128.432L276.527 128.193C276.618 128.545 276.789 128.81 277.042 128.986C277.298 129.162 277.632 129.25 278.044 129.25C278.512 129.25 278.885 129.151 279.16 128.952C279.439 128.75 279.578 128.509 279.578 128.227C279.578 128 279.498 127.81 279.339 127.656C279.18 127.5 278.936 127.384 278.606 127.307L277.515 127.051C276.916 126.909 276.475 126.689 276.194 126.391C275.916 126.089 275.777 125.713 275.777 125.261C275.777 124.892 275.88 124.565 276.088 124.281C276.298 123.997 276.583 123.774 276.944 123.612C277.308 123.45 277.72 123.369 278.18 123.369C278.828 123.369 279.336 123.511 279.706 123.795C280.078 124.08 280.342 124.455 280.498 124.92ZM288.353 123.455V124.307H284.961V123.455H288.353ZM285.95 121.886H286.955V128.125C286.955 128.409 286.996 128.622 287.079 128.764C287.164 128.903 287.272 128.997 287.403 129.045C287.536 129.091 287.677 129.114 287.825 129.114C287.935 129.114 288.026 129.108 288.097 129.097C288.168 129.082 288.225 129.071 288.268 129.062L288.472 129.966C288.404 129.991 288.309 130.017 288.187 130.043C288.065 130.071 287.91 130.085 287.722 130.085C287.438 130.085 287.16 130.024 286.887 129.902C286.617 129.78 286.393 129.594 286.214 129.344C286.038 129.094 285.95 128.778 285.95 128.398V121.886ZM292.455 130.136C291.864 130.136 291.345 129.996 290.899 129.714C290.456 129.433 290.109 129.04 289.859 128.534C289.612 128.028 289.489 127.437 289.489 126.761C289.489 126.08 289.612 125.484 289.859 124.976C290.109 124.467 290.456 124.072 290.899 123.791C291.345 123.51 291.864 123.369 292.455 123.369C293.045 123.369 293.563 123.51 294.006 123.791C294.452 124.072 294.798 124.467 295.045 124.976C295.295 125.484 295.42 126.08 295.42 126.761C295.42 127.437 295.295 128.028 295.045 128.534C294.798 129.04 294.452 129.433 294.006 129.714C293.563 129.996 293.045 130.136 292.455 130.136ZM292.455 129.233C292.903 129.233 293.273 129.118 293.562 128.888C293.852 128.658 294.067 128.355 294.206 127.98C294.345 127.605 294.415 127.199 294.415 126.761C294.415 126.324 294.345 125.916 294.206 125.538C294.067 125.161 293.852 124.855 293.562 124.622C293.273 124.389 292.903 124.273 292.455 124.273C292.006 124.273 291.636 124.389 291.347 124.622C291.057 124.855 290.842 125.161 290.703 125.538C290.564 125.916 290.494 126.324 290.494 126.761C290.494 127.199 290.564 127.605 290.703 127.98C290.842 128.355 291.057 128.658 291.347 128.888C291.636 129.118 292.006 129.233 292.455 129.233ZM300.978 132.455C300.808 132.455 300.656 132.44 300.522 132.412C300.389 132.386 300.297 132.361 300.245 132.335L300.501 131.449C300.745 131.511 300.961 131.534 301.149 131.517C301.336 131.5 301.502 131.416 301.647 131.266C301.795 131.118 301.93 130.878 302.052 130.545L302.24 130.034L299.819 123.455H300.91L302.717 128.67H302.785L304.592 123.455H305.683L302.904 130.955C302.779 131.293 302.625 131.572 302.44 131.794C302.255 132.018 302.041 132.185 301.797 132.293C301.555 132.401 301.282 132.455 300.978 132.455ZM309.435 130.136C308.844 130.136 308.326 129.996 307.88 129.714C307.436 129.433 307.09 129.04 306.84 128.534C306.593 128.028 306.469 127.437 306.469 126.761C306.469 126.08 306.593 125.484 306.84 124.976C307.09 124.467 307.436 124.072 307.88 123.791C308.326 123.51 308.844 123.369 309.435 123.369C310.026 123.369 310.543 123.51 310.986 123.791C311.432 124.072 311.779 124.467 312.026 124.976C312.276 125.484 312.401 126.08 312.401 126.761C312.401 127.437 312.276 128.028 312.026 128.534C311.779 129.04 311.432 129.433 310.986 129.714C310.543 129.996 310.026 130.136 309.435 130.136ZM309.435 129.233C309.884 129.233 310.253 129.118 310.543 128.888C310.833 128.658 311.047 128.355 311.186 127.98C311.326 127.605 311.395 127.199 311.395 126.761C311.395 126.324 311.326 125.916 311.186 125.538C311.047 125.161 310.833 124.855 310.543 124.622C310.253 124.389 309.884 124.273 309.435 124.273C308.986 124.273 308.617 124.389 308.327 124.622C308.037 124.855 307.823 125.161 307.684 125.538C307.544 125.916 307.475 126.324 307.475 126.761C307.475 127.199 307.544 127.605 307.684 127.98C307.823 128.355 308.037 128.658 308.327 128.888C308.617 129.118 308.986 129.233 309.435 129.233ZM318.061 127.324V123.455H319.067V130H318.061V128.892H317.993C317.839 129.224 317.601 129.507 317.277 129.74C316.953 129.97 316.544 130.085 316.05 130.085C315.641 130.085 315.277 129.996 314.959 129.817C314.641 129.635 314.391 129.362 314.209 128.999C314.027 128.632 313.936 128.17 313.936 127.614V123.455H314.942V127.545C314.942 128.023 315.075 128.403 315.342 128.688C315.612 128.972 315.956 129.114 316.374 129.114C316.624 129.114 316.878 129.05 317.136 128.922C317.398 128.794 317.616 128.598 317.793 128.334C317.972 128.07 318.061 127.733 318.061 127.324ZM320.909 130V123.455H321.88V124.443H321.949C322.068 124.119 322.284 123.857 322.596 123.655C322.909 123.453 323.261 123.352 323.653 123.352C323.727 123.352 323.819 123.354 323.93 123.357C324.041 123.359 324.125 123.364 324.181 123.369V124.392C324.147 124.384 324.069 124.371 323.947 124.354C323.828 124.334 323.701 124.324 323.568 124.324C323.25 124.324 322.966 124.391 322.716 124.524C322.468 124.655 322.272 124.837 322.127 125.07C321.985 125.3 321.914 125.562 321.914 125.858V130H320.909ZM331.408 130.136C330.794 130.136 330.266 129.991 329.822 129.702C329.379 129.412 329.038 129.013 328.8 128.504C328.561 127.996 328.442 127.415 328.442 126.761C328.442 126.097 328.564 125.51 328.808 125.001C329.055 124.49 329.399 124.091 329.839 123.804C330.283 123.514 330.8 123.369 331.391 123.369C331.851 123.369 332.266 123.455 332.635 123.625C333.004 123.795 333.307 124.034 333.543 124.341C333.778 124.648 333.925 125.006 333.982 125.415H332.976C332.899 125.116 332.729 124.852 332.464 124.622C332.203 124.389 331.851 124.273 331.408 124.273C331.016 124.273 330.672 124.375 330.376 124.58C330.084 124.781 329.855 125.067 329.69 125.436C329.528 125.803 329.447 126.233 329.447 126.727C329.447 127.233 329.527 127.673 329.686 128.048C329.848 128.423 330.075 128.714 330.368 128.922C330.663 129.129 331.01 129.233 331.408 129.233C331.669 129.233 331.906 129.188 332.119 129.097C332.332 129.006 332.513 128.875 332.661 128.705C332.808 128.534 332.913 128.33 332.976 128.091H333.982C333.925 128.477 333.784 128.825 333.56 129.135C333.338 129.442 333.044 129.686 332.678 129.868C332.314 130.047 331.891 130.136 331.408 130.136ZM337.378 130.153C336.963 130.153 336.587 130.075 336.249 129.919C335.911 129.76 335.642 129.531 335.443 129.233C335.244 128.932 335.145 128.568 335.145 128.142C335.145 127.767 335.219 127.463 335.366 127.23C335.514 126.994 335.712 126.81 335.959 126.676C336.206 126.543 336.479 126.443 336.777 126.378C337.078 126.31 337.381 126.256 337.685 126.216C338.082 126.165 338.405 126.126 338.652 126.101C338.902 126.072 339.084 126.026 339.197 125.96C339.314 125.895 339.372 125.781 339.372 125.619V125.585C339.372 125.165 339.257 124.838 339.027 124.605C338.8 124.372 338.455 124.256 337.991 124.256C337.511 124.256 337.135 124.361 336.862 124.571C336.589 124.781 336.398 125.006 336.287 125.244L335.332 124.903C335.503 124.506 335.73 124.196 336.014 123.974C336.301 123.75 336.614 123.594 336.952 123.506C337.293 123.415 337.628 123.369 337.957 123.369C338.168 123.369 338.409 123.395 338.682 123.446C338.957 123.494 339.223 123.595 339.479 123.749C339.737 123.902 339.952 124.134 340.122 124.443C340.293 124.753 340.378 125.168 340.378 125.688V130H339.372V129.114H339.321C339.253 129.256 339.139 129.408 338.98 129.57C338.821 129.732 338.609 129.869 338.345 129.983C338.081 130.097 337.759 130.153 337.378 130.153ZM337.531 129.25C337.929 129.25 338.264 129.172 338.537 129.016C338.813 128.859 339.02 128.658 339.159 128.411C339.301 128.163 339.372 127.903 339.372 127.631V126.71C339.33 126.761 339.236 126.808 339.091 126.851C338.949 126.891 338.784 126.926 338.597 126.957C338.412 126.986 338.232 127.011 338.055 127.034C337.882 127.054 337.741 127.071 337.634 127.085C337.372 127.119 337.128 127.175 336.901 127.251C336.676 127.325 336.494 127.437 336.355 127.588C336.219 127.736 336.151 127.937 336.151 128.193C336.151 128.543 336.28 128.807 336.538 128.986C336.8 129.162 337.131 129.25 337.531 129.25ZM342.213 130V123.455H343.185V124.443H343.253C343.373 124.119 343.588 123.857 343.901 123.655C344.213 123.453 344.566 123.352 344.958 123.352C345.032 123.352 345.124 123.354 345.235 123.357C345.346 123.359 345.429 123.364 345.486 123.369V124.392C345.452 124.384 345.374 124.371 345.252 124.354C345.132 124.334 345.006 124.324 344.873 124.324C344.554 124.324 344.27 124.391 344.02 124.524C343.773 124.655 343.577 124.837 343.432 125.07C343.29 125.3 343.219 125.562 343.219 125.858V130H342.213ZM349.935 123.455V124.307H346.543V123.455H349.935ZM347.532 121.886H348.537V128.125C348.537 128.409 348.578 128.622 348.661 128.764C348.746 128.903 348.854 128.997 348.985 129.045C349.118 129.091 349.259 129.114 349.407 129.114C349.517 129.114 349.608 129.108 349.679 129.097C349.75 129.082 349.807 129.071 349.85 129.062L350.054 129.966C349.986 129.991 349.891 130.017 349.769 130.043C349.647 130.071 349.492 130.085 349.304 130.085C349.02 130.085 348.742 130.024 348.469 129.902C348.199 129.78 347.975 129.594 347.796 129.344C347.62 129.094 347.532 128.778 347.532 128.398V121.886ZM356.749 130.153C356.334 130.153 355.958 130.075 355.62 129.919C355.282 129.76 355.013 129.531 354.814 129.233C354.615 128.932 354.516 128.568 354.516 128.142C354.516 127.767 354.59 127.463 354.738 127.23C354.885 126.994 355.083 126.81 355.33 126.676C355.577 126.543 355.85 126.443 356.148 126.378C356.449 126.31 356.752 126.256 357.056 126.216C357.453 126.165 357.776 126.126 358.023 126.101C358.273 126.072 358.455 126.026 358.569 125.96C358.685 125.895 358.743 125.781 358.743 125.619V125.585C358.743 125.165 358.628 124.838 358.398 124.605C358.171 124.372 357.826 124.256 357.363 124.256C356.882 124.256 356.506 124.361 356.233 124.571C355.961 124.781 355.769 125.006 355.658 125.244L354.703 124.903C354.874 124.506 355.101 124.196 355.385 123.974C355.672 123.75 355.985 123.594 356.323 123.506C356.664 123.415 356.999 123.369 357.328 123.369C357.539 123.369 357.78 123.395 358.053 123.446C358.328 123.494 358.594 123.595 358.85 123.749C359.108 123.902 359.323 124.134 359.493 124.443C359.664 124.753 359.749 125.168 359.749 125.688V130H358.743V129.114H358.692C358.624 129.256 358.51 129.408 358.351 129.57C358.192 129.732 357.98 129.869 357.716 129.983C357.452 130.097 357.13 130.153 356.749 130.153ZM356.902 129.25C357.3 129.25 357.635 129.172 357.908 129.016C358.184 128.859 358.391 128.658 358.53 128.411C358.672 128.163 358.743 127.903 358.743 127.631V126.71C358.701 126.761 358.607 126.808 358.462 126.851C358.32 126.891 358.155 126.926 357.968 126.957C357.783 126.986 357.603 127.011 357.426 127.034C357.253 127.054 357.113 127.071 357.005 127.085C356.743 127.119 356.499 127.175 356.272 127.251C356.047 127.325 355.865 127.437 355.726 127.588C355.59 127.736 355.522 127.937 355.522 128.193C355.522 128.543 355.651 128.807 355.909 128.986C356.171 129.162 356.502 129.25 356.902 129.25ZM362.59 126.062V130H361.585V123.455H362.556V124.477H362.641C362.795 124.145 363.028 123.878 363.34 123.676C363.653 123.472 364.056 123.369 364.55 123.369C364.994 123.369 365.381 123.46 365.714 123.642C366.046 123.821 366.305 124.094 366.489 124.46C366.674 124.824 366.766 125.284 366.766 125.841V130H365.761V125.909C365.761 125.395 365.627 124.994 365.36 124.707C365.093 124.418 364.727 124.273 364.261 124.273C363.94 124.273 363.653 124.342 363.4 124.482C363.15 124.621 362.952 124.824 362.808 125.091C362.663 125.358 362.59 125.682 362.59 126.062ZM371.076 130.136C370.53 130.136 370.049 129.999 369.631 129.723C369.213 129.445 368.887 129.053 368.651 128.547C368.415 128.038 368.297 127.438 368.297 126.744C368.297 126.057 368.415 125.46 368.651 124.955C368.887 124.449 369.215 124.058 369.635 123.783C370.056 123.507 370.542 123.369 371.093 123.369C371.519 123.369 371.855 123.44 372.103 123.582C372.353 123.722 372.543 123.881 372.674 124.06C372.807 124.236 372.911 124.381 372.985 124.494H373.07V121.273H374.076V130H373.104V128.994H372.985C372.911 129.114 372.806 129.264 372.669 129.446C372.533 129.625 372.338 129.786 372.086 129.928C371.833 130.067 371.496 130.136 371.076 130.136ZM371.212 129.233C371.615 129.233 371.956 129.128 372.235 128.918C372.513 128.705 372.725 128.411 372.87 128.036C373.015 127.658 373.087 127.222 373.087 126.727C373.087 126.239 373.016 125.811 372.874 125.445C372.732 125.075 372.522 124.788 372.243 124.584C371.965 124.376 371.621 124.273 371.212 124.273C370.786 124.273 370.431 124.382 370.147 124.601C369.865 124.817 369.654 125.111 369.512 125.483C369.373 125.852 369.303 126.267 369.303 126.727C369.303 127.193 369.374 127.616 369.516 127.997C369.661 128.375 369.874 128.676 370.155 128.901C370.439 129.122 370.792 129.233 371.212 129.233ZM164.822 140.92L163.919 141.176C163.862 141.026 163.778 140.879 163.668 140.737C163.56 140.592 163.412 140.473 163.224 140.379C163.037 140.286 162.797 140.239 162.504 140.239C162.104 140.239 161.77 140.331 161.503 140.516C161.239 140.697 161.107 140.929 161.107 141.21C161.107 141.46 161.197 141.658 161.379 141.803C161.561 141.947 161.845 142.068 162.232 142.165L163.203 142.403C163.788 142.545 164.224 142.763 164.511 143.055C164.798 143.345 164.942 143.719 164.942 144.176C164.942 144.551 164.834 144.886 164.618 145.182C164.405 145.477 164.107 145.71 163.723 145.881C163.339 146.051 162.893 146.136 162.385 146.136C161.717 146.136 161.165 145.991 160.727 145.702C160.29 145.412 160.013 144.989 159.896 144.432L160.851 144.193C160.942 144.545 161.114 144.81 161.366 144.986C161.622 145.162 161.956 145.25 162.368 145.25C162.837 145.25 163.209 145.151 163.484 144.952C163.763 144.75 163.902 144.509 163.902 144.227C163.902 144 163.822 143.81 163.663 143.656C163.504 143.5 163.26 143.384 162.93 143.307L161.839 143.051C161.24 142.909 160.8 142.689 160.518 142.391C160.24 142.089 160.101 141.713 160.101 141.261C160.101 140.892 160.205 140.565 160.412 140.281C160.622 139.997 160.908 139.774 161.268 139.612C161.632 139.45 162.044 139.369 162.504 139.369C163.152 139.369 163.661 139.511 164.03 139.795C164.402 140.08 164.666 140.455 164.822 140.92ZM168.382 146.153C167.967 146.153 167.591 146.075 167.252 145.919C166.914 145.76 166.646 145.531 166.447 145.233C166.248 144.932 166.149 144.568 166.149 144.142C166.149 143.767 166.223 143.463 166.37 143.23C166.518 142.994 166.716 142.81 166.963 142.676C167.21 142.543 167.483 142.443 167.781 142.378C168.082 142.31 168.385 142.256 168.689 142.216C169.086 142.165 169.409 142.126 169.656 142.101C169.906 142.072 170.088 142.026 170.201 141.96C170.318 141.895 170.376 141.781 170.376 141.619V141.585C170.376 141.165 170.261 140.838 170.031 140.605C169.804 140.372 169.458 140.256 168.995 140.256C168.515 140.256 168.139 140.361 167.866 140.571C167.593 140.781 167.402 141.006 167.291 141.244L166.336 140.903C166.507 140.506 166.734 140.196 167.018 139.974C167.305 139.75 167.618 139.594 167.956 139.506C168.297 139.415 168.632 139.369 168.961 139.369C169.172 139.369 169.413 139.395 169.686 139.446C169.961 139.494 170.227 139.595 170.483 139.749C170.741 139.902 170.956 140.134 171.126 140.443C171.297 140.753 171.382 141.168 171.382 141.688V146H170.376V145.114H170.325C170.257 145.256 170.143 145.408 169.984 145.57C169.825 145.732 169.613 145.869 169.349 145.983C169.085 146.097 168.762 146.153 168.382 146.153ZM168.535 145.25C168.933 145.25 169.268 145.172 169.541 145.016C169.816 144.859 170.024 144.658 170.163 144.411C170.305 144.163 170.376 143.903 170.376 143.631V142.71C170.333 142.761 170.24 142.808 170.095 142.851C169.953 142.891 169.788 142.926 169.6 142.957C169.416 142.986 169.235 143.011 169.059 143.034C168.886 143.054 168.745 143.071 168.637 143.085C168.376 143.119 168.132 143.175 167.904 143.251C167.68 143.325 167.498 143.437 167.359 143.588C167.223 143.736 167.154 143.937 167.154 144.193C167.154 144.543 167.284 144.807 167.542 144.986C167.804 145.162 168.135 145.25 168.535 145.25ZM176.064 139.455V140.307H172.672V139.455H176.064ZM173.661 137.886H174.666V144.125C174.666 144.409 174.707 144.622 174.79 144.764C174.875 144.903 174.983 144.997 175.114 145.045C175.247 145.091 175.388 145.114 175.536 145.114C175.646 145.114 175.737 145.108 175.808 145.097C175.879 145.082 175.936 145.071 175.979 145.062L176.183 145.966C176.115 145.991 176.02 146.017 175.898 146.043C175.776 146.071 175.621 146.085 175.433 146.085C175.149 146.085 174.871 146.024 174.598 145.902C174.328 145.78 174.104 145.594 173.925 145.344C173.749 145.094 173.661 144.778 173.661 144.398V137.886ZM177.577 146V139.455H178.582V146H177.577ZM178.088 138.364C177.892 138.364 177.723 138.297 177.581 138.163C177.442 138.03 177.372 137.869 177.372 137.682C177.372 137.494 177.442 137.334 177.581 137.2C177.723 137.067 177.892 137 178.088 137C178.284 137 178.452 137.067 178.591 137.2C178.733 137.334 178.804 137.494 178.804 137.682C178.804 137.869 178.733 138.03 178.591 138.163C178.452 138.297 178.284 138.364 178.088 138.364ZM185.061 140.92L184.157 141.176C184.1 141.026 184.017 140.879 183.906 140.737C183.798 140.592 183.65 140.473 183.463 140.379C183.275 140.286 183.035 140.239 182.743 140.239C182.342 140.239 182.008 140.331 181.741 140.516C181.477 140.697 181.345 140.929 181.345 141.21C181.345 141.46 181.436 141.658 181.618 141.803C181.799 141.947 182.083 142.068 182.47 142.165L183.441 142.403C184.027 142.545 184.463 142.763 184.75 143.055C185.037 143.345 185.18 143.719 185.18 144.176C185.18 144.551 185.072 144.886 184.856 145.182C184.643 145.477 184.345 145.71 183.961 145.881C183.578 146.051 183.132 146.136 182.623 146.136C181.956 146.136 181.403 145.991 180.966 145.702C180.528 145.412 180.251 144.989 180.135 144.432L181.089 144.193C181.18 144.545 181.352 144.81 181.605 144.986C181.86 145.162 182.194 145.25 182.606 145.25C183.075 145.25 183.447 145.151 183.723 144.952C184.001 144.75 184.14 144.509 184.14 144.227C184.14 144 184.061 143.81 183.902 143.656C183.743 143.5 183.498 143.384 183.169 143.307L182.078 143.051C181.478 142.909 181.038 142.689 180.757 142.391C180.478 142.089 180.339 141.713 180.339 141.261C180.339 140.892 180.443 140.565 180.65 140.281C180.86 139.997 181.146 139.774 181.507 139.612C181.87 139.45 182.282 139.369 182.743 139.369C183.39 139.369 183.899 139.511 184.268 139.795C184.64 140.08 184.904 140.455 185.061 140.92ZM189.609 139.455V140.307H186.08V139.455H189.609ZM187.137 146V138.551C187.137 138.176 187.225 137.864 187.401 137.614C187.577 137.364 187.806 137.176 188.087 137.051C188.369 136.926 188.665 136.864 188.978 136.864C189.225 136.864 189.427 136.884 189.583 136.923C189.739 136.963 189.856 137 189.933 137.034L189.643 137.903C189.592 137.886 189.521 137.865 189.43 137.839C189.342 137.814 189.225 137.801 189.08 137.801C188.748 137.801 188.508 137.885 188.36 138.053C188.215 138.22 188.143 138.466 188.143 138.79V146H187.137ZM191.666 148.455C191.495 148.455 191.343 148.44 191.21 148.412C191.076 148.386 190.984 148.361 190.933 148.335L191.189 147.449C191.433 147.511 191.649 147.534 191.836 147.517C192.024 147.5 192.19 147.416 192.335 147.266C192.483 147.118 192.618 146.878 192.74 146.545L192.927 146.034L190.507 139.455H191.598L193.404 144.67H193.473L195.279 139.455H196.37L193.592 146.955C193.467 147.293 193.312 147.572 193.127 147.794C192.943 148.018 192.728 148.185 192.484 148.293C192.243 148.401 191.97 148.455 191.666 148.455ZM201.721 148.455C201.55 148.455 201.398 148.44 201.265 148.412C201.131 148.386 201.039 148.361 200.988 148.335L201.243 147.449C201.488 147.511 201.703 147.534 201.891 147.517C202.078 147.5 202.245 147.416 202.39 147.266C202.537 147.118 202.672 146.878 202.794 146.545L202.982 146.034L200.561 139.455H201.652L203.459 144.67H203.527L205.334 139.455H206.425L203.647 146.955C203.522 147.293 203.367 147.572 203.182 147.794C202.998 148.018 202.783 148.185 202.539 148.293C202.297 148.401 202.025 148.455 201.721 148.455ZM210.177 146.136C209.586 146.136 209.068 145.996 208.622 145.714C208.179 145.433 207.832 145.04 207.582 144.534C207.335 144.028 207.211 143.437 207.211 142.761C207.211 142.08 207.335 141.484 207.582 140.976C207.832 140.467 208.179 140.072 208.622 139.791C209.068 139.51 209.586 139.369 210.177 139.369C210.768 139.369 211.285 139.51 211.728 139.791C212.174 140.072 212.521 140.467 212.768 140.976C213.018 141.484 213.143 142.08 213.143 142.761C213.143 143.437 213.018 144.028 212.768 144.534C212.521 145.04 212.174 145.433 211.728 145.714C211.285 145.996 210.768 146.136 210.177 146.136ZM210.177 145.233C210.626 145.233 210.995 145.118 211.285 144.888C211.575 144.658 211.789 144.355 211.929 143.98C212.068 143.605 212.137 143.199 212.137 142.761C212.137 142.324 212.068 141.916 211.929 141.538C211.789 141.161 211.575 140.855 211.285 140.622C210.995 140.389 210.626 140.273 210.177 140.273C209.728 140.273 209.359 140.389 209.069 140.622C208.779 140.855 208.565 141.161 208.426 141.538C208.287 141.916 208.217 142.324 208.217 142.761C208.217 143.199 208.287 143.605 208.426 143.98C208.565 144.355 208.779 144.658 209.069 144.888C209.359 145.118 209.728 145.233 210.177 145.233ZM218.803 143.324V139.455H219.809V146H218.803V144.892H218.735C218.582 145.224 218.343 145.507 218.019 145.74C217.695 145.97 217.286 146.085 216.792 146.085C216.383 146.085 216.019 145.996 215.701 145.817C215.383 145.635 215.133 145.362 214.951 144.999C214.769 144.632 214.678 144.17 214.678 143.614V139.455H215.684V143.545C215.684 144.023 215.817 144.403 216.085 144.688C216.354 144.972 216.698 145.114 217.116 145.114C217.366 145.114 217.62 145.05 217.879 144.922C218.14 144.794 218.359 144.598 218.535 144.334C218.714 144.07 218.803 143.733 218.803 143.324ZM221.651 146V139.455H222.623V140.443H222.691C222.81 140.119 223.026 139.857 223.338 139.655C223.651 139.453 224.003 139.352 224.395 139.352C224.469 139.352 224.561 139.354 224.672 139.357C224.783 139.359 224.867 139.364 224.924 139.369V140.392C224.89 140.384 224.811 140.371 224.689 140.354C224.57 140.334 224.444 140.324 224.31 140.324C223.992 140.324 223.708 140.391 223.458 140.524C223.211 140.655 223.015 140.837 222.87 141.07C222.728 141.3 222.657 141.562 222.657 141.858V146H221.651ZM232.15 146.136C231.536 146.136 231.008 145.991 230.565 145.702C230.121 145.412 229.781 145.013 229.542 144.504C229.303 143.996 229.184 143.415 229.184 142.761C229.184 142.097 229.306 141.51 229.55 141.001C229.798 140.49 230.141 140.091 230.582 139.804C231.025 139.514 231.542 139.369 232.133 139.369C232.593 139.369 233.008 139.455 233.377 139.625C233.746 139.795 234.049 140.034 234.285 140.341C234.521 140.648 234.667 141.006 234.724 141.415H233.718C233.641 141.116 233.471 140.852 233.207 140.622C232.945 140.389 232.593 140.273 232.15 140.273C231.758 140.273 231.414 140.375 231.119 140.58C230.826 140.781 230.597 141.067 230.433 141.436C230.271 141.803 230.19 142.233 230.19 142.727C230.19 143.233 230.269 143.673 230.428 144.048C230.59 144.423 230.817 144.714 231.11 144.922C231.406 145.129 231.752 145.233 232.15 145.233C232.411 145.233 232.648 145.188 232.862 145.097C233.075 145.006 233.255 144.875 233.403 144.705C233.55 144.534 233.656 144.33 233.718 144.091H234.724C234.667 144.477 234.526 144.825 234.302 145.135C234.08 145.442 233.786 145.686 233.42 145.868C233.056 146.047 232.633 146.136 232.15 146.136ZM236.194 146V139.455H237.165V140.443H237.234C237.353 140.119 237.569 139.857 237.881 139.655C238.194 139.453 238.546 139.352 238.938 139.352C239.012 139.352 239.104 139.354 239.215 139.357C239.326 139.359 239.41 139.364 239.467 139.369V140.392C239.433 140.384 239.354 140.371 239.232 140.354C239.113 140.334 238.987 140.324 238.853 140.324C238.535 140.324 238.251 140.391 238.001 140.524C237.754 140.655 237.558 140.837 237.413 141.07C237.271 141.3 237.2 141.562 237.2 141.858V146H236.194ZM242.585 146.153C242.17 146.153 241.794 146.075 241.456 145.919C241.118 145.76 240.849 145.531 240.65 145.233C240.451 144.932 240.352 144.568 240.352 144.142C240.352 143.767 240.426 143.463 240.574 143.23C240.721 142.994 240.919 142.81 241.166 142.676C241.413 142.543 241.686 142.443 241.984 142.378C242.285 142.31 242.588 142.256 242.892 142.216C243.289 142.165 243.612 142.126 243.859 142.101C244.109 142.072 244.291 142.026 244.404 141.96C244.521 141.895 244.579 141.781 244.579 141.619V141.585C244.579 141.165 244.464 140.838 244.234 140.605C244.007 140.372 243.662 140.256 243.199 140.256C242.718 140.256 242.342 140.361 242.069 140.571C241.797 140.781 241.605 141.006 241.494 141.244L240.539 140.903C240.71 140.506 240.937 140.196 241.221 139.974C241.508 139.75 241.821 139.594 242.159 139.506C242.5 139.415 242.835 139.369 243.164 139.369C243.375 139.369 243.616 139.395 243.889 139.446C244.164 139.494 244.43 139.595 244.686 139.749C244.944 139.902 245.159 140.134 245.329 140.443C245.5 140.753 245.585 141.168 245.585 141.688V146H244.579V145.114H244.528C244.46 145.256 244.346 145.408 244.187 145.57C244.028 145.732 243.816 145.869 243.552 145.983C243.288 146.097 242.966 146.153 242.585 146.153ZM242.738 145.25C243.136 145.25 243.471 145.172 243.744 145.016C244.02 144.859 244.227 144.658 244.366 144.411C244.508 144.163 244.579 143.903 244.579 143.631V142.71C244.537 142.761 244.443 142.808 244.298 142.851C244.156 142.891 243.991 142.926 243.804 142.957C243.619 142.986 243.439 143.011 243.262 143.034C243.089 143.054 242.949 143.071 242.841 143.085C242.579 143.119 242.335 143.175 242.108 143.251C241.883 143.325 241.701 143.437 241.562 143.588C241.426 143.736 241.358 143.937 241.358 144.193C241.358 144.543 241.487 144.807 241.745 144.986C242.007 145.162 242.338 145.25 242.738 145.25ZM252.538 139.455L250.118 146H249.095L246.675 139.455H247.766L249.572 144.67H249.641L251.447 139.455H252.538ZM253.866 146V139.455H254.871V146H253.866ZM254.377 138.364C254.181 138.364 254.012 138.297 253.87 138.163C253.731 138.03 253.661 137.869 253.661 137.682C253.661 137.494 253.731 137.334 253.87 137.2C254.012 137.067 254.181 137 254.377 137C254.573 137 254.741 137.067 254.88 137.2C255.022 137.334 255.093 137.494 255.093 137.682C255.093 137.869 255.022 138.03 254.88 138.163C254.741 138.297 254.573 138.364 254.377 138.364ZM257.719 142.062V146H256.713V139.455H257.685V140.477H257.77C257.924 140.145 258.157 139.878 258.469 139.676C258.782 139.472 259.185 139.369 259.679 139.369C260.123 139.369 260.51 139.46 260.843 139.642C261.175 139.821 261.434 140.094 261.618 140.46C261.803 140.824 261.895 141.284 261.895 141.841V146H260.89V141.909C260.89 141.395 260.756 140.994 260.489 140.707C260.222 140.418 259.855 140.273 259.39 140.273C259.069 140.273 258.782 140.342 258.529 140.482C258.279 140.621 258.081 140.824 257.936 141.091C257.792 141.358 257.719 141.682 257.719 142.062ZM266.375 148.591C265.889 148.591 265.472 148.528 265.122 148.403C264.773 148.281 264.482 148.119 264.249 147.918C264.018 147.719 263.835 147.506 263.699 147.278L264.5 146.716C264.591 146.835 264.706 146.972 264.845 147.125C264.984 147.281 265.175 147.416 265.416 147.53C265.661 147.646 265.98 147.705 266.375 147.705C266.903 147.705 267.339 147.577 267.683 147.321C268.027 147.065 268.199 146.665 268.199 146.119V144.79H268.114C268.04 144.909 267.935 145.057 267.798 145.233C267.665 145.406 267.472 145.561 267.219 145.697C266.969 145.831 266.631 145.898 266.205 145.898C265.676 145.898 265.202 145.773 264.781 145.523C264.364 145.273 264.033 144.909 263.788 144.432C263.547 143.955 263.426 143.375 263.426 142.693C263.426 142.023 263.544 141.439 263.78 140.942C264.016 140.442 264.344 140.055 264.764 139.783C265.185 139.507 265.67 139.369 266.222 139.369C266.648 139.369 266.986 139.44 267.236 139.582C267.489 139.722 267.682 139.881 267.815 140.06C267.952 140.236 268.057 140.381 268.131 140.494H268.233V139.455H269.205V146.188C269.205 146.75 269.077 147.207 268.821 147.56C268.568 147.915 268.227 148.175 267.798 148.339C267.372 148.507 266.898 148.591 266.375 148.591ZM266.341 144.994C266.744 144.994 267.085 144.902 267.364 144.717C267.642 144.533 267.854 144.267 267.999 143.92C268.143 143.574 268.216 143.159 268.216 142.676C268.216 142.205 268.145 141.788 268.003 141.428C267.861 141.067 267.651 140.784 267.372 140.58C267.094 140.375 266.75 140.273 266.341 140.273C265.915 140.273 265.56 140.381 265.276 140.597C264.994 140.812 264.783 141.102 264.641 141.466C264.501 141.83 264.432 142.233 264.432 142.676C264.432 143.131 264.503 143.533 264.645 143.882C264.79 144.229 265.003 144.501 265.284 144.7C265.568 144.896 265.92 144.994 266.341 144.994ZM275.682 140.92L274.778 141.176C274.722 141.026 274.638 140.879 274.527 140.737C274.419 140.592 274.271 140.473 274.084 140.379C273.896 140.286 273.656 140.239 273.364 140.239C272.963 140.239 272.629 140.331 272.362 140.516C272.098 140.697 271.966 140.929 271.966 141.21C271.966 141.46 272.057 141.658 272.239 141.803C272.42 141.947 272.705 142.068 273.091 142.165L274.062 142.403C274.648 142.545 275.084 142.763 275.371 143.055C275.658 143.345 275.801 143.719 275.801 144.176C275.801 144.551 275.693 144.886 275.477 145.182C275.264 145.477 274.966 145.71 274.582 145.881C274.199 146.051 273.753 146.136 273.244 146.136C272.577 146.136 272.024 145.991 271.587 145.702C271.149 145.412 270.872 144.989 270.756 144.432L271.71 144.193C271.801 144.545 271.973 144.81 272.226 144.986C272.482 145.162 272.815 145.25 273.227 145.25C273.696 145.25 274.068 145.151 274.344 144.952C274.622 144.75 274.761 144.509 274.761 144.227C274.761 144 274.682 143.81 274.523 143.656C274.364 143.5 274.119 143.384 273.79 143.307L272.699 143.051C272.099 142.909 271.659 142.689 271.378 142.391C271.099 142.089 270.96 141.713 270.96 141.261C270.96 140.892 271.064 140.565 271.271 140.281C271.482 139.997 271.767 139.774 272.128 139.612C272.491 139.45 272.903 139.369 273.364 139.369C274.011 139.369 274.52 139.511 274.889 139.795C275.261 140.08 275.526 140.455 275.682 140.92ZM278.645 137.273L278.559 143.545H277.571L277.485 137.273H278.645ZM278.065 146.068C277.855 146.068 277.674 145.993 277.524 145.842C277.373 145.692 277.298 145.511 277.298 145.301C277.298 145.091 277.373 144.911 277.524 144.76C277.674 144.609 277.855 144.534 278.065 144.534C278.275 144.534 278.456 144.609 278.606 144.76C278.757 144.911 278.832 145.091 278.832 145.301C278.832 145.44 278.797 145.568 278.725 145.685C278.657 145.801 278.565 145.895 278.449 145.966C278.335 146.034 278.207 146.068 278.065 146.068Z" fill="#71717A"/>
</svg>
