<svg width="21" height="20" viewBox="0 0 21 20" fill="none" xmlns="http://www.w3.org/2000/svg">
<path d="M17.04 8.33335C17.04 13.3334 10.3733 18.3334 10.3733 18.3334C10.3733 18.3334 3.70667 13.3334 3.70667 8.33335C3.70667 6.56524 4.40904 4.86955 5.65929 3.61931C6.90953 2.36907 8.60522 1.66669 10.3733 1.66669C12.1414 1.66669 13.8371 2.36907 15.0874 3.61931C16.3376 4.86955 17.04 6.56524 17.04 8.33335Z" stroke="#EF4444" stroke-width="1.5" stroke-linecap="round" stroke-linejoin="round"/>
<path d="M10.3733 10.8334C11.754 10.8334 12.8733 9.71407 12.8733 8.33335C12.8733 6.95264 11.754 5.83335 10.3733 5.83335C8.99262 5.83335 7.87333 6.95264 7.87333 8.33335C7.87333 9.71407 8.99262 10.8334 10.3733 10.8334Z" stroke="#EF4444" stroke-width="1.5" stroke-linecap="round" stroke-linejoin="round"/>
</svg>
