<svg width="271" height="241" viewBox="0 0 271 241" fill="none" xmlns="http://www.w3.org/2000/svg">
<rect x="0.5" y="0.5" width="269.75" height="240" rx="19.5" stroke="#EF4444" stroke-dasharray="12 12"/>
<path d="M115.375 88.5C115.375 77.4543 124.329 68.5 135.375 68.5C146.421 68.5 155.375 77.4543 155.375 88.5C155.375 99.5457 146.421 108.5 135.375 108.5C124.329 108.5 115.375 99.5457 115.375 88.5Z" fill="#EF4444"/>
<path d="M135.375 83.833V93.1663M130.708 88.4997H140.042" stroke="#FAFAFA" stroke-linecap="round" stroke-linejoin="round"/>
<path d="M82.591 147.5H80.9603L84.6244 137.318H86.3992L90.0633 147.5H88.4326L85.5541 139.168H85.4745L82.591 147.5ZM82.8644 143.513H88.1542V144.805H82.8644V143.513ZM94.1499 147.649C93.5335 147.649 92.9833 147.492 92.4994 147.177C92.0188 146.859 91.641 146.406 91.3659 145.82C91.0941 145.23 90.9582 144.522 90.9582 143.697C90.9582 142.871 91.0957 142.165 91.3708 141.579C91.6492 140.992 92.0304 140.543 92.5143 140.232C92.9982 139.92 93.5467 139.764 94.1599 139.764C94.6338 139.764 95.015 139.844 95.3034 140.003C95.595 140.159 95.8204 140.341 95.9795 140.55C96.1419 140.759 96.2678 140.942 96.3573 141.102H96.4468V137.318H97.9333V147.5H96.4816V146.312H96.3573C96.2678 146.474 96.1386 146.66 95.9695 146.869C95.8038 147.077 95.5751 147.26 95.2835 147.415C94.9918 147.571 94.614 147.649 94.1499 147.649ZM94.4781 146.381C94.9056 146.381 95.2669 146.269 95.5619 146.043C95.8602 145.815 96.0856 145.498 96.238 145.094C96.3938 144.689 96.4717 144.219 96.4717 143.682C96.4717 143.152 96.3954 142.687 96.243 142.29C96.0905 141.892 95.8668 141.582 95.5718 141.36C95.2768 141.138 94.9123 141.027 94.4781 141.027C94.0306 141.027 93.6578 141.143 93.3595 141.375C93.0612 141.607 92.8358 141.924 92.6833 142.325C92.5342 142.726 92.4596 143.178 92.4596 143.682C92.4596 144.192 92.5358 144.651 92.6883 145.059C92.8408 145.467 93.0661 145.79 93.3644 146.028C93.666 146.264 94.0373 146.381 94.4781 146.381ZM102.914 147.649C102.297 147.649 101.747 147.492 101.263 147.177C100.782 146.859 100.405 146.406 100.13 145.82C99.8577 145.23 99.7219 144.522 99.7219 143.697C99.7219 142.871 99.8594 142.165 100.134 141.579C100.413 140.992 100.794 140.543 101.278 140.232C101.762 139.92 102.31 139.764 102.924 139.764C103.398 139.764 103.779 139.844 104.067 140.003C104.359 140.159 104.584 140.341 104.743 140.55C104.906 140.759 105.032 140.942 105.121 141.102H105.21V137.318H106.697V147.5H105.245V146.312H105.121C105.032 146.474 104.902 146.66 104.733 146.869C104.568 147.077 104.339 147.26 104.047 147.415C103.755 147.571 103.378 147.649 102.914 147.649ZM103.242 146.381C103.669 146.381 104.031 146.269 104.326 146.043C104.624 145.815 104.849 145.498 105.002 145.094C105.157 144.689 105.235 144.219 105.235 143.682C105.235 143.152 105.159 142.687 105.007 142.29C104.854 141.892 104.63 141.582 104.335 141.36C104.041 141.138 103.676 141.027 103.242 141.027C102.794 141.027 102.421 141.143 102.123 141.375C101.825 141.607 101.599 141.924 101.447 142.325C101.298 142.726 101.223 143.178 101.223 143.682C101.223 144.192 101.3 144.651 101.452 145.059C101.604 145.467 101.83 145.79 102.128 146.028C102.43 146.264 102.801 146.381 103.242 146.381ZM114.01 142.966V147.5H112.524V139.864H113.951V141.107H114.045C114.221 140.702 114.496 140.377 114.87 140.132C115.248 139.887 115.724 139.764 116.297 139.764C116.818 139.764 117.273 139.874 117.664 140.092C118.055 140.308 118.359 140.629 118.574 141.057C118.79 141.484 118.897 142.013 118.897 142.643V147.5H117.411V142.822C117.411 142.268 117.267 141.836 116.978 141.524C116.69 141.209 116.294 141.052 115.79 141.052C115.445 141.052 115.139 141.126 114.87 141.276C114.605 141.425 114.395 141.643 114.239 141.932C114.086 142.217 114.01 142.562 114.01 142.966ZM124.182 147.654C123.43 147.654 122.782 147.493 122.238 147.172C121.698 146.847 121.28 146.391 120.985 145.805C120.694 145.215 120.548 144.524 120.548 143.732C120.548 142.949 120.694 142.26 120.985 141.663C121.28 141.067 121.691 140.601 122.218 140.266C122.749 139.932 123.368 139.764 124.078 139.764C124.509 139.764 124.926 139.835 125.331 139.978C125.735 140.121 126.098 140.344 126.419 140.649C126.741 140.954 126.994 141.35 127.18 141.837C127.366 142.321 127.458 142.91 127.458 143.602V144.129H121.388V143.016H126.002C126.002 142.625 125.922 142.278 125.763 141.977C125.604 141.672 125.38 141.431 125.092 141.256C124.807 141.08 124.472 140.992 124.088 140.992C123.67 140.992 123.305 141.095 122.994 141.3C122.686 141.503 122.447 141.768 122.278 142.096C122.112 142.421 122.029 142.774 122.029 143.155V144.025C122.029 144.535 122.119 144.969 122.298 145.327C122.48 145.685 122.734 145.959 123.059 146.148C123.383 146.333 123.763 146.426 124.197 146.426C124.479 146.426 124.736 146.386 124.968 146.307C125.2 146.224 125.4 146.101 125.569 145.939C125.738 145.777 125.867 145.576 125.957 145.337L127.364 145.591C127.251 146.005 127.049 146.368 126.757 146.68C126.469 146.988 126.106 147.228 125.669 147.401C125.234 147.57 124.739 147.654 124.182 147.654ZM130.75 147.5L128.502 139.864H130.039L131.535 145.472H131.61L133.111 139.864H134.647L136.139 145.447H136.213L137.7 139.864H139.236L136.994 147.5H135.478L133.926 141.987H133.812L132.261 147.5H130.75ZM147.767 147.5H144.471V137.318H147.872C148.869 137.318 149.726 137.522 150.442 137.93C151.158 138.334 151.706 138.916 152.088 139.675C152.472 140.43 152.664 141.337 152.664 142.394C152.664 143.455 152.47 144.366 152.083 145.129C151.698 145.891 151.141 146.478 150.412 146.888C149.683 147.296 148.801 147.5 147.767 147.5ZM146.007 146.158H147.683C148.458 146.158 149.103 146.012 149.617 145.72C150.13 145.425 150.515 144.999 150.77 144.442C151.025 143.882 151.153 143.2 151.153 142.394C151.153 141.595 151.025 140.918 150.77 140.361C150.518 139.804 150.142 139.381 149.642 139.093C149.141 138.805 148.52 138.661 147.777 138.661H146.007V146.158ZM154.455 147.5V139.864H155.942V147.5H154.455ZM155.206 138.685C154.948 138.685 154.725 138.599 154.54 138.427C154.358 138.251 154.266 138.042 154.266 137.8C154.266 137.555 154.358 137.346 154.54 137.174C154.725 136.998 154.948 136.911 155.206 136.911C155.465 136.911 155.685 136.998 155.867 137.174C156.053 137.346 156.146 137.555 156.146 137.8C156.146 138.042 156.053 138.251 155.867 138.427C155.685 138.599 155.465 138.685 155.206 138.685ZM163.664 141.728L162.317 141.967C162.26 141.794 162.171 141.63 162.048 141.474C161.929 141.319 161.766 141.191 161.561 141.092C161.355 140.992 161.099 140.942 160.79 140.942C160.369 140.942 160.018 141.037 159.736 141.226C159.455 141.411 159.314 141.652 159.314 141.947C159.314 142.202 159.408 142.407 159.597 142.563C159.786 142.719 160.091 142.847 160.512 142.946L161.725 143.224C162.428 143.387 162.951 143.637 163.296 143.975C163.641 144.313 163.813 144.752 163.813 145.293C163.813 145.75 163.681 146.158 163.415 146.516C163.154 146.87 162.787 147.149 162.317 147.351C161.849 147.553 161.307 147.654 160.691 147.654C159.836 147.654 159.138 147.472 158.598 147.107C158.058 146.739 157.726 146.217 157.604 145.541L159.04 145.322C159.13 145.697 159.314 145.98 159.592 146.173C159.871 146.362 160.234 146.456 160.681 146.456C161.168 146.456 161.558 146.355 161.849 146.153C162.141 145.947 162.287 145.697 162.287 145.402C162.287 145.163 162.197 144.963 162.018 144.8C161.843 144.638 161.573 144.515 161.208 144.433L159.915 144.149C159.203 143.987 158.676 143.728 158.334 143.374C157.996 143.019 157.827 142.57 157.827 142.026C157.827 141.576 157.953 141.181 158.205 140.843C158.457 140.505 158.805 140.241 159.249 140.053C159.693 139.86 160.202 139.764 160.775 139.764C161.601 139.764 162.25 139.943 162.724 140.301C163.198 140.656 163.512 141.131 163.664 141.728ZM166.934 142.966V147.5H165.448V137.318H166.914V141.107H167.009C167.188 140.696 167.461 140.369 167.829 140.127C168.197 139.885 168.677 139.764 169.271 139.764C169.794 139.764 170.252 139.872 170.643 140.087C171.037 140.303 171.342 140.624 171.558 141.052C171.776 141.476 171.886 142.006 171.886 142.643V147.5H170.399V142.822C170.399 142.262 170.255 141.827 169.967 141.519C169.678 141.208 169.277 141.052 168.764 141.052C168.412 141.052 168.097 141.126 167.819 141.276C167.544 141.425 167.327 141.643 167.168 141.932C167.012 142.217 166.934 142.562 166.934 142.966ZM181.139 139.864V141.057H176.968V139.864H181.139ZM178.087 138.034H179.573V145.258C179.573 145.546 179.616 145.763 179.702 145.909C179.789 146.052 179.9 146.149 180.035 146.202C180.175 146.252 180.325 146.277 180.488 146.277C180.607 146.277 180.712 146.269 180.801 146.252C180.891 146.236 180.96 146.222 181.01 146.212L181.278 147.44C181.192 147.473 181.07 147.507 180.91 147.54C180.751 147.576 180.552 147.596 180.314 147.599C179.923 147.606 179.558 147.536 179.22 147.391C178.882 147.245 178.609 147.019 178.4 146.714C178.191 146.41 178.087 146.027 178.087 145.566V138.034ZM185.918 147.654C185.202 147.654 184.577 147.49 184.044 147.162C183.51 146.834 183.096 146.375 182.801 145.785C182.506 145.195 182.358 144.505 182.358 143.717C182.358 142.924 182.506 142.232 182.801 141.638C183.096 141.045 183.51 140.585 184.044 140.256C184.577 139.928 185.202 139.764 185.918 139.764C186.634 139.764 187.259 139.928 187.792 140.256C188.326 140.585 188.74 141.045 189.035 141.638C189.33 142.232 189.478 142.924 189.478 143.717C189.478 144.505 189.33 145.195 189.035 145.785C188.74 146.375 188.326 146.834 187.792 147.162C187.259 147.49 186.634 147.654 185.918 147.654ZM185.923 146.406C186.387 146.406 186.772 146.284 187.076 146.038C187.381 145.793 187.607 145.467 187.753 145.059C187.902 144.651 187.976 144.202 187.976 143.712C187.976 143.224 187.902 142.777 187.753 142.369C187.607 141.958 187.381 141.629 187.076 141.38C186.772 141.131 186.387 141.007 185.923 141.007C185.456 141.007 185.068 141.131 184.76 141.38C184.455 141.629 184.228 141.958 184.079 142.369C183.933 142.777 183.86 143.224 183.86 143.712C183.86 144.202 183.933 144.651 184.079 145.059C184.228 145.467 184.455 145.793 184.76 146.038C185.068 146.284 185.456 146.406 185.923 146.406ZM101.055 167.5H99.4242L103.088 157.318H104.863L108.527 167.5H106.896L104.018 159.168H103.938L101.055 167.5ZM101.328 163.513H106.618V164.805H101.328V163.513ZM109.878 170.364V159.864H111.33V161.102H111.454C111.54 160.942 111.665 160.759 111.827 160.55C111.989 160.341 112.215 160.159 112.503 160.003C112.792 159.844 113.173 159.764 113.647 159.764C114.263 159.764 114.813 159.92 115.297 160.232C115.781 160.543 116.161 160.992 116.436 161.579C116.714 162.165 116.853 162.871 116.853 163.697C116.853 164.522 116.716 165.23 116.441 165.82C116.166 166.406 115.788 166.859 115.307 167.177C114.827 167.492 114.278 167.649 113.662 167.649C113.198 167.649 112.818 167.571 112.523 167.415C112.231 167.26 112.003 167.077 111.837 166.869C111.671 166.66 111.544 166.474 111.454 166.312H111.365V170.364H109.878ZM111.335 163.682C111.335 164.219 111.413 164.689 111.569 165.094C111.724 165.498 111.95 165.815 112.245 166.043C112.54 166.269 112.901 166.381 113.328 166.381C113.773 166.381 114.144 166.264 114.442 166.028C114.74 165.79 114.966 165.467 115.118 165.059C115.274 164.651 115.352 164.192 115.352 163.682C115.352 163.178 115.276 162.726 115.123 162.325C114.974 161.924 114.749 161.607 114.447 161.375C114.149 161.143 113.776 161.027 113.328 161.027C112.898 161.027 112.533 161.138 112.235 161.36C111.94 161.582 111.716 161.892 111.564 162.29C111.411 162.687 111.335 163.152 111.335 163.682ZM118.519 170.364V159.864H119.971V161.102H120.095C120.181 160.942 120.305 160.759 120.468 160.55C120.63 160.341 120.855 160.159 121.144 160.003C121.432 159.844 121.813 159.764 122.287 159.764C122.904 159.764 123.454 159.92 123.938 160.232C124.422 160.543 124.801 160.992 125.076 161.579C125.355 162.165 125.494 162.871 125.494 163.697C125.494 164.522 125.356 165.23 125.081 165.82C124.806 166.406 124.428 166.859 123.948 167.177C123.467 167.492 122.919 167.649 122.302 167.649C121.838 167.649 121.459 167.571 121.164 167.415C120.872 167.26 120.643 167.077 120.478 166.869C120.312 166.66 120.184 166.474 120.095 166.312H120.005V170.364H118.519ZM119.975 163.682C119.975 164.219 120.053 164.689 120.209 165.094C120.365 165.498 120.59 165.815 120.885 166.043C121.18 166.269 121.542 166.381 121.969 166.381C122.413 166.381 122.784 166.264 123.083 166.028C123.381 165.79 123.606 165.467 123.759 165.059C123.915 164.651 123.993 164.192 123.993 163.682C123.993 163.178 123.916 162.726 123.764 162.325C123.615 161.924 123.389 161.607 123.088 161.375C122.789 161.143 122.417 161.027 121.969 161.027C121.538 161.027 121.174 161.138 120.875 161.36C120.58 161.582 120.357 161.892 120.204 162.29C120.052 162.687 119.975 163.152 119.975 163.682ZM130.451 167.654C129.698 167.654 129.05 167.493 128.507 167.172C127.967 166.847 127.549 166.391 127.254 165.805C126.962 165.215 126.816 164.524 126.816 163.732C126.816 162.949 126.962 162.26 127.254 161.663C127.549 161.067 127.96 160.601 128.487 160.266C129.017 159.932 129.637 159.764 130.346 159.764C130.777 159.764 131.195 159.835 131.599 159.978C132.003 160.121 132.366 160.344 132.688 160.649C133.009 160.954 133.263 161.35 133.449 161.837C133.634 162.321 133.727 162.91 133.727 163.602V164.129H127.657V163.016H132.27C132.27 162.625 132.191 162.278 132.032 161.977C131.873 161.672 131.649 161.431 131.36 161.256C131.075 161.08 130.741 160.992 130.356 160.992C129.939 160.992 129.574 161.095 129.262 161.3C128.954 161.503 128.716 161.768 128.547 162.096C128.381 162.421 128.298 162.774 128.298 163.155V164.025C128.298 164.535 128.387 164.969 128.566 165.327C128.749 165.685 129.002 165.959 129.327 166.148C129.652 166.333 130.031 166.426 130.466 166.426C130.747 166.426 131.004 166.386 131.236 166.307C131.468 166.224 131.669 166.101 131.838 165.939C132.007 165.777 132.136 165.576 132.225 165.337L133.632 165.591C133.52 166.005 133.318 166.368 133.026 166.68C132.738 166.988 132.375 167.228 131.937 167.401C131.503 167.57 131.007 167.654 130.451 167.654ZM138.941 159.864V161.057H134.77V159.864H138.941ZM135.888 158.034H137.375V165.258C137.375 165.546 137.418 165.763 137.504 165.909C137.59 166.052 137.701 166.149 137.837 166.202C137.976 166.252 138.127 166.277 138.29 166.277C138.409 166.277 138.513 166.269 138.603 166.252C138.692 166.236 138.762 166.222 138.812 166.212L139.08 167.44C138.994 167.473 138.871 167.507 138.712 167.54C138.553 167.576 138.354 167.596 138.116 167.599C137.724 167.606 137.36 167.536 137.022 167.391C136.684 167.245 136.41 167.019 136.202 166.714C135.993 166.41 135.888 166.027 135.888 165.566V158.034ZM140.585 167.5V159.864H142.072V167.5H140.585ZM141.336 158.685C141.077 158.685 140.855 158.599 140.67 158.427C140.487 158.251 140.396 158.042 140.396 157.8C140.396 157.555 140.487 157.346 140.67 157.174C140.855 156.998 141.077 156.911 141.336 156.911C141.594 156.911 141.815 156.998 141.997 157.174C142.183 157.346 142.276 157.555 142.276 157.8C142.276 158.042 142.183 158.251 141.997 158.427C141.815 158.599 141.594 158.685 141.336 158.685ZM143.912 167.5V166.481L148.049 161.226V161.156H144.047V159.864H149.903V160.947L145.926 166.138V166.207H150.042V167.5H143.912ZM154.869 167.654C154.116 167.654 153.468 167.493 152.925 167.172C152.384 166.847 151.967 166.391 151.672 165.805C151.38 165.215 151.234 164.524 151.234 163.732C151.234 162.949 151.38 162.26 151.672 161.663C151.967 161.067 152.378 160.601 152.905 160.266C153.435 159.932 154.055 159.764 154.764 159.764C155.195 159.764 155.613 159.835 156.017 159.978C156.421 160.121 156.784 160.344 157.106 160.649C157.427 160.954 157.681 161.35 157.866 161.837C158.052 162.321 158.145 162.91 158.145 163.602V164.129H152.075V163.016H156.688C156.688 162.625 156.609 162.278 156.45 161.977C156.29 161.672 156.067 161.431 155.778 161.256C155.493 161.08 155.159 160.992 154.774 160.992C154.357 160.992 153.992 161.095 153.68 161.3C153.372 161.503 153.134 161.768 152.964 162.096C152.799 162.421 152.716 162.774 152.716 163.155V164.025C152.716 164.535 152.805 164.969 152.984 165.327C153.167 165.685 153.42 165.959 153.745 166.148C154.07 166.333 154.449 166.426 154.884 166.426C155.165 166.426 155.422 166.386 155.654 166.307C155.886 166.224 156.087 166.101 156.256 165.939C156.425 165.777 156.554 165.576 156.643 165.337L158.05 165.591C157.938 166.005 157.736 166.368 157.444 166.68C157.156 166.988 156.793 167.228 156.355 167.401C155.921 167.57 155.425 167.654 154.869 167.654ZM159.794 167.5V159.864H161.231V161.077H161.311C161.45 160.666 161.695 160.343 162.046 160.107C162.401 159.869 162.802 159.749 163.249 159.749C163.342 159.749 163.452 159.753 163.578 159.759C163.707 159.766 163.808 159.774 163.881 159.784V161.206C163.821 161.189 163.715 161.171 163.563 161.151C163.41 161.128 163.258 161.116 163.105 161.116C162.754 161.116 162.441 161.191 162.166 161.34C161.894 161.486 161.678 161.69 161.519 161.952C161.36 162.21 161.281 162.505 161.281 162.837V167.5H159.794ZM170.89 161.728L169.542 161.967C169.486 161.794 169.396 161.63 169.274 161.474C169.154 161.319 168.992 161.191 168.787 161.092C168.581 160.992 168.324 160.942 168.016 160.942C167.595 160.942 167.244 161.037 166.962 161.226C166.68 161.411 166.539 161.652 166.539 161.947C166.539 162.202 166.634 162.407 166.823 162.563C167.012 162.719 167.317 162.847 167.738 162.946L168.951 163.224C169.653 163.387 170.177 163.637 170.522 163.975C170.866 164.313 171.039 164.752 171.039 165.293C171.039 165.75 170.906 166.158 170.641 166.516C170.379 166.87 170.013 167.149 169.542 167.351C169.075 167.553 168.533 167.654 167.917 167.654C167.061 167.654 166.364 167.472 165.824 167.107C165.283 166.739 164.952 166.217 164.829 165.541L166.266 165.322C166.355 165.697 166.539 165.98 166.818 166.173C167.096 166.362 167.459 166.456 167.907 166.456C168.394 166.456 168.783 166.355 169.075 166.153C169.367 165.947 169.512 165.697 169.512 165.402C169.512 165.163 169.423 164.963 169.244 164.8C169.068 164.638 168.798 164.515 168.434 164.433L167.141 164.149C166.428 163.987 165.901 163.728 165.56 163.374C165.222 163.019 165.053 162.57 165.053 162.026C165.053 161.576 165.179 161.181 165.431 160.843C165.683 160.505 166.031 160.241 166.475 160.053C166.919 159.86 167.428 159.764 168.001 159.764C168.826 159.764 169.476 159.943 169.95 160.301C170.424 160.656 170.737 161.131 170.89 161.728Z" fill="#18181B"/>
</svg>
