<svg width="45" height="44" viewBox="0 0 45 44" fill="none" xmlns="http://www.w3.org/2000/svg">
<path d="M0.5 22C0.5 9.84974 10.3497 0 22.5 0C34.6503 0 44.5 9.84974 44.5 22C44.5 34.1503 34.6503 44 22.5 44C10.3497 44 0.5 34.1503 0.5 22Z" fill="white"/>
<g clip-path="url(#clip0_762_4733)">
<path d="M25.8333 15.9996C26.0083 15.8245 26.2162 15.6856 26.445 15.5908C26.6738 15.496 26.919 15.4473 27.1666 15.4473C27.4142 15.4473 27.6594 15.496 27.8882 15.5908C28.117 15.6856 28.3248 15.8245 28.4999 15.9996C28.675 16.1746 28.8139 16.3825 28.9087 16.6113C29.0034 16.8401 29.0522 17.0853 29.0522 17.3329C29.0522 17.5805 29.0034 17.8257 28.9087 18.0545C28.8139 18.2833 28.675 18.4911 28.4999 18.6662L19.4999 27.6662L15.8333 28.6662L16.8333 24.9996L25.8333 15.9996Z" stroke="#EF4444" stroke-width="2" stroke-linecap="round" stroke-linejoin="round"/>
</g>
<defs>
<clipPath id="clip0_762_4733">
<rect width="16" height="16" fill="white" transform="translate(14.5 14)"/>
</clipPath>
</defs>
</svg>
