<svg width="1440" height="92" viewBox="0 0 1440 92" fill="none" xmlns="http://www.w3.org/2000/svg">
<g clip-path="url(#clip0_1286_1717)">
<rect width="1440" height="92" fill="#EF4444"/>
<path d="M100.152 57V35.1818H114.129V38.495H104.104V44.4183H113.17V47.7315H104.104V57H100.152ZM116.575 57V40.6364H120.315V43.3636H120.485C120.783 42.419 121.295 41.6911 122.019 41.1797C122.751 40.6612 123.585 40.402 124.523 40.402C124.736 40.402 124.974 40.4126 125.237 40.4339C125.506 40.4482 125.73 40.473 125.908 40.5085V44.0561C125.744 43.9993 125.485 43.9496 125.13 43.907C124.782 43.8572 124.445 43.8324 124.118 43.8324C123.415 43.8324 122.783 43.9851 122.222 44.2905C121.668 44.5888 121.231 45.0043 120.911 45.5369C120.592 46.0696 120.432 46.6839 120.432 47.38V57H116.575ZM134.29 57.3196C132.65 57.3196 131.233 56.9787 130.04 56.2969C128.854 55.608 127.941 54.6349 127.302 53.3778C126.662 52.1136 126.343 50.6257 126.343 48.9141C126.343 47.2308 126.662 45.7536 127.302 44.4822C127.948 43.2038 128.85 42.2095 130.008 41.4993C131.165 40.782 132.525 40.4233 134.088 40.4233C135.096 40.4233 136.048 40.5866 136.943 40.9134C137.845 41.233 138.64 41.7301 139.329 42.4048C140.025 43.0795 140.572 43.9389 140.97 44.983C141.368 46.0199 141.567 47.2557 141.567 48.6903V49.8729H128.154V47.2734H137.87C137.863 46.5348 137.703 45.8778 137.39 45.3026C137.078 44.7202 136.641 44.2621 136.08 43.9283C135.526 43.5945 134.88 43.4276 134.141 43.4276C133.353 43.4276 132.66 43.6193 132.064 44.0028C131.467 44.3793 131.002 44.8764 130.668 45.4943C130.341 46.1051 130.175 46.7763 130.167 47.5078V49.777C130.167 50.7287 130.341 51.5455 130.689 52.2273C131.037 52.902 131.524 53.4205 132.149 53.7827C132.774 54.1378 133.506 54.3153 134.344 54.3153C134.905 54.3153 135.412 54.2372 135.867 54.081C136.322 53.9176 136.716 53.6797 137.05 53.3672C137.383 53.0547 137.635 52.6676 137.806 52.206L141.407 52.6108C141.18 53.5625 140.746 54.3935 140.107 55.1037C139.475 55.8068 138.665 56.3537 137.678 56.7443C136.691 57.1278 135.562 57.3196 134.29 57.3196ZM157.012 44.9616L153.497 45.3452C153.397 44.9901 153.223 44.6562 152.975 44.3438C152.733 44.0312 152.407 43.7791 151.995 43.5874C151.583 43.3956 151.078 43.2997 150.482 43.2997C149.679 43.2997 149.005 43.4737 148.458 43.8217C147.918 44.1697 147.652 44.6207 147.659 45.1747C147.652 45.6506 147.826 46.0376 148.181 46.3359C148.543 46.6342 149.14 46.8793 149.971 47.071L152.762 47.6676C154.31 48.0014 155.461 48.5305 156.213 49.255C156.973 49.9794 157.357 50.9276 157.364 52.0994C157.357 53.1293 157.055 54.0384 156.458 54.8267C155.869 55.608 155.049 56.2187 153.998 56.6591C152.946 57.0994 151.739 57.3196 150.375 57.3196C148.373 57.3196 146.76 56.9006 145.539 56.0625C144.317 55.2173 143.589 54.0419 143.355 52.5362L147.115 52.174C147.286 52.9126 147.648 53.4702 148.202 53.8466C148.756 54.223 149.477 54.4112 150.365 54.4112C151.281 54.4112 152.016 54.223 152.57 53.8466C153.131 53.4702 153.412 53.005 153.412 52.451C153.412 51.9822 153.23 51.5952 152.868 51.2898C152.513 50.9844 151.959 50.75 151.206 50.5866L148.415 50.0007C146.846 49.674 145.684 49.1236 144.931 48.3494C144.179 47.5682 143.806 46.581 143.813 45.3878C143.806 44.3793 144.079 43.5057 144.633 42.767C145.194 42.0213 145.972 41.446 146.966 41.0412C147.968 40.6293 149.122 40.4233 150.429 40.4233C152.346 40.4233 153.855 40.8317 154.956 41.6484C156.064 42.4652 156.75 43.5696 157.012 44.9616ZM163.651 47.4119V57H159.794V35.1818H163.565V43.4169H163.757C164.141 42.4936 164.734 41.7656 165.536 41.233C166.346 40.6932 167.376 40.4233 168.626 40.4233C169.762 40.4233 170.753 40.6612 171.598 41.1371C172.443 41.6129 173.097 42.3089 173.558 43.2251C174.027 44.1413 174.261 45.2599 174.261 46.581V57H170.405V47.1776C170.405 46.0767 170.121 45.2209 169.553 44.6101C168.991 43.9922 168.203 43.6832 167.188 43.6832C166.506 43.6832 165.895 43.8324 165.355 44.1307C164.822 44.4219 164.403 44.8445 164.098 45.3984C163.8 45.9524 163.651 46.6236 163.651 47.4119ZM192.422 40.6364V43.6193H182.749V40.6364H192.422ZM185.167 57V39.0916C185.167 37.9908 185.395 37.0746 185.849 36.343C186.311 35.6115 186.929 35.0646 187.703 34.7024C188.477 34.3402 189.336 34.1591 190.281 34.1591C190.949 34.1591 191.542 34.2124 192.06 34.3189C192.578 34.4254 192.962 34.5213 193.211 34.6065L192.444 37.5895C192.28 37.5398 192.074 37.4901 191.826 37.4403C191.577 37.3835 191.3 37.3551 190.995 37.3551C190.277 37.3551 189.77 37.5291 189.471 37.8771C189.18 38.218 189.034 38.7081 189.034 39.3473V57H185.167ZM198.845 57.3303C197.808 57.3303 196.874 57.1456 196.043 56.7763C195.219 56.3999 194.566 55.8459 194.083 55.1143C193.607 54.3828 193.369 53.4808 193.369 52.4084C193.369 51.4851 193.539 50.7216 193.88 50.1179C194.221 49.5142 194.686 49.0312 195.276 48.669C195.865 48.3068 196.529 48.0334 197.268 47.8487C198.014 47.657 198.784 47.5185 199.58 47.4332C200.539 47.3338 201.316 47.245 201.913 47.1669C202.509 47.0817 202.943 46.9538 203.213 46.7834C203.49 46.6058 203.628 46.3324 203.628 45.9631V45.8991C203.628 45.0966 203.39 44.4751 202.914 44.0348C202.438 43.5945 201.753 43.3743 200.858 43.3743C199.914 43.3743 199.164 43.5803 198.61 43.9922C198.063 44.4041 197.694 44.8906 197.502 45.4517L193.901 44.9403C194.186 43.946 194.654 43.1151 195.308 42.4474C195.961 41.7727 196.76 41.2685 197.705 40.9347C198.649 40.5938 199.693 40.4233 200.837 40.4233C201.625 40.4233 202.41 40.5156 203.191 40.7003C203.972 40.8849 204.686 41.1903 205.333 41.6165C205.979 42.0355 206.497 42.6072 206.888 43.3317C207.286 44.0561 207.485 44.9616 207.485 46.0483V57H203.777V54.7521H203.649C203.415 55.2067 203.085 55.6328 202.659 56.0305C202.24 56.4212 201.71 56.7372 201.071 56.9787C200.439 57.2131 199.697 57.3303 198.845 57.3303ZM199.846 54.4964C200.62 54.4964 201.291 54.3437 201.86 54.0384C202.428 53.7259 202.865 53.3139 203.17 52.8026C203.482 52.2912 203.639 51.7337 203.639 51.13V49.2017C203.518 49.3011 203.312 49.3935 203.021 49.4787C202.737 49.5639 202.417 49.6385 202.062 49.7024C201.707 49.7663 201.355 49.8232 201.007 49.8729C200.659 49.9226 200.357 49.9652 200.102 50.0007C199.526 50.0788 199.012 50.2067 198.557 50.3842C198.102 50.5618 197.744 50.8104 197.481 51.13C197.218 51.4425 197.087 51.8473 197.087 52.3445C197.087 53.0547 197.346 53.5909 197.865 53.9531C198.383 54.3153 199.044 54.4964 199.846 54.4964ZM223.546 44.9616L220.03 45.3452C219.931 44.9901 219.757 44.6562 219.508 44.3438C219.267 44.0312 218.94 43.7791 218.528 43.5874C218.116 43.3956 217.612 43.2997 217.015 43.2997C216.213 43.2997 215.538 43.4737 214.991 43.8217C214.451 44.1697 214.185 44.6207 214.192 45.1747C214.185 45.6506 214.359 46.0376 214.714 46.3359C215.076 46.6342 215.673 46.8793 216.504 47.071L219.295 47.6676C220.843 48.0014 221.994 48.5305 222.747 49.255C223.507 49.9794 223.89 50.9276 223.897 52.0994C223.89 53.1293 223.588 54.0384 222.992 54.8267C222.402 55.608 221.582 56.2187 220.531 56.6591C219.48 57.0994 218.272 57.3196 216.909 57.3196C214.906 57.3196 213.294 56.9006 212.072 56.0625C210.85 55.2173 210.122 54.0419 209.888 52.5362L213.649 52.174C213.819 52.9126 214.181 53.4702 214.735 53.8466C215.289 54.223 216.01 54.4112 216.898 54.4112C217.814 54.4112 218.549 54.223 219.103 53.8466C219.664 53.4702 219.945 53.005 219.945 52.451C219.945 51.9822 219.764 51.5952 219.401 51.2898C219.046 50.9844 218.492 50.75 217.74 50.5866L214.948 50.0007C213.379 49.674 212.218 49.1236 211.465 48.3494C210.712 47.5682 210.339 46.581 210.346 45.3878C210.339 44.3793 210.612 43.5057 211.166 42.767C211.727 42.0213 212.505 41.446 213.499 41.0412C214.501 40.6293 215.655 40.4233 216.962 40.4233C218.879 40.4233 220.389 40.8317 221.49 41.6484C222.597 42.4652 223.283 43.5696 223.546 44.9616ZM234.498 40.6364V43.6193H225.091V40.6364H234.498ZM227.414 36.7159H231.27V52.0781C231.27 52.5966 231.349 52.9943 231.505 53.2713C231.668 53.5412 231.881 53.7259 232.144 53.8253C232.407 53.9247 232.698 53.9744 233.018 53.9744C233.259 53.9744 233.479 53.9567 233.678 53.9212C233.884 53.8857 234.04 53.8537 234.147 53.8253L234.797 56.8402C234.591 56.9112 234.296 56.9893 233.912 57.0746C233.536 57.1598 233.074 57.2095 232.528 57.2237C231.562 57.2521 230.692 57.1065 229.917 56.7869C229.143 56.4602 228.529 55.956 228.074 55.2741C227.627 54.5923 227.407 53.7401 227.414 52.7173V36.7159ZM249.738 57.2876C248.452 57.2876 247.301 56.9574 246.286 56.2969C245.27 55.6364 244.468 54.6776 243.878 53.4205C243.289 52.1634 242.994 50.6364 242.994 48.8395C242.994 47.0213 243.292 45.4872 243.889 44.2372C244.493 42.9801 245.306 42.032 246.328 41.3928C247.351 40.7464 248.491 40.4233 249.748 40.4233C250.707 40.4233 251.495 40.5866 252.113 40.9134C252.731 41.233 253.221 41.62 253.583 42.0746C253.946 42.522 254.226 42.9446 254.425 43.3423H254.585V35.1818H258.452V57H254.659V54.4219H254.425C254.226 54.8196 253.939 55.2422 253.562 55.6896C253.186 56.13 252.689 56.5064 252.071 56.8189C251.453 57.1314 250.675 57.2876 249.738 57.2876ZM250.814 54.1236C251.63 54.1236 252.326 53.9034 252.902 53.4631C253.477 53.0156 253.914 52.3942 254.212 51.5987C254.51 50.8033 254.659 49.8764 254.659 48.8182C254.659 47.7599 254.51 46.8402 254.212 46.0589C253.921 45.2777 253.488 44.6705 252.912 44.2372C252.344 43.804 251.645 43.5874 250.814 43.5874C249.954 43.5874 249.237 43.8111 248.662 44.2585C248.086 44.706 247.653 45.3239 247.362 46.1122C247.071 46.9006 246.925 47.8026 246.925 48.8182C246.925 49.8409 247.071 50.7536 247.362 51.5561C247.66 52.3516 248.097 52.9801 248.672 53.4418C249.255 53.8963 249.968 54.1236 250.814 54.1236ZM269.056 57.3196C267.415 57.3196 265.998 56.9787 264.805 56.2969C263.619 55.608 262.706 54.6349 262.067 53.3778C261.428 52.1136 261.108 50.6257 261.108 48.9141C261.108 47.2308 261.428 45.7536 262.067 44.4822C262.714 43.2038 263.616 42.2095 264.773 41.4993C265.931 40.782 267.291 40.4233 268.854 40.4233C269.862 40.4233 270.814 40.5866 271.709 40.9134C272.611 41.233 273.406 41.7301 274.095 42.4048C274.791 43.0795 275.338 43.9389 275.736 44.983C276.133 46.0199 276.332 47.2557 276.332 48.6903V49.8729H262.92V47.2734H272.635C272.628 46.5348 272.469 45.8778 272.156 45.3026C271.844 44.7202 271.407 44.2621 270.846 43.9283C270.292 43.5945 269.645 43.4276 268.907 43.4276C268.118 43.4276 267.426 43.6193 266.829 44.0028C266.233 44.3793 265.768 44.8764 265.434 45.4943C265.107 46.1051 264.94 46.7763 264.933 47.5078V49.777C264.933 50.7287 265.107 51.5455 265.455 52.2273C265.803 52.902 266.29 53.4205 266.915 53.7827C267.54 54.1378 268.271 54.3153 269.109 54.3153C269.67 54.3153 270.178 54.2372 270.633 54.081C271.087 53.9176 271.481 53.6797 271.815 53.3672C272.149 53.0547 272.401 52.6676 272.572 52.206L276.172 52.6108C275.945 53.5625 275.512 54.3935 274.873 55.1037C274.241 55.8068 273.431 56.3537 272.444 56.7443C271.456 57.1278 270.327 57.3196 269.056 57.3196ZM282.701 35.1818V57H278.845V35.1818H282.701ZM285.917 57V40.6364H289.774V57H285.917ZM287.856 38.3139C287.245 38.3139 286.72 38.1115 286.279 37.7067C285.839 37.2947 285.619 36.8011 285.619 36.2259C285.619 35.6435 285.839 35.1499 286.279 34.745C286.72 34.3331 287.245 34.1271 287.856 34.1271C288.474 34.1271 288.999 34.3331 289.433 34.745C289.873 35.1499 290.093 35.6435 290.093 36.2259C290.093 36.8011 289.873 37.2947 289.433 37.7067C288.999 38.1115 288.474 38.3139 287.856 38.3139ZM307.606 40.6364L301.778 57H297.517L291.69 40.6364H295.802L299.562 52.7919H299.733L303.504 40.6364H307.606ZM316.212 57.3196C314.572 57.3196 313.155 56.9787 311.961 56.2969C310.775 55.608 309.863 54.6349 309.224 53.3778C308.584 52.1136 308.265 50.6257 308.265 48.9141C308.265 47.2308 308.584 45.7536 309.224 44.4822C309.87 43.2038 310.772 42.2095 311.93 41.4993C313.087 40.782 314.447 40.4233 316.01 40.4233C317.018 40.4233 317.97 40.5866 318.865 40.9134C319.767 41.233 320.562 41.7301 321.251 42.4048C321.947 43.0795 322.494 43.9389 322.892 44.983C323.29 46.0199 323.488 47.2557 323.488 48.6903V49.8729H310.076V47.2734H319.792C319.785 46.5348 319.625 45.8778 319.312 45.3026C319 44.7202 318.563 44.2621 318.002 43.9283C317.448 43.5945 316.802 43.4276 316.063 43.4276C315.275 43.4276 314.582 43.6193 313.986 44.0028C313.389 44.3793 312.924 44.8764 312.59 45.4943C312.263 46.1051 312.096 46.7763 312.089 47.5078V49.777C312.089 50.7287 312.263 51.5455 312.611 52.2273C312.959 52.902 313.446 53.4205 314.071 53.7827C314.696 54.1378 315.427 54.3153 316.265 54.3153C316.827 54.3153 317.334 54.2372 317.789 54.081C318.243 53.9176 318.638 53.6797 318.971 53.3672C319.305 53.0547 319.557 52.6676 319.728 52.206L323.329 52.6108C323.101 53.5625 322.668 54.3935 322.029 55.1037C321.397 55.8068 320.587 56.3537 319.6 56.7443C318.613 57.1278 317.483 57.3196 316.212 57.3196ZM326.001 57V40.6364H329.74V43.3636H329.911C330.209 42.419 330.721 41.6911 331.445 41.1797C332.176 40.6612 333.011 40.402 333.949 40.402C334.162 40.402 334.4 40.4126 334.662 40.4339C334.932 40.4482 335.156 40.473 335.333 40.5085V44.0561C335.17 43.9993 334.911 43.9496 334.556 43.907C334.208 43.8572 333.87 43.8324 333.544 43.8324C332.841 43.8324 332.208 43.9851 331.647 44.2905C331.093 44.5888 330.657 45.0043 330.337 45.5369C330.017 46.0696 329.858 46.6839 329.858 47.38V57H326.001ZM343.716 57.3196C342.075 57.3196 340.659 56.9787 339.465 56.2969C338.279 55.608 337.367 54.6349 336.727 53.3778C336.088 52.1136 335.769 50.6257 335.769 48.9141C335.769 47.2308 336.088 45.7536 336.727 44.4822C337.374 43.2038 338.276 42.2095 339.433 41.4993C340.591 40.782 341.951 40.4233 343.514 40.4233C344.522 40.4233 345.474 40.5866 346.369 40.9134C347.271 41.233 348.066 41.7301 348.755 42.4048C349.451 43.0795 349.998 43.9389 350.396 44.983C350.794 46.0199 350.992 47.2557 350.992 48.6903V49.8729H337.58V47.2734H347.296C347.289 46.5348 347.129 45.8778 346.816 45.3026C346.504 44.7202 346.067 44.2621 345.506 43.9283C344.952 43.5945 344.306 43.4276 343.567 43.4276C342.779 43.4276 342.086 43.6193 341.49 44.0028C340.893 44.3793 340.428 44.8764 340.094 45.4943C339.767 46.1051 339.6 46.7763 339.593 47.5078V49.777C339.593 50.7287 339.767 51.5455 340.115 52.2273C340.463 52.902 340.95 53.4205 341.575 53.7827C342.2 54.1378 342.931 54.3153 343.769 54.3153C344.33 54.3153 344.838 54.2372 345.293 54.081C345.747 53.9176 346.142 53.6797 346.475 53.3672C346.809 53.0547 347.061 52.6676 347.232 52.206L350.833 52.6108C350.605 53.5625 350.172 54.3935 349.533 55.1037C348.901 55.8068 348.091 56.3537 347.104 56.7443C346.117 57.1278 344.987 57.3196 343.716 57.3196ZM359.577 57.2876C358.292 57.2876 357.141 56.9574 356.126 56.2969C355.11 55.6364 354.308 54.6776 353.718 53.4205C353.129 52.1634 352.834 50.6364 352.834 48.8395C352.834 47.0213 353.132 45.4872 353.729 44.2372C354.332 42.9801 355.146 42.032 356.168 41.3928C357.191 40.7464 358.331 40.4233 359.588 40.4233C360.547 40.4233 361.335 40.5866 361.953 40.9134C362.571 41.233 363.061 41.62 363.423 42.0746C363.786 42.522 364.066 42.9446 364.265 43.3423H364.425V35.1818H368.292V57H364.499V54.4219H364.265C364.066 54.8196 363.778 55.2422 363.402 55.6896C363.026 56.13 362.528 56.5064 361.911 56.8189C361.293 57.1314 360.515 57.2876 359.577 57.2876ZM360.653 54.1236C361.47 54.1236 362.166 53.9034 362.741 53.4631C363.317 53.0156 363.754 52.3942 364.052 51.5987C364.35 50.8033 364.499 49.8764 364.499 48.8182C364.499 47.7599 364.35 46.8402 364.052 46.0589C363.761 45.2777 363.327 44.6705 362.752 44.2372C362.184 43.804 361.484 43.5874 360.653 43.5874C359.794 43.5874 359.077 43.8111 358.501 44.2585C357.926 44.706 357.493 45.3239 357.202 46.1122C356.911 46.9006 356.765 47.8026 356.765 48.8182C356.765 49.8409 356.911 50.7536 357.202 51.5561C357.5 52.3516 357.937 52.9801 358.512 53.4418C359.094 53.8963 359.808 54.1236 360.653 54.1236Z" fill="#FAFAFA"/>
<path d="M406.152 57V35.1818H420.129V38.495H410.104V44.4183H419.17V47.7315H410.104V57H406.152ZM422.575 57V40.6364H426.315V43.3636H426.485C426.783 42.419 427.295 41.6911 428.019 41.1797C428.751 40.6612 429.585 40.402 430.523 40.402C430.736 40.402 430.974 40.4126 431.237 40.4339C431.506 40.4482 431.73 40.473 431.908 40.5085V44.0561C431.744 43.9993 431.485 43.9496 431.13 43.907C430.782 43.8572 430.445 43.8324 430.118 43.8324C429.415 43.8324 428.783 43.9851 428.222 44.2905C427.668 44.5888 427.231 45.0043 426.911 45.5369C426.592 46.0696 426.432 46.6839 426.432 47.38V57H422.575ZM440.29 57.3196C438.65 57.3196 437.233 56.9787 436.04 56.2969C434.854 55.608 433.941 54.6349 433.302 53.3778C432.662 52.1136 432.343 50.6257 432.343 48.9141C432.343 47.2308 432.662 45.7536 433.302 44.4822C433.948 43.2038 434.85 42.2095 436.008 41.4993C437.165 40.782 438.525 40.4233 440.088 40.4233C441.096 40.4233 442.048 40.5866 442.943 40.9134C443.845 41.233 444.64 41.7301 445.329 42.4048C446.025 43.0795 446.572 43.9389 446.97 44.983C447.368 46.0199 447.567 47.2557 447.567 48.6903V49.8729H434.154V47.2734H443.87C443.863 46.5348 443.703 45.8778 443.39 45.3026C443.078 44.7202 442.641 44.2621 442.08 43.9283C441.526 43.5945 440.88 43.4276 440.141 43.4276C439.353 43.4276 438.66 43.6193 438.064 44.0028C437.467 44.3793 437.002 44.8764 436.668 45.4943C436.341 46.1051 436.175 46.7763 436.167 47.5078V49.777C436.167 50.7287 436.341 51.5455 436.689 52.2273C437.037 52.902 437.524 53.4205 438.149 53.7827C438.774 54.1378 439.506 54.3153 440.344 54.3153C440.905 54.3153 441.412 54.2372 441.867 54.081C442.322 53.9176 442.716 53.6797 443.05 53.3672C443.383 53.0547 443.635 52.6676 443.806 52.206L447.407 52.6108C447.18 53.5625 446.746 54.3935 446.107 55.1037C445.475 55.8068 444.665 56.3537 443.678 56.7443C442.691 57.1278 441.562 57.3196 440.29 57.3196ZM463.012 44.9616L459.497 45.3452C459.397 44.9901 459.223 44.6562 458.975 44.3438C458.733 44.0312 458.407 43.7791 457.995 43.5874C457.583 43.3956 457.078 43.2997 456.482 43.2997C455.679 43.2997 455.005 43.4737 454.458 43.8217C453.918 44.1697 453.652 44.6207 453.659 45.1747C453.652 45.6506 453.826 46.0376 454.181 46.3359C454.543 46.6342 455.14 46.8793 455.971 47.071L458.762 47.6676C460.31 48.0014 461.461 48.5305 462.213 49.255C462.973 49.9794 463.357 50.9276 463.364 52.0994C463.357 53.1293 463.055 54.0384 462.458 54.8267C461.869 55.608 461.049 56.2187 459.998 56.6591C458.946 57.0994 457.739 57.3196 456.375 57.3196C454.373 57.3196 452.76 56.9006 451.539 56.0625C450.317 55.2173 449.589 54.0419 449.355 52.5362L453.115 52.174C453.286 52.9126 453.648 53.4702 454.202 53.8466C454.756 54.223 455.477 54.4112 456.365 54.4112C457.281 54.4112 458.016 54.223 458.57 53.8466C459.131 53.4702 459.412 53.005 459.412 52.451C459.412 51.9822 459.23 51.5952 458.868 51.2898C458.513 50.9844 457.959 50.75 457.206 50.5866L454.415 50.0007C452.846 49.674 451.684 49.1236 450.931 48.3494C450.179 47.5682 449.806 46.581 449.813 45.3878C449.806 44.3793 450.079 43.5057 450.633 42.767C451.194 42.0213 451.972 41.446 452.966 41.0412C453.968 40.6293 455.122 40.4233 456.429 40.4233C458.346 40.4233 459.855 40.8317 460.956 41.6484C462.064 42.4652 462.75 43.5696 463.012 44.9616ZM469.651 47.4119V57H465.794V35.1818H469.565V43.4169H469.757C470.141 42.4936 470.734 41.7656 471.536 41.233C472.346 40.6932 473.376 40.4233 474.626 40.4233C475.762 40.4233 476.753 40.6612 477.598 41.1371C478.443 41.6129 479.097 42.3089 479.558 43.2251C480.027 44.1413 480.261 45.2599 480.261 46.581V57H476.405V47.1776C476.405 46.0767 476.121 45.2209 475.553 44.6101C474.991 43.9922 474.203 43.6832 473.188 43.6832C472.506 43.6832 471.895 43.8324 471.355 44.1307C470.822 44.4219 470.403 44.8445 470.098 45.3984C469.8 45.9524 469.651 46.6236 469.651 47.4119ZM498.422 40.6364V43.6193H488.749V40.6364H498.422ZM491.167 57V39.0916C491.167 37.9908 491.395 37.0746 491.849 36.343C492.311 35.6115 492.929 35.0646 493.703 34.7024C494.477 34.3402 495.336 34.1591 496.281 34.1591C496.949 34.1591 497.542 34.2124 498.06 34.3189C498.578 34.4254 498.962 34.5213 499.211 34.6065L498.444 37.5895C498.28 37.5398 498.074 37.4901 497.826 37.4403C497.577 37.3835 497.3 37.3551 496.995 37.3551C496.277 37.3551 495.77 37.5291 495.471 37.8771C495.18 38.218 495.034 38.7081 495.034 39.3473V57H491.167ZM504.845 57.3303C503.808 57.3303 502.874 57.1456 502.043 56.7763C501.219 56.3999 500.566 55.8459 500.083 55.1143C499.607 54.3828 499.369 53.4808 499.369 52.4084C499.369 51.4851 499.539 50.7216 499.88 50.1179C500.221 49.5142 500.686 49.0312 501.276 48.669C501.865 48.3068 502.529 48.0334 503.268 47.8487C504.014 47.657 504.784 47.5185 505.58 47.4332C506.539 47.3338 507.316 47.245 507.913 47.1669C508.509 47.0817 508.943 46.9538 509.213 46.7834C509.49 46.6058 509.628 46.3324 509.628 45.9631V45.8991C509.628 45.0966 509.39 44.4751 508.914 44.0348C508.438 43.5945 507.753 43.3743 506.858 43.3743C505.914 43.3743 505.164 43.5803 504.61 43.9922C504.063 44.4041 503.694 44.8906 503.502 45.4517L499.901 44.9403C500.186 43.946 500.654 43.1151 501.308 42.4474C501.961 41.7727 502.76 41.2685 503.705 40.9347C504.649 40.5938 505.693 40.4233 506.837 40.4233C507.625 40.4233 508.41 40.5156 509.191 40.7003C509.972 40.8849 510.686 41.1903 511.333 41.6165C511.979 42.0355 512.497 42.6072 512.888 43.3317C513.286 44.0561 513.485 44.9616 513.485 46.0483V57H509.777V54.7521H509.649C509.415 55.2067 509.085 55.6328 508.659 56.0305C508.24 56.4212 507.71 56.7372 507.071 56.9787C506.439 57.2131 505.697 57.3303 504.845 57.3303ZM505.846 54.4964C506.62 54.4964 507.291 54.3437 507.86 54.0384C508.428 53.7259 508.865 53.3139 509.17 52.8026C509.482 52.2912 509.639 51.7337 509.639 51.13V49.2017C509.518 49.3011 509.312 49.3935 509.021 49.4787C508.737 49.5639 508.417 49.6385 508.062 49.7024C507.707 49.7663 507.355 49.8232 507.007 49.8729C506.659 49.9226 506.357 49.9652 506.102 50.0007C505.526 50.0788 505.012 50.2067 504.557 50.3842C504.102 50.5618 503.744 50.8104 503.481 51.13C503.218 51.4425 503.087 51.8473 503.087 52.3445C503.087 53.0547 503.346 53.5909 503.865 53.9531C504.383 54.3153 505.044 54.4964 505.846 54.4964ZM529.546 44.9616L526.03 45.3452C525.931 44.9901 525.757 44.6562 525.508 44.3438C525.267 44.0312 524.94 43.7791 524.528 43.5874C524.116 43.3956 523.612 43.2997 523.015 43.2997C522.213 43.2997 521.538 43.4737 520.991 43.8217C520.451 44.1697 520.185 44.6207 520.192 45.1747C520.185 45.6506 520.359 46.0376 520.714 46.3359C521.076 46.6342 521.673 46.8793 522.504 47.071L525.295 47.6676C526.843 48.0014 527.994 48.5305 528.747 49.255C529.507 49.9794 529.89 50.9276 529.897 52.0994C529.89 53.1293 529.588 54.0384 528.992 54.8267C528.402 55.608 527.582 56.2187 526.531 56.6591C525.48 57.0994 524.272 57.3196 522.909 57.3196C520.906 57.3196 519.294 56.9006 518.072 56.0625C516.85 55.2173 516.122 54.0419 515.888 52.5362L519.649 52.174C519.819 52.9126 520.181 53.4702 520.735 53.8466C521.289 54.223 522.01 54.4112 522.898 54.4112C523.814 54.4112 524.549 54.223 525.103 53.8466C525.664 53.4702 525.945 53.005 525.945 52.451C525.945 51.9822 525.764 51.5952 525.401 51.2898C525.046 50.9844 524.492 50.75 523.74 50.5866L520.948 50.0007C519.379 49.674 518.218 49.1236 517.465 48.3494C516.712 47.5682 516.339 46.581 516.346 45.3878C516.339 44.3793 516.612 43.5057 517.166 42.767C517.727 42.0213 518.505 41.446 519.499 41.0412C520.501 40.6293 521.655 40.4233 522.962 40.4233C524.879 40.4233 526.389 40.8317 527.49 41.6484C528.597 42.4652 529.283 43.5696 529.546 44.9616ZM540.498 40.6364V43.6193H531.091V40.6364H540.498ZM533.414 36.7159H537.27V52.0781C537.27 52.5966 537.349 52.9943 537.505 53.2713C537.668 53.5412 537.881 53.7259 538.144 53.8253C538.407 53.9247 538.698 53.9744 539.018 53.9744C539.259 53.9744 539.479 53.9567 539.678 53.9212C539.884 53.8857 540.04 53.8537 540.147 53.8253L540.797 56.8402C540.591 56.9112 540.296 56.9893 539.912 57.0746C539.536 57.1598 539.074 57.2095 538.528 57.2237C537.562 57.2521 536.692 57.1065 535.917 56.7869C535.143 56.4602 534.529 55.956 534.074 55.2741C533.627 54.5923 533.407 53.7401 533.414 52.7173V36.7159ZM555.738 57.2876C554.452 57.2876 553.301 56.9574 552.286 56.2969C551.27 55.6364 550.468 54.6776 549.878 53.4205C549.289 52.1634 548.994 50.6364 548.994 48.8395C548.994 47.0213 549.292 45.4872 549.889 44.2372C550.493 42.9801 551.306 42.032 552.328 41.3928C553.351 40.7464 554.491 40.4233 555.748 40.4233C556.707 40.4233 557.495 40.5866 558.113 40.9134C558.731 41.233 559.221 41.62 559.583 42.0746C559.946 42.522 560.226 42.9446 560.425 43.3423H560.585V35.1818H564.452V57H560.659V54.4219H560.425C560.226 54.8196 559.939 55.2422 559.562 55.6896C559.186 56.13 558.689 56.5064 558.071 56.8189C557.453 57.1314 556.675 57.2876 555.738 57.2876ZM556.814 54.1236C557.63 54.1236 558.326 53.9034 558.902 53.4631C559.477 53.0156 559.914 52.3942 560.212 51.5987C560.51 50.8033 560.659 49.8764 560.659 48.8182C560.659 47.7599 560.51 46.8402 560.212 46.0589C559.921 45.2777 559.488 44.6705 558.912 44.2372C558.344 43.804 557.645 43.5874 556.814 43.5874C555.954 43.5874 555.237 43.8111 554.662 44.2585C554.086 44.706 553.653 45.3239 553.362 46.1122C553.071 46.9006 552.925 47.8026 552.925 48.8182C552.925 49.8409 553.071 50.7536 553.362 51.5561C553.66 52.3516 554.097 52.9801 554.672 53.4418C555.255 53.8963 555.968 54.1236 556.814 54.1236ZM575.056 57.3196C573.415 57.3196 571.998 56.9787 570.805 56.2969C569.619 55.608 568.706 54.6349 568.067 53.3778C567.428 52.1136 567.108 50.6257 567.108 48.9141C567.108 47.2308 567.428 45.7536 568.067 44.4822C568.714 43.2038 569.616 42.2095 570.773 41.4993C571.931 40.782 573.291 40.4233 574.854 40.4233C575.862 40.4233 576.814 40.5866 577.709 40.9134C578.611 41.233 579.406 41.7301 580.095 42.4048C580.791 43.0795 581.338 43.9389 581.736 44.983C582.133 46.0199 582.332 47.2557 582.332 48.6903V49.8729H568.92V47.2734H578.635C578.628 46.5348 578.469 45.8778 578.156 45.3026C577.844 44.7202 577.407 44.2621 576.846 43.9283C576.292 43.5945 575.645 43.4276 574.907 43.4276C574.118 43.4276 573.426 43.6193 572.829 44.0028C572.233 44.3793 571.768 44.8764 571.434 45.4943C571.107 46.1051 570.94 46.7763 570.933 47.5078V49.777C570.933 50.7287 571.107 51.5455 571.455 52.2273C571.803 52.902 572.29 53.4205 572.915 53.7827C573.54 54.1378 574.271 54.3153 575.109 54.3153C575.67 54.3153 576.178 54.2372 576.633 54.081C577.087 53.9176 577.481 53.6797 577.815 53.3672C578.149 53.0547 578.401 52.6676 578.572 52.206L582.172 52.6108C581.945 53.5625 581.512 54.3935 580.873 55.1037C580.241 55.8068 579.431 56.3537 578.444 56.7443C577.456 57.1278 576.327 57.3196 575.056 57.3196ZM588.701 35.1818V57H584.845V35.1818H588.701ZM591.917 57V40.6364H595.774V57H591.917ZM593.856 38.3139C593.245 38.3139 592.72 38.1115 592.279 37.7067C591.839 37.2947 591.619 36.8011 591.619 36.2259C591.619 35.6435 591.839 35.1499 592.279 34.745C592.72 34.3331 593.245 34.1271 593.856 34.1271C594.474 34.1271 594.999 34.3331 595.433 34.745C595.873 35.1499 596.093 35.6435 596.093 36.2259C596.093 36.8011 595.873 37.2947 595.433 37.7067C594.999 38.1115 594.474 38.3139 593.856 38.3139ZM613.606 40.6364L607.778 57H603.517L597.69 40.6364H601.802L605.562 52.7919H605.733L609.504 40.6364H613.606ZM622.212 57.3196C620.572 57.3196 619.155 56.9787 617.961 56.2969C616.775 55.608 615.863 54.6349 615.224 53.3778C614.584 52.1136 614.265 50.6257 614.265 48.9141C614.265 47.2308 614.584 45.7536 615.224 44.4822C615.87 43.2038 616.772 42.2095 617.93 41.4993C619.087 40.782 620.447 40.4233 622.01 40.4233C623.018 40.4233 623.97 40.5866 624.865 40.9134C625.767 41.233 626.562 41.7301 627.251 42.4048C627.947 43.0795 628.494 43.9389 628.892 44.983C629.29 46.0199 629.488 47.2557 629.488 48.6903V49.8729H616.076V47.2734H625.792C625.785 46.5348 625.625 45.8778 625.312 45.3026C625 44.7202 624.563 44.2621 624.002 43.9283C623.448 43.5945 622.802 43.4276 622.063 43.4276C621.275 43.4276 620.582 43.6193 619.986 44.0028C619.389 44.3793 618.924 44.8764 618.59 45.4943C618.263 46.1051 618.096 46.7763 618.089 47.5078V49.777C618.089 50.7287 618.263 51.5455 618.611 52.2273C618.959 52.902 619.446 53.4205 620.071 53.7827C620.696 54.1378 621.427 54.3153 622.265 54.3153C622.827 54.3153 623.334 54.2372 623.789 54.081C624.243 53.9176 624.638 53.6797 624.971 53.3672C625.305 53.0547 625.557 52.6676 625.728 52.206L629.329 52.6108C629.101 53.5625 628.668 54.3935 628.029 55.1037C627.397 55.8068 626.587 56.3537 625.6 56.7443C624.613 57.1278 623.483 57.3196 622.212 57.3196ZM632.001 57V40.6364H635.74V43.3636H635.911C636.209 42.419 636.721 41.6911 637.445 41.1797C638.176 40.6612 639.011 40.402 639.949 40.402C640.162 40.402 640.4 40.4126 640.662 40.4339C640.932 40.4482 641.156 40.473 641.333 40.5085V44.0561C641.17 43.9993 640.911 43.9496 640.556 43.907C640.208 43.8572 639.87 43.8324 639.544 43.8324C638.841 43.8324 638.208 43.9851 637.647 44.2905C637.093 44.5888 636.657 45.0043 636.337 45.5369C636.017 46.0696 635.858 46.6839 635.858 47.38V57H632.001ZM649.716 57.3196C648.075 57.3196 646.659 56.9787 645.465 56.2969C644.279 55.608 643.367 54.6349 642.727 53.3778C642.088 52.1136 641.769 50.6257 641.769 48.9141C641.769 47.2308 642.088 45.7536 642.727 44.4822C643.374 43.2038 644.276 42.2095 645.433 41.4993C646.591 40.782 647.951 40.4233 649.514 40.4233C650.522 40.4233 651.474 40.5866 652.369 40.9134C653.271 41.233 654.066 41.7301 654.755 42.4048C655.451 43.0795 655.998 43.9389 656.396 44.983C656.794 46.0199 656.992 47.2557 656.992 48.6903V49.8729H643.58V47.2734H653.296C653.289 46.5348 653.129 45.8778 652.816 45.3026C652.504 44.7202 652.067 44.2621 651.506 43.9283C650.952 43.5945 650.306 43.4276 649.567 43.4276C648.779 43.4276 648.086 43.6193 647.49 44.0028C646.893 44.3793 646.428 44.8764 646.094 45.4943C645.767 46.1051 645.6 46.7763 645.593 47.5078V49.777C645.593 50.7287 645.767 51.5455 646.115 52.2273C646.463 52.902 646.95 53.4205 647.575 53.7827C648.2 54.1378 648.931 54.3153 649.769 54.3153C650.33 54.3153 650.838 54.2372 651.293 54.081C651.747 53.9176 652.142 53.6797 652.475 53.3672C652.809 53.0547 653.061 52.6676 653.232 52.206L656.833 52.6108C656.605 53.5625 656.172 54.3935 655.533 55.1037C654.901 55.8068 654.091 56.3537 653.104 56.7443C652.117 57.1278 650.987 57.3196 649.716 57.3196ZM665.577 57.2876C664.292 57.2876 663.141 56.9574 662.126 56.2969C661.11 55.6364 660.308 54.6776 659.718 53.4205C659.129 52.1634 658.834 50.6364 658.834 48.8395C658.834 47.0213 659.132 45.4872 659.729 44.2372C660.332 42.9801 661.146 42.032 662.168 41.3928C663.191 40.7464 664.331 40.4233 665.588 40.4233C666.547 40.4233 667.335 40.5866 667.953 40.9134C668.571 41.233 669.061 41.62 669.423 42.0746C669.786 42.522 670.066 42.9446 670.265 43.3423H670.425V35.1818H674.292V57H670.499V54.4219H670.265C670.066 54.8196 669.778 55.2422 669.402 55.6896C669.026 56.13 668.528 56.5064 667.911 56.8189C667.293 57.1314 666.515 57.2876 665.577 57.2876ZM666.653 54.1236C667.47 54.1236 668.166 53.9034 668.741 53.4631C669.317 53.0156 669.754 52.3942 670.052 51.5987C670.35 50.8033 670.499 49.8764 670.499 48.8182C670.499 47.7599 670.35 46.8402 670.052 46.0589C669.761 45.2777 669.327 44.6705 668.752 44.2372C668.184 43.804 667.484 43.5874 666.653 43.5874C665.794 43.5874 665.077 43.8111 664.501 44.2585C663.926 44.706 663.493 45.3239 663.202 46.1122C662.911 46.9006 662.765 47.8026 662.765 48.8182C662.765 49.8409 662.911 50.7536 663.202 51.5561C663.5 52.3516 663.937 52.9801 664.512 53.4418C665.094 53.8963 665.808 54.1236 666.653 54.1236Z" fill="#FAFAFA"/>
<path d="M712.152 57V35.1818H726.129V38.495H716.104V44.4183H725.17V47.7315H716.104V57H712.152ZM728.575 57V40.6364H732.315V43.3636H732.485C732.783 42.419 733.295 41.6911 734.019 41.1797C734.751 40.6612 735.585 40.402 736.523 40.402C736.736 40.402 736.974 40.4126 737.237 40.4339C737.506 40.4482 737.73 40.473 737.908 40.5085V44.0561C737.744 43.9993 737.485 43.9496 737.13 43.907C736.782 43.8572 736.445 43.8324 736.118 43.8324C735.415 43.8324 734.783 43.9851 734.222 44.2905C733.668 44.5888 733.231 45.0043 732.911 45.5369C732.592 46.0696 732.432 46.6839 732.432 47.38V57H728.575ZM746.29 57.3196C744.65 57.3196 743.233 56.9787 742.04 56.2969C740.854 55.608 739.941 54.6349 739.302 53.3778C738.662 52.1136 738.343 50.6257 738.343 48.9141C738.343 47.2308 738.662 45.7536 739.302 44.4822C739.948 43.2038 740.85 42.2095 742.008 41.4993C743.165 40.782 744.525 40.4233 746.088 40.4233C747.096 40.4233 748.048 40.5866 748.943 40.9134C749.845 41.233 750.64 41.7301 751.329 42.4048C752.025 43.0795 752.572 43.9389 752.97 44.983C753.368 46.0199 753.567 47.2557 753.567 48.6903V49.8729H740.154V47.2734H749.87C749.863 46.5348 749.703 45.8778 749.39 45.3026C749.078 44.7202 748.641 44.2621 748.08 43.9283C747.526 43.5945 746.88 43.4276 746.141 43.4276C745.353 43.4276 744.66 43.6193 744.064 44.0028C743.467 44.3793 743.002 44.8764 742.668 45.4943C742.341 46.1051 742.175 46.7763 742.167 47.5078V49.777C742.167 50.7287 742.341 51.5455 742.689 52.2273C743.037 52.902 743.524 53.4205 744.149 53.7827C744.774 54.1378 745.506 54.3153 746.344 54.3153C746.905 54.3153 747.412 54.2372 747.867 54.081C748.322 53.9176 748.716 53.6797 749.05 53.3672C749.383 53.0547 749.635 52.6676 749.806 52.206L753.407 52.6108C753.18 53.5625 752.746 54.3935 752.107 55.1037C751.475 55.8068 750.665 56.3537 749.678 56.7443C748.691 57.1278 747.562 57.3196 746.29 57.3196ZM769.012 44.9616L765.497 45.3452C765.397 44.9901 765.223 44.6562 764.975 44.3438C764.733 44.0312 764.407 43.7791 763.995 43.5874C763.583 43.3956 763.078 43.2997 762.482 43.2997C761.679 43.2997 761.005 43.4737 760.458 43.8217C759.918 44.1697 759.652 44.6207 759.659 45.1747C759.652 45.6506 759.826 46.0376 760.181 46.3359C760.543 46.6342 761.14 46.8793 761.971 47.071L764.762 47.6676C766.31 48.0014 767.461 48.5305 768.213 49.255C768.973 49.9794 769.357 50.9276 769.364 52.0994C769.357 53.1293 769.055 54.0384 768.458 54.8267C767.869 55.608 767.049 56.2187 765.998 56.6591C764.946 57.0994 763.739 57.3196 762.375 57.3196C760.373 57.3196 758.76 56.9006 757.539 56.0625C756.317 55.2173 755.589 54.0419 755.355 52.5362L759.115 52.174C759.286 52.9126 759.648 53.4702 760.202 53.8466C760.756 54.223 761.477 54.4112 762.365 54.4112C763.281 54.4112 764.016 54.223 764.57 53.8466C765.131 53.4702 765.412 53.005 765.412 52.451C765.412 51.9822 765.23 51.5952 764.868 51.2898C764.513 50.9844 763.959 50.75 763.206 50.5866L760.415 50.0007C758.846 49.674 757.684 49.1236 756.931 48.3494C756.179 47.5682 755.806 46.581 755.813 45.3878C755.806 44.3793 756.079 43.5057 756.633 42.767C757.194 42.0213 757.972 41.446 758.966 41.0412C759.968 40.6293 761.122 40.4233 762.429 40.4233C764.346 40.4233 765.855 40.8317 766.956 41.6484C768.064 42.4652 768.75 43.5696 769.012 44.9616ZM775.651 47.4119V57H771.794V35.1818H775.565V43.4169H775.757C776.141 42.4936 776.734 41.7656 777.536 41.233C778.346 40.6932 779.376 40.4233 780.626 40.4233C781.762 40.4233 782.753 40.6612 783.598 41.1371C784.443 41.6129 785.097 42.3089 785.558 43.2251C786.027 44.1413 786.261 45.2599 786.261 46.581V57H782.405V47.1776C782.405 46.0767 782.121 45.2209 781.553 44.6101C780.991 43.9922 780.203 43.6832 779.188 43.6832C778.506 43.6832 777.895 43.8324 777.355 44.1307C776.822 44.4219 776.403 44.8445 776.098 45.3984C775.8 45.9524 775.651 46.6236 775.651 47.4119ZM804.422 40.6364V43.6193H794.749V40.6364H804.422ZM797.167 57V39.0916C797.167 37.9908 797.395 37.0746 797.849 36.343C798.311 35.6115 798.929 35.0646 799.703 34.7024C800.477 34.3402 801.336 34.1591 802.281 34.1591C802.949 34.1591 803.542 34.2124 804.06 34.3189C804.578 34.4254 804.962 34.5213 805.211 34.6065L804.444 37.5895C804.28 37.5398 804.074 37.4901 803.826 37.4403C803.577 37.3835 803.3 37.3551 802.995 37.3551C802.277 37.3551 801.77 37.5291 801.471 37.8771C801.18 38.218 801.034 38.7081 801.034 39.3473V57H797.167ZM810.845 57.3303C809.808 57.3303 808.874 57.1456 808.043 56.7763C807.219 56.3999 806.566 55.8459 806.083 55.1143C805.607 54.3828 805.369 53.4808 805.369 52.4084C805.369 51.4851 805.539 50.7216 805.88 50.1179C806.221 49.5142 806.686 49.0312 807.276 48.669C807.865 48.3068 808.529 48.0334 809.268 47.8487C810.014 47.657 810.784 47.5185 811.58 47.4332C812.539 47.3338 813.316 47.245 813.913 47.1669C814.509 47.0817 814.943 46.9538 815.213 46.7834C815.49 46.6058 815.628 46.3324 815.628 45.9631V45.8991C815.628 45.0966 815.39 44.4751 814.914 44.0348C814.438 43.5945 813.753 43.3743 812.858 43.3743C811.914 43.3743 811.164 43.5803 810.61 43.9922C810.063 44.4041 809.694 44.8906 809.502 45.4517L805.901 44.9403C806.186 43.946 806.654 43.1151 807.308 42.4474C807.961 41.7727 808.76 41.2685 809.705 40.9347C810.649 40.5938 811.693 40.4233 812.837 40.4233C813.625 40.4233 814.41 40.5156 815.191 40.7003C815.972 40.8849 816.686 41.1903 817.333 41.6165C817.979 42.0355 818.497 42.6072 818.888 43.3317C819.286 44.0561 819.485 44.9616 819.485 46.0483V57H815.777V54.7521H815.649C815.415 55.2067 815.085 55.6328 814.659 56.0305C814.24 56.4212 813.71 56.7372 813.071 56.9787C812.439 57.2131 811.697 57.3303 810.845 57.3303ZM811.846 54.4964C812.62 54.4964 813.291 54.3437 813.86 54.0384C814.428 53.7259 814.865 53.3139 815.17 52.8026C815.482 52.2912 815.639 51.7337 815.639 51.13V49.2017C815.518 49.3011 815.312 49.3935 815.021 49.4787C814.737 49.5639 814.417 49.6385 814.062 49.7024C813.707 49.7663 813.355 49.8232 813.007 49.8729C812.659 49.9226 812.357 49.9652 812.102 50.0007C811.526 50.0788 811.012 50.2067 810.557 50.3842C810.102 50.5618 809.744 50.8104 809.481 51.13C809.218 51.4425 809.087 51.8473 809.087 52.3445C809.087 53.0547 809.346 53.5909 809.865 53.9531C810.383 54.3153 811.044 54.4964 811.846 54.4964ZM835.546 44.9616L832.03 45.3452C831.931 44.9901 831.757 44.6562 831.508 44.3438C831.267 44.0312 830.94 43.7791 830.528 43.5874C830.116 43.3956 829.612 43.2997 829.015 43.2997C828.213 43.2997 827.538 43.4737 826.991 43.8217C826.451 44.1697 826.185 44.6207 826.192 45.1747C826.185 45.6506 826.359 46.0376 826.714 46.3359C827.076 46.6342 827.673 46.8793 828.504 47.071L831.295 47.6676C832.843 48.0014 833.994 48.5305 834.747 49.255C835.507 49.9794 835.89 50.9276 835.897 52.0994C835.89 53.1293 835.588 54.0384 834.992 54.8267C834.402 55.608 833.582 56.2187 832.531 56.6591C831.48 57.0994 830.272 57.3196 828.909 57.3196C826.906 57.3196 825.294 56.9006 824.072 56.0625C822.85 55.2173 822.122 54.0419 821.888 52.5362L825.649 52.174C825.819 52.9126 826.181 53.4702 826.735 53.8466C827.289 54.223 828.01 54.4112 828.898 54.4112C829.814 54.4112 830.549 54.223 831.103 53.8466C831.664 53.4702 831.945 53.005 831.945 52.451C831.945 51.9822 831.764 51.5952 831.401 51.2898C831.046 50.9844 830.492 50.75 829.74 50.5866L826.948 50.0007C825.379 49.674 824.218 49.1236 823.465 48.3494C822.712 47.5682 822.339 46.581 822.346 45.3878C822.339 44.3793 822.612 43.5057 823.166 42.767C823.727 42.0213 824.505 41.446 825.499 41.0412C826.501 40.6293 827.655 40.4233 828.962 40.4233C830.879 40.4233 832.389 40.8317 833.49 41.6484C834.597 42.4652 835.283 43.5696 835.546 44.9616ZM846.498 40.6364V43.6193H837.091V40.6364H846.498ZM839.414 36.7159H843.27V52.0781C843.27 52.5966 843.349 52.9943 843.505 53.2713C843.668 53.5412 843.881 53.7259 844.144 53.8253C844.407 53.9247 844.698 53.9744 845.018 53.9744C845.259 53.9744 845.479 53.9567 845.678 53.9212C845.884 53.8857 846.04 53.8537 846.147 53.8253L846.797 56.8402C846.591 56.9112 846.296 56.9893 845.912 57.0746C845.536 57.1598 845.074 57.2095 844.528 57.2237C843.562 57.2521 842.692 57.1065 841.917 56.7869C841.143 56.4602 840.529 55.956 840.074 55.2741C839.627 54.5923 839.407 53.7401 839.414 52.7173V36.7159ZM861.738 57.2876C860.452 57.2876 859.301 56.9574 858.286 56.2969C857.27 55.6364 856.468 54.6776 855.878 53.4205C855.289 52.1634 854.994 50.6364 854.994 48.8395C854.994 47.0213 855.292 45.4872 855.889 44.2372C856.493 42.9801 857.306 42.032 858.328 41.3928C859.351 40.7464 860.491 40.4233 861.748 40.4233C862.707 40.4233 863.495 40.5866 864.113 40.9134C864.731 41.233 865.221 41.62 865.583 42.0746C865.946 42.522 866.226 42.9446 866.425 43.3423H866.585V35.1818H870.452V57H866.659V54.4219H866.425C866.226 54.8196 865.939 55.2422 865.562 55.6896C865.186 56.13 864.689 56.5064 864.071 56.8189C863.453 57.1314 862.675 57.2876 861.738 57.2876ZM862.814 54.1236C863.63 54.1236 864.326 53.9034 864.902 53.4631C865.477 53.0156 865.914 52.3942 866.212 51.5987C866.51 50.8033 866.659 49.8764 866.659 48.8182C866.659 47.7599 866.51 46.8402 866.212 46.0589C865.921 45.2777 865.488 44.6705 864.912 44.2372C864.344 43.804 863.645 43.5874 862.814 43.5874C861.954 43.5874 861.237 43.8111 860.662 44.2585C860.086 44.706 859.653 45.3239 859.362 46.1122C859.071 46.9006 858.925 47.8026 858.925 48.8182C858.925 49.8409 859.071 50.7536 859.362 51.5561C859.66 52.3516 860.097 52.9801 860.672 53.4418C861.255 53.8963 861.968 54.1236 862.814 54.1236ZM881.056 57.3196C879.415 57.3196 877.998 56.9787 876.805 56.2969C875.619 55.608 874.706 54.6349 874.067 53.3778C873.428 52.1136 873.108 50.6257 873.108 48.9141C873.108 47.2308 873.428 45.7536 874.067 44.4822C874.714 43.2038 875.616 42.2095 876.773 41.4993C877.931 40.782 879.291 40.4233 880.854 40.4233C881.862 40.4233 882.814 40.5866 883.709 40.9134C884.611 41.233 885.406 41.7301 886.095 42.4048C886.791 43.0795 887.338 43.9389 887.736 44.983C888.133 46.0199 888.332 47.2557 888.332 48.6903V49.8729H874.92V47.2734H884.635C884.628 46.5348 884.469 45.8778 884.156 45.3026C883.844 44.7202 883.407 44.2621 882.846 43.9283C882.292 43.5945 881.645 43.4276 880.907 43.4276C880.118 43.4276 879.426 43.6193 878.829 44.0028C878.233 44.3793 877.768 44.8764 877.434 45.4943C877.107 46.1051 876.94 46.7763 876.933 47.5078V49.777C876.933 50.7287 877.107 51.5455 877.455 52.2273C877.803 52.902 878.29 53.4205 878.915 53.7827C879.54 54.1378 880.271 54.3153 881.109 54.3153C881.67 54.3153 882.178 54.2372 882.633 54.081C883.087 53.9176 883.481 53.6797 883.815 53.3672C884.149 53.0547 884.401 52.6676 884.572 52.206L888.172 52.6108C887.945 53.5625 887.512 54.3935 886.873 55.1037C886.241 55.8068 885.431 56.3537 884.444 56.7443C883.456 57.1278 882.327 57.3196 881.056 57.3196ZM894.701 35.1818V57H890.845V35.1818H894.701ZM897.917 57V40.6364H901.774V57H897.917ZM899.856 38.3139C899.245 38.3139 898.72 38.1115 898.279 37.7067C897.839 37.2947 897.619 36.8011 897.619 36.2259C897.619 35.6435 897.839 35.1499 898.279 34.745C898.72 34.3331 899.245 34.1271 899.856 34.1271C900.474 34.1271 900.999 34.3331 901.433 34.745C901.873 35.1499 902.093 35.6435 902.093 36.2259C902.093 36.8011 901.873 37.2947 901.433 37.7067C900.999 38.1115 900.474 38.3139 899.856 38.3139ZM919.606 40.6364L913.778 57H909.517L903.69 40.6364H907.802L911.562 52.7919H911.733L915.504 40.6364H919.606ZM928.212 57.3196C926.572 57.3196 925.155 56.9787 923.961 56.2969C922.775 55.608 921.863 54.6349 921.224 53.3778C920.584 52.1136 920.265 50.6257 920.265 48.9141C920.265 47.2308 920.584 45.7536 921.224 44.4822C921.87 43.2038 922.772 42.2095 923.93 41.4993C925.087 40.782 926.447 40.4233 928.01 40.4233C929.018 40.4233 929.97 40.5866 930.865 40.9134C931.767 41.233 932.562 41.7301 933.251 42.4048C933.947 43.0795 934.494 43.9389 934.892 44.983C935.29 46.0199 935.488 47.2557 935.488 48.6903V49.8729H922.076V47.2734H931.792C931.785 46.5348 931.625 45.8778 931.312 45.3026C931 44.7202 930.563 44.2621 930.002 43.9283C929.448 43.5945 928.802 43.4276 928.063 43.4276C927.275 43.4276 926.582 43.6193 925.986 44.0028C925.389 44.3793 924.924 44.8764 924.59 45.4943C924.263 46.1051 924.096 46.7763 924.089 47.5078V49.777C924.089 50.7287 924.263 51.5455 924.611 52.2273C924.959 52.902 925.446 53.4205 926.071 53.7827C926.696 54.1378 927.427 54.3153 928.265 54.3153C928.827 54.3153 929.334 54.2372 929.789 54.081C930.243 53.9176 930.638 53.6797 930.971 53.3672C931.305 53.0547 931.557 52.6676 931.728 52.206L935.329 52.6108C935.101 53.5625 934.668 54.3935 934.029 55.1037C933.397 55.8068 932.587 56.3537 931.6 56.7443C930.613 57.1278 929.483 57.3196 928.212 57.3196ZM938.001 57V40.6364H941.74V43.3636H941.911C942.209 42.419 942.721 41.6911 943.445 41.1797C944.176 40.6612 945.011 40.402 945.949 40.402C946.162 40.402 946.4 40.4126 946.662 40.4339C946.932 40.4482 947.156 40.473 947.333 40.5085V44.0561C947.17 43.9993 946.911 43.9496 946.556 43.907C946.208 43.8572 945.87 43.8324 945.544 43.8324C944.841 43.8324 944.208 43.9851 943.647 44.2905C943.093 44.5888 942.657 45.0043 942.337 45.5369C942.017 46.0696 941.858 46.6839 941.858 47.38V57H938.001ZM955.716 57.3196C954.075 57.3196 952.659 56.9787 951.465 56.2969C950.279 55.608 949.367 54.6349 948.727 53.3778C948.088 52.1136 947.769 50.6257 947.769 48.9141C947.769 47.2308 948.088 45.7536 948.727 44.4822C949.374 43.2038 950.276 42.2095 951.433 41.4993C952.591 40.782 953.951 40.4233 955.514 40.4233C956.522 40.4233 957.474 40.5866 958.369 40.9134C959.271 41.233 960.066 41.7301 960.755 42.4048C961.451 43.0795 961.998 43.9389 962.396 44.983C962.794 46.0199 962.992 47.2557 962.992 48.6903V49.8729H949.58V47.2734H959.296C959.289 46.5348 959.129 45.8778 958.816 45.3026C958.504 44.7202 958.067 44.2621 957.506 43.9283C956.952 43.5945 956.306 43.4276 955.567 43.4276C954.779 43.4276 954.086 43.6193 953.49 44.0028C952.893 44.3793 952.428 44.8764 952.094 45.4943C951.767 46.1051 951.6 46.7763 951.593 47.5078V49.777C951.593 50.7287 951.767 51.5455 952.115 52.2273C952.463 52.902 952.95 53.4205 953.575 53.7827C954.2 54.1378 954.931 54.3153 955.769 54.3153C956.33 54.3153 956.838 54.2372 957.293 54.081C957.747 53.9176 958.142 53.6797 958.475 53.3672C958.809 53.0547 959.061 52.6676 959.232 52.206L962.833 52.6108C962.605 53.5625 962.172 54.3935 961.533 55.1037C960.901 55.8068 960.091 56.3537 959.104 56.7443C958.117 57.1278 956.987 57.3196 955.716 57.3196ZM971.577 57.2876C970.292 57.2876 969.141 56.9574 968.126 56.2969C967.11 55.6364 966.308 54.6776 965.718 53.4205C965.129 52.1634 964.834 50.6364 964.834 48.8395C964.834 47.0213 965.132 45.4872 965.729 44.2372C966.332 42.9801 967.146 42.032 968.168 41.3928C969.191 40.7464 970.331 40.4233 971.588 40.4233C972.547 40.4233 973.335 40.5866 973.953 40.9134C974.571 41.233 975.061 41.62 975.423 42.0746C975.786 42.522 976.066 42.9446 976.265 43.3423H976.425V35.1818H980.292V57H976.499V54.4219H976.265C976.066 54.8196 975.778 55.2422 975.402 55.6896C975.026 56.13 974.528 56.5064 973.911 56.8189C973.293 57.1314 972.515 57.2876 971.577 57.2876ZM972.653 54.1236C973.47 54.1236 974.166 53.9034 974.741 53.4631C975.317 53.0156 975.754 52.3942 976.052 51.5987C976.35 50.8033 976.499 49.8764 976.499 48.8182C976.499 47.7599 976.35 46.8402 976.052 46.0589C975.761 45.2777 975.327 44.6705 974.752 44.2372C974.184 43.804 973.484 43.5874 972.653 43.5874C971.794 43.5874 971.077 43.8111 970.501 44.2585C969.926 44.706 969.493 45.3239 969.202 46.1122C968.911 46.9006 968.765 47.8026 968.765 48.8182C968.765 49.8409 968.911 50.7536 969.202 51.5561C969.5 52.3516 969.937 52.9801 970.512 53.4418C971.094 53.8963 971.808 54.1236 972.653 54.1236Z" fill="#FAFAFA"/>
<path d="M1018.15 57V35.1818H1032.13V38.495H1022.1V44.4183H1031.17V47.7315H1022.1V57H1018.15ZM1034.58 57V40.6364H1038.31V43.3636H1038.49C1038.78 42.419 1039.29 41.6911 1040.02 41.1797C1040.75 40.6612 1041.59 40.402 1042.52 40.402C1042.74 40.402 1042.97 40.4126 1043.24 40.4339C1043.51 40.4482 1043.73 40.473 1043.91 40.5085V44.0561C1043.74 43.9993 1043.49 43.9496 1043.13 43.907C1042.78 43.8572 1042.44 43.8324 1042.12 43.8324C1041.41 43.8324 1040.78 43.9851 1040.22 44.2905C1039.67 44.5888 1039.23 45.0043 1038.91 45.5369C1038.59 46.0696 1038.43 46.6839 1038.43 47.38V57H1034.58ZM1052.29 57.3196C1050.65 57.3196 1049.23 56.9787 1048.04 56.2969C1046.85 55.608 1045.94 54.6349 1045.3 53.3778C1044.66 52.1136 1044.34 50.6257 1044.34 48.9141C1044.34 47.2308 1044.66 45.7536 1045.3 44.4822C1045.95 43.2038 1046.85 42.2095 1048.01 41.4993C1049.17 40.782 1050.53 40.4233 1052.09 40.4233C1053.1 40.4233 1054.05 40.5866 1054.94 40.9134C1055.84 41.233 1056.64 41.7301 1057.33 42.4048C1058.03 43.0795 1058.57 43.9389 1058.97 44.983C1059.37 46.0199 1059.57 47.2557 1059.57 48.6903V49.8729H1046.15V47.2734H1055.87C1055.86 46.5348 1055.7 45.8778 1055.39 45.3026C1055.08 44.7202 1054.64 44.2621 1054.08 43.9283C1053.53 43.5945 1052.88 43.4276 1052.14 43.4276C1051.35 43.4276 1050.66 43.6193 1050.06 44.0028C1049.47 44.3793 1049 44.8764 1048.67 45.4943C1048.34 46.1051 1048.17 46.7763 1048.17 47.5078V49.777C1048.17 50.7287 1048.34 51.5455 1048.69 52.2273C1049.04 52.902 1049.52 53.4205 1050.15 53.7827C1050.77 54.1378 1051.51 54.3153 1052.34 54.3153C1052.9 54.3153 1053.41 54.2372 1053.87 54.081C1054.32 53.9176 1054.72 53.6797 1055.05 53.3672C1055.38 53.0547 1055.64 52.6676 1055.81 52.206L1059.41 52.6108C1059.18 53.5625 1058.75 54.3935 1058.11 55.1037C1057.47 55.8068 1056.67 56.3537 1055.68 56.7443C1054.69 57.1278 1053.56 57.3196 1052.29 57.3196ZM1075.01 44.9616L1071.5 45.3452C1071.4 44.9901 1071.22 44.6562 1070.97 44.3438C1070.73 44.0312 1070.41 43.7791 1069.99 43.5874C1069.58 43.3956 1069.08 43.2997 1068.48 43.2997C1067.68 43.2997 1067 43.4737 1066.46 43.8217C1065.92 44.1697 1065.65 44.6207 1065.66 45.1747C1065.65 45.6506 1065.83 46.0376 1066.18 46.3359C1066.54 46.6342 1067.14 46.8793 1067.97 47.071L1070.76 47.6676C1072.31 48.0014 1073.46 48.5305 1074.21 49.255C1074.97 49.9794 1075.36 50.9276 1075.36 52.0994C1075.36 53.1293 1075.06 54.0384 1074.46 54.8267C1073.87 55.608 1073.05 56.2187 1072 56.6591C1070.95 57.0994 1069.74 57.3196 1068.38 57.3196C1066.37 57.3196 1064.76 56.9006 1063.54 56.0625C1062.32 55.2173 1061.59 54.0419 1061.35 52.5362L1065.12 52.174C1065.29 52.9126 1065.65 53.4702 1066.2 53.8466C1066.76 54.223 1067.48 54.4112 1068.36 54.4112C1069.28 54.4112 1070.02 54.223 1070.57 53.8466C1071.13 53.4702 1071.41 53.005 1071.41 52.451C1071.41 51.9822 1071.23 51.5952 1070.87 51.2898C1070.51 50.9844 1069.96 50.75 1069.21 50.5866L1066.42 50.0007C1064.85 49.674 1063.68 49.1236 1062.93 48.3494C1062.18 47.5682 1061.81 46.581 1061.81 45.3878C1061.81 44.3793 1062.08 43.5057 1062.63 42.767C1063.19 42.0213 1063.97 41.446 1064.97 41.0412C1065.97 40.6293 1067.12 40.4233 1068.43 40.4233C1070.35 40.4233 1071.86 40.8317 1072.96 41.6484C1074.06 42.4652 1074.75 43.5696 1075.01 44.9616ZM1081.65 47.4119V57H1077.79V35.1818H1081.57V43.4169H1081.76C1082.14 42.4936 1082.73 41.7656 1083.54 41.233C1084.35 40.6932 1085.38 40.4233 1086.63 40.4233C1087.76 40.4233 1088.75 40.6612 1089.6 41.1371C1090.44 41.6129 1091.1 42.3089 1091.56 43.2251C1092.03 44.1413 1092.26 45.2599 1092.26 46.581V57H1088.4V47.1776C1088.4 46.0767 1088.12 45.2209 1087.55 44.6101C1086.99 43.9922 1086.2 43.6832 1085.19 43.6832C1084.51 43.6832 1083.89 43.8324 1083.36 44.1307C1082.82 44.4219 1082.4 44.8445 1082.1 45.3984C1081.8 45.9524 1081.65 46.6236 1081.65 47.4119ZM1110.42 40.6364V43.6193H1100.75V40.6364H1110.42ZM1103.17 57V39.0916C1103.17 37.9908 1103.39 37.0746 1103.85 36.343C1104.31 35.6115 1104.93 35.0646 1105.7 34.7024C1106.48 34.3402 1107.34 34.1591 1108.28 34.1591C1108.95 34.1591 1109.54 34.2124 1110.06 34.3189C1110.58 34.4254 1110.96 34.5213 1111.21 34.6065L1110.44 37.5895C1110.28 37.5398 1110.07 37.4901 1109.83 37.4403C1109.58 37.3835 1109.3 37.3551 1108.99 37.3551C1108.28 37.3551 1107.77 37.5291 1107.47 37.8771C1107.18 38.218 1107.03 38.7081 1107.03 39.3473V57H1103.17ZM1116.84 57.3303C1115.81 57.3303 1114.87 57.1456 1114.04 56.7763C1113.22 56.3999 1112.57 55.8459 1112.08 55.1143C1111.61 54.3828 1111.37 53.4808 1111.37 52.4084C1111.37 51.4851 1111.54 50.7216 1111.88 50.1179C1112.22 49.5142 1112.69 49.0312 1113.28 48.669C1113.87 48.3068 1114.53 48.0334 1115.27 47.8487C1116.01 47.657 1116.78 47.5185 1117.58 47.4332C1118.54 47.3338 1119.32 47.245 1119.91 47.1669C1120.51 47.0817 1120.94 46.9538 1121.21 46.7834C1121.49 46.6058 1121.63 46.3324 1121.63 45.9631V45.8991C1121.63 45.0966 1121.39 44.4751 1120.91 44.0348C1120.44 43.5945 1119.75 43.3743 1118.86 43.3743C1117.91 43.3743 1117.16 43.5803 1116.61 43.9922C1116.06 44.4041 1115.69 44.8906 1115.5 45.4517L1111.9 44.9403C1112.19 43.946 1112.65 43.1151 1113.31 42.4474C1113.96 41.7727 1114.76 41.2685 1115.7 40.9347C1116.65 40.5938 1117.69 40.4233 1118.84 40.4233C1119.63 40.4233 1120.41 40.5156 1121.19 40.7003C1121.97 40.8849 1122.69 41.1903 1123.33 41.6165C1123.98 42.0355 1124.5 42.6072 1124.89 43.3317C1125.29 44.0561 1125.48 44.9616 1125.48 46.0483V57H1121.78V54.7521H1121.65C1121.41 55.2067 1121.08 55.6328 1120.66 56.0305C1120.24 56.4212 1119.71 56.7372 1119.07 56.9787C1118.44 57.2131 1117.7 57.3303 1116.84 57.3303ZM1117.85 54.4964C1118.62 54.4964 1119.29 54.3437 1119.86 54.0384C1120.43 53.7259 1120.86 53.3139 1121.17 52.8026C1121.48 52.2912 1121.64 51.7337 1121.64 51.13V49.2017C1121.52 49.3011 1121.31 49.3935 1121.02 49.4787C1120.74 49.5639 1120.42 49.6385 1120.06 49.7024C1119.71 49.7663 1119.36 49.8232 1119.01 49.8729C1118.66 49.9226 1118.36 49.9652 1118.1 50.0007C1117.53 50.0788 1117.01 50.2067 1116.56 50.3842C1116.1 50.5618 1115.74 50.8104 1115.48 51.13C1115.22 51.4425 1115.09 51.8473 1115.09 52.3445C1115.09 53.0547 1115.35 53.5909 1115.86 53.9531C1116.38 54.3153 1117.04 54.4964 1117.85 54.4964ZM1141.55 44.9616L1138.03 45.3452C1137.93 44.9901 1137.76 44.6562 1137.51 44.3438C1137.27 44.0312 1136.94 43.7791 1136.53 43.5874C1136.12 43.3956 1135.61 43.2997 1135.02 43.2997C1134.21 43.2997 1133.54 43.4737 1132.99 43.8217C1132.45 44.1697 1132.18 44.6207 1132.19 45.1747C1132.18 45.6506 1132.36 46.0376 1132.71 46.3359C1133.08 46.6342 1133.67 46.8793 1134.5 47.071L1137.29 47.6676C1138.84 48.0014 1139.99 48.5305 1140.75 49.255C1141.51 49.9794 1141.89 50.9276 1141.9 52.0994C1141.89 53.1293 1141.59 54.0384 1140.99 54.8267C1140.4 55.608 1139.58 56.2187 1138.53 56.6591C1137.48 57.0994 1136.27 57.3196 1134.91 57.3196C1132.91 57.3196 1131.29 56.9006 1130.07 56.0625C1128.85 55.2173 1128.12 54.0419 1127.89 52.5362L1131.65 52.174C1131.82 52.9126 1132.18 53.4702 1132.74 53.8466C1133.29 54.223 1134.01 54.4112 1134.9 54.4112C1135.81 54.4112 1136.55 54.223 1137.1 53.8466C1137.66 53.4702 1137.94 53.005 1137.94 52.451C1137.94 51.9822 1137.76 51.5952 1137.4 51.2898C1137.05 50.9844 1136.49 50.75 1135.74 50.5866L1132.95 50.0007C1131.38 49.674 1130.22 49.1236 1129.46 48.3494C1128.71 47.5682 1128.34 46.581 1128.35 45.3878C1128.34 44.3793 1128.61 43.5057 1129.17 42.767C1129.73 42.0213 1130.51 41.446 1131.5 41.0412C1132.5 40.6293 1133.66 40.4233 1134.96 40.4233C1136.88 40.4233 1138.39 40.8317 1139.49 41.6484C1140.6 42.4652 1141.28 43.5696 1141.55 44.9616ZM1152.5 40.6364V43.6193H1143.09V40.6364H1152.5ZM1145.41 36.7159H1149.27V52.0781C1149.27 52.5966 1149.35 52.9943 1149.5 53.2713C1149.67 53.5412 1149.88 53.7259 1150.14 53.8253C1150.41 53.9247 1150.7 53.9744 1151.02 53.9744C1151.26 53.9744 1151.48 53.9567 1151.68 53.9212C1151.88 53.8857 1152.04 53.8537 1152.15 53.8253L1152.8 56.8402C1152.59 56.9112 1152.3 56.9893 1151.91 57.0746C1151.54 57.1598 1151.07 57.2095 1150.53 57.2237C1149.56 57.2521 1148.69 57.1065 1147.92 56.7869C1147.14 56.4602 1146.53 55.956 1146.07 55.2741C1145.63 54.5923 1145.41 53.7401 1145.41 52.7173V36.7159ZM1167.74 57.2876C1166.45 57.2876 1165.3 56.9574 1164.29 56.2969C1163.27 55.6364 1162.47 54.6776 1161.88 53.4205C1161.29 52.1634 1160.99 50.6364 1160.99 48.8395C1160.99 47.0213 1161.29 45.4872 1161.89 44.2372C1162.49 42.9801 1163.31 42.032 1164.33 41.3928C1165.35 40.7464 1166.49 40.4233 1167.75 40.4233C1168.71 40.4233 1169.5 40.5866 1170.11 40.9134C1170.73 41.233 1171.22 41.62 1171.58 42.0746C1171.95 42.522 1172.23 42.9446 1172.43 43.3423H1172.58V35.1818H1176.45V57H1172.66V54.4219H1172.43C1172.23 54.8196 1171.94 55.2422 1171.56 55.6896C1171.19 56.13 1170.69 56.5064 1170.07 56.8189C1169.45 57.1314 1168.68 57.2876 1167.74 57.2876ZM1168.81 54.1236C1169.63 54.1236 1170.33 53.9034 1170.9 53.4631C1171.48 53.0156 1171.91 52.3942 1172.21 51.5987C1172.51 50.8033 1172.66 49.8764 1172.66 48.8182C1172.66 47.7599 1172.51 46.8402 1172.21 46.0589C1171.92 45.2777 1171.49 44.6705 1170.91 44.2372C1170.34 43.804 1169.64 43.5874 1168.81 43.5874C1167.95 43.5874 1167.24 43.8111 1166.66 44.2585C1166.09 44.706 1165.65 45.3239 1165.36 46.1122C1165.07 46.9006 1164.93 47.8026 1164.93 48.8182C1164.93 49.8409 1165.07 50.7536 1165.36 51.5561C1165.66 52.3516 1166.1 52.9801 1166.67 53.4418C1167.25 53.8963 1167.97 54.1236 1168.81 54.1236ZM1187.06 57.3196C1185.42 57.3196 1184 56.9787 1182.81 56.2969C1181.62 55.608 1180.71 54.6349 1180.07 53.3778C1179.43 52.1136 1179.11 50.6257 1179.11 48.9141C1179.11 47.2308 1179.43 45.7536 1180.07 44.4822C1180.71 43.2038 1181.62 42.2095 1182.77 41.4993C1183.93 40.782 1185.29 40.4233 1186.85 40.4233C1187.86 40.4233 1188.81 40.5866 1189.71 40.9134C1190.61 41.233 1191.41 41.7301 1192.09 42.4048C1192.79 43.0795 1193.34 43.9389 1193.74 44.983C1194.13 46.0199 1194.33 47.2557 1194.33 48.6903V49.8729H1180.92V47.2734H1190.64C1190.63 46.5348 1190.47 45.8778 1190.16 45.3026C1189.84 44.7202 1189.41 44.2621 1188.85 43.9283C1188.29 43.5945 1187.65 43.4276 1186.91 43.4276C1186.12 43.4276 1185.43 43.6193 1184.83 44.0028C1184.23 44.3793 1183.77 44.8764 1183.43 45.4943C1183.11 46.1051 1182.94 46.7763 1182.93 47.5078V49.777C1182.93 50.7287 1183.11 51.5455 1183.46 52.2273C1183.8 52.902 1184.29 53.4205 1184.91 53.7827C1185.54 54.1378 1186.27 54.3153 1187.11 54.3153C1187.67 54.3153 1188.18 54.2372 1188.63 54.081C1189.09 53.9176 1189.48 53.6797 1189.82 53.3672C1190.15 53.0547 1190.4 52.6676 1190.57 52.206L1194.17 52.6108C1193.95 53.5625 1193.51 54.3935 1192.87 55.1037C1192.24 55.8068 1191.43 56.3537 1190.44 56.7443C1189.46 57.1278 1188.33 57.3196 1187.06 57.3196ZM1200.7 35.1818V57H1196.84V35.1818H1200.7ZM1203.92 57V40.6364H1207.77V57H1203.92ZM1205.86 38.3139C1205.25 38.3139 1204.72 38.1115 1204.28 37.7067C1203.84 37.2947 1203.62 36.8011 1203.62 36.2259C1203.62 35.6435 1203.84 35.1499 1204.28 34.745C1204.72 34.3331 1205.25 34.1271 1205.86 34.1271C1206.47 34.1271 1207 34.3331 1207.43 34.745C1207.87 35.1499 1208.09 35.6435 1208.09 36.2259C1208.09 36.8011 1207.87 37.2947 1207.43 37.7067C1207 38.1115 1206.47 38.3139 1205.86 38.3139ZM1225.61 40.6364L1219.78 57H1215.52L1209.69 40.6364H1213.8L1217.56 52.7919H1217.73L1221.5 40.6364H1225.61ZM1234.21 57.3196C1232.57 57.3196 1231.15 56.9787 1229.96 56.2969C1228.78 55.608 1227.86 54.6349 1227.22 53.3778C1226.58 52.1136 1226.26 50.6257 1226.26 48.9141C1226.26 47.2308 1226.58 45.7536 1227.22 44.4822C1227.87 43.2038 1228.77 42.2095 1229.93 41.4993C1231.09 40.782 1232.45 40.4233 1234.01 40.4233C1235.02 40.4233 1235.97 40.5866 1236.86 40.9134C1237.77 41.233 1238.56 41.7301 1239.25 42.4048C1239.95 43.0795 1240.49 43.9389 1240.89 44.983C1241.29 46.0199 1241.49 47.2557 1241.49 48.6903V49.8729H1228.08V47.2734H1237.79C1237.78 46.5348 1237.62 45.8778 1237.31 45.3026C1237 44.7202 1236.56 44.2621 1236 43.9283C1235.45 43.5945 1234.8 43.4276 1234.06 43.4276C1233.27 43.4276 1232.58 43.6193 1231.99 44.0028C1231.39 44.3793 1230.92 44.8764 1230.59 45.4943C1230.26 46.1051 1230.1 46.7763 1230.09 47.5078V49.777C1230.09 50.7287 1230.26 51.5455 1230.61 52.2273C1230.96 52.902 1231.45 53.4205 1232.07 53.7827C1232.7 54.1378 1233.43 54.3153 1234.27 54.3153C1234.83 54.3153 1235.33 54.2372 1235.79 54.081C1236.24 53.9176 1236.64 53.6797 1236.97 53.3672C1237.31 53.0547 1237.56 52.6676 1237.73 52.206L1241.33 52.6108C1241.1 53.5625 1240.67 54.3935 1240.03 55.1037C1239.4 55.8068 1238.59 56.3537 1237.6 56.7443C1236.61 57.1278 1235.48 57.3196 1234.21 57.3196ZM1244 57V40.6364H1247.74V43.3636H1247.91C1248.21 42.419 1248.72 41.6911 1249.44 41.1797C1250.18 40.6612 1251.01 40.402 1251.95 40.402C1252.16 40.402 1252.4 40.4126 1252.66 40.4339C1252.93 40.4482 1253.16 40.473 1253.33 40.5085V44.0561C1253.17 43.9993 1252.91 43.9496 1252.56 43.907C1252.21 43.8572 1251.87 43.8324 1251.54 43.8324C1250.84 43.8324 1250.21 43.9851 1249.65 44.2905C1249.09 44.5888 1248.66 45.0043 1248.34 45.5369C1248.02 46.0696 1247.86 46.6839 1247.86 47.38V57H1244ZM1261.72 57.3196C1260.08 57.3196 1258.66 56.9787 1257.47 56.2969C1256.28 55.608 1255.37 54.6349 1254.73 53.3778C1254.09 52.1136 1253.77 50.6257 1253.77 48.9141C1253.77 47.2308 1254.09 45.7536 1254.73 44.4822C1255.37 43.2038 1256.28 42.2095 1257.43 41.4993C1258.59 40.782 1259.95 40.4233 1261.51 40.4233C1262.52 40.4233 1263.47 40.5866 1264.37 40.9134C1265.27 41.233 1266.07 41.7301 1266.76 42.4048C1267.45 43.0795 1268 43.9389 1268.4 44.983C1268.79 46.0199 1268.99 47.2557 1268.99 48.6903V49.8729H1255.58V47.2734H1265.3C1265.29 46.5348 1265.13 45.8778 1264.82 45.3026C1264.5 44.7202 1264.07 44.2621 1263.51 43.9283C1262.95 43.5945 1262.31 43.4276 1261.57 43.4276C1260.78 43.4276 1260.09 43.6193 1259.49 44.0028C1258.89 44.3793 1258.43 44.8764 1258.09 45.4943C1257.77 46.1051 1257.6 46.7763 1257.59 47.5078V49.777C1257.59 50.7287 1257.77 51.5455 1258.12 52.2273C1258.46 52.902 1258.95 53.4205 1259.57 53.7827C1260.2 54.1378 1260.93 54.3153 1261.77 54.3153C1262.33 54.3153 1262.84 54.2372 1263.29 54.081C1263.75 53.9176 1264.14 53.6797 1264.48 53.3672C1264.81 53.0547 1265.06 52.6676 1265.23 52.206L1268.83 52.6108C1268.61 53.5625 1268.17 54.3935 1267.53 55.1037C1266.9 55.8068 1266.09 56.3537 1265.1 56.7443C1264.12 57.1278 1262.99 57.3196 1261.72 57.3196ZM1277.58 57.2876C1276.29 57.2876 1275.14 56.9574 1274.13 56.2969C1273.11 55.6364 1272.31 54.6776 1271.72 53.4205C1271.13 52.1634 1270.83 50.6364 1270.83 48.8395C1270.83 47.0213 1271.13 45.4872 1271.73 44.2372C1272.33 42.9801 1273.15 42.032 1274.17 41.3928C1275.19 40.7464 1276.33 40.4233 1277.59 40.4233C1278.55 40.4233 1279.34 40.5866 1279.95 40.9134C1280.57 41.233 1281.06 41.62 1281.42 42.0746C1281.79 42.522 1282.07 42.9446 1282.26 43.3423H1282.42V35.1818H1286.29V57H1282.5V54.4219H1282.26C1282.07 54.8196 1281.78 55.2422 1281.4 55.6896C1281.03 56.13 1280.53 56.5064 1279.91 56.8189C1279.29 57.1314 1278.51 57.2876 1277.58 57.2876ZM1278.65 54.1236C1279.47 54.1236 1280.17 53.9034 1280.74 53.4631C1281.32 53.0156 1281.75 52.3942 1282.05 51.5987C1282.35 50.8033 1282.5 49.8764 1282.5 48.8182C1282.5 47.7599 1282.35 46.8402 1282.05 46.0589C1281.76 45.2777 1281.33 44.6705 1280.75 44.2372C1280.18 43.804 1279.48 43.5874 1278.65 43.5874C1277.79 43.5874 1277.08 43.8111 1276.5 44.2585C1275.93 44.706 1275.49 45.3239 1275.2 46.1122C1274.91 46.9006 1274.76 47.8026 1274.76 48.8182C1274.76 49.8409 1274.91 50.7536 1275.2 51.5561C1275.5 52.3516 1275.94 52.9801 1276.51 53.4418C1277.09 53.8963 1277.81 54.1236 1278.65 54.1236Z" fill="#FAFAFA"/>
<path d="M1324.15 57V35.1818H1338.13V38.495H1328.1V44.4183H1337.17V47.7315H1328.1V57H1324.15ZM1340.58 57V40.6364H1344.31V43.3636H1344.49C1344.78 42.419 1345.29 41.6911 1346.02 41.1797C1346.75 40.6612 1347.59 40.402 1348.52 40.402C1348.74 40.402 1348.97 40.4126 1349.24 40.4339C1349.51 40.4482 1349.73 40.473 1349.91 40.5085V44.0561C1349.74 43.9993 1349.49 43.9496 1349.13 43.907C1348.78 43.8572 1348.44 43.8324 1348.12 43.8324C1347.41 43.8324 1346.78 43.9851 1346.22 44.2905C1345.67 44.5888 1345.23 45.0043 1344.91 45.5369C1344.59 46.0696 1344.43 46.6839 1344.43 47.38V57H1340.58ZM1358.29 57.3196C1356.65 57.3196 1355.23 56.9787 1354.04 56.2969C1352.85 55.608 1351.94 54.6349 1351.3 53.3778C1350.66 52.1136 1350.34 50.6257 1350.34 48.9141C1350.34 47.2308 1350.66 45.7536 1351.3 44.4822C1351.95 43.2038 1352.85 42.2095 1354.01 41.4993C1355.17 40.782 1356.53 40.4233 1358.09 40.4233C1359.1 40.4233 1360.05 40.5866 1360.94 40.9134C1361.84 41.233 1362.64 41.7301 1363.33 42.4048C1364.03 43.0795 1364.57 43.9389 1364.97 44.983C1365.37 46.0199 1365.57 47.2557 1365.57 48.6903V49.8729H1352.15V47.2734H1361.87C1361.86 46.5348 1361.7 45.8778 1361.39 45.3026C1361.08 44.7202 1360.64 44.2621 1360.08 43.9283C1359.53 43.5945 1358.88 43.4276 1358.14 43.4276C1357.35 43.4276 1356.66 43.6193 1356.06 44.0028C1355.47 44.3793 1355 44.8764 1354.67 45.4943C1354.34 46.1051 1354.17 46.7763 1354.17 47.5078V49.777C1354.17 50.7287 1354.34 51.5455 1354.69 52.2273C1355.04 52.902 1355.52 53.4205 1356.15 53.7827C1356.77 54.1378 1357.51 54.3153 1358.34 54.3153C1358.9 54.3153 1359.41 54.2372 1359.87 54.081C1360.32 53.9176 1360.72 53.6797 1361.05 53.3672C1361.38 53.0547 1361.64 52.6676 1361.81 52.206L1365.41 52.6108C1365.18 53.5625 1364.75 54.3935 1364.11 55.1037C1363.47 55.8068 1362.67 56.3537 1361.68 56.7443C1360.69 57.1278 1359.56 57.3196 1358.29 57.3196ZM1381.01 44.9616L1377.5 45.3452C1377.4 44.9901 1377.22 44.6562 1376.97 44.3438C1376.73 44.0312 1376.41 43.7791 1375.99 43.5874C1375.58 43.3956 1375.08 43.2997 1374.48 43.2997C1373.68 43.2997 1373 43.4737 1372.46 43.8217C1371.92 44.1697 1371.65 44.6207 1371.66 45.1747C1371.65 45.6506 1371.83 46.0376 1372.18 46.3359C1372.54 46.6342 1373.14 46.8793 1373.97 47.071L1376.76 47.6676C1378.31 48.0014 1379.46 48.5305 1380.21 49.255C1380.97 49.9794 1381.36 50.9276 1381.36 52.0994C1381.36 53.1293 1381.06 54.0384 1380.46 54.8267C1379.87 55.608 1379.05 56.2187 1378 56.6591C1376.95 57.0994 1375.74 57.3196 1374.38 57.3196C1372.37 57.3196 1370.76 56.9006 1369.54 56.0625C1368.32 55.2173 1367.59 54.0419 1367.35 52.5362L1371.12 52.174C1371.29 52.9126 1371.65 53.4702 1372.2 53.8466C1372.76 54.223 1373.48 54.4112 1374.36 54.4112C1375.28 54.4112 1376.02 54.223 1376.57 53.8466C1377.13 53.4702 1377.41 53.005 1377.41 52.451C1377.41 51.9822 1377.23 51.5952 1376.87 51.2898C1376.51 50.9844 1375.96 50.75 1375.21 50.5866L1372.42 50.0007C1370.85 49.674 1369.68 49.1236 1368.93 48.3494C1368.18 47.5682 1367.81 46.581 1367.81 45.3878C1367.81 44.3793 1368.08 43.5057 1368.63 42.767C1369.19 42.0213 1369.97 41.446 1370.97 41.0412C1371.97 40.6293 1373.12 40.4233 1374.43 40.4233C1376.35 40.4233 1377.86 40.8317 1378.96 41.6484C1380.06 42.4652 1380.75 43.5696 1381.01 44.9616ZM1387.65 47.4119V57H1383.79V35.1818H1387.57V43.4169H1387.76C1388.14 42.4936 1388.73 41.7656 1389.54 41.233C1390.35 40.6932 1391.38 40.4233 1392.63 40.4233C1393.76 40.4233 1394.75 40.6612 1395.6 41.1371C1396.44 41.6129 1397.1 42.3089 1397.56 43.2251C1398.03 44.1413 1398.26 45.2599 1398.26 46.581V57H1394.4V47.1776C1394.4 46.0767 1394.12 45.2209 1393.55 44.6101C1392.99 43.9922 1392.2 43.6832 1391.19 43.6832C1390.51 43.6832 1389.89 43.8324 1389.36 44.1307C1388.82 44.4219 1388.4 44.8445 1388.1 45.3984C1387.8 45.9524 1387.65 46.6236 1387.65 47.4119ZM1416.42 40.6364V43.6193H1406.75V40.6364H1416.42ZM1409.17 57V39.0916C1409.17 37.9908 1409.39 37.0746 1409.85 36.343C1410.31 35.6115 1410.93 35.0646 1411.7 34.7024C1412.48 34.3402 1413.34 34.1591 1414.28 34.1591C1414.95 34.1591 1415.54 34.2124 1416.06 34.3189C1416.58 34.4254 1416.96 34.5213 1417.21 34.6065L1416.44 37.5895C1416.28 37.5398 1416.07 37.4901 1415.83 37.4403C1415.58 37.3835 1415.3 37.3551 1414.99 37.3551C1414.28 37.3551 1413.77 37.5291 1413.47 37.8771C1413.18 38.218 1413.03 38.7081 1413.03 39.3473V57H1409.17ZM1422.84 57.3303C1421.81 57.3303 1420.87 57.1456 1420.04 56.7763C1419.22 56.3999 1418.57 55.8459 1418.08 55.1143C1417.61 54.3828 1417.37 53.4808 1417.37 52.4084C1417.37 51.4851 1417.54 50.7216 1417.88 50.1179C1418.22 49.5142 1418.69 49.0312 1419.28 48.669C1419.87 48.3068 1420.53 48.0334 1421.27 47.8487C1422.01 47.657 1422.78 47.5185 1423.58 47.4332C1424.54 47.3338 1425.32 47.245 1425.91 47.1669C1426.51 47.0817 1426.94 46.9538 1427.21 46.7834C1427.49 46.6058 1427.63 46.3324 1427.63 45.9631V45.8991C1427.63 45.0966 1427.39 44.4751 1426.91 44.0348C1426.44 43.5945 1425.75 43.3743 1424.86 43.3743C1423.91 43.3743 1423.16 43.5803 1422.61 43.9922C1422.06 44.4041 1421.69 44.8906 1421.5 45.4517L1417.9 44.9403C1418.19 43.946 1418.65 43.1151 1419.31 42.4474C1419.96 41.7727 1420.76 41.2685 1421.7 40.9347C1422.65 40.5938 1423.69 40.4233 1424.84 40.4233C1425.63 40.4233 1426.41 40.5156 1427.19 40.7003C1427.97 40.8849 1428.69 41.1903 1429.33 41.6165C1429.98 42.0355 1430.5 42.6072 1430.89 43.3317C1431.29 44.0561 1431.48 44.9616 1431.48 46.0483V57H1427.78V54.7521H1427.65C1427.41 55.2067 1427.08 55.6328 1426.66 56.0305C1426.24 56.4212 1425.71 56.7372 1425.07 56.9787C1424.44 57.2131 1423.7 57.3303 1422.84 57.3303ZM1423.85 54.4964C1424.62 54.4964 1425.29 54.3437 1425.86 54.0384C1426.43 53.7259 1426.86 53.3139 1427.17 52.8026C1427.48 52.2912 1427.64 51.7337 1427.64 51.13V49.2017C1427.52 49.3011 1427.31 49.3935 1427.02 49.4787C1426.74 49.5639 1426.42 49.6385 1426.06 49.7024C1425.71 49.7663 1425.36 49.8232 1425.01 49.8729C1424.66 49.9226 1424.36 49.9652 1424.1 50.0007C1423.53 50.0788 1423.01 50.2067 1422.56 50.3842C1422.1 50.5618 1421.74 50.8104 1421.48 51.13C1421.22 51.4425 1421.09 51.8473 1421.09 52.3445C1421.09 53.0547 1421.35 53.5909 1421.86 53.9531C1422.38 54.3153 1423.04 54.4964 1423.85 54.4964ZM1447.55 44.9616L1444.03 45.3452C1443.93 44.9901 1443.76 44.6562 1443.51 44.3438C1443.27 44.0312 1442.94 43.7791 1442.53 43.5874C1442.12 43.3956 1441.61 43.2997 1441.02 43.2997C1440.21 43.2997 1439.54 43.4737 1438.99 43.8217C1438.45 44.1697 1438.18 44.6207 1438.19 45.1747C1438.18 45.6506 1438.36 46.0376 1438.71 46.3359C1439.08 46.6342 1439.67 46.8793 1440.5 47.071L1443.29 47.6676C1444.84 48.0014 1445.99 48.5305 1446.75 49.255C1447.51 49.9794 1447.89 50.9276 1447.9 52.0994C1447.89 53.1293 1447.59 54.0384 1446.99 54.8267C1446.4 55.608 1445.58 56.2187 1444.53 56.6591C1443.48 57.0994 1442.27 57.3196 1440.91 57.3196C1438.91 57.3196 1437.29 56.9006 1436.07 56.0625C1434.85 55.2173 1434.12 54.0419 1433.89 52.5362L1437.65 52.174C1437.82 52.9126 1438.18 53.4702 1438.74 53.8466C1439.29 54.223 1440.01 54.4112 1440.9 54.4112C1441.81 54.4112 1442.55 54.223 1443.1 53.8466C1443.66 53.4702 1443.94 53.005 1443.94 52.451C1443.94 51.9822 1443.76 51.5952 1443.4 51.2898C1443.05 50.9844 1442.49 50.75 1441.74 50.5866L1438.95 50.0007C1437.38 49.674 1436.22 49.1236 1435.46 48.3494C1434.71 47.5682 1434.34 46.581 1434.35 45.3878C1434.34 44.3793 1434.61 43.5057 1435.17 42.767C1435.73 42.0213 1436.51 41.446 1437.5 41.0412C1438.5 40.6293 1439.66 40.4233 1440.96 40.4233C1442.88 40.4233 1444.39 40.8317 1445.49 41.6484C1446.6 42.4652 1447.28 43.5696 1447.55 44.9616ZM1458.5 40.6364V43.6193H1449.09V40.6364H1458.5ZM1451.41 36.7159H1455.27V52.0781C1455.27 52.5966 1455.35 52.9943 1455.5 53.2713C1455.67 53.5412 1455.88 53.7259 1456.14 53.8253C1456.41 53.9247 1456.7 53.9744 1457.02 53.9744C1457.26 53.9744 1457.48 53.9567 1457.68 53.9212C1457.88 53.8857 1458.04 53.8537 1458.15 53.8253L1458.8 56.8402C1458.59 56.9112 1458.3 56.9893 1457.91 57.0746C1457.54 57.1598 1457.07 57.2095 1456.53 57.2237C1455.56 57.2521 1454.69 57.1065 1453.92 56.7869C1453.14 56.4602 1452.53 55.956 1452.07 55.2741C1451.63 54.5923 1451.41 53.7401 1451.41 52.7173V36.7159ZM1473.74 57.2876C1472.45 57.2876 1471.3 56.9574 1470.29 56.2969C1469.27 55.6364 1468.47 54.6776 1467.88 53.4205C1467.29 52.1634 1466.99 50.6364 1466.99 48.8395C1466.99 47.0213 1467.29 45.4872 1467.89 44.2372C1468.49 42.9801 1469.31 42.032 1470.33 41.3928C1471.35 40.7464 1472.49 40.4233 1473.75 40.4233C1474.71 40.4233 1475.5 40.5866 1476.11 40.9134C1476.73 41.233 1477.22 41.62 1477.58 42.0746C1477.95 42.522 1478.23 42.9446 1478.43 43.3423H1478.58V35.1818H1482.45V57H1478.66V54.4219H1478.43C1478.23 54.8196 1477.94 55.2422 1477.56 55.6896C1477.19 56.13 1476.69 56.5064 1476.07 56.8189C1475.45 57.1314 1474.68 57.2876 1473.74 57.2876ZM1474.81 54.1236C1475.63 54.1236 1476.33 53.9034 1476.9 53.4631C1477.48 53.0156 1477.91 52.3942 1478.21 51.5987C1478.51 50.8033 1478.66 49.8764 1478.66 48.8182C1478.66 47.7599 1478.51 46.8402 1478.21 46.0589C1477.92 45.2777 1477.49 44.6705 1476.91 44.2372C1476.34 43.804 1475.64 43.5874 1474.81 43.5874C1473.95 43.5874 1473.24 43.8111 1472.66 44.2585C1472.09 44.706 1471.65 45.3239 1471.36 46.1122C1471.07 46.9006 1470.93 47.8026 1470.93 48.8182C1470.93 49.8409 1471.07 50.7536 1471.36 51.5561C1471.66 52.3516 1472.1 52.9801 1472.67 53.4418C1473.25 53.8963 1473.97 54.1236 1474.81 54.1236ZM1493.06 57.3196C1491.42 57.3196 1490 56.9787 1488.81 56.2969C1487.62 55.608 1486.71 54.6349 1486.07 53.3778C1485.43 52.1136 1485.11 50.6257 1485.11 48.9141C1485.11 47.2308 1485.43 45.7536 1486.07 44.4822C1486.71 43.2038 1487.62 42.2095 1488.77 41.4993C1489.93 40.782 1491.29 40.4233 1492.85 40.4233C1493.86 40.4233 1494.81 40.5866 1495.71 40.9134C1496.61 41.233 1497.41 41.7301 1498.09 42.4048C1498.79 43.0795 1499.34 43.9389 1499.74 44.983C1500.13 46.0199 1500.33 47.2557 1500.33 48.6903V49.8729H1486.92V47.2734H1496.64C1496.63 46.5348 1496.47 45.8778 1496.16 45.3026C1495.84 44.7202 1495.41 44.2621 1494.85 43.9283C1494.29 43.5945 1493.65 43.4276 1492.91 43.4276C1492.12 43.4276 1491.43 43.6193 1490.83 44.0028C1490.23 44.3793 1489.77 44.8764 1489.43 45.4943C1489.11 46.1051 1488.94 46.7763 1488.93 47.5078V49.777C1488.93 50.7287 1489.11 51.5455 1489.46 52.2273C1489.8 52.902 1490.29 53.4205 1490.91 53.7827C1491.54 54.1378 1492.27 54.3153 1493.11 54.3153C1493.67 54.3153 1494.18 54.2372 1494.63 54.081C1495.09 53.9176 1495.48 53.6797 1495.82 53.3672C1496.15 53.0547 1496.4 52.6676 1496.57 52.206L1500.17 52.6108C1499.95 53.5625 1499.51 54.3935 1498.87 55.1037C1498.24 55.8068 1497.43 56.3537 1496.44 56.7443C1495.46 57.1278 1494.33 57.3196 1493.06 57.3196ZM1506.7 35.1818V57H1502.84V35.1818H1506.7ZM1509.92 57V40.6364H1513.77V57H1509.92ZM1511.86 38.3139C1511.25 38.3139 1510.72 38.1115 1510.28 37.7067C1509.84 37.2947 1509.62 36.8011 1509.62 36.2259C1509.62 35.6435 1509.84 35.1499 1510.28 34.745C1510.72 34.3331 1511.25 34.1271 1511.86 34.1271C1512.47 34.1271 1513 34.3331 1513.43 34.745C1513.87 35.1499 1514.09 35.6435 1514.09 36.2259C1514.09 36.8011 1513.87 37.2947 1513.43 37.7067C1513 38.1115 1512.47 38.3139 1511.86 38.3139ZM1531.61 40.6364L1525.78 57H1521.52L1515.69 40.6364H1519.8L1523.56 52.7919H1523.73L1527.5 40.6364H1531.61ZM1540.21 57.3196C1538.57 57.3196 1537.15 56.9787 1535.96 56.2969C1534.78 55.608 1533.86 54.6349 1533.22 53.3778C1532.58 52.1136 1532.26 50.6257 1532.26 48.9141C1532.26 47.2308 1532.58 45.7536 1533.22 44.4822C1533.87 43.2038 1534.77 42.2095 1535.93 41.4993C1537.09 40.782 1538.45 40.4233 1540.01 40.4233C1541.02 40.4233 1541.97 40.5866 1542.86 40.9134C1543.77 41.233 1544.56 41.7301 1545.25 42.4048C1545.95 43.0795 1546.49 43.9389 1546.89 44.983C1547.29 46.0199 1547.49 47.2557 1547.49 48.6903V49.8729H1534.08V47.2734H1543.79C1543.78 46.5348 1543.62 45.8778 1543.31 45.3026C1543 44.7202 1542.56 44.2621 1542 43.9283C1541.45 43.5945 1540.8 43.4276 1540.06 43.4276C1539.27 43.4276 1538.58 43.6193 1537.99 44.0028C1537.39 44.3793 1536.92 44.8764 1536.59 45.4943C1536.26 46.1051 1536.1 46.7763 1536.09 47.5078V49.777C1536.09 50.7287 1536.26 51.5455 1536.61 52.2273C1536.96 52.902 1537.45 53.4205 1538.07 53.7827C1538.7 54.1378 1539.43 54.3153 1540.27 54.3153C1540.83 54.3153 1541.33 54.2372 1541.79 54.081C1542.24 53.9176 1542.64 53.6797 1542.97 53.3672C1543.31 53.0547 1543.56 52.6676 1543.73 52.206L1547.33 52.6108C1547.1 53.5625 1546.67 54.3935 1546.03 55.1037C1545.4 55.8068 1544.59 56.3537 1543.6 56.7443C1542.61 57.1278 1541.48 57.3196 1540.21 57.3196ZM1550 57V40.6364H1553.74V43.3636H1553.91C1554.21 42.419 1554.72 41.6911 1555.44 41.1797C1556.18 40.6612 1557.01 40.402 1557.95 40.402C1558.16 40.402 1558.4 40.4126 1558.66 40.4339C1558.93 40.4482 1559.16 40.473 1559.33 40.5085V44.0561C1559.17 43.9993 1558.91 43.9496 1558.56 43.907C1558.21 43.8572 1557.87 43.8324 1557.54 43.8324C1556.84 43.8324 1556.21 43.9851 1555.65 44.2905C1555.09 44.5888 1554.66 45.0043 1554.34 45.5369C1554.02 46.0696 1553.86 46.6839 1553.86 47.38V57H1550ZM1567.72 57.3196C1566.08 57.3196 1564.66 56.9787 1563.47 56.2969C1562.28 55.608 1561.37 54.6349 1560.73 53.3778C1560.09 52.1136 1559.77 50.6257 1559.77 48.9141C1559.77 47.2308 1560.09 45.7536 1560.73 44.4822C1561.37 43.2038 1562.28 42.2095 1563.43 41.4993C1564.59 40.782 1565.95 40.4233 1567.51 40.4233C1568.52 40.4233 1569.47 40.5866 1570.37 40.9134C1571.27 41.233 1572.07 41.7301 1572.76 42.4048C1573.45 43.0795 1574 43.9389 1574.4 44.983C1574.79 46.0199 1574.99 47.2557 1574.99 48.6903V49.8729H1561.58V47.2734H1571.3C1571.29 46.5348 1571.13 45.8778 1570.82 45.3026C1570.5 44.7202 1570.07 44.2621 1569.51 43.9283C1568.95 43.5945 1568.31 43.4276 1567.57 43.4276C1566.78 43.4276 1566.09 43.6193 1565.49 44.0028C1564.89 44.3793 1564.43 44.8764 1564.09 45.4943C1563.77 46.1051 1563.6 46.7763 1563.59 47.5078V49.777C1563.59 50.7287 1563.77 51.5455 1564.12 52.2273C1564.46 52.902 1564.95 53.4205 1565.57 53.7827C1566.2 54.1378 1566.93 54.3153 1567.77 54.3153C1568.33 54.3153 1568.84 54.2372 1569.29 54.081C1569.75 53.9176 1570.14 53.6797 1570.48 53.3672C1570.81 53.0547 1571.06 52.6676 1571.23 52.206L1574.83 52.6108C1574.61 53.5625 1574.17 54.3935 1573.53 55.1037C1572.9 55.8068 1572.09 56.3537 1571.1 56.7443C1570.12 57.1278 1568.99 57.3196 1567.72 57.3196ZM1583.58 57.2876C1582.29 57.2876 1581.14 56.9574 1580.13 56.2969C1579.11 55.6364 1578.31 54.6776 1577.72 53.4205C1577.13 52.1634 1576.83 50.6364 1576.83 48.8395C1576.83 47.0213 1577.13 45.4872 1577.73 44.2372C1578.33 42.9801 1579.15 42.032 1580.17 41.3928C1581.19 40.7464 1582.33 40.4233 1583.59 40.4233C1584.55 40.4233 1585.34 40.5866 1585.95 40.9134C1586.57 41.233 1587.06 41.62 1587.42 42.0746C1587.79 42.522 1588.07 42.9446 1588.26 43.3423H1588.42V35.1818H1592.29V57H1588.5V54.4219H1588.26C1588.07 54.8196 1587.78 55.2422 1587.4 55.6896C1587.03 56.13 1586.53 56.5064 1585.91 56.8189C1585.29 57.1314 1584.51 57.2876 1583.58 57.2876ZM1584.65 54.1236C1585.47 54.1236 1586.17 53.9034 1586.74 53.4631C1587.32 53.0156 1587.75 52.3942 1588.05 51.5987C1588.35 50.8033 1588.5 49.8764 1588.5 48.8182C1588.5 47.7599 1588.35 46.8402 1588.05 46.0589C1587.76 45.2777 1587.33 44.6705 1586.75 44.2372C1586.18 43.804 1585.48 43.5874 1584.65 43.5874C1583.79 43.5874 1583.08 43.8111 1582.5 44.2585C1581.93 44.706 1581.49 45.3239 1581.2 46.1122C1580.91 46.9006 1580.76 47.8026 1580.76 48.8182C1580.76 49.8409 1580.91 50.7536 1581.2 51.5561C1581.5 52.3516 1581.94 52.9801 1582.51 53.4418C1583.09 53.8963 1583.81 54.1236 1584.65 54.1236Z" fill="#FAFAFA"/>
</g>
<defs>
<clipPath id="clip0_1286_1717">
<rect width="1440" height="92" fill="white"/>
</clipPath>
</defs>
</svg>
