<svg width="439" height="182" viewBox="0 0 439 182" fill="none" xmlns="http://www.w3.org/2000/svg">
<path d="M0 12C0 5.37258 5.37258 0 12 0H427C433.627 0 439 5.37258 439 12V170C439 176.627 433.627 182 427 182H12C5.37259 182 0 176.627 0 170V12Z" fill="#F4F4F5"/>
<path fill-rule="evenodd" clip-rule="evenodd" d="M217.466 32.3245C217.152 32.6422 217.14 32.7111 217.169 34.1001C217.186 34.8949 217.146 35.5994 217.081 35.6656C217.015 35.7317 216.318 35.8805 215.533 35.996C212.09 36.5029 209.195 37.5242 206.122 39.3161C203.904 40.61 202.701 41.5204 200.884 43.2812C199.006 45.1017 197.766 46.6891 196.169 49.3187C195.711 50.0741 194.829 51.8416 194.829 52.0058C194.829 52.0395 194.685 52.3851 194.509 52.7737C193.521 54.9595 192.641 58.9949 192.609 61.4912C192.587 63.2177 192.655 63.1436 190.947 63.3015C189.652 63.4212 189.447 63.4739 189.232 63.7426C188.894 64.1649 188.926 64.6251 189.323 65.0262C189.656 65.3626 189.672 65.3648 191.108 65.2797C191.905 65.2324 194.31 65.1068 196.451 65.0005C198.593 64.8942 201.368 64.7486 202.617 64.677C206.205 64.4714 207.113 64.424 208.913 64.3494C210.683 64.2759 213.937 64.1014 217.545 63.8867C218.723 63.8165 220.538 63.7281 221.578 63.6902C222.618 63.6523 223.932 63.5949 224.499 63.5629C225.065 63.5309 226.93 63.4422 228.644 63.3658C230.357 63.2895 232.694 63.1711 233.836 63.1027C234.978 63.0344 236.585 62.9446 237.406 62.9031C238.227 62.8616 239.249 62.8023 239.677 62.7713C240.106 62.7404 241.186 62.6808 242.079 62.6388C247.898 62.3655 249.467 62.2322 249.733 61.988C250.082 61.6688 250.091 60.8639 249.748 60.5507C249.539 60.3588 249.275 60.3285 248.062 60.3567C247.272 60.3752 246.582 60.3471 246.53 60.2944C246.478 60.2415 246.337 59.5371 246.217 58.7288C245.973 57.0881 245.926 56.856 245.659 56.0125C245.556 55.6876 245.403 55.1561 245.32 54.8312C245.237 54.5064 245.116 54.1381 245.052 54.0127C244.987 53.8874 244.934 53.718 244.934 53.6365C244.934 53.3288 243.699 50.5459 243.054 49.3979C242.199 47.8782 241.446 46.7083 241.058 46.2954C240.891 46.1174 240.6 45.7651 240.412 45.5125C239.614 44.4425 237.991 42.8027 236.664 41.7266C235.634 40.8902 232.789 38.9963 231.954 38.5905C228.269 36.8002 224.824 35.882 221.137 35.7072C219.973 35.6519 219.416 35.573 219.29 35.4453C219.181 35.3351 219.105 34.9653 219.098 34.514C219.073 32.8147 219.036 32.5442 218.791 32.27C218.451 31.89 217.872 31.9138 217.466 32.3245ZM207.158 41.739C207.156 41.8293 206.908 42.2954 206.606 42.775C205.778 44.0908 204.175 47.1334 204.175 47.3912C204.175 47.45 204.029 47.8209 203.85 48.2154C203.672 48.61 203.526 49.0078 203.526 49.0995C203.526 49.1911 203.472 49.3224 203.405 49.3909C203.23 49.5718 202.411 52.8482 202.176 54.3062C201.974 55.557 201.901 56.302 201.774 58.375C201.662 60.2143 201.329 60.4691 198.993 60.505C197.182 60.533 196.851 60.3924 196.523 59.4545C196.28 58.7581 196.448 57.8403 197.298 55.225C197.995 53.0802 198.144 52.7022 198.882 51.2218C200.056 48.8676 201.078 47.2922 202.63 45.4468C204.731 42.9495 207.171 40.951 207.158 41.739ZM225.139 68.0505C222.99 68.103 217.268 68.3676 214.365 68.5487C211.999 68.6964 210.945 68.7558 207.42 68.9409C205.385 69.0476 203.02 69.1925 202.163 69.2628C201.306 69.3332 198.941 69.4559 196.906 69.5356C194.871 69.6154 193.126 69.7071 193.027 69.7395C192.843 69.8002 192.857 70.0144 193.129 71.3687C193.331 72.37 193.905 74.2851 194.182 74.8816C194.327 75.1935 194.54 75.6971 194.654 76.0009C195.239 77.5515 196.49 79.7453 197.617 81.1958C197.961 81.6381 198.252 82 198.264 82C198.275 82 198.573 81.8597 198.926 81.6883C200.725 80.8132 201.572 80.4318 202.141 80.2391C203.984 79.616 207.065 79.2126 209.167 79.3196C211.121 79.419 221.369 79.4159 222.802 79.3154C224.302 79.2104 225.184 79.031 226.048 78.6555C226.333 78.5313 227.209 78.1643 227.995 77.8402C228.78 77.516 229.481 77.2039 229.552 77.1465C229.624 77.0891 230.366 76.7425 231.201 76.3762C232.036 76.0099 232.825 75.6518 232.954 75.5806C233.233 75.4254 234.247 74.9603 236.692 73.866C237.691 73.4186 238.801 72.9133 239.158 72.7431C239.515 72.5727 240.158 72.2761 240.586 72.0838C241.442 71.6995 242.491 71.2087 244.115 70.4328C244.7 70.1535 245.215 69.925 245.259 69.925C245.444 69.925 246.734 69.272 246.817 69.1367C246.867 69.0559 246.799 68.8671 246.667 68.7174C246.082 68.0531 244.942 67.9188 243.433 68.3366C242.132 68.6967 240.368 69.2481 240.067 69.3888C239.924 69.4554 239.34 69.6616 238.769 69.8468C237.182 70.3615 233.696 71.5942 233.22 71.8088C232.988 71.9138 232.505 72.0994 232.148 72.2213C231.791 72.3431 230.915 72.6484 230.201 72.8998C228.777 73.4011 224.397 74.3488 222.921 74.475C221.78 74.5726 221.376 74.4802 221.104 74.0603C220.633 73.3342 220.985 72.3308 221.826 72.0029C222.277 71.8269 224.134 71.5054 224.715 71.5024C225.197 71.5 228.161 71.0215 230.003 70.6484C231.303 70.3852 232.274 69.8789 232.532 69.3291C232.784 68.7915 232.783 68.6806 232.52 68.2752L232.307 67.9472L229.307 67.9845C227.657 68.0051 225.781 68.0347 225.139 68.0505Z" fill="#EF4444"/>
<path d="M171.518 94.3636V106H169.393L164.33 98.6761H164.245V106H161.785V94.3636H163.944L168.967 101.682H169.069V94.3636H171.518ZM177.448 106.17C176.566 106.17 175.802 105.983 175.158 105.608C174.518 105.229 174.024 104.703 173.675 104.028C173.327 103.35 173.153 102.564 173.153 101.67C173.153 100.769 173.327 99.9811 173.675 99.3068C174.024 98.6288 174.518 98.1023 175.158 97.7273C175.802 97.3485 176.566 97.1591 177.448 97.1591C178.331 97.1591 179.092 97.3485 179.732 97.7273C180.376 98.1023 180.872 98.6288 181.221 99.3068C181.569 99.9811 181.744 100.769 181.744 101.67C181.744 102.564 181.569 103.35 181.221 104.028C180.872 104.703 180.376 105.229 179.732 105.608C179.092 105.983 178.331 106.17 177.448 106.17ZM177.46 104.295C177.861 104.295 178.196 104.182 178.465 103.955C178.734 103.723 178.937 103.409 179.073 103.011C179.213 102.614 179.283 102.161 179.283 101.653C179.283 101.146 179.213 100.693 179.073 100.295C178.937 99.8977 178.734 99.5833 178.465 99.3523C178.196 99.1212 177.861 99.0057 177.46 99.0057C177.054 99.0057 176.713 99.1212 176.437 99.3523C176.164 99.5833 175.958 99.8977 175.817 100.295C175.681 100.693 175.613 101.146 175.613 101.653C175.613 102.161 175.681 102.614 175.817 103.011C175.958 103.409 176.164 103.723 176.437 103.955C176.713 104.182 177.054 104.295 177.46 104.295ZM197.759 100.182C197.759 101.451 197.519 102.53 197.038 103.42C196.56 104.311 195.909 104.991 195.083 105.46C194.261 105.926 193.337 106.159 192.31 106.159C191.276 106.159 190.348 105.924 189.526 105.455C188.704 104.985 188.055 104.305 187.577 103.415C187.1 102.525 186.862 101.447 186.862 100.182C186.862 98.9129 187.1 97.8333 187.577 96.9432C188.055 96.053 188.704 95.375 189.526 94.9091C190.348 94.4394 191.276 94.2045 192.31 94.2045C193.337 94.2045 194.261 94.4394 195.083 94.9091C195.909 95.375 196.56 96.053 197.038 96.9432C197.519 97.8333 197.759 98.9129 197.759 100.182ZM195.265 100.182C195.265 99.3598 195.142 98.6667 194.896 98.1023C194.653 97.5379 194.31 97.1098 193.867 96.8182C193.424 96.5265 192.905 96.3807 192.31 96.3807C191.716 96.3807 191.197 96.5265 190.754 96.8182C190.31 97.1098 189.966 97.5379 189.719 98.1023C189.477 98.6667 189.356 99.3598 189.356 100.182C189.356 101.004 189.477 101.697 189.719 102.261C189.966 102.826 190.31 103.254 190.754 103.545C191.197 103.837 191.716 103.983 192.31 103.983C192.905 103.983 193.424 103.837 193.867 103.545C194.31 103.254 194.653 102.826 194.896 102.261C195.142 101.697 195.265 101.004 195.265 100.182ZM199.536 106V97.2727H201.883V98.7955H201.974C202.133 98.2538 202.4 97.8447 202.775 97.5682C203.15 97.2879 203.582 97.1477 204.07 97.1477C204.192 97.1477 204.322 97.1553 204.462 97.1705C204.603 97.1856 204.726 97.2064 204.832 97.233V99.3807C204.718 99.3466 204.561 99.3163 204.36 99.2898C204.159 99.2633 203.976 99.25 203.809 99.25C203.453 99.25 203.135 99.3277 202.854 99.483C202.578 99.6345 202.358 99.8466 202.195 100.119C202.036 100.392 201.957 100.706 201.957 101.062V106H199.536ZM208.893 106.142C208.23 106.142 207.629 105.972 207.092 105.631C206.558 105.286 206.133 104.78 205.819 104.114C205.508 103.443 205.353 102.621 205.353 101.648C205.353 100.648 205.514 99.8163 205.836 99.1534C206.158 98.4867 206.586 97.9886 207.12 97.6591C207.658 97.3258 208.247 97.1591 208.887 97.1591C209.376 97.1591 209.783 97.2424 210.109 97.4091C210.438 97.572 210.703 97.7765 210.904 98.0227C211.109 98.2652 211.264 98.5038 211.37 98.7386H211.444V94.3636H213.859V106H211.472V104.602H211.37C211.256 104.845 211.095 105.085 210.887 105.324C210.683 105.559 210.415 105.754 210.086 105.909C209.76 106.064 209.362 106.142 208.893 106.142ZM209.66 104.216C210.05 104.216 210.379 104.11 210.648 103.898C210.921 103.682 211.129 103.381 211.273 102.994C211.421 102.608 211.495 102.155 211.495 101.636C211.495 101.117 211.423 100.667 211.279 100.284C211.135 99.9015 210.927 99.6061 210.654 99.3977C210.381 99.1894 210.05 99.0852 209.66 99.0852C209.262 99.0852 208.927 99.1932 208.654 99.4091C208.381 99.625 208.175 99.9242 208.035 100.307C207.895 100.689 207.825 101.133 207.825 101.636C207.825 102.144 207.895 102.593 208.035 102.983C208.179 103.369 208.385 103.672 208.654 103.892C208.927 104.108 209.262 104.216 209.66 104.216ZM219.826 106.17C218.928 106.17 218.156 105.989 217.508 105.625C216.864 105.258 216.368 104.739 216.019 104.068C215.671 103.394 215.496 102.597 215.496 101.676C215.496 100.778 215.671 99.9905 216.019 99.3125C216.368 98.6345 216.858 98.1061 217.491 97.7273C218.127 97.3485 218.873 97.1591 219.729 97.1591C220.305 97.1591 220.841 97.2519 221.337 97.4375C221.837 97.6193 222.273 97.8939 222.644 98.2614C223.019 98.6288 223.311 99.0909 223.519 99.6477C223.728 100.201 223.832 100.848 223.832 101.591V102.256H216.462V100.756H221.553C221.553 100.407 221.478 100.098 221.326 99.8295C221.174 99.5606 220.964 99.3504 220.695 99.1989C220.43 99.0436 220.121 98.9659 219.769 98.9659C219.402 98.9659 219.076 99.0511 218.792 99.2216C218.512 99.3883 218.292 99.6136 218.133 99.8977C217.974 100.178 217.892 100.491 217.888 100.835V102.261C217.888 102.693 217.968 103.066 218.127 103.381C218.29 103.695 218.519 103.938 218.815 104.108C219.11 104.278 219.46 104.364 219.866 104.364C220.135 104.364 220.381 104.326 220.604 104.25C220.828 104.174 221.019 104.061 221.178 103.909C221.337 103.758 221.459 103.572 221.542 103.352L223.781 103.5C223.667 104.038 223.434 104.508 223.082 104.909C222.733 105.307 222.282 105.617 221.729 105.841C221.18 106.061 220.546 106.17 219.826 106.17ZM225.411 106V97.2727H227.758V98.7955H227.849C228.008 98.2538 228.275 97.8447 228.65 97.5682C229.025 97.2879 229.457 97.1477 229.945 97.1477C230.067 97.1477 230.197 97.1553 230.337 97.1705C230.478 97.1856 230.601 97.2064 230.707 97.233V99.3807C230.593 99.3466 230.436 99.3163 230.235 99.2898C230.034 99.2633 229.851 99.25 229.684 99.25C229.328 99.25 229.01 99.3277 228.729 99.483C228.453 99.6345 228.233 99.8466 228.07 100.119C227.911 100.392 227.832 100.706 227.832 101.062V106H225.411ZM239.219 99.7614L237.004 99.8977C236.966 99.7083 236.884 99.5379 236.759 99.3864C236.634 99.2311 236.469 99.108 236.265 99.017C236.064 98.9223 235.824 98.875 235.543 98.875C235.168 98.875 234.852 98.9545 234.594 99.1136C234.337 99.2689 234.208 99.4773 234.208 99.7386C234.208 99.947 234.291 100.123 234.458 100.267C234.625 100.411 234.911 100.527 235.316 100.614L236.896 100.932C237.744 101.106 238.377 101.386 238.793 101.773C239.21 102.159 239.418 102.667 239.418 103.295C239.418 103.867 239.25 104.369 238.913 104.801C238.579 105.233 238.121 105.57 237.538 105.812C236.958 106.051 236.29 106.17 235.532 106.17C234.377 106.17 233.456 105.93 232.771 105.449C232.089 104.964 231.689 104.305 231.572 103.472L233.952 103.347C234.024 103.699 234.199 103.968 234.475 104.153C234.752 104.335 235.106 104.426 235.538 104.426C235.962 104.426 236.303 104.345 236.56 104.182C236.822 104.015 236.954 103.801 236.958 103.54C236.954 103.32 236.862 103.14 236.68 103C236.498 102.856 236.218 102.746 235.839 102.67L234.327 102.369C233.475 102.199 232.841 101.903 232.424 101.483C232.011 101.062 231.805 100.527 231.805 99.875C231.805 99.3144 231.956 98.8314 232.259 98.4261C232.566 98.0208 232.996 97.7083 233.549 97.4886C234.106 97.2689 234.757 97.1591 235.504 97.1591C236.606 97.1591 237.473 97.392 238.106 97.858C238.742 98.3239 239.113 98.9583 239.219 99.7614ZM244.009 94.3636H246.765L249.418 99.375H249.532L252.185 94.3636H254.941L250.697 101.886V106H248.254V101.886L244.009 94.3636ZM258.388 106.17C257.491 106.17 256.718 105.989 256.07 105.625C255.426 105.258 254.93 104.739 254.582 104.068C254.233 103.394 254.059 102.597 254.059 101.676C254.059 100.778 254.233 99.9905 254.582 99.3125C254.93 98.6345 255.421 98.1061 256.053 97.7273C256.69 97.3485 257.436 97.1591 258.292 97.1591C258.868 97.1591 259.404 97.2519 259.9 97.4375C260.4 97.6193 260.835 97.8939 261.207 98.2614C261.582 98.6288 261.873 99.0909 262.082 99.6477C262.29 100.201 262.394 100.848 262.394 101.591V102.256H255.025V100.756H260.116C260.116 100.407 260.04 100.098 259.888 99.8295C259.737 99.5606 259.527 99.3504 259.258 99.1989C258.993 99.0436 258.684 98.9659 258.332 98.9659C257.964 98.9659 257.638 99.0511 257.354 99.2216C257.074 99.3883 256.854 99.6136 256.695 99.8977C256.536 100.178 256.455 100.491 256.451 100.835V102.261C256.451 102.693 256.531 103.066 256.69 103.381C256.853 103.695 257.082 103.938 257.377 104.108C257.673 104.278 258.023 104.364 258.428 104.364C258.697 104.364 258.943 104.326 259.167 104.25C259.39 104.174 259.582 104.061 259.741 103.909C259.9 103.758 260.021 103.572 260.104 103.352L262.343 103.5C262.229 104.038 261.996 104.508 261.644 104.909C261.296 105.307 260.845 105.617 260.292 105.841C259.743 106.061 259.108 106.17 258.388 106.17ZM268.616 97.2727V99.0909H263.36V97.2727H268.616ZM264.553 95.1818H266.974V103.318C266.974 103.542 267.008 103.716 267.076 103.841C267.144 103.962 267.239 104.047 267.36 104.097C267.485 104.146 267.629 104.17 267.792 104.17C267.906 104.17 268.019 104.161 268.133 104.142C268.246 104.119 268.334 104.102 268.394 104.091L268.775 105.892C268.654 105.93 268.483 105.973 268.263 106.023C268.044 106.076 267.777 106.108 267.462 106.119C266.879 106.142 266.368 106.064 265.928 105.886C265.493 105.708 265.154 105.432 264.911 105.057C264.669 104.682 264.549 104.208 264.553 103.636V95.1818ZM272.272 102.511V102.318C272.276 101.655 272.335 101.127 272.448 100.733C272.566 100.339 272.736 100.021 272.96 99.7784C273.183 99.536 273.452 99.3163 273.766 99.1193C274.001 98.9678 274.211 98.8106 274.397 98.6477C274.583 98.4848 274.73 98.3049 274.84 98.108C274.95 97.9072 275.005 97.6837 275.005 97.4375C275.005 97.1761 274.942 96.947 274.817 96.75C274.692 96.553 274.524 96.4015 274.312 96.2955C274.103 96.1894 273.872 96.1364 273.619 96.1364C273.372 96.1364 273.139 96.1913 272.92 96.3011C272.7 96.4072 272.52 96.5663 272.38 96.7784C272.24 96.9867 272.164 97.2462 272.153 97.5568H269.835C269.853 96.7992 270.035 96.1742 270.38 95.6818C270.725 95.1856 271.181 94.8163 271.749 94.5739C272.317 94.3277 272.944 94.2045 273.63 94.2045C274.384 94.2045 275.05 94.3295 275.63 94.5795C276.21 94.8258 276.664 95.1837 276.994 95.6534C277.323 96.1231 277.488 96.6894 277.488 97.3523C277.488 97.7955 277.414 98.1894 277.266 98.5341C277.122 98.875 276.92 99.178 276.658 99.4432C276.397 99.7045 276.088 99.9413 275.732 100.153C275.433 100.331 275.187 100.517 274.994 100.71C274.804 100.903 274.662 101.127 274.567 101.381C274.477 101.634 274.429 101.947 274.425 102.318V102.511H272.272ZM273.397 106.148C273.018 106.148 272.694 106.015 272.425 105.75C272.16 105.481 272.03 105.159 272.033 104.784C272.03 104.413 272.16 104.095 272.425 103.83C272.694 103.564 273.018 103.432 273.397 103.432C273.757 103.432 274.073 103.564 274.346 103.83C274.619 104.095 274.757 104.413 274.761 104.784C274.757 105.034 274.691 105.263 274.562 105.472C274.437 105.676 274.272 105.841 274.067 105.966C273.863 106.087 273.639 106.148 273.397 106.148Z" fill="#09090B"/>
<path d="M57.3359 130.84H69.3359V118.84H57.3359V130.84ZM74.5007 121.273V124.273H73.5632V121.273H74.5007ZM76.6825 121.273V124.273H75.745V121.273H76.6825ZM77.8576 121.273H79.0678L81.4883 125.347H81.5906L84.011 121.273H85.2212L82.0678 126.403V130H81.011V126.403L77.8576 121.273ZM88.185 130.136C87.5941 130.136 87.0756 129.996 86.6296 129.714C86.1864 129.433 85.8398 129.04 85.5898 128.534C85.3427 128.028 85.2191 127.437 85.2191 126.761C85.2191 126.08 85.3427 125.484 85.5898 124.976C85.8398 124.467 86.1864 124.072 86.6296 123.791C87.0756 123.51 87.5941 123.369 88.185 123.369C88.7759 123.369 89.293 123.51 89.7362 123.791C90.1822 124.072 90.5288 124.467 90.7759 124.976C91.0259 125.484 91.1509 126.08 91.1509 126.761C91.1509 127.437 91.0259 128.028 90.7759 128.534C90.5288 129.04 90.1822 129.433 89.7362 129.714C89.293 129.996 88.7759 130.136 88.185 130.136ZM88.185 129.233C88.6339 129.233 89.0032 129.118 89.293 128.888C89.5827 128.658 89.7972 128.355 89.9364 127.98C90.0756 127.605 90.1452 127.199 90.1452 126.761C90.1452 126.324 90.0756 125.916 89.9364 125.538C89.7972 125.161 89.5827 124.855 89.293 124.622C89.0032 124.389 88.6339 124.273 88.185 124.273C87.7362 124.273 87.3668 124.389 87.0771 124.622C86.7873 124.855 86.5728 125.161 86.4336 125.538C86.2944 125.916 86.2248 126.324 86.2248 126.761C86.2248 127.199 86.2944 127.605 86.4336 127.98C86.5728 128.355 86.7873 128.658 87.0771 128.888C87.3668 129.118 87.7362 129.233 88.185 129.233ZM96.8111 127.324V123.455H97.8168V130H96.8111V128.892H96.7429C96.5895 129.224 96.3509 129.507 96.027 129.74C95.7031 129.97 95.294 130.085 94.7997 130.085C94.3906 130.085 94.027 129.996 93.7088 129.817C93.3906 129.635 93.1406 129.362 92.9588 128.999C92.777 128.632 92.6861 128.17 92.6861 127.614V123.455H93.6918V127.545C93.6918 128.023 93.8253 128.403 94.0923 128.688C94.3622 128.972 94.706 129.114 95.1236 129.114C95.3736 129.114 95.6278 129.05 95.8864 128.922C96.1477 128.794 96.3665 128.598 96.5426 128.334C96.7216 128.07 96.8111 127.733 96.8111 127.324ZM104.039 126.062V130H103.034V121.273H104.039V124.477H104.125C104.278 124.139 104.508 123.871 104.815 123.672C105.125 123.47 105.537 123.369 106.051 123.369C106.497 123.369 106.887 123.459 107.223 123.638C107.558 123.814 107.818 124.085 108.002 124.452C108.19 124.815 108.284 125.278 108.284 125.841V130H107.278V125.909C107.278 125.389 107.143 124.987 106.873 124.703C106.606 124.416 106.235 124.273 105.761 124.273C105.431 124.273 105.136 124.342 104.875 124.482C104.616 124.621 104.412 124.824 104.261 125.091C104.113 125.358 104.039 125.682 104.039 126.062ZM112.05 130.153C111.635 130.153 111.259 130.075 110.92 129.919C110.582 129.76 110.314 129.531 110.115 129.233C109.916 128.932 109.817 128.568 109.817 128.142C109.817 127.767 109.891 127.463 110.038 127.23C110.186 126.994 110.384 126.81 110.631 126.676C110.878 126.543 111.151 126.443 111.449 126.378C111.75 126.31 112.053 126.256 112.357 126.216C112.754 126.165 113.077 126.126 113.324 126.101C113.574 126.072 113.756 126.026 113.869 125.96C113.986 125.895 114.044 125.781 114.044 125.619V125.585C114.044 125.165 113.929 124.838 113.699 124.605C113.472 124.372 113.126 124.256 112.663 124.256C112.183 124.256 111.807 124.361 111.534 124.571C111.261 124.781 111.07 125.006 110.959 125.244L110.004 124.903C110.175 124.506 110.402 124.196 110.686 123.974C110.973 123.75 111.286 123.594 111.624 123.506C111.964 123.415 112.3 123.369 112.629 123.369C112.839 123.369 113.081 123.395 113.354 123.446C113.629 123.494 113.895 123.595 114.151 123.749C114.409 123.902 114.624 124.134 114.794 124.443C114.964 124.753 115.05 125.168 115.05 125.688V130H114.044V129.114H113.993C113.925 129.256 113.811 129.408 113.652 129.57C113.493 129.732 113.281 129.869 113.017 129.983C112.753 130.097 112.43 130.153 112.05 130.153ZM112.203 129.25C112.601 129.25 112.936 129.172 113.209 129.016C113.484 128.859 113.692 128.658 113.831 128.411C113.973 128.163 114.044 127.903 114.044 127.631V126.71C114.001 126.761 113.908 126.808 113.763 126.851C113.621 126.891 113.456 126.926 113.268 126.957C113.084 126.986 112.903 127.011 112.727 127.034C112.554 127.054 112.413 127.071 112.305 127.085C112.044 127.119 111.8 127.175 111.572 127.251C111.348 127.325 111.166 127.437 111.027 127.588C110.891 127.736 110.822 127.937 110.822 128.193C110.822 128.543 110.952 128.807 111.21 128.986C111.472 129.162 111.803 129.25 112.203 129.25ZM122.003 123.455L119.583 130H118.56L116.14 123.455H117.23L119.037 128.67H119.105L120.912 123.455H122.003ZM125.841 130.136C125.21 130.136 124.666 129.997 124.208 129.719C123.754 129.438 123.403 129.045 123.156 128.543C122.912 128.037 122.789 127.449 122.789 126.778C122.789 126.108 122.912 125.517 123.156 125.006C123.403 124.491 123.747 124.091 124.187 123.804C124.63 123.514 125.147 123.369 125.738 123.369C126.079 123.369 126.416 123.426 126.748 123.54C127.081 123.653 127.383 123.838 127.656 124.094C127.929 124.347 128.146 124.682 128.308 125.099C128.47 125.517 128.551 126.031 128.551 126.642V127.068H123.505V126.199H127.528C127.528 125.83 127.454 125.5 127.306 125.21C127.162 124.92 126.954 124.692 126.684 124.524C126.417 124.357 126.102 124.273 125.738 124.273C125.338 124.273 124.991 124.372 124.699 124.571C124.409 124.767 124.186 125.023 124.029 125.338C123.873 125.653 123.795 125.991 123.795 126.352V126.932C123.795 127.426 123.88 127.845 124.051 128.189C124.224 128.53 124.464 128.79 124.771 128.969C125.078 129.145 125.434 129.233 125.841 129.233C126.105 129.233 126.343 129.196 126.556 129.122C126.772 129.045 126.958 128.932 127.115 128.781C127.271 128.628 127.392 128.437 127.477 128.21L128.449 128.483C128.346 128.812 128.174 129.102 127.933 129.352C127.691 129.599 127.393 129.793 127.038 129.932C126.683 130.068 126.284 130.136 125.841 130.136ZM131.086 126.062V130H130.081V123.455H131.052V124.477H131.137C131.291 124.145 131.524 123.878 131.836 123.676C132.149 123.472 132.552 123.369 133.047 123.369C133.49 123.369 133.877 123.46 134.21 123.642C134.542 123.821 134.801 124.094 134.985 124.46C135.17 124.824 135.262 125.284 135.262 125.841V130H134.257V125.909C134.257 125.395 134.123 124.994 133.856 124.707C133.589 124.418 133.223 124.273 132.757 124.273C132.436 124.273 132.149 124.342 131.896 124.482C131.646 124.621 131.449 124.824 131.304 125.091C131.159 125.358 131.086 125.682 131.086 126.062ZM137.969 121.273V124.273H137.032V121.273H137.969ZM142.607 123.455V124.307H139.215V123.455H142.607ZM140.203 121.886H141.209V128.125C141.209 128.409 141.25 128.622 141.333 128.764C141.418 128.903 141.526 128.997 141.657 129.045C141.79 129.091 141.931 129.114 142.078 129.114C142.189 129.114 142.28 129.108 142.351 129.097C142.422 129.082 142.479 129.071 142.522 129.062L142.726 129.966C142.658 129.991 142.563 130.017 142.441 130.043C142.319 130.071 142.164 130.085 141.976 130.085C141.692 130.085 141.414 130.024 141.141 129.902C140.871 129.78 140.647 129.594 140.468 129.344C140.292 129.094 140.203 128.778 140.203 128.398V121.886ZM147.495 132.455V123.455H148.466V124.494H148.586C148.659 124.381 148.762 124.236 148.892 124.06C149.026 123.881 149.216 123.722 149.463 123.582C149.713 123.44 150.051 123.369 150.478 123.369C151.029 123.369 151.515 123.507 151.935 123.783C152.355 124.058 152.684 124.449 152.919 124.955C153.155 125.46 153.273 126.057 153.273 126.744C153.273 127.438 153.155 128.038 152.919 128.547C152.684 129.053 152.357 129.445 151.939 129.723C151.522 129.999 151.04 130.136 150.495 130.136C150.074 130.136 149.738 130.067 149.485 129.928C149.232 129.786 149.037 129.625 148.901 129.446C148.765 129.264 148.659 129.114 148.586 128.994H148.5V132.455H147.495ZM148.483 126.727C148.483 127.222 148.556 127.658 148.701 128.036C148.846 128.411 149.057 128.705 149.336 128.918C149.614 129.128 149.955 129.233 150.358 129.233C150.779 129.233 151.13 129.122 151.411 128.901C151.695 128.676 151.908 128.375 152.05 127.997C152.195 127.616 152.267 127.193 152.267 126.727C152.267 126.267 152.196 125.852 152.054 125.483C151.915 125.111 151.703 124.817 151.419 124.601C151.138 124.382 150.784 124.273 150.358 124.273C149.949 124.273 149.605 124.376 149.327 124.584C149.049 124.788 148.838 125.075 148.696 125.445C148.554 125.811 148.483 126.239 148.483 126.727ZM155.813 121.273V130H154.807V121.273H155.813ZM159.581 130.153C159.166 130.153 158.79 130.075 158.452 129.919C158.114 129.76 157.845 129.531 157.646 129.233C157.447 128.932 157.348 128.568 157.348 128.142C157.348 127.767 157.422 127.463 157.57 127.23C157.717 126.994 157.915 126.81 158.162 126.676C158.409 126.543 158.682 126.443 158.98 126.378C159.281 126.31 159.584 126.256 159.888 126.216C160.286 126.165 160.608 126.126 160.855 126.101C161.105 126.072 161.287 126.026 161.401 125.96C161.517 125.895 161.575 125.781 161.575 125.619V125.585C161.575 125.165 161.46 124.838 161.23 124.605C161.003 124.372 160.658 124.256 160.195 124.256C159.714 124.256 159.338 124.361 159.065 124.571C158.793 124.781 158.601 125.006 158.49 125.244L157.536 124.903C157.706 124.506 157.933 124.196 158.217 123.974C158.504 123.75 158.817 123.594 159.155 123.506C159.496 123.415 159.831 123.369 160.161 123.369C160.371 123.369 160.612 123.395 160.885 123.446C161.161 123.494 161.426 123.595 161.682 123.749C161.94 123.902 162.155 124.134 162.325 124.443C162.496 124.753 162.581 125.168 162.581 125.688V130H161.575V129.114H161.524C161.456 129.256 161.342 129.408 161.183 129.57C161.024 129.732 160.813 129.869 160.548 129.983C160.284 130.097 159.962 130.153 159.581 130.153ZM159.734 129.25C160.132 129.25 160.467 129.172 160.74 129.016C161.016 128.859 161.223 128.658 161.362 128.411C161.504 128.163 161.575 127.903 161.575 127.631V126.71C161.533 126.761 161.439 126.808 161.294 126.851C161.152 126.891 160.987 126.926 160.8 126.957C160.615 126.986 160.435 127.011 160.259 127.034C160.085 127.054 159.945 127.071 159.837 127.085C159.575 127.119 159.331 127.175 159.104 127.251C158.879 127.325 158.697 127.437 158.558 127.588C158.422 127.736 158.354 127.937 158.354 128.193C158.354 128.543 158.483 128.807 158.741 128.986C159.003 129.162 159.334 129.25 159.734 129.25ZM167.076 130.136C166.462 130.136 165.934 129.991 165.49 129.702C165.047 129.412 164.706 129.013 164.468 128.504C164.229 127.996 164.11 127.415 164.11 126.761C164.11 126.097 164.232 125.51 164.476 125.001C164.723 124.49 165.067 124.091 165.507 123.804C165.951 123.514 166.468 123.369 167.059 123.369C167.519 123.369 167.934 123.455 168.303 123.625C168.672 123.795 168.975 124.034 169.211 124.341C169.446 124.648 169.593 125.006 169.65 125.415H168.644C168.567 125.116 168.397 124.852 168.132 124.622C167.871 124.389 167.519 124.273 167.076 124.273C166.684 124.273 166.34 124.375 166.044 124.58C165.752 124.781 165.523 125.067 165.358 125.436C165.196 125.803 165.115 126.233 165.115 126.727C165.115 127.233 165.195 127.673 165.354 128.048C165.516 128.423 165.743 128.714 166.036 128.922C166.331 129.129 166.678 129.233 167.076 129.233C167.337 129.233 167.574 129.188 167.787 129.097C168 129.006 168.181 128.875 168.328 128.705C168.476 128.534 168.581 128.33 168.644 128.091H169.65C169.593 128.477 169.452 128.825 169.228 129.135C169.006 129.442 168.712 129.686 168.346 129.868C167.982 130.047 167.559 130.136 167.076 130.136ZM173.864 130.136C173.233 130.136 172.689 129.997 172.232 129.719C171.777 129.438 171.426 129.045 171.179 128.543C170.935 128.037 170.813 127.449 170.813 126.778C170.813 126.108 170.935 125.517 171.179 125.006C171.426 124.491 171.77 124.091 172.211 123.804C172.654 123.514 173.171 123.369 173.762 123.369C174.103 123.369 174.439 123.426 174.772 123.54C175.104 123.653 175.407 123.838 175.679 124.094C175.952 124.347 176.169 124.682 176.331 125.099C176.493 125.517 176.574 126.031 176.574 126.642V127.068H171.529V126.199H175.551C175.551 125.83 175.478 125.5 175.33 125.21C175.185 124.92 174.978 124.692 174.708 124.524C174.441 124.357 174.125 124.273 173.762 124.273C173.361 124.273 173.015 124.372 172.722 124.571C172.432 124.767 172.209 125.023 172.053 125.338C171.897 125.653 171.819 125.991 171.819 126.352V126.932C171.819 127.426 171.904 127.845 172.074 128.189C172.248 128.53 172.488 128.79 172.794 128.969C173.101 129.145 173.458 129.233 173.864 129.233C174.128 129.233 174.367 129.196 174.58 129.122C174.796 129.045 174.982 128.932 175.138 128.781C175.294 128.628 175.415 128.437 175.5 128.21L176.472 128.483C176.37 128.812 176.198 129.102 175.956 129.352C175.715 129.599 175.417 129.793 175.061 129.932C174.706 130.068 174.307 130.136 173.864 130.136ZM180.576 130.136C180.03 130.136 179.549 129.999 179.131 129.723C178.713 129.445 178.387 129.053 178.151 128.547C177.915 128.038 177.797 127.438 177.797 126.744C177.797 126.057 177.915 125.46 178.151 124.955C178.387 124.449 178.715 124.058 179.135 123.783C179.556 123.507 180.042 123.369 180.593 123.369C181.019 123.369 181.355 123.44 181.603 123.582C181.853 123.722 182.043 123.881 182.174 124.06C182.307 124.236 182.411 124.381 182.485 124.494H182.57V121.273H183.576V130H182.604V128.994H182.485C182.411 129.114 182.306 129.264 182.169 129.446C182.033 129.625 181.838 129.786 181.586 129.928C181.333 130.067 180.996 130.136 180.576 130.136ZM180.712 129.233C181.115 129.233 181.456 129.128 181.735 128.918C182.013 128.705 182.225 128.411 182.37 128.036C182.515 127.658 182.587 127.222 182.587 126.727C182.587 126.239 182.516 125.811 182.374 125.445C182.232 125.075 182.022 124.788 181.743 124.584C181.465 124.376 181.121 124.273 180.712 124.273C180.286 124.273 179.931 124.382 179.647 124.601C179.365 124.817 179.154 125.111 179.012 125.483C178.873 125.852 178.803 126.267 178.803 126.727C178.803 127.193 178.874 127.616 179.016 127.997C179.161 128.375 179.374 128.676 179.655 128.901C179.939 129.122 180.292 129.233 180.712 129.233ZM190.858 130.153C190.444 130.153 190.067 130.075 189.729 129.919C189.391 129.76 189.123 129.531 188.924 129.233C188.725 128.932 188.625 128.568 188.625 128.142C188.625 127.767 188.699 127.463 188.847 127.23C188.995 126.994 189.192 126.81 189.439 126.676C189.686 126.543 189.959 126.443 190.257 126.378C190.559 126.31 190.861 126.256 191.165 126.216C191.563 126.165 191.885 126.126 192.132 126.101C192.382 126.072 192.564 126.026 192.678 125.96C192.794 125.895 192.853 125.781 192.853 125.619V125.585C192.853 125.165 192.738 124.838 192.507 124.605C192.28 124.372 191.935 124.256 191.472 124.256C190.992 124.256 190.615 124.361 190.343 124.571C190.07 124.781 189.878 125.006 189.767 125.244L188.813 124.903C188.983 124.506 189.211 124.196 189.495 123.974C189.782 123.75 190.094 123.594 190.432 123.506C190.773 123.415 191.108 123.369 191.438 123.369C191.648 123.369 191.89 123.395 192.162 123.446C192.438 123.494 192.703 123.595 192.959 123.749C193.218 123.902 193.432 124.134 193.603 124.443C193.773 124.753 193.858 125.168 193.858 125.688V130H192.853V129.114H192.801C192.733 129.256 192.62 129.408 192.461 129.57C192.301 129.732 192.09 129.869 191.826 129.983C191.561 130.097 191.239 130.153 190.858 130.153ZM191.012 129.25C191.409 129.25 191.745 129.172 192.017 129.016C192.293 128.859 192.5 128.658 192.64 128.411C192.782 128.163 192.853 127.903 192.853 127.631V126.71C192.81 126.761 192.716 126.808 192.571 126.851C192.429 126.891 192.265 126.926 192.077 126.957C191.892 126.986 191.712 127.011 191.536 127.034C191.363 127.054 191.222 127.071 191.114 127.085C190.853 127.119 190.608 127.175 190.381 127.251C190.157 127.325 189.975 127.437 189.836 127.588C189.699 127.736 189.631 127.937 189.631 128.193C189.631 128.543 189.76 128.807 190.019 128.986C190.28 129.162 190.611 129.25 191.012 129.25ZM196.7 126.062V130H195.694V123.455H196.665V124.477H196.751C196.904 124.145 197.137 123.878 197.45 123.676C197.762 123.472 198.165 123.369 198.66 123.369C199.103 123.369 199.491 123.46 199.823 123.642C200.156 123.821 200.414 124.094 200.599 124.46C200.783 124.824 200.876 125.284 200.876 125.841V130H199.87V125.909C199.87 125.395 199.737 124.994 199.469 124.707C199.202 124.418 198.836 124.273 198.37 124.273C198.049 124.273 197.762 124.342 197.509 124.482C197.259 124.621 197.062 124.824 196.917 125.091C196.772 125.358 196.7 125.682 196.7 126.062ZM203.127 132.455C202.956 132.455 202.804 132.44 202.671 132.412C202.537 132.386 202.445 132.361 202.394 132.335L202.65 131.449C202.894 131.511 203.11 131.534 203.297 131.517C203.485 131.5 203.651 131.416 203.796 131.266C203.944 131.118 204.078 130.878 204.201 130.545L204.388 130.034L201.968 123.455H203.059L204.865 128.67H204.934L206.74 123.455H207.831L205.053 130.955C204.928 131.293 204.773 131.572 204.588 131.794C204.404 132.018 204.189 132.185 203.945 132.293C203.703 132.401 203.431 132.455 203.127 132.455ZM215.193 130.136C214.602 130.136 214.083 129.996 213.637 129.714C213.194 129.433 212.848 129.04 212.598 128.534C212.35 128.028 212.227 127.437 212.227 126.761C212.227 126.08 212.35 125.484 212.598 124.976C212.848 124.467 213.194 124.072 213.637 123.791C214.083 123.51 214.602 123.369 215.193 123.369C215.784 123.369 216.301 123.51 216.744 123.791C217.19 124.072 217.537 124.467 217.784 124.976C218.034 125.484 218.159 126.08 218.159 126.761C218.159 127.437 218.034 128.028 217.784 128.534C217.537 129.04 217.19 129.433 216.744 129.714C216.301 129.996 215.784 130.136 215.193 130.136ZM215.193 129.233C215.642 129.233 216.011 129.118 216.301 128.888C216.591 128.658 216.805 128.355 216.944 127.98C217.083 127.605 217.153 127.199 217.153 126.761C217.153 126.324 217.083 125.916 216.944 125.538C216.805 125.161 216.591 124.855 216.301 124.622C216.011 124.389 215.642 124.273 215.193 124.273C214.744 124.273 214.375 124.389 214.085 124.622C213.795 124.855 213.581 125.161 213.441 125.538C213.302 125.916 213.233 126.324 213.233 126.761C213.233 127.199 213.302 127.605 213.441 127.98C213.581 128.355 213.795 128.658 214.085 128.888C214.375 129.118 214.744 129.233 215.193 129.233ZM219.694 130V123.455H220.665V124.443H220.734C220.853 124.119 221.069 123.857 221.381 123.655C221.694 123.453 222.046 123.352 222.438 123.352C222.512 123.352 222.604 123.354 222.715 123.357C222.826 123.359 222.91 123.364 222.967 123.369V124.392C222.933 124.384 222.854 124.371 222.732 124.354C222.613 124.334 222.487 124.324 222.353 124.324C222.035 124.324 221.751 124.391 221.501 124.524C221.254 124.655 221.058 124.837 220.913 125.07C220.771 125.3 220.7 125.562 220.7 125.858V130H219.694ZM226.431 130.136C225.886 130.136 225.404 129.999 224.987 129.723C224.569 129.445 224.242 129.053 224.006 128.547C223.771 128.038 223.653 127.438 223.653 126.744C223.653 126.057 223.771 125.46 224.006 124.955C224.242 124.449 224.57 124.058 224.991 123.783C225.411 123.507 225.897 123.369 226.448 123.369C226.874 123.369 227.211 123.44 227.458 123.582C227.708 123.722 227.898 123.881 228.029 124.06C228.163 124.236 228.266 124.381 228.34 124.494H228.425V121.273H229.431V130H228.46V128.994H228.34C228.266 129.114 228.161 129.264 228.025 129.446C227.888 129.625 227.694 129.786 227.441 129.928C227.188 130.067 226.852 130.136 226.431 130.136ZM226.567 129.233C226.971 129.233 227.312 129.128 227.59 128.918C227.869 128.705 228.08 128.411 228.225 128.036C228.37 127.658 228.442 127.222 228.442 126.727C228.442 126.239 228.371 125.811 228.229 125.445C228.087 125.075 227.877 124.788 227.599 124.584C227.32 124.376 226.977 124.273 226.567 124.273C226.141 124.273 225.786 124.382 225.502 124.601C225.221 124.817 225.009 125.111 224.867 125.483C224.728 125.852 224.658 126.267 224.658 126.727C224.658 127.193 224.729 127.616 224.871 127.997C225.016 128.375 225.229 128.676 225.511 128.901C225.795 129.122 226.147 129.233 226.567 129.233ZM234.157 130.136C233.526 130.136 232.982 129.997 232.525 129.719C232.07 129.438 231.719 129.045 231.472 128.543C231.228 128.037 231.106 127.449 231.106 126.778C231.106 126.108 231.228 125.517 231.472 125.006C231.719 124.491 232.063 124.091 232.504 123.804C232.947 123.514 233.464 123.369 234.055 123.369C234.396 123.369 234.732 123.426 235.065 123.54C235.397 123.653 235.7 123.838 235.972 124.094C236.245 124.347 236.462 124.682 236.624 125.099C236.786 125.517 236.867 126.031 236.867 126.642V127.068H231.822V126.199H235.844C235.844 125.83 235.771 125.5 235.623 125.21C235.478 124.92 235.271 124.692 235.001 124.524C234.734 124.357 234.418 124.273 234.055 124.273C233.654 124.273 233.308 124.372 233.015 124.571C232.725 124.767 232.502 125.023 232.346 125.338C232.19 125.653 232.112 125.991 232.112 126.352V126.932C232.112 127.426 232.197 127.845 232.367 128.189C232.54 128.53 232.781 128.79 233.087 128.969C233.394 129.145 233.751 129.233 234.157 129.233C234.421 129.233 234.66 129.196 234.873 129.122C235.089 129.045 235.275 128.932 235.431 128.781C235.587 128.628 235.708 128.437 235.793 128.21L236.765 128.483C236.663 128.812 236.491 129.102 236.249 129.352C236.008 129.599 235.71 129.793 235.354 129.932C234.999 130.068 234.6 130.136 234.157 130.136ZM238.397 130V123.455H239.369V124.443H239.437C239.556 124.119 239.772 123.857 240.085 123.655C240.397 123.453 240.749 123.352 241.141 123.352C241.215 123.352 241.308 123.354 241.418 123.357C241.529 123.359 241.613 123.364 241.67 123.369V124.392C241.636 124.384 241.558 124.371 241.435 124.354C241.316 124.334 241.19 124.324 241.056 124.324C240.738 124.324 240.454 124.391 240.204 124.524C239.957 124.655 239.761 124.837 239.616 125.07C239.474 125.3 239.403 125.562 239.403 125.858V130H238.397ZM247.498 124.92L246.595 125.176C246.538 125.026 246.454 124.879 246.343 124.737C246.235 124.592 246.088 124.473 245.9 124.379C245.713 124.286 245.473 124.239 245.18 124.239C244.779 124.239 244.446 124.331 244.179 124.516C243.914 124.697 243.782 124.929 243.782 125.21C243.782 125.46 243.873 125.658 244.055 125.803C244.237 125.947 244.521 126.068 244.907 126.165L245.879 126.403C246.464 126.545 246.9 126.763 247.187 127.055C247.474 127.345 247.618 127.719 247.618 128.176C247.618 128.551 247.51 128.886 247.294 129.182C247.081 129.477 246.782 129.71 246.399 129.881C246.015 130.051 245.569 130.136 245.061 130.136C244.393 130.136 243.841 129.991 243.403 129.702C242.966 129.412 242.689 128.989 242.572 128.432L243.527 128.193C243.618 128.545 243.789 128.81 244.042 128.986C244.298 129.162 244.632 129.25 245.044 129.25C245.512 129.25 245.885 129.151 246.16 128.952C246.439 128.75 246.578 128.509 246.578 128.227C246.578 128 246.498 127.81 246.339 127.656C246.18 127.5 245.936 127.384 245.606 127.307L244.515 127.051C243.916 126.909 243.475 126.689 243.194 126.391C242.916 126.089 242.777 125.713 242.777 125.261C242.777 124.892 242.88 124.565 243.088 124.281C243.298 123.997 243.583 123.774 243.944 123.612C244.308 123.45 244.72 123.369 245.18 123.369C245.828 123.369 246.336 123.511 246.706 123.795C247.078 124.08 247.342 124.455 247.498 124.92ZM253.154 132.455C252.984 132.455 252.832 132.44 252.698 132.412C252.565 132.386 252.472 132.361 252.421 132.335L252.677 131.449C252.921 131.511 253.137 131.534 253.325 131.517C253.512 131.5 253.678 131.416 253.823 131.266C253.971 131.118 254.106 130.878 254.228 130.545L254.415 130.034L251.995 123.455H253.086L254.893 128.67H254.961L256.768 123.455H257.859L255.08 130.955C254.955 131.293 254.8 131.572 254.616 131.794C254.431 132.018 254.217 132.185 253.972 132.293C253.731 132.401 253.458 132.455 253.154 132.455ZM261.696 130.136C261.065 130.136 260.521 129.997 260.064 129.719C259.609 129.438 259.259 129.045 259.011 128.543C258.767 128.037 258.645 127.449 258.645 126.778C258.645 126.108 258.767 125.517 259.011 125.006C259.259 124.491 259.602 124.091 260.043 123.804C260.486 123.514 261.003 123.369 261.594 123.369C261.935 123.369 262.271 123.426 262.604 123.54C262.936 123.653 263.239 123.838 263.511 124.094C263.784 124.347 264.001 124.682 264.163 125.099C264.325 125.517 264.406 126.031 264.406 126.642V127.068H259.361V126.199H263.384C263.384 125.83 263.31 125.5 263.162 125.21C263.017 124.92 262.81 124.692 262.54 124.524C262.273 124.357 261.957 124.273 261.594 124.273C261.193 124.273 260.847 124.372 260.554 124.571C260.264 124.767 260.041 125.023 259.885 125.338C259.729 125.653 259.651 125.991 259.651 126.352V126.932C259.651 127.426 259.736 127.845 259.906 128.189C260.08 128.53 260.32 128.79 260.626 128.969C260.933 129.145 261.29 129.233 261.696 129.233C261.96 129.233 262.199 129.196 262.412 129.122C262.628 129.045 262.814 128.932 262.97 128.781C263.126 128.628 263.247 128.437 263.332 128.21L264.304 128.483C264.202 128.812 264.03 129.102 263.788 129.352C263.547 129.599 263.249 129.793 262.893 129.932C262.538 130.068 262.139 130.136 261.696 130.136ZM268.783 123.455V124.307H265.391V123.455H268.783ZM266.379 121.886H267.385V128.125C267.385 128.409 267.426 128.622 267.509 128.764C267.594 128.903 267.702 128.997 267.832 129.045C267.966 129.091 268.107 129.114 268.254 129.114C268.365 129.114 268.456 129.108 268.527 129.097C268.598 129.082 268.655 129.071 268.697 129.062L268.902 129.966C268.834 129.991 268.739 130.017 268.616 130.043C268.494 130.071 268.339 130.085 268.152 130.085C267.868 130.085 267.589 130.024 267.317 129.902C267.047 129.78 266.822 129.594 266.643 129.344C266.467 129.094 266.379 128.778 266.379 128.398V121.886ZM271.028 130.068C270.818 130.068 270.638 129.993 270.487 129.842C270.337 129.692 270.261 129.511 270.261 129.301C270.261 129.091 270.337 128.911 270.487 128.76C270.638 128.609 270.818 128.534 271.028 128.534C271.239 128.534 271.419 128.609 271.57 128.76C271.72 128.911 271.795 129.091 271.795 129.301C271.795 129.44 271.76 129.568 271.689 129.685C271.621 129.801 271.528 129.895 271.412 129.966C271.298 130.034 271.17 130.068 271.028 130.068ZM281.884 123.455C281.833 123.023 281.626 122.688 281.262 122.449C280.898 122.21 280.452 122.091 279.924 122.091C279.538 122.091 279.2 122.153 278.91 122.278C278.623 122.403 278.398 122.575 278.237 122.794C278.077 123.013 277.998 123.261 277.998 123.54C277.998 123.773 278.053 123.973 278.164 124.141C278.278 124.305 278.423 124.443 278.599 124.554C278.775 124.662 278.96 124.751 279.153 124.822C279.346 124.891 279.523 124.946 279.685 124.989L280.572 125.227C280.799 125.287 281.052 125.369 281.33 125.474C281.612 125.58 281.88 125.723 282.136 125.905C282.394 126.084 282.607 126.314 282.775 126.595C282.942 126.876 283.026 127.222 283.026 127.631C283.026 128.102 282.903 128.528 282.656 128.909C282.411 129.29 282.053 129.592 281.582 129.817C281.113 130.041 280.543 130.153 279.873 130.153C279.248 130.153 278.707 130.053 278.249 129.851C277.795 129.649 277.437 129.368 277.175 129.007C276.917 128.646 276.771 128.227 276.737 127.75H277.827C277.856 128.08 277.967 128.352 278.16 128.568C278.356 128.781 278.603 128.94 278.901 129.045C279.202 129.148 279.526 129.199 279.873 129.199C280.276 129.199 280.638 129.134 280.96 129.003C281.281 128.869 281.535 128.685 281.722 128.449C281.91 128.21 282.004 127.932 282.004 127.614C282.004 127.324 281.923 127.088 281.761 126.906C281.599 126.724 281.386 126.577 281.121 126.463C280.857 126.349 280.572 126.25 280.265 126.165L279.191 125.858C278.509 125.662 277.969 125.382 277.572 125.018C277.174 124.655 276.975 124.179 276.975 123.591C276.975 123.102 277.107 122.676 277.371 122.312C277.638 121.946 277.996 121.662 278.445 121.46C278.897 121.256 279.401 121.153 279.958 121.153C280.521 121.153 281.021 121.254 281.458 121.456C281.896 121.655 282.242 121.928 282.498 122.274C282.756 122.621 282.893 123.014 282.907 123.455H281.884ZM287.474 123.455V124.307H284.082V123.455H287.474ZM285.071 121.886H286.076V128.125C286.076 128.409 286.118 128.622 286.2 128.764C286.285 128.903 286.393 128.997 286.524 129.045C286.657 129.091 286.798 129.114 286.946 129.114C287.056 129.114 287.147 129.108 287.218 129.097C287.289 129.082 287.346 129.071 287.389 129.062L287.593 129.966C287.525 129.991 287.43 130.017 287.308 130.043C287.186 130.071 287.031 130.085 286.843 130.085C286.559 130.085 286.281 130.024 286.008 129.902C285.738 129.78 285.514 129.594 285.335 129.344C285.159 129.094 285.071 128.778 285.071 128.398V121.886ZM290.913 130.153C290.498 130.153 290.122 130.075 289.784 129.919C289.446 129.76 289.177 129.531 288.978 129.233C288.779 128.932 288.68 128.568 288.68 128.142C288.68 127.767 288.754 127.463 288.902 127.23C289.049 126.994 289.247 126.81 289.494 126.676C289.741 126.543 290.014 126.443 290.312 126.378C290.613 126.31 290.916 126.256 291.22 126.216C291.618 126.165 291.94 126.126 292.187 126.101C292.437 126.072 292.619 126.026 292.733 125.96C292.849 125.895 292.907 125.781 292.907 125.619V125.585C292.907 125.165 292.792 124.838 292.562 124.605C292.335 124.372 291.99 124.256 291.527 124.256C291.047 124.256 290.67 124.361 290.397 124.571C290.125 124.781 289.933 125.006 289.822 125.244L288.868 124.903C289.038 124.506 289.265 124.196 289.549 123.974C289.836 123.75 290.149 123.594 290.487 123.506C290.828 123.415 291.163 123.369 291.493 123.369C291.703 123.369 291.944 123.395 292.217 123.446C292.493 123.494 292.758 123.595 293.014 123.749C293.272 123.902 293.487 124.134 293.657 124.443C293.828 124.753 293.913 125.168 293.913 125.688V130H292.907V129.114H292.856C292.788 129.256 292.674 129.408 292.515 129.57C292.356 129.732 292.145 129.869 291.88 129.983C291.616 130.097 291.294 130.153 290.913 130.153ZM291.066 129.25C291.464 129.25 291.799 129.172 292.072 129.016C292.348 128.859 292.555 128.658 292.694 128.411C292.836 128.163 292.907 127.903 292.907 127.631V126.71C292.865 126.761 292.771 126.808 292.626 126.851C292.484 126.891 292.319 126.926 292.132 126.957C291.947 126.986 291.767 127.011 291.591 127.034C291.417 127.054 291.277 127.071 291.169 127.085C290.907 127.119 290.663 127.175 290.436 127.251C290.211 127.325 290.029 127.437 289.89 127.588C289.754 127.736 289.686 127.937 289.686 128.193C289.686 128.543 289.815 128.807 290.074 128.986C290.335 129.162 290.666 129.25 291.066 129.25ZM295.749 130V123.455H296.72V124.443H296.788C296.908 124.119 297.124 123.857 297.436 123.655C297.749 123.453 298.101 123.352 298.493 123.352C298.567 123.352 298.659 123.354 298.77 123.357C298.881 123.359 298.964 123.364 299.021 123.369V124.392C298.987 124.384 298.909 124.371 298.787 124.354C298.668 124.334 298.541 124.324 298.408 124.324C298.089 124.324 297.805 124.391 297.555 124.524C297.308 124.655 297.112 124.837 296.967 125.07C296.825 125.3 296.754 125.562 296.754 125.858V130H295.749ZM303.47 123.455V124.307H300.078V123.455H303.47ZM301.067 121.886H302.072V128.125C302.072 128.409 302.114 128.622 302.196 128.764C302.281 128.903 302.389 128.997 302.52 129.045C302.653 129.091 302.794 129.114 302.942 129.114C303.053 129.114 303.143 129.108 303.214 129.097C303.286 129.082 303.342 129.071 303.385 129.062L303.589 129.966C303.521 129.991 303.426 130.017 303.304 130.043C303.182 130.071 303.027 130.085 302.839 130.085C302.555 130.085 302.277 130.024 302.004 129.902C301.734 129.78 301.51 129.594 301.331 129.344C301.155 129.094 301.067 128.778 301.067 128.398V121.886ZM311.102 130.136C310.472 130.136 309.928 129.997 309.47 129.719C309.016 129.438 308.665 129.045 308.418 128.543C308.173 128.037 308.051 127.449 308.051 126.778C308.051 126.108 308.173 125.517 308.418 125.006C308.665 124.491 309.009 124.091 309.449 123.804C309.892 123.514 310.409 123.369 311 123.369C311.341 123.369 311.678 123.426 312.01 123.54C312.342 123.653 312.645 123.838 312.918 124.094C313.19 124.347 313.408 124.682 313.57 125.099C313.732 125.517 313.812 126.031 313.812 126.642V127.068H308.767V126.199H312.79C312.79 125.83 312.716 125.5 312.568 125.21C312.423 124.92 312.216 124.692 311.946 124.524C311.679 124.357 311.364 124.273 311 124.273C310.599 124.273 310.253 124.372 309.96 124.571C309.67 124.767 309.447 125.023 309.291 125.338C309.135 125.653 309.057 125.991 309.057 126.352V126.932C309.057 127.426 309.142 127.845 309.312 128.189C309.486 128.53 309.726 128.79 310.033 128.969C310.339 129.145 310.696 129.233 311.102 129.233C311.366 129.233 311.605 129.196 311.818 129.122C312.034 129.045 312.22 128.932 312.376 128.781C312.533 128.628 312.653 128.437 312.739 128.21L313.71 128.483C313.608 128.812 313.436 129.102 313.195 129.352C312.953 129.599 312.655 129.793 312.3 129.932C311.945 130.068 311.545 130.136 311.102 130.136ZM315.917 123.455L317.485 126.131L319.053 123.455H320.212L318.098 126.727L320.212 130H319.053L317.485 127.46L315.917 130H314.757L316.837 126.727L314.757 123.455H315.917ZM321.647 132.455V123.455H322.619V124.494H322.738C322.812 124.381 322.914 124.236 323.045 124.06C323.178 123.881 323.369 123.722 323.616 123.582C323.866 123.44 324.204 123.369 324.63 123.369C325.181 123.369 325.667 123.507 326.087 123.783C326.508 124.058 326.836 124.449 327.072 124.955C327.308 125.46 327.425 126.057 327.425 126.744C327.425 127.438 327.308 128.038 327.072 128.547C326.836 129.053 326.509 129.445 326.092 129.723C325.674 129.999 325.192 130.136 324.647 130.136C324.227 130.136 323.89 130.067 323.637 129.928C323.384 129.786 323.19 129.625 323.053 129.446C322.917 129.264 322.812 129.114 322.738 128.994H322.653V132.455H321.647ZM322.636 126.727C322.636 127.222 322.708 127.658 322.853 128.036C322.998 128.411 323.21 128.705 323.488 128.918C323.766 129.128 324.107 129.233 324.511 129.233C324.931 129.233 325.282 129.122 325.563 128.901C325.847 128.676 326.06 128.375 326.202 127.997C326.347 127.616 326.42 127.193 326.42 126.727C326.42 126.267 326.349 125.852 326.207 125.483C326.067 125.111 325.856 124.817 325.572 124.601C325.29 124.382 324.937 124.273 324.511 124.273C324.102 124.273 323.758 124.376 323.479 124.584C323.201 124.788 322.991 125.075 322.849 125.445C322.707 125.811 322.636 126.239 322.636 126.727ZM329.965 121.273V130H328.96V121.273H329.965ZM334.466 130.136C333.875 130.136 333.357 129.996 332.911 129.714C332.468 129.433 332.121 129.04 331.871 128.534C331.624 128.028 331.5 127.437 331.5 126.761C331.5 126.08 331.624 125.484 331.871 124.976C332.121 124.467 332.468 124.072 332.911 123.791C333.357 123.51 333.875 123.369 334.466 123.369C335.057 123.369 335.574 123.51 336.017 123.791C336.463 124.072 336.81 124.467 337.057 124.976C337.307 125.484 337.432 126.08 337.432 126.761C337.432 127.437 337.307 128.028 337.057 128.534C336.81 129.04 336.463 129.433 336.017 129.714C335.574 129.996 335.057 130.136 334.466 130.136ZM334.466 129.233C334.915 129.233 335.284 129.118 335.574 128.888C335.864 128.658 336.078 128.355 336.218 127.98C336.357 127.605 336.426 127.199 336.426 126.761C336.426 126.324 336.357 125.916 336.218 125.538C336.078 125.161 335.864 124.855 335.574 124.622C335.284 124.389 334.915 124.273 334.466 124.273C334.017 124.273 333.648 124.389 333.358 124.622C333.069 124.855 332.854 125.161 332.715 125.538C332.576 125.916 332.506 126.324 332.506 126.761C332.506 127.199 332.576 127.605 332.715 127.98C332.854 128.355 333.069 128.658 333.358 128.888C333.648 129.118 334.017 129.233 334.466 129.233ZM338.967 130V123.455H339.939V124.443H340.007C340.126 124.119 340.342 123.857 340.655 123.655C340.967 123.453 341.32 123.352 341.712 123.352C341.786 123.352 341.878 123.354 341.989 123.357C342.099 123.359 342.183 123.364 342.24 123.369V124.392C342.206 124.384 342.128 124.371 342.006 124.354C341.886 124.334 341.76 124.324 341.626 124.324C341.308 124.324 341.024 124.391 340.774 124.524C340.527 124.655 340.331 124.837 340.186 125.07C340.044 125.3 339.973 125.562 339.973 125.858V130H338.967ZM343.432 130V123.455H344.438V130H343.432ZM343.944 122.364C343.748 122.364 343.578 122.297 343.436 122.163C343.297 122.03 343.228 121.869 343.228 121.682C343.228 121.494 343.297 121.334 343.436 121.2C343.578 121.067 343.748 121 343.944 121C344.14 121 344.307 121.067 344.446 121.2C344.588 121.334 344.659 121.494 344.659 121.682C344.659 121.869 344.588 122.03 344.446 122.163C344.307 122.297 344.14 122.364 343.944 122.364ZM347.286 126.062V130H346.28V123.455H347.251V124.477H347.337C347.49 124.145 347.723 123.878 348.036 123.676C348.348 123.472 348.751 123.369 349.246 123.369C349.689 123.369 350.077 123.46 350.409 123.642C350.741 123.821 351 124.094 351.185 124.46C351.369 124.824 351.462 125.284 351.462 125.841V130H350.456V125.909C350.456 125.395 350.322 124.994 350.055 124.707C349.788 124.418 349.422 124.273 348.956 124.273C348.635 124.273 348.348 124.342 348.095 124.482C347.845 124.621 347.648 124.824 347.503 125.091C347.358 125.358 347.286 125.682 347.286 126.062ZM355.941 132.591C355.456 132.591 355.038 132.528 354.689 132.403C354.339 132.281 354.048 132.119 353.815 131.918C353.585 131.719 353.402 131.506 353.265 131.278L354.066 130.716C354.157 130.835 354.272 130.972 354.412 131.125C354.551 131.281 354.741 131.416 354.983 131.53C355.227 131.646 355.547 131.705 355.941 131.705C356.47 131.705 356.906 131.577 357.25 131.321C357.593 131.065 357.765 130.665 357.765 130.119V128.79H357.68C357.606 128.909 357.501 129.057 357.365 129.233C357.231 129.406 357.038 129.561 356.785 129.697C356.535 129.831 356.197 129.898 355.771 129.898C355.243 129.898 354.768 129.773 354.348 129.523C353.93 129.273 353.599 128.909 353.355 128.432C353.113 127.955 352.993 127.375 352.993 126.693C352.993 126.023 353.11 125.439 353.346 124.942C353.582 124.442 353.91 124.055 354.331 123.783C354.751 123.507 355.237 123.369 355.788 123.369C356.214 123.369 356.552 123.44 356.802 123.582C357.055 123.722 357.248 123.881 357.382 124.06C357.518 124.236 357.623 124.381 357.697 124.494H357.799V123.455H358.771V130.188C358.771 130.75 358.643 131.207 358.387 131.56C358.135 131.915 357.794 132.175 357.365 132.339C356.939 132.507 356.464 132.591 355.941 132.591ZM355.907 128.994C356.311 128.994 356.652 128.902 356.93 128.717C357.208 128.533 357.42 128.267 357.565 127.92C357.71 127.574 357.782 127.159 357.782 126.676C357.782 126.205 357.711 125.788 357.569 125.428C357.427 125.067 357.217 124.784 356.939 124.58C356.66 124.375 356.316 124.273 355.907 124.273C355.481 124.273 355.126 124.381 354.842 124.597C354.561 124.812 354.349 125.102 354.207 125.466C354.068 125.83 353.998 126.233 353.998 126.676C353.998 127.131 354.069 127.533 354.211 127.882C354.356 128.229 354.569 128.501 354.85 128.7C355.135 128.896 355.487 128.994 355.907 128.994ZM366.646 130.136C366.055 130.136 365.537 129.996 365.091 129.714C364.647 129.433 364.301 129.04 364.051 128.534C363.804 128.028 363.68 127.437 363.68 126.761C363.68 126.08 363.804 125.484 364.051 124.976C364.301 124.467 364.647 124.072 365.091 123.791C365.537 123.51 366.055 123.369 366.646 123.369C367.237 123.369 367.754 123.51 368.197 123.791C368.643 124.072 368.99 124.467 369.237 124.976C369.487 125.484 369.612 126.08 369.612 126.761C369.612 127.437 369.487 128.028 369.237 128.534C368.99 129.04 368.643 129.433 368.197 129.714C367.754 129.996 367.237 130.136 366.646 130.136ZM366.646 129.233C367.095 129.233 367.464 129.118 367.754 128.888C368.044 128.658 368.258 128.355 368.397 127.98C368.537 127.605 368.606 127.199 368.606 126.761C368.606 126.324 368.537 125.916 368.397 125.538C368.258 125.161 368.044 124.855 367.754 124.622C367.464 124.389 367.095 124.273 366.646 124.273C366.197 124.273 365.828 124.389 365.538 124.622C365.248 124.855 365.034 125.161 364.895 125.538C364.755 125.916 364.686 126.324 364.686 126.761C364.686 127.199 364.755 127.605 364.895 127.98C365.034 128.355 365.248 128.658 365.538 128.888C365.828 129.118 366.197 129.233 366.646 129.233ZM375.272 127.324V123.455H376.278V130H375.272V128.892H375.204C375.05 129.224 374.812 129.507 374.488 129.74C374.164 129.97 373.755 130.085 373.261 130.085C372.852 130.085 372.488 129.996 372.17 129.817C371.852 129.635 371.602 129.362 371.42 128.999C371.238 128.632 371.147 128.17 371.147 127.614V123.455H372.153V127.545C372.153 128.023 372.286 128.403 372.553 128.688C372.823 128.972 373.167 129.114 373.585 129.114C373.835 129.114 374.089 129.05 374.347 128.922C374.609 128.794 374.827 128.598 375.004 128.334C375.183 128.07 375.272 127.733 375.272 127.324ZM378.12 130V123.455H379.091V124.443H379.159C379.279 124.119 379.495 123.857 379.807 123.655C380.12 123.453 380.472 123.352 380.864 123.352C380.938 123.352 381.03 123.354 381.141 123.357C381.252 123.359 381.336 123.364 381.392 123.369V124.392C381.358 124.384 381.28 124.371 381.158 124.354C381.039 124.334 380.912 124.324 380.779 124.324C380.461 124.324 380.176 124.391 379.926 124.524C379.679 124.655 379.483 124.837 379.338 125.07C379.196 125.3 379.125 125.562 379.125 125.858V130H378.12ZM128.071 146V139.455H129.042V140.477H129.128C129.264 140.128 129.484 139.857 129.788 139.663C130.092 139.467 130.457 139.369 130.883 139.369C131.315 139.369 131.675 139.467 131.961 139.663C132.251 139.857 132.477 140.128 132.639 140.477H132.707C132.875 140.139 133.126 139.871 133.461 139.672C133.797 139.47 134.199 139.369 134.667 139.369C135.253 139.369 135.731 139.553 136.104 139.919C136.476 140.283 136.662 140.849 136.662 141.619V146H135.656V141.619C135.656 141.136 135.524 140.791 135.26 140.584C134.996 140.376 134.684 140.273 134.327 140.273C133.866 140.273 133.51 140.412 133.257 140.69C133.004 140.966 132.878 141.315 132.878 141.739V146H131.855V141.517C131.855 141.145 131.734 140.845 131.493 140.618C131.251 140.388 130.94 140.273 130.559 140.273C130.298 140.273 130.054 140.342 129.827 140.482C129.602 140.621 129.42 140.814 129.281 141.061C129.145 141.305 129.077 141.588 129.077 141.909V146H128.071ZM141.245 146.136C140.614 146.136 140.07 145.997 139.613 145.719C139.158 145.438 138.807 145.045 138.56 144.543C138.316 144.037 138.194 143.449 138.194 142.778C138.194 142.108 138.316 141.517 138.56 141.006C138.807 140.491 139.151 140.091 139.591 139.804C140.035 139.514 140.552 139.369 141.143 139.369C141.483 139.369 141.82 139.426 142.153 139.54C142.485 139.653 142.787 139.838 143.06 140.094C143.333 140.347 143.55 140.682 143.712 141.099C143.874 141.517 143.955 142.031 143.955 142.642V143.068H138.91V142.199H142.932C142.932 141.83 142.858 141.5 142.711 141.21C142.566 140.92 142.358 140.692 142.089 140.524C141.822 140.357 141.506 140.273 141.143 140.273C140.742 140.273 140.395 140.372 140.103 140.571C139.813 140.767 139.59 141.023 139.434 141.338C139.278 141.653 139.199 141.991 139.199 142.352V142.932C139.199 143.426 139.285 143.845 139.455 144.189C139.628 144.53 139.868 144.79 140.175 144.969C140.482 145.145 140.839 145.233 141.245 145.233C141.509 145.233 141.748 145.196 141.961 145.122C142.177 145.045 142.363 144.932 142.519 144.781C142.675 144.628 142.796 144.437 142.881 144.21L143.853 144.483C143.751 144.812 143.579 145.102 143.337 145.352C143.096 145.599 142.797 145.793 142.442 145.932C142.087 146.068 141.688 146.136 141.245 146.136ZM146.491 142.062V146H145.485V139.455H146.456V140.477H146.542C146.695 140.145 146.928 139.878 147.241 139.676C147.553 139.472 147.956 139.369 148.451 139.369C148.894 139.369 149.282 139.46 149.614 139.642C149.947 139.821 150.205 140.094 150.39 140.46C150.574 140.824 150.667 141.284 150.667 141.841V146H149.661V141.909C149.661 141.395 149.528 140.994 149.26 140.707C148.993 140.418 148.627 140.273 148.161 140.273C147.84 140.273 147.553 140.342 147.3 140.482C147.05 140.621 146.853 140.824 146.708 141.091C146.563 141.358 146.491 141.682 146.491 142.062ZM156.629 143.324V139.455H157.635V146H156.629V144.892H156.561C156.408 145.224 156.169 145.507 155.845 145.74C155.521 145.97 155.112 146.085 154.618 146.085C154.209 146.085 153.845 145.996 153.527 145.817C153.209 145.635 152.959 145.362 152.777 144.999C152.595 144.632 152.504 144.17 152.504 143.614V139.455H153.51V143.545C153.51 144.023 153.644 144.403 153.911 144.688C154.181 144.972 154.524 145.114 154.942 145.114C155.192 145.114 155.446 145.05 155.705 144.922C155.966 144.794 156.185 144.598 156.361 144.334C156.54 144.07 156.629 143.733 156.629 143.324ZM164.778 146.153C164.363 146.153 163.987 146.075 163.649 145.919C163.311 145.76 163.042 145.531 162.844 145.233C162.645 144.932 162.545 144.568 162.545 144.142C162.545 143.767 162.619 143.463 162.767 143.23C162.915 142.994 163.112 142.81 163.359 142.676C163.606 142.543 163.879 142.443 164.177 142.378C164.479 142.31 164.781 142.256 165.085 142.216C165.483 142.165 165.805 142.126 166.052 142.101C166.302 142.072 166.484 142.026 166.598 141.96C166.714 141.895 166.773 141.781 166.773 141.619V141.585C166.773 141.165 166.657 140.838 166.427 140.605C166.2 140.372 165.855 140.256 165.392 140.256C164.912 140.256 164.535 140.361 164.263 140.571C163.99 140.781 163.798 141.006 163.687 141.244L162.733 140.903C162.903 140.506 163.131 140.196 163.415 139.974C163.702 139.75 164.014 139.594 164.352 139.506C164.693 139.415 165.028 139.369 165.358 139.369C165.568 139.369 165.809 139.395 166.082 139.446C166.358 139.494 166.623 139.595 166.879 139.749C167.138 139.902 167.352 140.134 167.523 140.443C167.693 140.753 167.778 141.168 167.778 141.688V146H166.773V145.114H166.721C166.653 145.256 166.54 145.408 166.381 145.57C166.221 145.732 166.01 145.869 165.746 145.983C165.481 146.097 165.159 146.153 164.778 146.153ZM164.932 145.25C165.329 145.25 165.665 145.172 165.937 145.016C166.213 144.859 166.42 144.658 166.559 144.411C166.702 144.163 166.773 143.903 166.773 143.631V142.71C166.73 142.761 166.636 142.808 166.491 142.851C166.349 142.891 166.184 142.926 165.997 142.957C165.812 142.986 165.632 143.011 165.456 143.034C165.282 143.054 165.142 143.071 165.034 143.085C164.773 143.119 164.528 143.175 164.301 143.251C164.077 143.325 163.895 143.437 163.756 143.588C163.619 143.736 163.551 143.937 163.551 144.193C163.551 144.543 163.68 144.807 163.939 144.986C164.2 145.162 164.531 145.25 164.932 145.25ZM170.619 142.062V146H169.614V139.455H170.585V140.477H170.671C170.824 140.145 171.057 139.878 171.369 139.676C171.682 139.472 172.085 139.369 172.58 139.369C173.023 139.369 173.411 139.46 173.743 139.642C174.075 139.821 174.334 140.094 174.519 140.46C174.703 140.824 174.796 141.284 174.796 141.841V146H173.79V141.909C173.79 141.395 173.656 140.994 173.389 140.707C173.122 140.418 172.756 140.273 172.29 140.273C171.969 140.273 171.682 140.342 171.429 140.482C171.179 140.621 170.982 140.824 170.837 141.091C170.692 141.358 170.619 141.682 170.619 142.062ZM179.105 146.136C178.559 146.136 178.078 145.999 177.66 145.723C177.243 145.445 176.916 145.053 176.68 144.547C176.444 144.038 176.327 143.438 176.327 142.744C176.327 142.057 176.444 141.46 176.68 140.955C176.916 140.449 177.244 140.058 177.665 139.783C178.085 139.507 178.571 139.369 179.122 139.369C179.548 139.369 179.885 139.44 180.132 139.582C180.382 139.722 180.572 139.881 180.703 140.06C180.836 140.236 180.94 140.381 181.014 140.494H181.099V137.273H182.105V146H181.133V144.994H181.014C180.94 145.114 180.835 145.264 180.699 145.446C180.562 145.625 180.368 145.786 180.115 145.928C179.862 146.067 179.525 146.136 179.105 146.136ZM179.241 145.233C179.645 145.233 179.986 145.128 180.264 144.918C180.542 144.705 180.754 144.411 180.899 144.036C181.044 143.658 181.116 143.222 181.116 142.727C181.116 142.239 181.045 141.811 180.903 141.445C180.761 141.075 180.551 140.788 180.273 140.584C179.994 140.376 179.65 140.273 179.241 140.273C178.815 140.273 178.46 140.382 178.176 140.601C177.895 140.817 177.683 141.111 177.541 141.483C177.402 141.852 177.332 142.267 177.332 142.727C177.332 143.193 177.403 143.616 177.545 143.997C177.69 144.375 177.903 144.676 178.184 144.901C178.469 145.122 178.821 145.233 179.241 145.233ZM192.098 140.92L191.194 141.176C191.138 141.026 191.054 140.879 190.943 140.737C190.835 140.592 190.687 140.473 190.5 140.379C190.312 140.286 190.072 140.239 189.78 140.239C189.379 140.239 189.045 140.331 188.778 140.516C188.514 140.697 188.382 140.929 188.382 141.21C188.382 141.46 188.473 141.658 188.655 141.803C188.836 141.947 189.121 142.068 189.507 142.165L190.479 142.403C191.064 142.545 191.5 142.763 191.787 143.055C192.074 143.345 192.217 143.719 192.217 144.176C192.217 144.551 192.109 144.886 191.893 145.182C191.68 145.477 191.382 145.71 190.998 145.881C190.615 146.051 190.169 146.136 189.66 146.136C188.993 146.136 188.44 145.991 188.003 145.702C187.565 145.412 187.288 144.989 187.172 144.432L188.126 144.193C188.217 144.545 188.389 144.81 188.642 144.986C188.898 145.162 189.231 145.25 189.643 145.25C190.112 145.25 190.484 145.151 190.76 144.952C191.038 144.75 191.177 144.509 191.177 144.227C191.177 144 191.098 143.81 190.939 143.656C190.78 143.5 190.535 143.384 190.206 143.307L189.115 143.051C188.515 142.909 188.075 142.689 187.794 142.391C187.515 142.089 187.376 141.713 187.376 141.261C187.376 140.892 187.48 140.565 187.687 140.281C187.898 139.997 188.183 139.774 188.544 139.612C188.907 139.45 189.319 139.369 189.78 139.369C190.427 139.369 190.936 139.511 191.305 139.795C191.677 140.08 191.942 140.455 192.098 140.92ZM195.657 146.153C195.242 146.153 194.866 146.075 194.528 145.919C194.19 145.76 193.921 145.531 193.722 145.233C193.524 144.932 193.424 144.568 193.424 144.142C193.424 143.767 193.498 143.463 193.646 143.23C193.794 142.994 193.991 142.81 194.238 142.676C194.485 142.543 194.758 142.443 195.056 142.378C195.357 142.31 195.66 142.256 195.964 142.216C196.362 142.165 196.684 142.126 196.931 142.101C197.181 142.072 197.363 142.026 197.477 141.96C197.593 141.895 197.651 141.781 197.651 141.619V141.585C197.651 141.165 197.536 140.838 197.306 140.605C197.079 140.372 196.734 140.256 196.271 140.256C195.791 140.256 195.414 140.361 195.142 140.571C194.869 140.781 194.677 141.006 194.566 141.244L193.612 140.903C193.782 140.506 194.009 140.196 194.294 139.974C194.58 139.75 194.893 139.594 195.231 139.506C195.572 139.415 195.907 139.369 196.237 139.369C196.447 139.369 196.688 139.395 196.961 139.446C197.237 139.494 197.502 139.595 197.758 139.749C198.017 139.902 198.231 140.134 198.401 140.443C198.572 140.753 198.657 141.168 198.657 141.688V146H197.651V145.114H197.6C197.532 145.256 197.419 145.408 197.259 145.57C197.1 145.732 196.889 145.869 196.624 145.983C196.36 146.097 196.038 146.153 195.657 146.153ZM195.811 145.25C196.208 145.25 196.544 145.172 196.816 145.016C197.092 144.859 197.299 144.658 197.438 144.411C197.58 144.163 197.651 143.903 197.651 143.631V142.71C197.609 142.761 197.515 142.808 197.37 142.851C197.228 142.891 197.063 142.926 196.876 142.957C196.691 142.986 196.511 143.011 196.335 143.034C196.161 143.054 196.021 143.071 195.913 143.085C195.651 143.119 195.407 143.175 195.18 143.251C194.955 143.325 194.774 143.437 194.634 143.588C194.498 143.736 194.43 143.937 194.43 144.193C194.43 144.543 194.559 144.807 194.818 144.986C195.079 145.162 195.41 145.25 195.811 145.25ZM203.339 139.455V140.307H199.947V139.455H203.339ZM200.936 137.886H201.942V144.125C201.942 144.409 201.983 144.622 202.065 144.764C202.15 144.903 202.258 144.997 202.389 145.045C202.523 145.091 202.663 145.114 202.811 145.114C202.922 145.114 203.013 145.108 203.084 145.097C203.155 145.082 203.211 145.071 203.254 145.062L203.459 145.966C203.39 145.991 203.295 146.017 203.173 146.043C203.051 146.071 202.896 146.085 202.709 146.085C202.425 146.085 202.146 146.024 201.873 145.902C201.604 145.78 201.379 145.594 201.2 145.344C201.024 145.094 200.936 144.778 200.936 144.398V137.886ZM204.852 146V139.455H205.858V146H204.852ZM205.363 138.364C205.167 138.364 204.998 138.297 204.856 138.163C204.717 138.03 204.648 137.869 204.648 137.682C204.648 137.494 204.717 137.334 204.856 137.2C204.998 137.067 205.167 137 205.363 137C205.559 137 205.727 137.067 205.866 137.2C206.008 137.334 206.079 137.494 206.079 137.682C206.079 137.869 206.008 138.03 205.866 138.163C205.727 138.297 205.559 138.364 205.363 138.364ZM212.336 140.92L211.433 141.176C211.376 141.026 211.292 140.879 211.181 140.737C211.073 140.592 210.926 140.473 210.738 140.379C210.551 140.286 210.311 140.239 210.018 140.239C209.617 140.239 209.284 140.331 209.017 140.516C208.752 140.697 208.62 140.929 208.62 141.21C208.62 141.46 208.711 141.658 208.893 141.803C209.075 141.947 209.359 142.068 209.745 142.165L210.717 142.403C211.302 142.545 211.738 142.763 212.025 143.055C212.312 143.345 212.455 143.719 212.455 144.176C212.455 144.551 212.347 144.886 212.132 145.182C211.919 145.477 211.62 145.71 211.237 145.881C210.853 146.051 210.407 146.136 209.899 146.136C209.231 146.136 208.678 145.991 208.241 145.702C207.803 145.412 207.526 144.989 207.41 144.432L208.365 144.193C208.455 144.545 208.627 144.81 208.88 144.986C209.136 145.162 209.47 145.25 209.882 145.25C210.35 145.25 210.722 145.151 210.998 144.952C211.276 144.75 211.416 144.509 211.416 144.227C211.416 144 211.336 143.81 211.177 143.656C211.018 143.5 210.774 143.384 210.444 143.307L209.353 143.051C208.754 142.909 208.313 142.689 208.032 142.391C207.754 142.089 207.615 141.713 207.615 141.261C207.615 140.892 207.718 140.565 207.926 140.281C208.136 139.997 208.421 139.774 208.782 139.612C209.146 139.45 209.558 139.369 210.018 139.369C210.666 139.369 211.174 139.511 211.544 139.795C211.916 140.08 212.18 140.455 212.336 140.92ZM216.884 139.455V140.307H213.356V139.455H216.884ZM214.412 146V138.551C214.412 138.176 214.501 137.864 214.677 137.614C214.853 137.364 215.081 137.176 215.363 137.051C215.644 136.926 215.941 136.864 216.253 136.864C216.501 136.864 216.702 136.884 216.858 136.923C217.015 136.963 217.131 137 217.208 137.034L216.918 137.903C216.867 137.886 216.796 137.865 216.705 137.839C216.617 137.814 216.501 137.801 216.356 137.801C216.023 137.801 215.783 137.885 215.635 138.053C215.491 138.22 215.418 138.466 215.418 138.79V146H214.412ZM218.941 148.455C218.771 148.455 218.619 148.44 218.485 148.412C218.352 148.386 218.259 148.361 218.208 148.335L218.464 147.449C218.708 147.511 218.924 147.534 219.112 147.517C219.299 147.5 219.465 147.416 219.61 147.266C219.758 147.118 219.893 146.878 220.015 146.545L220.203 146.034L217.782 139.455H218.873L220.68 144.67H220.748L222.555 139.455H223.646L220.867 146.955C220.742 147.293 220.588 147.572 220.403 147.794C220.218 148.018 220.004 148.185 219.759 148.293C219.518 148.401 219.245 148.455 218.941 148.455ZM228.996 148.455C228.825 148.455 228.673 148.44 228.54 148.412C228.406 148.386 228.314 148.361 228.263 148.335L228.519 147.449C228.763 147.511 228.979 147.534 229.166 147.517C229.354 147.5 229.52 147.416 229.665 147.266C229.813 147.118 229.948 146.878 230.07 146.545L230.257 146.034L227.837 139.455H228.928L230.735 144.67H230.803L232.61 139.455H233.7L230.922 146.955C230.797 147.293 230.642 147.572 230.458 147.794C230.273 148.018 230.058 148.185 229.814 148.293C229.573 148.401 229.3 148.455 228.996 148.455ZM237.453 146.136C236.862 146.136 236.343 145.996 235.897 145.714C235.454 145.433 235.107 145.04 234.857 144.534C234.61 144.028 234.487 143.437 234.487 142.761C234.487 142.08 234.61 141.484 234.857 140.976C235.107 140.467 235.454 140.072 235.897 139.791C236.343 139.51 236.862 139.369 237.453 139.369C238.044 139.369 238.561 139.51 239.004 139.791C239.45 140.072 239.796 140.467 240.044 140.976C240.294 141.484 240.419 142.08 240.419 142.761C240.419 143.437 240.294 144.028 240.044 144.534C239.796 145.04 239.45 145.433 239.004 145.714C238.561 145.996 238.044 146.136 237.453 146.136ZM237.453 145.233C237.901 145.233 238.271 145.118 238.561 144.888C238.85 144.658 239.065 144.355 239.204 143.98C239.343 143.605 239.413 143.199 239.413 142.761C239.413 142.324 239.343 141.916 239.204 141.538C239.065 141.161 238.85 140.855 238.561 140.622C238.271 140.389 237.901 140.273 237.453 140.273C237.004 140.273 236.634 140.389 236.345 140.622C236.055 140.855 235.84 141.161 235.701 141.538C235.562 141.916 235.492 142.324 235.492 142.761C235.492 143.199 235.562 143.605 235.701 143.98C235.84 144.355 236.055 144.658 236.345 144.888C236.634 145.118 237.004 145.233 237.453 145.233ZM246.079 143.324V139.455H247.084V146H246.079V144.892H246.01C245.857 145.224 245.618 145.507 245.295 145.74C244.971 145.97 244.562 146.085 244.067 146.085C243.658 146.085 243.295 145.996 242.976 145.817C242.658 145.635 242.408 145.362 242.226 144.999C242.045 144.632 241.954 144.17 241.954 143.614V139.455H242.959V143.545C242.959 144.023 243.093 144.403 243.36 144.688C243.63 144.972 243.974 145.114 244.391 145.114C244.641 145.114 244.895 145.05 245.154 144.922C245.415 144.794 245.634 144.598 245.81 144.334C245.989 144.07 246.079 143.733 246.079 143.324ZM248.926 146V139.455H249.898V140.443H249.966C250.085 140.119 250.301 139.857 250.614 139.655C250.926 139.453 251.279 139.352 251.671 139.352C251.744 139.352 251.837 139.354 251.948 139.357C252.058 139.359 252.142 139.364 252.199 139.369V140.392C252.165 140.384 252.087 140.371 251.965 140.354C251.845 140.334 251.719 140.324 251.585 140.324C251.267 140.324 250.983 140.391 250.733 140.524C250.486 140.655 250.29 140.837 250.145 141.07C250.003 141.3 249.932 141.562 249.932 141.858V146H248.926ZM259.425 146.136C258.812 146.136 258.283 145.991 257.84 145.702C257.397 145.412 257.056 145.013 256.817 144.504C256.579 143.996 256.459 143.415 256.459 142.761C256.459 142.097 256.581 141.51 256.826 141.001C257.073 140.49 257.417 140.091 257.857 139.804C258.3 139.514 258.817 139.369 259.408 139.369C259.868 139.369 260.283 139.455 260.653 139.625C261.022 139.795 261.324 140.034 261.56 140.341C261.796 140.648 261.942 141.006 261.999 141.415H260.993C260.917 141.116 260.746 140.852 260.482 140.622C260.221 140.389 259.868 140.273 259.425 140.273C259.033 140.273 258.689 140.375 258.394 140.58C258.101 140.781 257.873 141.067 257.708 141.436C257.546 141.803 257.465 142.233 257.465 142.727C257.465 143.233 257.545 143.673 257.704 144.048C257.866 144.423 258.093 144.714 258.385 144.922C258.681 145.129 259.028 145.233 259.425 145.233C259.687 145.233 259.924 145.188 260.137 145.097C260.35 145.006 260.53 144.875 260.678 144.705C260.826 144.534 260.931 144.33 260.993 144.091H261.999C261.942 144.477 261.802 144.825 261.577 145.135C261.356 145.442 261.062 145.686 260.695 145.868C260.331 146.047 259.908 146.136 259.425 146.136ZM263.469 146V139.455H264.441V140.443H264.509C264.628 140.119 264.844 139.857 265.157 139.655C265.469 139.453 265.822 139.352 266.214 139.352C266.287 139.352 266.38 139.354 266.491 139.357C266.601 139.359 266.685 139.364 266.742 139.369V140.392C266.708 140.384 266.63 140.371 266.508 140.354C266.388 140.334 266.262 140.324 266.128 140.324C265.81 140.324 265.526 140.391 265.276 140.524C265.029 140.655 264.833 140.837 264.688 141.07C264.546 141.3 264.475 141.562 264.475 141.858V146H263.469ZM269.86 146.153C269.445 146.153 269.069 146.075 268.731 145.919C268.393 145.76 268.124 145.531 267.926 145.233C267.727 144.932 267.627 144.568 267.627 144.142C267.627 143.767 267.701 143.463 267.849 143.23C267.997 142.994 268.194 142.81 268.441 142.676C268.688 142.543 268.961 142.443 269.259 142.378C269.561 142.31 269.863 142.256 270.167 142.216C270.565 142.165 270.887 142.126 271.134 142.101C271.384 142.072 271.566 142.026 271.68 141.96C271.796 141.895 271.855 141.781 271.855 141.619V141.585C271.855 141.165 271.74 140.838 271.509 140.605C271.282 140.372 270.937 140.256 270.474 140.256C269.994 140.256 269.617 140.361 269.345 140.571C269.072 140.781 268.88 141.006 268.769 141.244L267.815 140.903C267.985 140.506 268.213 140.196 268.497 139.974C268.784 139.75 269.096 139.594 269.434 139.506C269.775 139.415 270.11 139.369 270.44 139.369C270.65 139.369 270.892 139.395 271.164 139.446C271.44 139.494 271.705 139.595 271.961 139.749C272.22 139.902 272.434 140.134 272.605 140.443C272.775 140.753 272.86 141.168 272.86 141.688V146H271.855V145.114H271.803C271.735 145.256 271.622 145.408 271.463 145.57C271.303 145.732 271.092 145.869 270.828 145.983C270.563 146.097 270.241 146.153 269.86 146.153ZM270.014 145.25C270.411 145.25 270.747 145.172 271.019 145.016C271.295 144.859 271.502 144.658 271.642 144.411C271.784 144.163 271.855 143.903 271.855 143.631V142.71C271.812 142.761 271.718 142.808 271.573 142.851C271.431 142.891 271.267 142.926 271.079 142.957C270.894 142.986 270.714 143.011 270.538 143.034C270.365 143.054 270.224 143.071 270.116 143.085C269.855 143.119 269.61 143.175 269.383 143.251C269.159 143.325 268.977 143.437 268.838 143.588C268.701 143.736 268.633 143.937 268.633 144.193C268.633 144.543 268.762 144.807 269.021 144.986C269.282 145.162 269.613 145.25 270.014 145.25ZM279.814 139.455L277.393 146H276.371L273.95 139.455H275.041L276.848 144.67H276.916L278.723 139.455H279.814ZM281.141 146V139.455H282.147V146H281.141ZM281.653 138.364C281.456 138.364 281.287 138.297 281.145 138.163C281.006 138.03 280.937 137.869 280.937 137.682C280.937 137.494 281.006 137.334 281.145 137.2C281.287 137.067 281.456 137 281.653 137C281.849 137 282.016 137.067 282.155 137.2C282.297 137.334 282.368 137.494 282.368 137.682C282.368 137.869 282.297 138.03 282.155 138.163C282.016 138.297 281.849 138.364 281.653 138.364ZM284.994 142.062V146H283.989V139.455H284.96V140.477H285.046C285.199 140.145 285.432 139.878 285.744 139.676C286.057 139.472 286.46 139.369 286.955 139.369C287.398 139.369 287.786 139.46 288.118 139.642C288.45 139.821 288.709 140.094 288.894 140.46C289.078 140.824 289.171 141.284 289.171 141.841V146H288.165V141.909C288.165 141.395 288.031 140.994 287.764 140.707C287.497 140.418 287.131 140.273 286.665 140.273C286.344 140.273 286.057 140.342 285.804 140.482C285.554 140.621 285.357 140.824 285.212 141.091C285.067 141.358 284.994 141.682 284.994 142.062ZM293.65 148.591C293.165 148.591 292.747 148.528 292.398 148.403C292.048 148.281 291.757 148.119 291.524 147.918C291.294 147.719 291.111 147.506 290.974 147.278L291.775 146.716C291.866 146.835 291.981 146.972 292.121 147.125C292.26 147.281 292.45 147.416 292.692 147.53C292.936 147.646 293.256 147.705 293.65 147.705C294.179 147.705 294.615 147.577 294.959 147.321C295.302 147.065 295.474 146.665 295.474 146.119V144.79H295.389C295.315 144.909 295.21 145.057 295.074 145.233C294.94 145.406 294.747 145.561 294.494 145.697C294.244 145.831 293.906 145.898 293.48 145.898C292.952 145.898 292.477 145.773 292.057 145.523C291.639 145.273 291.308 144.909 291.064 144.432C290.822 143.955 290.702 143.375 290.702 142.693C290.702 142.023 290.819 141.439 291.055 140.942C291.291 140.442 291.619 140.055 292.04 139.783C292.46 139.507 292.946 139.369 293.497 139.369C293.923 139.369 294.261 139.44 294.511 139.582C294.764 139.722 294.957 139.881 295.091 140.06C295.227 140.236 295.332 140.381 295.406 140.494H295.508V139.455H296.48V146.188C296.48 146.75 296.352 147.207 296.096 147.56C295.844 147.915 295.503 148.175 295.074 148.339C294.648 148.507 294.173 148.591 293.65 148.591ZM293.616 144.994C294.02 144.994 294.361 144.902 294.639 144.717C294.917 144.533 295.129 144.267 295.274 143.92C295.419 143.574 295.491 143.159 295.491 142.676C295.491 142.205 295.42 141.788 295.278 141.428C295.136 141.067 294.926 140.784 294.648 140.58C294.369 140.375 294.025 140.273 293.616 140.273C293.19 140.273 292.835 140.381 292.551 140.597C292.27 140.812 292.058 141.102 291.916 141.466C291.777 141.83 291.707 142.233 291.707 142.676C291.707 143.131 291.778 143.533 291.92 143.882C292.065 144.229 292.278 144.501 292.559 144.7C292.844 144.896 293.196 144.994 293.616 144.994ZM302.957 140.92L302.054 141.176C301.997 141.026 301.913 140.879 301.802 140.737C301.694 140.592 301.547 140.473 301.359 140.379C301.172 140.286 300.932 140.239 300.639 140.239C300.238 140.239 299.905 140.331 299.638 140.516C299.373 140.697 299.241 140.929 299.241 141.21C299.241 141.46 299.332 141.658 299.514 141.803C299.696 141.947 299.98 142.068 300.366 142.165L301.338 142.403C301.923 142.545 302.359 142.763 302.646 143.055C302.933 143.345 303.077 143.719 303.077 144.176C303.077 144.551 302.969 144.886 302.753 145.182C302.54 145.477 302.241 145.71 301.858 145.881C301.474 146.051 301.028 146.136 300.52 146.136C299.852 146.136 299.3 145.991 298.862 145.702C298.425 145.412 298.148 144.989 298.031 144.432L298.986 144.193C299.077 144.545 299.248 144.81 299.501 144.986C299.757 145.162 300.091 145.25 300.503 145.25C300.971 145.25 301.344 145.151 301.619 144.952C301.898 144.75 302.037 144.509 302.037 144.227C302.037 144 301.957 143.81 301.798 143.656C301.639 143.5 301.395 143.384 301.065 143.307L299.974 143.051C299.375 142.909 298.934 142.689 298.653 142.391C298.375 142.089 298.236 141.713 298.236 141.261C298.236 140.892 298.339 140.565 298.547 140.281C298.757 139.997 299.042 139.774 299.403 139.612C299.767 139.45 300.179 139.369 300.639 139.369C301.287 139.369 301.795 139.511 302.165 139.795C302.537 140.08 302.801 140.455 302.957 140.92ZM305.92 137.273L305.835 143.545H304.846L304.761 137.273H305.92ZM305.34 146.068C305.13 146.068 304.95 145.993 304.799 145.842C304.649 145.692 304.573 145.511 304.573 145.301C304.573 145.091 304.649 144.911 304.799 144.76C304.95 144.609 305.13 144.534 305.34 144.534C305.551 144.534 305.731 144.609 305.882 144.76C306.032 144.911 306.107 145.091 306.107 145.301C306.107 145.44 306.072 145.568 306.001 145.685C305.933 145.801 305.84 145.895 305.724 145.966C305.61 146.034 305.482 146.068 305.34 146.068ZM308.8 137.273V140.273H307.862V137.273H308.8ZM310.981 137.273V140.273H310.044V137.273H310.981Z" fill="#71717A"/>
</svg>
