<svg width="688" height="463" viewBox="0 0 688 463" fill="none" xmlns="http://www.w3.org/2000/svg">
<g filter="url(#filter0_dd_322_4745)">
<rect x="12" y="2" width="664" height="439" rx="20" fill="white"/>
<path d="M115.028 33.5455H118.599L122.869 41.267H123.04L127.31 33.5455H130.881L124.531 44.4886V51H121.378V44.4886L115.028 33.5455ZM135.656 51.2557C134.378 51.2557 133.27 50.9744 132.333 50.4119C131.395 49.8494 130.668 49.0625 130.151 48.0511C129.639 47.0398 129.384 45.858 129.384 44.5057C129.384 43.1534 129.639 41.9687 130.151 40.9517C130.668 39.9347 131.395 39.1449 132.333 38.5824C133.27 38.0199 134.378 37.7386 135.656 37.7386C136.935 37.7386 138.043 38.0199 138.98 38.5824C139.918 39.1449 140.642 39.9347 141.154 40.9517C141.671 41.9687 141.929 43.1534 141.929 44.5057C141.929 45.858 141.671 47.0398 141.154 48.0511C140.642 49.0625 139.918 49.8494 138.98 50.4119C138.043 50.9744 136.935 51.2557 135.656 51.2557ZM135.673 48.7841C136.367 48.7841 136.946 48.5937 137.412 48.2131C137.878 47.8267 138.225 47.3097 138.452 46.6619C138.685 46.0142 138.801 45.2926 138.801 44.4972C138.801 43.696 138.685 42.9716 138.452 42.3239C138.225 41.6705 137.878 41.1506 137.412 40.7642C136.946 40.3778 136.367 40.1847 135.673 40.1847C134.963 40.1847 134.372 40.3778 133.901 40.7642C133.435 41.1506 133.085 41.6705 132.852 42.3239C132.625 42.9716 132.512 43.696 132.512 44.4972C132.512 45.2926 132.625 46.0142 132.852 46.6619C133.085 47.3097 133.435 47.8267 133.901 48.2131C134.372 48.5937 134.963 48.7841 135.673 48.7841ZM152.291 45.4943V37.9091H155.377V51H152.385V48.6733H152.249C151.953 49.4062 151.468 50.0057 150.791 50.4716C150.121 50.9375 149.294 51.1705 148.311 51.1705C147.453 51.1705 146.695 50.9801 146.036 50.5994C145.382 50.2131 144.871 49.6534 144.502 48.9205C144.132 48.1818 143.948 47.2898 143.948 46.2443V37.9091H147.033V45.767C147.033 46.5966 147.26 47.2557 147.715 47.7443C148.169 48.233 148.766 48.4773 149.505 48.4773C149.959 48.4773 150.399 48.3665 150.826 48.1449C151.252 47.9233 151.601 47.5938 151.874 47.1562C152.152 46.7131 152.291 46.1591 152.291 45.4943ZM157.949 51V37.9091H160.941V40.0909H161.077C161.316 39.3352 161.725 38.7528 162.304 38.3438C162.89 37.929 163.557 37.7216 164.307 37.7216C164.478 37.7216 164.668 37.7301 164.878 37.7472C165.094 37.7585 165.273 37.7784 165.415 37.8068V40.6449C165.285 40.5994 165.077 40.5597 164.793 40.5256C164.515 40.4858 164.245 40.4659 163.983 40.4659C163.421 40.4659 162.915 40.5881 162.466 40.8324C162.023 41.071 161.674 41.4034 161.418 41.8295C161.162 42.2557 161.035 42.7472 161.035 43.304V51H157.949ZM177.928 51.2557C176.65 51.2557 175.542 50.9744 174.604 50.4119C173.667 49.8494 172.94 49.0625 172.423 48.0511C171.911 47.0398 171.656 45.858 171.656 44.5057C171.656 43.1534 171.911 41.9687 172.423 40.9517C172.94 39.9347 173.667 39.1449 174.604 38.5824C175.542 38.0199 176.65 37.7386 177.928 37.7386C179.207 37.7386 180.315 38.0199 181.252 38.5824C182.19 39.1449 182.914 39.9347 183.425 40.9517C183.942 41.9687 184.201 43.1534 184.201 44.5057C184.201 45.858 183.942 47.0398 183.425 48.0511C182.914 49.0625 182.19 49.8494 181.252 50.4119C180.315 50.9744 179.207 51.2557 177.928 51.2557ZM177.945 48.7841C178.638 48.7841 179.218 48.5937 179.684 48.2131C180.15 47.8267 180.496 47.3097 180.724 46.6619C180.957 46.0142 181.073 45.2926 181.073 44.4972C181.073 43.696 180.957 42.9716 180.724 42.3239C180.496 41.6705 180.15 41.1506 179.684 40.7642C179.218 40.3778 178.638 40.1847 177.945 40.1847C177.235 40.1847 176.644 40.3778 176.173 40.7642C175.707 41.1506 175.357 41.6705 175.124 42.3239C174.897 42.9716 174.783 43.696 174.783 44.4972C174.783 45.2926 174.897 46.0142 175.124 46.6619C175.357 47.3097 175.707 47.8267 176.173 48.2131C176.644 48.5937 177.235 48.7841 177.945 48.7841ZM186.22 51V37.9091H189.211V40.0909H189.347C189.586 39.3352 189.995 38.7528 190.575 38.3438C191.16 37.929 191.828 37.7216 192.578 37.7216C192.748 37.7216 192.938 37.7301 193.149 37.7472C193.364 37.7585 193.543 37.7784 193.686 37.8068V40.6449C193.555 40.5994 193.347 40.5597 193.063 40.5256C192.785 40.4858 192.515 40.4659 192.254 40.4659C191.691 40.4659 191.186 40.5881 190.737 40.8324C190.293 41.071 189.944 41.4034 189.688 41.8295C189.433 42.2557 189.305 42.7472 189.305 43.304V51H186.22ZM199.454 51.2301C198.426 51.2301 197.505 50.9659 196.693 50.4375C195.88 49.9091 195.238 49.142 194.767 48.1364C194.295 47.1307 194.059 45.9091 194.059 44.4716C194.059 43.017 194.298 41.7898 194.775 40.7898C195.258 39.7841 195.909 39.0256 196.727 38.5142C197.545 37.9972 198.457 37.7386 199.463 37.7386C200.23 37.7386 200.86 37.8693 201.355 38.1307C201.849 38.3864 202.241 38.696 202.531 39.0597C202.821 39.4176 203.045 39.7557 203.204 40.0739H203.332V33.5455H206.426V51H203.392V48.9375H203.204C203.045 49.2557 202.815 49.5937 202.514 49.9517C202.213 50.304 201.815 50.6051 201.321 50.8551C200.826 51.1051 200.204 51.2301 199.454 51.2301ZM200.315 48.6989C200.968 48.6989 201.525 48.5227 201.985 48.1705C202.446 47.8125 202.795 47.3153 203.034 46.679C203.272 46.0426 203.392 45.3011 203.392 44.4545C203.392 43.608 203.272 42.8722 203.034 42.2472C202.801 41.6222 202.454 41.1364 201.994 40.7898C201.539 40.4432 200.98 40.2699 200.315 40.2699C199.627 40.2699 199.054 40.4489 198.593 40.8068C198.133 41.1648 197.787 41.6591 197.554 42.2898C197.321 42.9205 197.204 43.642 197.204 44.4545C197.204 45.2727 197.321 46.0028 197.554 46.6449C197.792 47.2812 198.142 47.7841 198.602 48.1534C199.068 48.517 199.639 48.6989 200.315 48.6989ZM214.909 51.2557C213.596 51.2557 212.463 50.983 211.508 50.4375C210.559 49.8864 209.829 49.108 209.318 48.1023C208.807 47.0909 208.551 45.9006 208.551 44.5312C208.551 43.1847 208.807 42.0028 209.318 40.9858C209.835 39.9631 210.557 39.1676 211.483 38.5994C212.409 38.0256 213.497 37.7386 214.747 37.7386C215.554 37.7386 216.315 37.8693 217.031 38.1307C217.753 38.3864 218.389 38.7841 218.94 39.3239C219.497 39.8636 219.934 40.5511 220.253 41.3864C220.571 42.2159 220.73 43.2045 220.73 44.3523V45.2983H210V43.2188H217.772C217.767 42.6278 217.639 42.1023 217.389 41.642C217.139 41.1761 216.789 40.8097 216.341 40.5426C215.897 40.2756 215.38 40.142 214.789 40.142C214.159 40.142 213.605 40.2955 213.128 40.6023C212.65 40.9034 212.278 41.3011 212.011 41.7955C211.75 42.2841 211.616 42.821 211.611 43.4062V45.2216C211.611 45.983 211.75 46.6364 212.028 47.1818C212.307 47.7216 212.696 48.1364 213.196 48.4261C213.696 48.7102 214.281 48.8523 214.951 48.8523C215.4 48.8523 215.807 48.7898 216.17 48.6648C216.534 48.5341 216.849 48.3438 217.116 48.0938C217.383 47.8438 217.585 47.5341 217.721 47.1648L220.602 47.4886C220.42 48.25 220.074 48.9148 219.562 49.483C219.057 50.0455 218.409 50.483 217.619 50.7955C216.829 51.1023 215.926 51.2557 214.909 51.2557ZM222.74 51V37.9091H225.731V40.0909H225.868C226.106 39.3352 226.515 38.7528 227.095 38.3438C227.68 37.929 228.348 37.7216 229.098 37.7216C229.268 37.7216 229.459 37.7301 229.669 37.7472C229.885 37.7585 230.064 37.7784 230.206 37.8068V40.6449C230.075 40.5994 229.868 40.5597 229.584 40.5256C229.305 40.4858 229.035 40.4659 228.774 40.4659C228.212 40.4659 227.706 40.5881 227.257 40.8324C226.814 41.071 226.464 41.4034 226.209 41.8295C225.953 42.2557 225.825 42.7472 225.825 43.304V51H222.74ZM240.094 43.3295V51H237.009V33.5455H240.026V40.1335H240.179C240.486 39.3949 240.96 38.8125 241.602 38.3864C242.25 37.9545 243.074 37.7386 244.074 37.7386C244.983 37.7386 245.776 37.929 246.452 38.3097C247.128 38.6903 247.651 39.2472 248.02 39.9801C248.395 40.7131 248.583 41.608 248.583 42.6648V51H245.497V43.142C245.497 42.2614 245.27 41.5767 244.815 41.0881C244.367 40.5937 243.736 40.3466 242.923 40.3466C242.378 40.3466 241.889 40.4659 241.458 40.7045C241.031 40.9375 240.696 41.2756 240.452 41.7188C240.213 42.1619 240.094 42.6989 240.094 43.3295ZM254.894 51.2642C254.065 51.2642 253.318 51.1165 252.653 50.821C251.994 50.5199 251.471 50.0767 251.085 49.4915C250.704 48.9062 250.514 48.1847 250.514 47.3267C250.514 46.5881 250.65 45.9773 250.923 45.4943C251.196 45.0114 251.568 44.625 252.039 44.3352C252.511 44.0455 253.042 43.8267 253.633 43.679C254.23 43.5256 254.846 43.4148 255.483 43.3466C256.25 43.267 256.872 43.196 257.349 43.1335C257.826 43.0653 258.173 42.9631 258.389 42.8267C258.61 42.6847 258.721 42.4659 258.721 42.1705V42.1193C258.721 41.4773 258.531 40.9801 258.15 40.6278C257.769 40.2756 257.221 40.0994 256.505 40.0994C255.75 40.0994 255.15 40.2642 254.707 40.5938C254.269 40.9233 253.974 41.3125 253.821 41.7614L250.94 41.3523C251.167 40.5568 251.542 39.892 252.065 39.358C252.588 38.8182 253.227 38.4148 253.983 38.1477C254.738 37.875 255.573 37.7386 256.488 37.7386C257.119 37.7386 257.747 37.8125 258.372 37.9602C258.997 38.108 259.568 38.3523 260.085 38.6932C260.602 39.0284 261.017 39.4858 261.329 40.0653C261.647 40.6449 261.806 41.3693 261.806 42.2386V51H258.84V49.2017H258.738C258.551 49.5653 258.287 49.9062 257.946 50.2244C257.61 50.5369 257.187 50.7898 256.676 50.983C256.17 51.1705 255.576 51.2642 254.894 51.2642ZM255.696 48.9972C256.315 48.9972 256.852 48.875 257.306 48.6307C257.761 48.3807 258.11 48.0511 258.355 47.642C258.605 47.233 258.73 46.7869 258.73 46.304V44.7614C258.633 44.8409 258.468 44.9148 258.235 44.983C258.008 45.0511 257.752 45.1108 257.468 45.1619C257.184 45.2131 256.903 45.2585 256.625 45.2983C256.346 45.3381 256.105 45.3722 255.9 45.4006C255.44 45.4631 255.028 45.5653 254.664 45.7074C254.301 45.8494 254.014 46.0483 253.804 46.304C253.593 46.554 253.488 46.8778 253.488 47.2756C253.488 47.8438 253.696 48.2727 254.11 48.5625C254.525 48.8523 255.054 48.9972 255.696 48.9972ZM274.655 41.3693L271.843 41.6761C271.763 41.392 271.624 41.125 271.425 40.875C271.232 40.625 270.971 40.4233 270.641 40.2699C270.312 40.1165 269.908 40.0398 269.431 40.0398C268.789 40.0398 268.249 40.179 267.812 40.4574C267.38 40.7358 267.167 41.0966 267.172 41.5398C267.167 41.9205 267.306 42.2301 267.59 42.4688C267.88 42.7074 268.357 42.9034 269.022 43.0568L271.255 43.5341C272.493 43.8011 273.414 44.2244 274.016 44.804C274.624 45.3835 274.931 46.142 274.937 47.0795C274.931 47.9034 274.689 48.6307 274.212 49.2614C273.74 49.8864 273.084 50.375 272.243 50.7273C271.402 51.0795 270.437 51.2557 269.346 51.2557C267.743 51.2557 266.454 50.9205 265.476 50.25C264.499 49.5739 263.917 48.6335 263.729 47.429L266.738 47.1392C266.874 47.7301 267.164 48.1761 267.607 48.4773C268.05 48.7784 268.627 48.929 269.337 48.929C270.07 48.929 270.658 48.7784 271.101 48.4773C271.55 48.1761 271.775 47.804 271.775 47.3608C271.775 46.9858 271.63 46.6761 271.34 46.4318C271.056 46.1875 270.613 46 270.01 45.8693L267.777 45.4006C266.522 45.1392 265.593 44.6989 264.99 44.0795C264.388 43.4545 264.09 42.6648 264.096 41.7102C264.09 40.9034 264.309 40.2045 264.752 39.6136C265.201 39.017 265.823 38.5568 266.618 38.233C267.419 37.9034 268.343 37.7386 269.388 37.7386C270.922 37.7386 272.13 38.0653 273.01 38.7188C273.897 39.3722 274.445 40.2557 274.655 41.3693ZM282.37 51V33.5455H285.455V40.0739H285.583C285.742 39.7557 285.967 39.4176 286.256 39.0597C286.546 38.696 286.938 38.3864 287.433 38.1307C287.927 37.8693 288.558 37.7386 289.325 37.7386C290.336 37.7386 291.248 37.9972 292.06 38.5142C292.879 39.0256 293.526 39.7841 294.004 40.7898C294.487 41.7898 294.728 43.017 294.728 44.4716C294.728 45.9091 294.492 47.1307 294.021 48.1364C293.549 49.142 292.907 49.9091 292.094 50.4375C291.282 50.9659 290.362 51.2301 289.333 51.2301C288.583 51.2301 287.961 51.1051 287.467 50.8551C286.972 50.6051 286.575 50.304 286.273 49.9517C285.978 49.5937 285.748 49.2557 285.583 48.9375H285.404V51H282.37ZM285.396 44.4545C285.396 45.3011 285.515 46.0426 285.754 46.679C285.998 47.3153 286.347 47.8125 286.802 48.1705C287.262 48.5227 287.819 48.6989 288.472 48.6989C289.154 48.6989 289.725 48.517 290.185 48.1534C290.646 47.7841 290.992 47.2812 291.225 46.6449C291.464 46.0028 291.583 45.2727 291.583 44.4545C291.583 43.642 291.467 42.9205 291.234 42.2898C291.001 41.6591 290.654 41.1648 290.194 40.8068C289.734 40.4489 289.16 40.2699 288.472 40.2699C287.813 40.2699 287.254 40.4432 286.793 40.7898C286.333 41.1364 285.984 41.6222 285.745 42.2472C285.512 42.8722 285.396 43.608 285.396 44.4545ZM302.546 51.2557C301.234 51.2557 300.1 50.983 299.146 50.4375C298.197 49.8864 297.467 49.108 296.955 48.1023C296.444 47.0909 296.188 45.9006 296.188 44.5312C296.188 43.1847 296.444 42.0028 296.955 40.9858C297.472 39.9631 298.194 39.1676 299.12 38.5994C300.046 38.0256 301.134 37.7386 302.384 37.7386C303.191 37.7386 303.953 37.8693 304.668 38.1307C305.39 38.3864 306.026 38.7841 306.578 39.3239C307.134 39.8636 307.572 40.5511 307.89 41.3864C308.208 42.2159 308.367 43.2045 308.367 44.3523V45.2983H297.637V43.2188H305.41C305.404 42.6278 305.276 42.1023 305.026 41.642C304.776 41.1761 304.427 40.8097 303.978 40.5426C303.535 40.2756 303.018 40.142 302.427 40.142C301.796 40.142 301.242 40.2955 300.765 40.6023C300.288 40.9034 299.916 41.3011 299.649 41.7955C299.387 42.2841 299.254 42.821 299.248 43.4062V45.2216C299.248 45.983 299.387 46.6364 299.666 47.1818C299.944 47.7216 300.333 48.1364 300.833 48.4261C301.333 48.7102 301.918 48.8523 302.589 48.8523C303.038 48.8523 303.444 48.7898 303.808 48.6648C304.171 48.5341 304.487 48.3438 304.754 48.0938C305.021 47.8438 305.222 47.5341 305.359 47.1648L308.239 47.4886C308.058 48.25 307.711 48.9148 307.2 49.483C306.694 50.0455 306.046 50.483 305.257 50.7955C304.467 51.1023 303.563 51.2557 302.546 51.2557ZM316.173 51.2557C314.86 51.2557 313.727 50.983 312.772 50.4375C311.823 49.8864 311.093 49.108 310.582 48.1023C310.071 47.0909 309.815 45.9006 309.815 44.5312C309.815 43.1847 310.071 42.0028 310.582 40.9858C311.099 39.9631 311.821 39.1676 312.747 38.5994C313.673 38.0256 314.761 37.7386 316.011 37.7386C316.818 37.7386 317.579 37.8693 318.295 38.1307C319.017 38.3864 319.653 38.7841 320.204 39.3239C320.761 39.8636 321.198 40.5511 321.517 41.3864C321.835 42.2159 321.994 43.2045 321.994 44.3523V45.2983H311.264V43.2188H319.037C319.031 42.6278 318.903 42.1023 318.653 41.642C318.403 41.1761 318.054 40.8097 317.605 40.5426C317.162 40.2756 316.644 40.142 316.054 40.142C315.423 40.142 314.869 40.2955 314.392 40.6023C313.914 40.9034 313.542 41.3011 313.275 41.7955C313.014 42.2841 312.88 42.821 312.875 43.4062V45.2216C312.875 45.983 313.014 46.6364 313.292 47.1818C313.571 47.7216 313.96 48.1364 314.46 48.4261C314.96 48.7102 315.545 48.8523 316.215 48.8523C316.664 48.8523 317.071 48.7898 317.434 48.6648C317.798 48.5341 318.113 48.3438 318.38 48.0938C318.647 47.8438 318.849 47.5341 318.985 47.1648L321.866 47.4886C321.684 48.25 321.338 48.9148 320.826 49.483C320.321 50.0455 319.673 50.483 318.883 50.7955C318.093 51.1023 317.19 51.2557 316.173 51.2557ZM327.089 43.3295V51H324.004V37.9091H326.953V40.1335H327.106C327.407 39.4006 327.887 38.8182 328.547 38.3864C329.211 37.9545 330.032 37.7386 331.01 37.7386C331.913 37.7386 332.7 37.9318 333.37 38.3182C334.047 38.7045 334.569 39.2642 334.939 39.9972C335.314 40.7301 335.498 41.6193 335.493 42.6648V51H332.407V43.142C332.407 42.267 332.18 41.5824 331.726 41.0881C331.277 40.5937 330.655 40.3466 329.859 40.3466C329.319 40.3466 328.839 40.4659 328.419 40.7045C328.004 40.9375 327.677 41.2756 327.439 41.7188C327.206 42.1619 327.089 42.6989 327.089 43.3295ZM353.729 41.3693L350.916 41.6761C350.837 41.392 350.697 41.125 350.499 40.875C350.305 40.625 350.044 40.4233 349.714 40.2699C349.385 40.1165 348.982 40.0398 348.504 40.0398C347.862 40.0398 347.322 40.179 346.885 40.4574C346.453 40.7358 346.24 41.0966 346.246 41.5398C346.24 41.9205 346.379 42.2301 346.663 42.4688C346.953 42.7074 347.43 42.9034 348.095 43.0568L350.328 43.5341C351.567 43.8011 352.487 44.2244 353.089 44.804C353.697 45.3835 354.004 46.142 354.01 47.0795C354.004 47.9034 353.763 48.6307 353.286 49.2614C352.814 49.8864 352.158 50.375 351.317 50.7273C350.476 51.0795 349.51 51.2557 348.419 51.2557C346.817 51.2557 345.527 50.9205 344.55 50.25C343.572 49.5739 342.99 48.6335 342.803 47.429L345.811 47.1392C345.947 47.7301 346.237 48.1761 346.68 48.4773C347.124 48.7784 347.7 48.929 348.411 48.929C349.143 48.929 349.732 48.7784 350.175 48.4773C350.624 48.1761 350.848 47.804 350.848 47.3608C350.848 46.9858 350.703 46.6761 350.413 46.4318C350.129 46.1875 349.686 46 349.084 45.8693L346.851 45.4006C345.595 45.1392 344.666 44.6989 344.064 44.0795C343.462 43.4545 343.163 42.6648 343.169 41.7102C343.163 40.9034 343.382 40.2045 343.825 39.6136C344.274 39.017 344.896 38.5568 345.692 38.233C346.493 37.9034 347.416 37.7386 348.462 37.7386C349.996 37.7386 351.203 38.0653 352.084 38.7188C352.97 39.3722 353.518 40.2557 353.729 41.3693ZM364.298 45.4943V37.9091H367.383V51H364.391V48.6733H364.255C363.96 49.4062 363.474 50.0057 362.798 50.4716C362.127 50.9375 361.301 51.1705 360.318 51.1705C359.46 51.1705 358.701 50.9801 358.042 50.5994C357.389 50.2131 356.877 49.6534 356.508 48.9205C356.139 48.1818 355.954 47.2898 355.954 46.2443V37.9091H359.039V45.767C359.039 46.5966 359.266 47.2557 359.721 47.7443C360.176 48.233 360.772 48.4773 361.511 48.4773C361.965 48.4773 362.406 48.3665 362.832 48.1449C363.258 47.9233 363.607 47.5938 363.88 47.1562C364.159 46.7131 364.298 46.1591 364.298 45.4943ZM375.666 51.2557C374.359 51.2557 373.237 50.9688 372.299 50.3949C371.367 49.821 370.649 49.0284 370.143 48.017C369.643 47 369.393 45.8295 369.393 44.5057C369.393 43.1761 369.649 42.0028 370.16 40.9858C370.671 39.9631 371.393 39.1676 372.325 38.5994C373.262 38.0256 374.37 37.7386 375.649 37.7386C376.711 37.7386 377.652 37.9347 378.47 38.3267C379.294 38.7131 379.95 39.2614 380.438 39.9716C380.927 40.6761 381.206 41.5 381.274 42.4432H378.325C378.206 41.8125 377.921 41.2869 377.473 40.8665C377.029 40.4403 376.436 40.2273 375.691 40.2273C375.061 40.2273 374.507 40.3977 374.029 40.7386C373.552 41.0739 373.18 41.5568 372.913 42.1875C372.652 42.8182 372.521 43.5739 372.521 44.4545C372.521 45.3466 372.652 46.1136 372.913 46.7557C373.174 47.392 373.541 47.8835 374.012 48.2301C374.49 48.571 375.049 48.7415 375.691 48.7415C376.146 48.7415 376.552 48.6562 376.91 48.4858C377.274 48.3097 377.578 48.0568 377.822 47.7273C378.066 47.3977 378.234 46.9972 378.325 46.5256H381.274C381.2 47.4517 380.927 48.2727 380.456 48.9886C379.984 49.6989 379.342 50.2557 378.529 50.6591C377.717 51.0568 376.762 51.2557 375.666 51.2557ZM388.917 51.2557C387.611 51.2557 386.488 50.9688 385.551 50.3949C384.619 49.821 383.9 49.0284 383.395 48.017C382.895 47 382.645 45.8295 382.645 44.5057C382.645 43.1761 382.9 42.0028 383.412 40.9858C383.923 39.9631 384.645 39.1676 385.576 38.5994C386.514 38.0256 387.622 37.7386 388.9 37.7386C389.963 37.7386 390.903 37.9347 391.721 38.3267C392.545 38.7131 393.201 39.2614 393.69 39.9716C394.179 40.6761 394.457 41.5 394.525 42.4432H391.576C391.457 41.8125 391.173 41.2869 390.724 40.8665C390.281 40.4403 389.687 40.2273 388.943 40.2273C388.312 40.2273 387.758 40.3977 387.281 40.7386C386.804 41.0739 386.432 41.5568 386.165 42.1875C385.903 42.8182 385.772 43.5739 385.772 44.4545C385.772 45.3466 385.903 46.1136 386.165 46.7557C386.426 47.392 386.792 47.8835 387.264 48.2301C387.741 48.571 388.301 48.7415 388.943 48.7415C389.397 48.7415 389.804 48.6562 390.162 48.4858C390.525 48.3097 390.829 48.0568 391.074 47.7273C391.318 47.3977 391.486 46.9972 391.576 46.5256H394.525C394.451 47.4517 394.179 48.2727 393.707 48.9886C393.236 49.6989 392.593 50.2557 391.781 50.6591C390.968 51.0568 390.014 51.2557 388.917 51.2557ZM402.254 51.2557C400.942 51.2557 399.808 50.983 398.854 50.4375C397.905 49.8864 397.175 49.108 396.663 48.1023C396.152 47.0909 395.896 45.9006 395.896 44.5312C395.896 43.1847 396.152 42.0028 396.663 40.9858C397.18 39.9631 397.902 39.1676 398.828 38.5994C399.754 38.0256 400.842 37.7386 402.092 37.7386C402.899 37.7386 403.66 37.8693 404.376 38.1307C405.098 38.3864 405.734 38.7841 406.285 39.3239C406.842 39.8636 407.28 40.5511 407.598 41.3864C407.916 42.2159 408.075 43.2045 408.075 44.3523V45.2983H397.345V43.2188H405.118C405.112 42.6278 404.984 42.1023 404.734 41.642C404.484 41.1761 404.135 40.8097 403.686 40.5426C403.243 40.2756 402.726 40.142 402.135 40.142C401.504 40.142 400.95 40.2955 400.473 40.6023C399.996 40.9034 399.623 41.3011 399.356 41.7955C399.095 42.2841 398.962 42.821 398.956 43.4062V45.2216C398.956 45.983 399.095 46.6364 399.373 47.1818C399.652 47.7216 400.041 48.1364 400.541 48.4261C401.041 48.7102 401.626 48.8523 402.297 48.8523C402.746 48.8523 403.152 48.7898 403.515 48.6648C403.879 48.5341 404.194 48.3438 404.462 48.0938C404.729 47.8438 404.93 47.5341 405.067 47.1648L407.947 47.4886C407.765 48.25 407.419 48.9148 406.908 49.483C406.402 50.0455 405.754 50.483 404.964 50.7955C404.175 51.1023 403.271 51.2557 402.254 51.2557ZM420.432 41.3693L417.619 41.6761C417.54 41.392 417.401 41.125 417.202 40.875C417.009 40.625 416.747 40.4233 416.418 40.2699C416.088 40.1165 415.685 40.0398 415.207 40.0398C414.565 40.0398 414.026 40.179 413.588 40.4574C413.156 40.7358 412.943 41.0966 412.949 41.5398C412.943 41.9205 413.082 42.2301 413.366 42.4688C413.656 42.7074 414.134 42.9034 414.798 43.0568L417.031 43.5341C418.27 43.8011 419.19 44.2244 419.793 44.804C420.401 45.3835 420.707 46.142 420.713 47.0795C420.707 47.9034 420.466 48.6307 419.989 49.2614C419.517 49.8864 418.861 50.375 418.02 50.7273C417.179 51.0795 416.213 51.2557 415.122 51.2557C413.52 51.2557 412.23 50.9205 411.253 50.25C410.276 49.5739 409.693 48.6335 409.506 47.429L412.514 47.1392C412.651 47.7301 412.94 48.1761 413.384 48.4773C413.827 48.7784 414.403 48.929 415.114 48.929C415.847 48.929 416.435 48.7784 416.878 48.4773C417.327 48.1761 417.551 47.804 417.551 47.3608C417.551 46.9858 417.406 46.6761 417.116 46.4318C416.832 46.1875 416.389 46 415.787 45.8693L413.554 45.4006C412.298 45.1392 411.369 44.6989 410.767 44.0795C410.165 43.4545 409.866 42.6648 409.872 41.7102C409.866 40.9034 410.085 40.2045 410.528 39.6136C410.977 39.017 411.599 38.5568 412.395 38.233C413.196 37.9034 414.119 37.7386 415.165 37.7386C416.699 37.7386 417.906 38.0653 418.787 38.7188C419.673 39.3722 420.222 40.2557 420.432 41.3693ZM433.004 41.3693L430.191 41.6761C430.112 41.392 429.972 41.125 429.774 40.875C429.58 40.625 429.319 40.4233 428.989 40.2699C428.66 40.1165 428.257 40.0398 427.779 40.0398C427.137 40.0398 426.597 40.179 426.16 40.4574C425.728 40.7358 425.515 41.0966 425.521 41.5398C425.515 41.9205 425.654 42.2301 425.938 42.4688C426.228 42.7074 426.705 42.9034 427.37 43.0568L429.603 43.5341C430.842 43.8011 431.762 44.2244 432.364 44.804C432.972 45.3835 433.279 46.142 433.285 47.0795C433.279 47.9034 433.038 48.6307 432.561 49.2614C432.089 49.8864 431.433 50.375 430.592 50.7273C429.751 51.0795 428.785 51.2557 427.694 51.2557C426.092 51.2557 424.802 50.9205 423.825 50.25C422.847 49.5739 422.265 48.6335 422.078 47.429L425.086 47.1392C425.222 47.7301 425.512 48.1761 425.955 48.4773C426.399 48.7784 426.975 48.929 427.686 48.929C428.418 48.929 429.007 48.7784 429.45 48.4773C429.899 48.1761 430.123 47.804 430.123 47.3608C430.123 46.9858 429.978 46.6761 429.688 46.4318C429.404 46.1875 428.961 46 428.359 45.8693L426.126 45.4006C424.87 45.1392 423.941 44.6989 423.339 44.0795C422.737 43.4545 422.438 42.6648 422.444 41.7102C422.438 40.9034 422.657 40.2045 423.1 39.6136C423.549 39.017 424.171 38.5568 424.967 38.233C425.768 37.9034 426.691 37.7386 427.737 37.7386C429.271 37.7386 430.478 38.0653 431.359 38.7188C432.245 39.3722 432.793 40.2557 433.004 41.3693ZM441.86 37.9091V40.2955H434.121V37.9091H441.86ZM436.056 51V36.6733C436.056 35.7926 436.237 35.0597 436.601 34.4744C436.97 33.8892 437.465 33.4517 438.084 33.1619C438.703 32.8722 439.391 32.7273 440.147 32.7273C440.681 32.7273 441.155 32.7699 441.57 32.8551C441.985 32.9403 442.291 33.017 442.49 33.0852L441.877 35.4716C441.746 35.4318 441.581 35.392 441.382 35.3523C441.184 35.3068 440.962 35.2841 440.718 35.2841C440.144 35.2841 439.737 35.4233 439.499 35.7017C439.266 35.9744 439.149 36.3665 439.149 36.8778V51H436.056ZM452.02 45.4943V37.9091H455.105V51H452.113V48.6733H451.977C451.682 49.4062 451.196 50.0057 450.52 50.4716C449.849 50.9375 449.022 51.1705 448.04 51.1705C447.182 51.1705 446.423 50.9801 445.764 50.5994C445.111 50.2131 444.599 49.6534 444.23 48.9205C443.861 48.1818 443.676 47.2898 443.676 46.2443V37.9091H446.761V45.767C446.761 46.5966 446.988 47.2557 447.443 47.7443C447.897 48.233 448.494 48.4773 449.233 48.4773C449.687 48.4773 450.128 48.3665 450.554 48.1449C450.98 47.9233 451.329 47.5938 451.602 47.1562C451.88 46.7131 452.02 46.1591 452.02 45.4943ZM460.763 33.5455V51H457.677V33.5455H460.763ZM466.42 33.5455V51H463.335V33.5455H466.42ZM470.911 55.9091C470.49 55.9091 470.101 55.875 469.743 55.8068C469.391 55.7443 469.11 55.6705 468.899 55.5852L469.615 53.1818C470.064 53.3125 470.465 53.375 470.817 53.3693C471.169 53.3636 471.479 53.2528 471.746 53.0369C472.019 52.8267 472.249 52.4744 472.436 51.9801L472.7 51.2727L467.953 37.9091H471.226L474.243 47.7955H474.379L477.405 37.9091H480.686L475.445 52.5852C475.2 53.2784 474.877 53.8722 474.473 54.3665C474.07 54.8665 473.575 55.2472 472.99 55.5085C472.411 55.7756 471.717 55.9091 470.911 55.9091ZM487.574 55.9091V37.9091H490.608V40.0739H490.787C490.946 39.7557 491.171 39.4176 491.461 39.0597C491.75 38.696 492.142 38.3864 492.637 38.1307C493.131 37.8693 493.762 37.7386 494.529 37.7386C495.54 37.7386 496.452 37.9972 497.265 38.5142C498.083 39.0256 498.731 39.7841 499.208 40.7898C499.691 41.7898 499.932 43.017 499.932 44.4716C499.932 45.9091 499.696 47.1307 499.225 48.1364C498.753 49.142 498.111 49.9091 497.299 50.4375C496.486 50.9659 495.566 51.2301 494.537 51.2301C493.787 51.2301 493.165 51.1051 492.671 50.8551C492.177 50.6051 491.779 50.304 491.478 49.9517C491.182 49.5937 490.952 49.2557 490.787 48.9375H490.66V55.9091H487.574ZM490.6 44.4545C490.6 45.3011 490.719 46.0426 490.958 46.679C491.202 47.3153 491.552 47.8125 492.006 48.1705C492.466 48.5227 493.023 48.6989 493.677 48.6989C494.358 48.6989 494.929 48.517 495.39 48.1534C495.85 47.7841 496.196 47.2812 496.429 46.6449C496.668 46.0028 496.787 45.2727 496.787 44.4545C496.787 43.642 496.671 42.9205 496.438 42.2898C496.205 41.6591 495.858 41.1648 495.398 40.8068C494.938 40.4489 494.364 40.2699 493.677 40.2699C493.017 40.2699 492.458 40.4432 491.998 40.7898C491.537 41.1364 491.188 41.6222 490.949 42.2472C490.716 42.8722 490.6 43.608 490.6 44.4545ZM505.06 33.5455V51H501.974V33.5455H505.06ZM511.399 51.2642C510.57 51.2642 509.822 51.1165 509.158 50.821C508.499 50.5199 507.976 50.0767 507.589 49.4915C507.209 48.9062 507.018 48.1847 507.018 47.3267C507.018 46.5881 507.155 45.9773 507.428 45.4943C507.7 45.0114 508.072 44.625 508.544 44.3352C509.016 44.0455 509.547 43.8267 510.138 43.679C510.734 43.5256 511.351 43.4148 511.987 43.3466C512.754 43.267 513.376 43.196 513.854 43.1335C514.331 43.0653 514.678 42.9631 514.893 42.8267C515.115 42.6847 515.226 42.4659 515.226 42.1705V42.1193C515.226 41.4773 515.036 40.9801 514.655 40.6278C514.274 40.2756 513.726 40.0994 513.01 40.0994C512.254 40.0994 511.655 40.2642 511.212 40.5938C510.774 40.9233 510.479 41.3125 510.325 41.7614L507.445 41.3523C507.672 40.5568 508.047 39.892 508.57 39.358C509.092 38.8182 509.732 38.4148 510.487 38.1477C511.243 37.875 512.078 37.7386 512.993 37.7386C513.624 37.7386 514.251 37.8125 514.876 37.9602C515.501 38.108 516.072 38.3523 516.589 38.6932C517.107 39.0284 517.521 39.4858 517.834 40.0653C518.152 40.6449 518.311 41.3693 518.311 42.2386V51H515.345V49.2017H515.243C515.055 49.5653 514.791 49.9062 514.45 50.2244C514.115 50.5369 513.692 50.7898 513.18 50.983C512.675 51.1705 512.081 51.2642 511.399 51.2642ZM512.2 48.9972C512.82 48.9972 513.357 48.875 513.811 48.6307C514.266 48.3807 514.615 48.0511 514.859 47.642C515.109 47.233 515.234 46.7869 515.234 46.304V44.7614C515.138 44.8409 514.973 44.9148 514.74 44.983C514.513 45.0511 514.257 45.1108 513.973 45.1619C513.689 45.2131 513.408 45.2585 513.129 45.2983C512.851 45.3381 512.609 45.3722 512.405 45.4006C511.945 45.4631 511.533 45.5653 511.169 45.7074C510.805 45.8494 510.518 46.0483 510.308 46.304C510.098 46.554 509.993 46.8778 509.993 47.2756C509.993 47.8438 510.2 48.2727 510.615 48.5625C511.03 48.8523 511.558 48.9972 512.2 48.9972ZM526.524 51.2557C525.217 51.2557 524.095 50.9688 523.157 50.3949C522.225 49.821 521.507 49.0284 521.001 48.017C520.501 47 520.251 45.8295 520.251 44.5057C520.251 43.1761 520.507 42.0028 521.018 40.9858C521.529 39.9631 522.251 39.1676 523.183 38.5994C524.12 38.0256 525.228 37.7386 526.507 37.7386C527.569 37.7386 528.509 37.9347 529.328 38.3267C530.151 38.7131 530.808 39.2614 531.296 39.9716C531.785 40.6761 532.063 41.5 532.132 42.4432H529.183C529.063 41.8125 528.779 41.2869 528.33 40.8665C527.887 40.4403 527.293 40.2273 526.549 40.2273C525.918 40.2273 525.364 40.3977 524.887 40.7386C524.41 41.0739 524.038 41.5568 523.771 42.1875C523.509 42.8182 523.379 43.5739 523.379 44.4545C523.379 45.3466 523.509 46.1136 523.771 46.7557C524.032 47.392 524.399 47.8835 524.87 48.2301C525.347 48.571 525.907 48.7415 526.549 48.7415C527.004 48.7415 527.41 48.6562 527.768 48.4858C528.132 48.3097 528.436 48.0568 528.68 47.7273C528.924 47.3977 529.092 46.9972 529.183 46.5256H532.132C532.058 47.4517 531.785 48.2727 531.313 48.9886C530.842 49.6989 530.2 50.2557 529.387 50.6591C528.575 51.0568 527.62 51.2557 526.524 51.2557ZM539.86 51.2557C538.548 51.2557 537.414 50.983 536.46 50.4375C535.511 49.8864 534.781 49.108 534.269 48.1023C533.758 47.0909 533.502 45.9006 533.502 44.5312C533.502 43.1847 533.758 42.0028 534.269 40.9858C534.786 39.9631 535.508 39.1676 536.434 38.5994C537.36 38.0256 538.448 37.7386 539.698 37.7386C540.505 37.7386 541.267 37.8693 541.983 38.1307C542.704 38.3864 543.34 38.7841 543.892 39.3239C544.448 39.8636 544.886 40.5511 545.204 41.3864C545.522 42.2159 545.681 43.2045 545.681 44.3523V45.2983H534.951V43.2188H542.724C542.718 42.6278 542.59 42.1023 542.34 41.642C542.09 41.1761 541.741 40.8097 541.292 40.5426C540.849 40.2756 540.332 40.142 539.741 40.142C539.11 40.142 538.556 40.2955 538.079 40.6023C537.602 40.9034 537.23 41.3011 536.963 41.7955C536.701 42.2841 536.568 42.821 536.562 43.4062V45.2216C536.562 45.983 536.701 46.6364 536.98 47.1818C537.258 47.7216 537.647 48.1364 538.147 48.4261C538.647 48.7102 539.233 48.8523 539.903 48.8523C540.352 48.8523 540.758 48.7898 541.122 48.6648C541.485 48.5341 541.801 48.3438 542.068 48.0938C542.335 47.8438 542.536 47.5341 542.673 47.1648L545.554 47.4886C545.372 48.25 545.025 48.9148 544.514 49.483C544.008 50.0455 543.36 50.483 542.571 50.7955C541.781 51.1023 540.877 51.2557 539.86 51.2557ZM552.549 51.2301C551.521 51.2301 550.601 50.9659 549.788 50.4375C548.976 49.9091 548.334 49.142 547.862 48.1364C547.39 47.1307 547.155 45.9091 547.155 44.4716C547.155 43.017 547.393 41.7898 547.87 40.7898C548.353 39.7841 549.004 39.0256 549.822 38.5142C550.64 37.9972 551.552 37.7386 552.558 37.7386C553.325 37.7386 553.956 37.8693 554.45 38.1307C554.944 38.3864 555.336 38.696 555.626 39.0597C555.916 39.4176 556.14 39.7557 556.299 40.0739H556.427V33.5455H559.521V51H556.487V48.9375H556.299C556.14 49.2557 555.91 49.5937 555.609 49.9517C555.308 50.304 554.91 50.6051 554.416 50.8551C553.922 51.1051 553.299 51.2301 552.549 51.2301ZM553.41 48.6989C554.064 48.6989 554.62 48.5227 555.081 48.1705C555.541 47.8125 555.89 47.3153 556.129 46.679C556.368 46.0426 556.487 45.3011 556.487 44.4545C556.487 43.608 556.368 42.8722 556.129 42.2472C555.896 41.6222 555.549 41.1364 555.089 40.7898C554.635 40.4432 554.075 40.2699 553.41 40.2699C552.723 40.2699 552.149 40.4489 551.689 40.8068C551.228 41.1648 550.882 41.6591 550.649 42.2898C550.416 42.9205 550.299 43.642 550.299 44.4545C550.299 45.2727 550.416 46.0028 550.649 46.6449C550.888 47.2812 551.237 47.7841 551.697 48.1534C552.163 48.517 552.734 48.6989 553.41 48.6989ZM571.337 33.5455L571.056 45.8693H568.312L568.039 33.5455H571.337ZM569.684 51.1875C569.167 51.1875 568.724 51.0057 568.354 50.642C567.991 50.2784 567.809 49.8352 567.809 49.3125C567.809 48.8011 567.991 48.3636 568.354 48C568.724 47.6364 569.167 47.4545 569.684 47.4545C570.19 47.4545 570.627 47.6364 570.996 48C571.371 48.3636 571.559 48.8011 571.559 49.3125C571.559 49.6591 571.471 49.9744 571.295 50.2585C571.124 50.5426 570.897 50.7699 570.613 50.9403C570.335 51.1051 570.025 51.1875 569.684 51.1875Z" fill="#09090B"/>
<path fill-rule="evenodd" clip-rule="evenodd" d="M354.333 314.994C354.337 314.966 354.342 314.937 354.346 314.908C354.349 314.934 354.422 314.632 354.441 314.575C354.572 314.187 354.716 313.809 354.841 313.423C354.879 313.431 354.918 313.438 354.957 313.448C355.087 313.48 355.196 313.601 355.327 313.624C355.45 313.646 355.497 313.567 355.619 313.59C355.751 313.613 355.896 313.678 356.019 313.699C356.15 313.72 356.27 313.768 356.413 313.804C356.659 313.868 356.924 313.894 357.192 313.913C357.544 313.937 357.901 313.948 358.227 314.007C358.819 314.112 359.483 314.15 360.081 314.196C360.601 314.235 361.118 314.05 361.629 314.012C362.108 313.977 362.542 314.02 363.014 313.859C363.615 313.653 364.334 313.532 364.893 313.25C365.449 312.969 366.047 312.79 366.618 312.544C367.599 312.121 368.599 311.689 369.554 311.215C369.942 311.023 370.291 310.796 370.7 310.652C371.22 310.468 371.732 310.297 372.231 310.058C373.74 309.332 375.279 308.703 376.642 307.718L373.992 318.823C373.556 318.655 372.898 318.863 372.438 318.878C371.843 318.896 371.231 318.899 370.636 318.899C369.979 318.895 369.307 318.886 368.65 318.837C367.914 318.78 367.206 318.625 366.476 318.549C365.227 318.421 363.996 318.198 362.747 318.058C362.25 318.002 361.771 318.004 361.275 317.899C360.784 317.793 360.363 317.53 359.873 317.423C359.282 317.293 358.787 317.181 358.236 316.93C358.113 316.874 357.987 316.83 357.86 316.791C357.504 316.68 357.14 316.611 356.793 316.456C356.112 316.15 355.426 315.853 354.74 315.556C354.657 315.339 354.521 315.143 354.333 314.994Z" fill="#1A969B"/>
<path fill-rule="evenodd" clip-rule="evenodd" d="M354.333 314.994C354.337 314.966 354.342 314.937 354.346 314.909C354.349 314.934 354.422 314.632 354.441 314.575C354.572 314.187 354.716 313.809 354.841 313.424C354.879 313.432 354.918 313.438 354.957 313.448C355.087 313.48 355.196 313.601 355.327 313.624C355.45 313.646 355.497 313.567 355.619 313.59C355.751 313.613 355.896 313.678 356.019 313.699C356.15 313.72 356.27 313.768 356.413 313.805C356.659 313.868 356.924 313.894 357.192 313.913C357.309 314.473 357.413 315.036 357.544 315.594C357.637 315.993 357.751 316.392 357.86 316.791C357.504 316.68 357.14 316.612 356.793 316.456C356.112 316.15 355.426 315.853 354.74 315.556C354.657 315.339 354.521 315.143 354.333 314.994Z" fill="#AB7D5F"/>
<path fill-rule="evenodd" clip-rule="evenodd" d="M372.352 327.171C372.445 327.505 372.458 327.835 372.537 328.18C372.718 328.98 373.073 329.734 373.302 330.52C373.742 332.025 373.664 333.601 373.718 335.174C373.777 336.883 374.116 338.907 373.975 340.75C373.888 341.877 373.621 342.937 373.002 343.816C372.614 344.368 372.271 344.647 372.446 345.359C372.524 345.673 372.671 346.043 372.753 346.369C372.833 346.68 372.608 347.052 373.107 347.067C373.808 347.089 374.556 345.1 374.786 344.616C375.112 343.937 375.511 343.275 375.674 342.567C375.723 342.356 375.758 342.143 375.783 341.924C375.86 341.287 375.867 340.624 375.946 339.994C376.187 338.064 376.586 336.153 376.364 334.171C376.958 334.728 378.012 334.852 378.788 335.074C379.733 335.344 380.61 335.141 381.578 335.308C382.75 335.511 383.863 335.842 385.07 335.788C385.942 335.748 387.11 335.517 387.951 335.757C389.236 336.124 389.945 338.715 390.366 339.74C390.606 340.323 390.897 340.904 391.168 341.48C391.487 342.153 391.782 342.822 391.945 343.487C392.013 343.762 391.87 344.089 391.944 344.363C391.984 344.505 392.221 344.677 392.239 344.749C392.324 345.101 392.278 345.483 392.38 345.824C392.494 346.208 392.984 347.029 393.24 347.354C393.443 347.611 394.421 348.66 394.752 348.257C395.06 347.88 394.497 347.627 394.414 347.324C394.323 346.993 394.316 346.604 394.229 346.297C394.043 345.651 393.753 344.962 393.645 344.294C393.582 343.907 393.689 343.512 393.585 343.134C393.496 342.805 393.308 342.673 393.243 342.279C393.215 342.113 393.192 341.945 393.174 341.776C393.007 340.29 393.143 338.679 393.083 337.202C393.045 336.277 393.396 335.713 393.354 334.824C393.315 334.037 393.331 333.247 393.304 332.459C393.245 330.77 393.129 327.407 393.129 327.407L372.095 326.435C371.963 326.925 372.273 326.878 372.352 327.171Z" fill="#BA8C6A"/>
<path fill-rule="evenodd" clip-rule="evenodd" d="M316.629 173.645C316.578 170.786 316.525 167.829 317.206 164.982C317.48 163.84 317.874 162.722 318.256 161.642C318.609 160.645 318.973 159.614 319.24 158.568C319.297 158.345 319.355 158.08 319.417 157.799C319.764 156.212 320.288 153.814 321.884 153.346L321.943 153.545C320.465 153.978 319.956 156.304 319.619 157.843C319.557 158.126 319.499 158.393 319.441 158.619C319.172 159.674 318.806 160.71 318.452 161.711C318.072 162.786 317.679 163.898 317.408 165.03C316.733 167.852 316.785 170.795 316.836 173.641C316.849 174.4 316.864 175.185 316.864 175.956V187.004C316.864 189.149 316.861 191.451 316.841 193.763C316.831 194.896 316.986 196.003 317.136 197.073C317.262 197.97 317.393 198.897 317.426 199.841C317.454 200.604 317.433 201.377 317.413 202.125C317.385 203.154 317.356 204.217 317.454 205.259C317.514 205.901 317.603 206.523 317.689 207.123C317.851 208.244 318.003 209.303 317.981 210.485C317.96 211.595 318.127 212.678 318.288 213.724C318.415 214.55 318.547 215.404 318.589 216.277C318.606 216.643 318.616 217.003 318.626 217.35C318.658 218.499 318.689 219.584 318.974 220.76C319.15 221.485 319.285 222.204 319.415 222.899C319.726 224.562 320.021 226.134 320.836 227.705C321.346 228.688 321.846 229.696 322.33 230.671C322.69 231.395 323.062 232.144 323.435 232.877C324.197 234.376 324.759 235.916 325.301 237.405C325.583 238.179 325.875 238.98 326.195 239.776C326.538 240.629 327.027 241.478 327.499 242.299C327.79 242.805 328.092 243.328 328.353 243.843C328.883 244.888 329.344 245.968 329.791 247.011C330.273 248.139 330.772 249.306 331.359 250.433C332.533 252.687 333.115 254.815 333.655 256.978C334.113 258.811 335.048 260.557 335.952 262.246L336.134 262.586C336.458 263.194 336.724 263.809 336.981 264.404C337.311 265.166 337.651 265.954 338.112 266.714C338.386 267.167 338.659 267.643 338.922 268.103C339.552 269.202 340.204 270.339 340.969 271.326C341.409 271.895 341.925 272.409 342.424 272.906C342.921 273.4 343.434 273.912 343.878 274.481C344.47 275.24 345.198 275.982 345.901 276.698C347.118 277.938 348.376 279.22 349.073 280.709C349.541 281.709 350.167 282.663 350.772 283.587C351.463 284.64 352.177 285.728 352.689 286.923C353.489 288.786 354.191 290.966 354.776 293.402C355.066 294.608 355.371 295.854 355.71 297.211C355.878 297.883 355.901 298.52 355.923 299.136C355.94 299.613 355.958 300.107 356.043 300.617C356.165 301.353 356.341 302.092 356.512 302.807C356.808 304.05 357.115 305.335 357.146 306.644C357.188 308.452 357.174 310.294 357.161 312.075C357.154 312.949 357.148 313.853 357.148 314.741C357.148 315.239 357.173 315.769 357.198 316.283C357.246 317.273 357.295 318.297 357.177 319.234C357.11 319.763 356.998 320.264 356.889 320.749C356.725 321.485 356.57 322.181 356.558 322.967C356.53 324.893 356.544 326.854 356.557 328.751C356.564 329.823 356.572 330.932 356.572 332.022C356.572 332.361 356.533 332.848 356.489 333.411C356.477 333.564 356.464 333.723 356.452 333.887C356.384 333.868 356.316 333.85 356.248 333.831C356.26 333.683 356.271 333.537 356.282 333.395C356.326 332.836 356.364 332.353 356.364 332.022C356.364 330.933 356.357 329.824 356.349 328.752C356.336 326.854 356.323 324.892 356.351 322.964C356.363 322.156 356.528 321.418 356.687 320.704C356.794 320.224 356.905 319.727 356.971 319.208C357.087 318.289 357.038 317.274 356.991 316.293C356.966 315.777 356.94 315.244 356.94 314.741C356.94 313.853 356.947 312.948 356.954 312.073C356.967 310.294 356.981 308.454 356.938 306.648C356.908 305.362 356.604 304.088 356.31 302.856C356.139 302.137 355.961 301.394 355.838 300.651C355.751 300.127 355.733 299.627 355.716 299.144C355.693 298.51 355.672 297.912 355.509 297.261C355.17 295.904 354.864 294.658 354.574 293.451C353.992 291.026 353.293 288.857 352.499 287.005C351.993 285.827 351.284 284.746 350.599 283.7C349.989 282.771 349.359 281.81 348.885 280.797C348.204 279.34 346.958 278.071 345.753 276.844C345.046 276.123 344.314 275.377 343.715 274.609C343.279 274.05 342.77 273.543 342.278 273.052C341.774 272.551 341.253 272.032 340.805 271.453C340.031 270.455 339.376 269.311 338.742 268.206C338.479 267.747 338.208 267.272 337.935 266.822C337.467 266.05 337.123 265.255 336.791 264.487C336.535 263.895 336.271 263.284 335.951 262.684L335.769 262.343C334.859 260.644 333.918 258.886 333.454 257.028C332.917 254.878 332.339 252.763 331.175 250.529C330.585 249.394 330.084 248.224 329.6 247.093C329.155 246.052 328.695 244.976 328.168 243.937C327.909 243.427 327.609 242.906 327.319 242.403C326.843 241.575 326.351 240.72 326.003 239.853C325.682 239.054 325.389 238.251 325.106 237.476C324.541 235.924 324.007 234.458 323.25 232.971C322.877 232.237 322.505 231.488 322.145 230.763C321.661 229.789 321.161 228.781 320.652 227.8C319.822 226.202 319.525 224.616 319.211 222.937C319.081 222.245 318.947 221.529 318.773 220.809C318.482 219.611 318.451 218.516 318.419 217.356C318.409 217.009 318.399 216.651 318.381 216.287C318.34 215.425 318.21 214.577 318.083 213.756C317.921 212.701 317.753 211.609 317.774 210.481C317.795 209.316 317.644 208.265 317.484 207.153C317.397 206.55 317.308 205.926 317.247 205.278C317.149 204.224 317.178 203.154 317.205 202.12C317.226 201.375 317.246 200.605 317.219 199.849C317.186 198.916 317.056 197.994 316.931 197.102C316.78 196.024 316.623 194.91 316.633 193.761C316.653 191.45 316.656 189.148 316.656 187.004V175.956C316.656 175.187 316.642 174.403 316.629 173.645Z" fill="black" stroke="black" stroke-width="2"/>
<path fill-rule="evenodd" clip-rule="evenodd" d="M293.275 148.425C293.258 148.417 293.26 148.418 293.275 148.425V148.425Z" fill="#F5938A"/>
<path fill-rule="evenodd" clip-rule="evenodd" d="M266.616 128.365L266 133.485C266.08 135.859 266.224 138.232 266.429 140.599C266.896 145.971 267.679 151.313 268.729 156.602C269.174 158.84 269.702 161.068 270.276 163.276C270.411 163.798 270.551 164.319 270.698 164.839C270.706 164.867 270.714 164.895 270.722 164.923C270.721 164.916 270.719 164.91 270.717 164.904C270.721 164.915 270.724 164.928 270.727 164.942C270.726 164.935 270.724 164.929 270.722 164.923C270.734 164.967 270.747 165.011 270.758 165.055C270.753 165.035 270.748 165.016 270.743 164.998C270.754 165.035 270.763 165.068 270.77 165.092C270.852 165.37 270.935 165.648 271.021 165.925C271.333 166.931 271.671 167.928 272.045 168.913C272.415 169.89 272.821 170.855 273.269 171.799C273.709 172.73 274.262 173.602 274.716 174.521C274.654 174.39 274.626 174.333 274.623 174.323C274.641 174.345 274.828 174.707 274.895 174.812C275.038 175.04 275.184 175.265 275.334 175.489C275.65 175.962 275.979 176.427 276.32 176.883C276.998 177.787 277.725 178.655 278.495 179.483C278.677 179.678 278.861 179.871 279.047 180.062C279.156 180.174 279.265 180.308 279.388 180.407C278.683 179.837 279.857 180.864 279.575 180.59C279.628 180.639 279.676 180.684 279.682 180.69C279.806 180.808 279.93 180.925 280.056 181.041C280.305 181.272 280.558 181.5 280.813 181.724C281.745 182.54 282.717 183.308 283.723 184.03C284.722 184.749 285.754 185.423 286.81 186.056C287.048 186.199 287.287 186.355 287.534 186.481C287.416 186.421 287.353 186.389 287.33 186.379C287.4 186.418 287.78 186.616 287.881 186.671C288.47 186.996 289.065 187.309 289.666 187.612C294.155 189.875 298.917 191.576 303.672 193.188C304.974 193.63 306.291 194.018 307.617 194.381C307.639 194.387 307.67 194.396 307.701 194.405C307.829 194.437 307.956 194.469 308.084 194.5C308.383 194.574 308.684 194.646 308.985 194.716C309.704 194.883 310.427 195.038 311.151 195.182C313.806 195.706 316.491 196.071 319.186 196.308C321.893 196.547 324.608 196.658 327.325 196.685C327.992 196.691 328.659 196.693 329.327 196.69C329.504 196.689 329.682 196.688 329.858 196.686C329.858 196.686 329.854 196.685 329.852 196.684C329.859 196.685 329.866 196.686 329.874 196.686C329.883 196.686 329.893 196.686 329.902 196.686C330.317 196.679 330 196.695 329.874 196.686C329.869 196.686 329.863 196.686 329.858 196.686C330.181 196.765 330.698 196.638 331.026 196.624C332.386 196.564 333.747 196.524 335.107 196.48C337.841 196.392 340.578 196.293 343.3 196.002C344.469 195.877 345.624 195.763 346.784 195.56C347.984 195.348 349.182 195.111 350.394 194.979C355.157 192.937 359.578 190.104 363.6 186.78C367.983 183.159 372.081 178.533 375.684 174.166C378.858 170.317 381.648 166.309 383.394 161.628C384.245 159.347 385.298 157.106 385.805 154.718C386.265 152.558 386.361 150.269 386.626 148.073C387.158 143.668 387.981 139.389 387.422 134.965C387.043 131.964 386.946 128.876 386.043 125.976C385.336 123.707 384.52 121.445 383.613 119.249C381.704 114.622 379.495 109.973 377.126 105.553C377.052 105.411 376.975 105.27 376.899 105.13C376.715 104.788 376.531 104.448 376.345 104.108C375.864 103.226 375.376 102.345 374.884 101.465C372.717 99.883 370.641 98.1733 368.479 96.5821C367.658 95.9784 366.825 95.392 365.97 94.8357C365.568 94.5733 365.16 94.3181 364.747 94.0707C364.647 94.011 364.402 93.8716 364.37 93.8526C364.37 93.8526 364.377 93.8553 364.383 93.8579C364.176 93.7433 363.97 93.6286 363.76 93.5194C361.898 92.5363 359.945 91.6997 358.011 90.8692C356.649 90.2844 355.278 89.7202 353.897 89.1825C353.053 88.8519 352.203 88.532 351.351 88.2221C350.863 88.044 350.372 87.8694 349.881 87.6996C348.47 87.209 347.049 86.7487 345.617 86.3223C345.314 86.2324 345.01 86.1433 344.707 86.0572C344.477 85.9913 344.248 85.9265 344.018 85.8626C343.785 85.7973 343.552 85.7339 343.319 85.6715C343.186 85.6363 343.053 85.6013 342.92 85.5662C342.915 85.5646 342.91 85.5631 342.906 85.5626C342.886 85.5574 342.863 85.5517 342.835 85.5445C341.785 85.2853 340.732 85.0432 339.672 84.8267C338.473 84.5822 337.269 84.3561 336.063 84.1498C335.242 84.009 334.419 83.8775 333.595 83.7554C332.238 83.5549 330.877 83.3797 329.514 83.2318C328.94 83.1694 328.366 83.1117 327.79 83.0597C326.553 82.946 325.313 82.855 324.071 82.7895C323.176 82.741 322.279 82.7056 321.382 82.6826C320.667 82.6644 319.952 82.6547 319.238 82.6523C318.928 82.6523 318.618 82.6523 318.308 82.6554L318.145 82.6558C318.113 82.6559 318.062 82.6573 317.982 82.6591C317.759 82.6638 317.535 82.6684 317.312 82.6739C316.77 82.688 316.228 82.7068 315.686 82.7303C315.126 82.7546 314.566 82.7845 314.005 82.8211C312.596 82.9093 311.188 83.0319 309.784 83.1895C305.78 83.6384 301.807 84.3709 297.907 85.3851C297.406 85.5148 296.907 85.6495 296.409 85.7891C296.319 85.8136 296.229 85.8391 296.14 85.8647C295.865 85.9461 295.59 86.0266 295.315 86.109C294.315 86.4117 293.321 86.7321 292.332 87.0704C290.829 87.5854 289.341 88.142 287.869 88.7382C287.049 89.0701 286.315 89.5852 285.726 90.2453C285.723 90.2487 285.72 90.2522 285.717 90.2555C285.029 91.0273 284.362 91.8177 283.69 92.6027C283.43 92.9046 283.169 93.2065 282.907 93.5071C282.49 93.983 282.066 94.4543 281.634 94.9159C281.404 95.1621 281.171 95.4053 280.935 95.6443C280.812 95.7708 280.687 95.8951 280.562 96.0184C280.147 96.4278 279.722 96.8253 279.283 97.2089C278.989 97.4666 277.468 98.8073 277.084 99.3253C273.875 103.652 271.338 108.673 269.59 113.721C267.939 118.489 267.219 123.356 266.616 128.365Z" fill="#EF4444"/>
<path fill-rule="evenodd" clip-rule="evenodd" d="M318.919 195.425C318.971 196.141 319.609 196.669 319.755 197.387C320 198.589 320.017 199.685 319.864 200.935C319.779 201.628 319.975 202.924 319.114 203.04C318.11 203.177 316.963 201.036 317.268 200.233C317.31 201.144 316.522 201.648 315.866 201.229C315.159 200.777 315.159 199.059 315.343 198.378C315.356 200.194 312.928 202.754 312.17 200.011C311.64 198.093 312.257 194.518 313.819 193.201L318.919 195.425Z" fill="#EF4444"/>
<path fill-rule="evenodd" clip-rule="evenodd" d="M388.844 305.35C388.886 305.395 388.928 305.438 388.969 305.484L388.953 305.257C388.916 305.289 388.88 305.319 388.844 305.35Z" fill="#F5938A"/>
<path fill-rule="evenodd" clip-rule="evenodd" d="M416.88 261.567C416.834 261.745 416.848 261.917 416.921 262.082C417.689 262.214 418.921 262.625 419.124 263.514C419.223 263.945 419.02 264.34 419.233 264.775C419.377 265.069 419.646 265.614 419.823 265.853C420.038 266.142 420.397 266.175 420.509 266.557C420.575 266.782 420.408 267.024 420.508 267.244C420.597 267.44 420.843 267.496 420.99 267.67C421.202 267.922 421.609 268.734 421.625 269.08C421.654 269.688 421.375 269.604 420.869 269.671C421.071 270.237 421.313 270.712 421.472 271.301C421.774 272.413 421.311 271.8 420.814 272.466C420.627 272.715 420.734 273.654 420.796 273.94C420.917 274.497 421.078 274.852 421.056 275.455C421.025 276.303 420.854 276.554 420.202 277.081C419.705 277.482 419.653 277.569 419.661 278.251C419.672 279.065 420.014 280.729 419.138 281.106C419.256 281.359 419.661 282.066 419.34 282.378C419.071 282.64 418.113 282.345 417.743 282.462C417.765 282.954 418.31 283.323 418.304 283.81C418.293 284.647 417.56 284.413 417.139 284.63C416.65 284.882 416.999 285.465 416.831 285.972C416.595 286.684 416.145 286.87 415.483 286.875C414.099 286.887 414.735 287.514 414.228 288.4C413.872 289.024 411.872 289.866 411.3 289.197C411.321 289.408 411.449 290.144 411.312 290.333C411.039 290.711 410.203 290.388 409.77 290.473C409.258 290.574 407.917 291.285 407.706 290.294C407.256 291.832 405.702 290.59 404.777 290.749C404.318 290.828 404.007 291.21 403.556 291.393C402.709 291.737 401.662 291.674 400.79 291.427C400.552 291.918 399.856 292.049 399.366 291.833C398.983 291.664 398.831 291.085 398.39 291.071C398.009 291.059 397.913 291.46 397.637 291.546C397.234 291.671 397.237 291.505 396.925 291.317C396.813 291.249 396.837 291.123 396.698 291.055C396.576 290.995 396.395 291.11 396.301 291.054C395.842 290.784 395.508 289.989 395.807 289.427C396.012 289.041 396.414 288.701 396.641 288.278C397.308 287.038 398.165 285.724 398.49 284.34C398.596 283.887 398.674 282.862 398.484 282.416C398.285 281.948 397.996 281.957 397.957 281.343C397.89 280.284 397.958 279.52 398.429 278.563C398.883 277.641 399.465 276.771 399.873 275.828C400.308 274.824 400.519 273.716 400.76 272.654C401.349 270.065 401.672 267.313 400.917 264.729C400.414 263.005 399.756 261.242 398.535 259.885C397.056 258.242 394.491 257.504 392.567 256.551C389.212 254.888 386.203 252.563 382.978 250.669C381.351 249.714 379.795 248.638 378.191 247.645C376.826 246.8 375.639 245.759 374.313 244.87C372.328 243.539 370.248 242.417 367.826 242.152C365.535 241.902 363.253 241.643 361.003 242.231C359.751 242.559 358.325 242.716 357.142 243.253C355.866 243.832 354.83 245.062 353.807 245.976C351.519 248.02 348.975 249.74 346.524 251.577C345.556 252.303 344.139 253.597 342.95 253.786C341.544 254.01 341.068 253.233 340.095 252.489C339.791 252.78 339.2 253.156 338.746 253.007C338.042 252.775 338.031 251.594 337.856 250.979C337.036 251.585 336.099 251.18 335.275 250.758C335.063 250.65 335.027 250.752 334.856 250.582C334.625 250.355 334.609 249.619 334.588 249.336C334.511 248.305 334.758 247.173 335.624 246.513C334.959 246.773 334.041 245.716 333.785 245.272C333.299 244.429 333.106 242.666 334.293 242.315C334.297 241.819 333.801 241.419 334.057 240.887C334.287 240.409 334.653 240.488 335.126 240.4C335.079 239.808 334.69 239.435 335.009 238.812C335.362 238.124 336.13 238.087 336.81 237.883C336.865 237.341 336.661 237.169 336.952 236.549C337.301 235.805 338.286 235.259 338.983 234.906C339.497 234.646 340.863 234.214 341.281 234.791C341.242 234.195 341.159 233.482 341.248 232.893C341.324 232.391 341.667 232.169 341.797 231.691C341.92 231.24 341.603 230.629 341.976 230.288C342.473 229.832 343.693 230.249 344.317 230.148C344.509 229.437 344.304 228.327 343.596 227.965C342.976 228.544 343.822 228.886 344.342 228.723C345.385 228.396 345.355 227.647 346.567 228.133C347.239 227.571 346.869 226.341 347.927 225.952C348.725 225.657 349.373 226.283 349.333 227.074C349.079 226.425 349.719 225.242 350.049 224.85C350.869 223.877 351.912 223.318 353.148 223.036C354.367 222.759 356.033 222.985 356.023 224.572C356.55 223.777 357.058 222.54 358.047 222.221C358.988 221.917 358.946 222.411 359.11 223.292C359.375 223.203 359.549 223.008 359.633 222.708C360 222.392 360.427 222.254 360.913 222.295C361.815 222.344 362.401 223.096 363.217 223.377C363.79 223.574 365.173 223.73 365.724 223.357C366.765 222.652 365.896 221.492 366.365 220.68C367.82 220.495 368.195 222.837 369.311 222.619C369.747 222.533 370.248 221.626 370.765 221.731C371.319 221.843 371.372 222.743 371.246 223.164C371.706 221.136 374.152 221.724 375.319 222.606C376.04 223.15 376.473 223.651 376.573 224.572C376.629 225.083 376.461 225.611 376.591 226.111C377.137 225.929 377.646 225.42 378.215 225.838C378.867 226.317 378.213 227.04 378.622 227.637C379.257 227.682 381.693 228.084 381.305 226.857C381.223 227.278 381.264 227.874 381.528 228.226C382.286 228.09 382.765 227.215 383.634 227.354C384.628 227.512 384.352 228.267 384.337 229.147C385.28 228.915 386.215 227.947 387.083 228.815C387.629 229.36 387.434 230.003 387.358 230.691C388.705 230.502 391.301 229.988 392.063 231.636C392.366 232.386 392.217 233.005 391.616 233.494C391.298 233.634 391.004 233.81 390.732 234.022C390.248 235.479 395.156 236.822 395.56 234.583C395.856 234.849 395.766 235.343 396.005 235.675C396.386 236.201 396.788 236.048 397.384 235.858C398.129 235.62 399.069 234.966 399.58 235.985C399.83 236.486 399.701 237.415 399.59 237.916C399.791 236.405 401.448 236.717 402.167 237.637C403.078 238.804 402.564 239.574 402.109 240.708C403.108 240.718 404.01 240.535 404.471 241.6C404.827 242.423 404.865 244.308 403.787 244.675C403.892 243.37 405.406 243.288 406.164 244.037C406.161 244.393 406.308 244.581 406.604 244.603C407.121 244.37 407.662 244.227 408.228 244.175C410.091 243.843 413.475 243.763 414.088 246.193C414.199 246.632 414.077 248.748 413.285 248.832C414.592 248.174 416.665 248.228 417.334 249.814C417.913 251.188 416.934 252.309 416.321 253.399C417.559 253.998 419.815 254.013 420.55 255.424C421.252 256.774 419.739 257.85 418.782 258.502C419.663 258.477 421.775 258.408 421.987 259.655C422.165 260.701 420.46 261.688 419.654 261.878C420.51 261.662 422.023 262.148 421.892 263.201C421.749 264.352 420.397 265.551 419.39 265.932C420.117 266.235 421.787 267.545 421.307 268.39C421.118 268.723 419.519 269.06 420.495 269.63L416.88 261.567Z" fill="#553821"/>
<path fill-rule="evenodd" clip-rule="evenodd" d="M394.816 331.441C394.597 331.437 394.379 331.434 394.16 331.428C391.389 330.943 388.659 330.245 385.866 329.874C385.837 329.87 385.809 329.866 385.78 329.863C385.675 329.849 385.57 329.835 385.465 329.822C385.526 329.83 385.586 329.838 385.647 329.846C383.651 329.601 381.641 329.6 379.633 329.552C377.641 329.013 375.658 328.44 373.646 327.979C373.48 327.941 373.314 327.904 373.147 327.867C373.142 327.845 373.136 327.824 373.131 327.803C373.08 327.595 373.039 327.386 373.003 327.175C372.816 325.337 372.949 323.485 372.856 321.642C373.097 320.326 373.286 319.003 373.403 317.677C373.955 315.942 374.399 314.185 374.69 312.402C374.83 311.983 374.963 311.563 375.089 311.142C375.502 309.761 375.533 308.849 375.481 307.394C375.461 306.828 375.544 306.297 375.546 305.732C375.546 305.587 375.467 305.49 375.397 305.391C375.449 305.177 375.502 304.962 375.554 304.747L386.767 300.992C387.749 301.21 387.995 301.446 388.278 301.909C388.868 304.554 389.632 307.16 390.419 309.751C391.375 312.897 392.386 316.027 393.268 319.195C394.04 321.967 394.502 324.764 394.893 327.611C394.993 328.338 395.089 329.071 395.188 329.809C395.118 330.149 395.047 330.493 394.968 330.834C394.921 331.039 394.87 331.242 394.816 331.441Z" fill="#1A969B"/>
<path fill-rule="evenodd" clip-rule="evenodd" d="M399.504 287.072C399.62 286.68 399.638 286.646 399.616 286.731C399.577 286.843 399.54 286.955 399.506 287.068C399.506 287.069 399.505 287.071 399.504 287.072Z" fill="#BA8C6A"/>
<path fill-rule="evenodd" clip-rule="evenodd" d="M327.211 264.068C327.545 263.027 328.128 262.279 328.513 261.276C329.155 259.605 330.255 258.472 331.669 257.381C334.691 255.048 338.113 253.28 340.728 250.49C342.603 248.488 344.604 246.606 346.677 244.815C347.278 244.683 347.895 244.653 348.497 244.528C350.184 244.178 351.66 243.317 352.961 242.221C354.076 241.282 355.081 240.215 356.165 239.24C356.436 238.996 356.71 238.756 356.99 238.521C357.123 238.409 357.259 238.3 357.395 238.19C357.416 238.175 357.44 238.158 357.468 238.137C358.009 237.745 358.576 237.389 359.191 237.127C359.316 237.073 359.433 237.003 359.542 236.92C361.253 237.924 363.022 238.834 364.79 239.705C372.509 243.509 380.29 247.253 387.491 251.995C388.403 252.596 389.305 253.212 390.194 253.847C390.648 254.172 391.099 254.501 391.546 254.835C391.741 254.981 391.935 255.128 392.129 255.276C392.468 255.549 392.469 255.545 392.392 255.481C394.184 256.894 395.887 258.403 397.508 260.009C399.117 261.603 400.658 263.262 402.219 264.902C402.777 265.488 403.352 266.057 403.902 266.651C403.917 266.671 403.932 266.692 403.947 266.713C403.993 266.873 404.032 267.036 404.063 267.201C404.145 268.391 404.089 269.58 403.951 270.764C403.483 273.89 402.598 276.959 401.835 280.021C401.679 280.645 401.512 281.265 401.333 281.882C401.151 282.475 400.959 283.065 400.752 283.647C400.575 284.142 400.382 284.631 400.182 285.117C400.156 285.179 399.924 285.754 400.114 285.282C400.28 284.868 400.124 285.258 400.08 285.361C399.982 285.589 399.884 285.817 399.787 286.045C399.287 287.215 398.782 288.386 398.374 289.593C398.134 290.303 398.25 291.048 398.591 291.679C397.457 293.098 396.243 294.364 394.779 295.681C392.775 297.483 391.281 299.787 389.39 301.703C387.082 304.041 384.709 306.574 381.57 307.759C379.412 308.574 377.669 307.729 375.511 307.179C374.139 306.83 373.453 306.298 372.26 305.732C371.816 305.523 371.222 305.527 370.749 305.383C369.906 305.126 369.41 304.731 368.608 304.366C367.448 303.838 366.222 303.697 365.054 303.185C364.461 302.926 364.088 302.538 363.434 302.29C362.579 301.965 361.608 301.975 360.753 301.65C360.002 301.364 359.464 300.897 358.748 300.581C357.393 299.983 355.952 299.632 354.686 298.787C354.019 298.341 353.582 297.706 352.825 297.326C352.059 296.941 351.582 296.756 350.891 296.212C345.893 292.279 340.043 289.232 335.477 284.763C333.096 282.432 330.898 279.13 329.778 275.986C329.184 274.318 328.856 272.362 328.144 270.788C327.715 269.839 327.335 269.399 327.106 268.319C326.776 266.76 326.716 265.61 327.211 264.068Z" fill="#BA8C6A"/>
<path fill-rule="evenodd" clip-rule="evenodd" d="M378.945 294.042C379.171 292.991 378.749 290.597 377.764 289.829C375.972 288.432 373.577 289.716 371.704 290.254C371.128 290.6 370.532 290.916 369.929 291.226C369.671 292.366 369.306 293.471 368.919 294.572C369.667 295.505 370.321 296.526 370.768 297.624C370.897 297.651 371.021 297.679 371.135 297.708C372.377 298.028 373.839 298.666 375.105 298.694C377.898 298.755 378.456 296.307 378.945 294.042Z" fill="#DC816F"/>
<path fill-rule="evenodd" clip-rule="evenodd" d="M342.056 248.832C341.727 249.557 341.242 250.193 340.855 250.884C340.443 251.467 339.988 252.021 339.502 252.544C338.991 252.858 338.503 253.21 338.037 253.59C337.521 253.843 337.022 254.126 336.54 254.436C336.537 254.407 336.534 254.376 336.53 254.343C336.484 253.937 336.535 253.496 336.535 253.087C336.535 251.208 336.545 249.329 336.535 247.45C336.531 246.517 336.681 245.531 337.228 244.73C337.739 243.982 338.471 244.354 339.099 244.809C339.88 245.373 340.792 246.15 341.261 246.993C341.581 247.567 341.965 248.059 342.188 248.622C342.137 248.685 342.091 248.755 342.056 248.832Z" fill="#AB7D60"/>
<path fill-rule="evenodd" clip-rule="evenodd" d="M340.73 251.055C340.351 251.575 339.94 252.072 339.502 252.544C339.176 252.744 338.861 252.961 338.554 253.189C338.118 253.082 337.882 252.863 337.907 252.398C337.94 251.762 338.607 250.34 339.214 250.167C338.887 249.953 338.978 248.878 339.035 248.494C339.165 247.623 339.479 247.989 339.948 248.43C340.523 248.972 340.733 249.035 340.717 249.889C340.712 250.164 340.73 250.44 340.73 250.715V251.055Z" fill="#A17252"/>
<path fill-rule="evenodd" clip-rule="evenodd" d="M340.555 262.974C338.969 262.071 337.443 261.063 335.906 260.053C335.494 260.05 335.081 260.049 334.669 260.044C334.657 260.047 334.644 260.05 334.632 260.053C334.109 260.938 333.471 261.766 332.799 262.571C332.804 262.599 332.808 262.626 332.814 262.655C332.785 262.656 332.755 262.657 332.726 262.657C332.267 263.204 331.794 263.741 331.333 264.277C331.272 265.352 331.213 266.427 331.186 267.503C331.308 267.893 331.43 268.283 331.552 268.674C332.471 269.462 333.41 270.234 334.384 270.954C335.677 270.686 336.987 270.398 338.302 270.158C338.671 269.715 339.053 269.283 339.443 268.858C339.831 267.619 340.37 266.141 340.637 264.704C340.601 264.133 340.583 263.55 340.555 262.974Z" fill="#DC816F"/>
<path fill-rule="evenodd" clip-rule="evenodd" d="M341.244 258.792C341.897 258.196 342.622 257.564 343.247 257.593C343.535 257.606 343.601 257.706 343.623 257.739C343.904 258.158 343.426 259.494 343.17 260.209C343.09 260.433 343.027 260.599 342.969 260.784C343.117 260.923 343.267 261.059 343.422 261.189L343.838 261.297C343.879 261.14 343.987 260.828 344.09 260.539C344.49 259.42 344.991 258.02 344.435 257.191C344.27 256.945 343.938 256.645 343.292 256.615C342.312 256.569 341.446 257.288 340.675 257.988C340.86 258.258 341.049 258.527 341.244 258.792Z" fill="#553821"/>
<path fill-rule="evenodd" clip-rule="evenodd" d="M378.328 286.435C378.631 286.185 378.872 285.909 379.083 285.664C379.596 285.069 379.834 284.825 380.464 284.989L380.483 284.994C380.679 285.045 380.926 285.147 381.002 285.291C381.116 285.506 380.945 286.002 380.782 286.475C380.696 286.726 380.606 286.985 380.533 287.261C380.471 287.497 380.418 287.75 380.364 288.011C380.65 288.247 380.934 288.488 381.211 288.735C381.237 288.616 381.261 288.497 381.285 288.381C381.349 288.068 381.409 287.772 381.479 287.509C381.542 287.268 381.626 287.025 381.707 286.791C381.949 286.089 382.178 285.423 381.866 284.834C381.67 284.463 381.303 284.198 380.737 284.051L380.712 284.044C379.466 283.719 378.869 284.416 378.343 285.026C378.128 285.276 377.904 285.54 377.628 285.75C377.583 285.785 377.537 285.818 377.492 285.852C377.774 286.041 378.053 286.236 378.328 286.435Z" fill="#553821"/>
<path fill-rule="evenodd" clip-rule="evenodd" d="M358.666 270.281C358.33 270.257 357.72 269.392 356.945 269.229C356.056 269.044 355.36 269.204 354.776 269.807C352.956 271.688 356.318 271.951 357.575 272.278L358.666 270.281Z" fill="#BF6E5B"/>
<path fill-rule="evenodd" clip-rule="evenodd" d="M391.279 278.314L390.398 277.891C390.833 276.987 390.261 275.704 389.639 274.88C389.356 274.506 388.905 274.317 388.426 274.118C387.801 273.857 387.093 273.561 386.71 272.796L387.585 272.359C387.805 272.8 388.267 272.992 388.803 273.216C389.353 273.445 389.977 273.706 390.419 274.291C391.244 275.384 391.904 277.015 391.279 278.314Z" fill="#553821"/>
<path fill-rule="evenodd" clip-rule="evenodd" d="M352.966 247.139C352.196 246.938 351.451 246.57 351.468 245.711L352.445 245.73C352.438 246.078 353.442 246.255 353.981 246.35C354.215 246.391 354.438 246.429 354.616 246.48L354.357 247.422C354.222 247.385 354.022 247.35 353.811 247.312C353.552 247.267 353.257 247.214 352.966 247.139Z" fill="#553821"/>
<path fill-rule="evenodd" clip-rule="evenodd" d="M375.688 307.338L375.692 307.376C375.738 307.313 375.782 307.248 375.825 307.183C375.709 307.163 375.652 307.217 375.688 307.338Z" fill="#F5938A"/>
<path fill-rule="evenodd" clip-rule="evenodd" d="M356.674 313.482C357.041 314.727 359.364 314.196 360.345 314.302C360.543 314.324 360.74 314.358 360.935 314.403C362.022 314.648 363.047 315.187 364.046 315.353C365.386 315.575 366.468 315.328 367.752 315.683C369.242 316.096 370.479 316.513 371.977 316.787C372.666 316.913 373.076 317.138 373.969 317.122C374.705 317.108 375.116 317.298 375.826 317.482C377.465 317.905 379.254 318.368 380.914 318.563C382.769 318.781 385.001 318.262 386.871 318.154C388.614 318.054 389.928 317.458 391.586 317.143C391.61 316.972 391.634 316.8 391.658 316.63L389.524 311.875C387.334 313.109 384.236 312.822 381.649 312.985C379.049 313.149 375.998 313.796 373.429 313.453C370.63 313.079 368.045 312.625 365.139 312.808C363.889 312.886 362.358 312.823 360.851 312.853C359.329 312.885 357.832 313.013 356.674 313.482Z" fill="#48ABAF"/>
<path fill-rule="evenodd" clip-rule="evenodd" d="M354.494 313.482C354.861 314.727 357.183 314.196 358.165 314.302C358.363 314.324 358.56 314.358 358.754 314.403C358.754 314.339 358.753 314.278 358.753 314.221C358.758 313.766 358.726 313.309 358.67 312.853C357.149 312.885 355.652 313.013 354.494 313.482Z" fill="#BA8C6A"/>
<path fill-rule="evenodd" clip-rule="evenodd" d="M384.275 306.63C384.472 306.42 384.654 306.188 384.807 305.943C384.814 305.939 384.821 305.935 384.829 305.932C384.839 305.974 384.847 306.012 384.853 306.043C384.979 306.688 384.941 307.286 385.112 307.932C385.291 308.607 385.497 309.294 385.744 309.947C386.081 310.836 386.47 311.698 386.813 312.582C386.701 312.598 386.593 312.619 386.488 312.647C386.179 312.692 385.861 312.696 385.541 312.696C385.528 312.696 385.516 312.698 385.504 312.698C385.493 312.615 385.482 312.533 385.472 312.45C385.378 311.688 385.071 311.008 384.832 310.28C384.651 309.728 384.256 309.155 384.123 308.612C383.985 308.051 383.874 307.501 383.825 306.932C383.995 306.864 384.15 306.763 384.275 306.63Z" fill="#731851"/>
<path fill-rule="evenodd" clip-rule="evenodd" d="M374.066 312.158C374.06 311.698 374.015 311.225 374.129 310.781C374.357 309.889 374.798 309.156 375.117 308.278C375.234 307.957 375.311 307.636 375.376 307.313C375.549 307.392 375.729 307.436 375.909 307.445C376.014 307.478 376.119 307.51 376.225 307.542C376.149 307.871 376.046 308.199 375.999 308.542C375.868 309.488 376.125 310.426 375.884 311.37C375.702 312.08 375.45 312.762 375.199 313.443L375.152 313.437C375.035 313.422 374.919 313.407 374.803 313.393C374.789 313.392 374.722 313.383 374.671 313.376C374.613 313.367 374.53 313.353 374.526 313.352C374.47 313.34 374.415 313.326 374.36 313.31C374.226 313.271 374.09 313.256 373.956 313.26C374.022 312.911 374.071 312.57 374.066 312.158Z" fill="#731851"/>
<path fill-rule="evenodd" clip-rule="evenodd" d="M379.488 337.761C379.175 337.724 378.688 337.385 378.398 337.474C377.996 337.597 377.991 338.274 377.959 338.586C377.906 339.105 377.795 339.682 377.689 340.191C377.688 340.194 377.688 340.197 377.687 340.199C377.345 340.138 376.988 340.055 376.588 339.946C375.787 339.728 375.002 339.451 374.228 339.152C373.172 338.743 372.146 338.289 371.095 337.84C371.227 337.088 371.471 336.351 371.714 335.631C371.989 334.819 371.779 333.924 371.836 333.079C371.869 332.589 372.034 332.611 372.135 332.204C372.235 331.803 372.121 331.218 372.121 330.8C372.121 329.988 372.015 329.107 372.106 328.305C372.162 327.816 372.382 327.398 372.405 326.9C372.43 326.352 372.407 325.922 372.538 325.378C372.757 324.463 372.586 323.541 372.813 322.631C373.062 321.631 373.401 320.558 373.519 319.559C373.611 318.77 373.741 317.964 373.782 317.161C373.952 317.238 374.122 317.314 374.293 317.388C374.277 318.613 374.448 319.864 374.351 321.074C374.305 321.651 374.084 322.157 374.06 322.751C374.04 323.253 374.067 323.763 374.067 324.266C374.067 324.685 373.957 325.267 374.054 325.669C374.192 326.236 374.481 326.08 375.041 326.072C376.289 326.056 377.538 326.077 378.787 326.073C379.59 326.07 380.227 326.133 381.004 326.289C382.035 326.496 383.064 326.264 384.103 326.553C384.799 326.746 385.478 326.892 386.16 327.046C386.705 327.168 387.442 327.073 387.938 327.371C388.17 327.041 387.675 325.743 387.619 325.392C387.551 324.816 387.462 324.243 387.35 323.674C387.18 323.35 387.033 323.016 386.91 322.671C386.558 321.262 386.294 319.658 386.092 318.205C386.728 318.101 387.367 318.012 387.989 317.841C388.118 318.915 388.24 319.99 388.454 321.046C388.773 322.611 389.212 324.214 389.704 325.73C389.985 326.593 390.264 327.409 390.532 328.235C390.838 329.175 392.303 329.119 393.194 329.138C393.731 329.149 395.268 328.856 395.493 329.391C395.612 329.672 395.473 330.409 395.473 330.713C395.474 331.581 395.473 332.449 395.473 333.316C395.473 334.693 395.443 336.084 395.744 337.417C395.849 337.886 395.922 338.339 396.022 338.801C396.088 339.108 396.282 339.404 396.318 339.717C393.367 339.574 390.558 340.333 387.669 340.542C387.561 339.421 387.057 338.355 385.75 338.299C384.788 338.259 383.933 338.037 382.957 338.028C382.132 338.02 381.45 337.749 380.6 337.751C380.246 337.752 379.839 337.802 379.488 337.761Z" fill="#731851"/>
<path fill-rule="evenodd" clip-rule="evenodd" d="M398.254 290.483C400.406 290.483 403.421 289.982 404.647 292.152C405.089 292.933 405.485 294.197 405.149 295.148C404.752 296.271 403.471 296.729 402.552 297.296C401.515 297.935 400.647 298.761 399.366 298.831C398.239 298.893 396.967 298.911 395.891 298.686C394.865 298.471 393.592 298.732 392.687 298.276C391.839 297.849 391.908 296.251 392.972 296.044L398.254 290.483Z" fill="#AB7D5F"/>
<path fill-rule="evenodd" clip-rule="evenodd" d="M395.556 292.669C395.495 292.751 395.434 292.833 395.373 292.915C396.641 292.621 398.645 292.45 399.656 293.56C399.98 293.916 400.012 294.309 400.009 294.757C400.007 295.263 400.076 295.348 399.6 295.462C398.699 295.68 397.901 295.02 397.075 295.159C396.413 295.271 395.236 297.839 394.293 296.575C394.123 296.348 394.082 295.857 394.154 295.576C394.305 294.989 394.467 295.234 395.007 295.178C396.394 295.035 394.711 294.369 394.722 293.782L395.556 292.669Z" fill="#966552"/>
<path fill-rule="evenodd" clip-rule="evenodd" d="M387.525 254.864C387.524 254.957 387.524 255.05 387.523 255.142C387.915 256.791 384.796 256.526 383.867 256.489C384.786 257.411 385.34 257.908 385.867 258.997C386.064 259.402 385.976 260.395 386.88 259.747C387.235 259.492 386.976 258.176 387.003 257.783C386.417 258.787 385.837 261.728 386.721 262.529C387.127 262.896 388.675 263.185 389.187 263.146C390.26 263.063 390.452 262.798 390.275 261.631C390.284 262.074 390.281 262.517 390.266 262.959C389.946 260.667 394.216 258.988 392.907 262.528C392.482 262.447 392.24 261.997 392.427 261.44C392.681 260.681 392.859 261.015 393.569 260.909C394.645 260.749 395.579 260.676 395.812 261.726C396.017 262.648 394.851 263.435 395.302 264.127C395.665 264.685 397.986 264.138 398.44 263.889C398.53 264.142 398.592 264.402 398.626 264.669C399.124 264.753 399.598 264.813 400.106 264.855C400.324 266.14 401.235 267.992 400.486 269.198C399.692 270.476 397.757 271.183 396.376 270.707C396.479 270.236 397.977 269.921 398.451 270.362C398.906 270.785 398.452 272.333 398.628 272.938C399.953 272.951 399.575 273.535 399.36 274.403C398.942 276.092 399.758 275.625 400.164 277.166C400.551 278.633 398.217 280.314 397.049 280.737C398.187 281.26 398.991 281.702 399.106 282.928C399.236 284.312 398.298 285.168 396.966 285.237C396.637 286.48 396.929 287.978 396.887 289.271C396.856 290.228 396.764 290.303 396.334 291.074C396.04 291.602 395.282 291.632 396.074 292.273C396.47 292.592 399.679 292.482 400.212 292.326C401.809 291.859 401.684 289.209 401.948 287.946C402.302 286.259 402.81 284.533 403.46 282.94C403.952 281.873 404.481 280.824 405.046 279.792C405.464 278.617 405.728 277.409 405.838 276.168C406.535 272.852 407.738 269.57 408.331 266.251C408.66 264.409 408.743 262.241 407.28 260.904C406.313 260.021 404.688 259.541 403.565 258.798C400.757 256.941 398.268 254.628 395.219 253.145C391.143 251.163 386.872 250.061 383.277 247.198C380.536 245.015 378.25 242.211 375.458 240.11C373.568 238.688 370.413 237.331 367.994 237.221C366.287 237.143 364.562 237.455 362.867 237.125C361.806 236.918 361.179 236.704 360.115 236.684C358.088 236.646 357.173 236.398 356.159 238.327C354.983 240.565 352.919 242.672 350.495 243.463C349.652 243.738 348.603 243.552 347.867 243.8C347.15 244.041 347.154 244.66 346.929 245.331C346.584 246.358 345.991 250.356 344.218 249.92C346.492 249.844 347.454 249.927 349.133 248.161C350.351 246.879 350.942 245.296 351.895 243.937C352.324 243.324 353.183 242.571 353.921 242.312C355.671 241.698 358.42 242.202 360.283 242.202C362.204 242.202 364.706 241.757 366.535 242.257C367.301 244.013 365.571 245.271 364.023 244.912C365.352 245.75 366.583 246.673 368.165 245.698C368.269 247.506 369.347 248.056 370.939 248.337C372.237 251.449 368.434 251.174 367.405 252.943C366.129 255.135 371.418 255.318 372.528 254.395C370.787 254.694 373.874 256.215 374.247 256.38C374.467 255.517 374.178 254.658 374.393 253.788C375.344 253.48 376.162 254.151 377.051 254.316C378.338 254.553 378.952 254.549 378.675 256.194C378.488 257.306 377.618 257.348 378.77 258.325C379.283 258.76 380.942 259.017 381.428 258.557C381.825 258.182 381.459 256.514 381.4 256.089C381.832 256.676 382.519 257.255 383.139 257.658C384.096 258.28 384.028 258.133 385.048 257.902C386.566 257.558 387.531 257.036 389.176 257.066L387.525 254.864Z" fill="#553821"/>
<path fill-rule="evenodd" clip-rule="evenodd" d="M354.24 275.898C354.419 275.898 354.603 275.883 354.792 275.851L354.694 275.265C353.426 275.476 352.451 274.808 351.714 273.221C351.194 272.099 351.185 270.996 351.176 269.829L350.581 269.834C350.591 271.067 350.6 272.232 351.175 273.472C351.924 275.084 352.953 275.898 354.24 275.898Z" fill="#553821"/>
<path fill-rule="evenodd" clip-rule="evenodd" d="M324.466 115.324C324.152 115.642 324.14 115.711 324.169 117.1C324.186 117.895 324.146 118.599 324.081 118.666C324.015 118.732 323.318 118.881 322.533 118.996C319.09 119.503 316.195 120.524 313.122 122.316C310.904 123.61 309.701 124.52 307.884 126.281C306.006 128.102 304.766 129.689 303.169 132.319C302.711 133.074 301.829 134.842 301.829 135.006C301.829 135.04 301.685 135.385 301.509 135.774C300.521 137.959 299.641 141.995 299.609 144.491C299.587 146.218 299.655 146.144 297.947 146.301C296.652 146.421 296.447 146.474 296.232 146.743C295.894 147.165 295.926 147.625 296.323 148.026C296.656 148.363 296.672 148.365 298.108 148.28C298.905 148.232 301.31 148.107 303.451 148C305.593 147.894 308.368 147.749 309.617 147.677C313.205 147.471 314.113 147.424 315.913 147.349C317.683 147.276 320.937 147.101 324.545 146.887C325.723 146.816 327.538 146.728 328.578 146.69C329.618 146.652 330.932 146.595 331.499 146.563C332.065 146.531 333.93 146.442 335.644 146.366C337.357 146.29 339.694 146.171 340.836 146.103C341.978 146.034 343.585 145.945 344.406 145.903C345.227 145.862 346.249 145.802 346.677 145.771C347.106 145.74 348.186 145.681 349.079 145.639C354.898 145.366 356.467 145.232 356.733 144.988C357.082 144.669 357.091 143.864 356.748 143.551C356.539 143.359 356.275 143.329 355.062 143.357C354.272 143.375 353.582 143.347 353.53 143.294C353.478 143.241 353.337 142.537 353.217 141.729C352.973 140.088 352.926 139.856 352.659 139.012C352.556 138.688 352.403 138.156 352.32 137.831C352.237 137.506 352.116 137.138 352.052 137.013C351.987 136.887 351.934 136.718 351.934 136.636C351.934 136.329 350.699 133.546 350.054 132.398C349.199 130.878 348.446 129.708 348.058 129.295C347.891 129.117 347.6 128.765 347.412 128.512C346.614 127.443 344.991 125.803 343.664 124.727C342.634 123.89 339.789 121.996 338.954 121.59C335.269 119.8 331.824 118.882 328.137 118.707C326.973 118.652 326.416 118.573 326.29 118.445C326.181 118.335 326.105 117.965 326.098 117.514C326.073 115.815 326.036 115.544 325.791 115.27C325.451 114.89 324.872 114.914 324.466 115.324ZM314.158 124.739C314.156 124.829 313.908 125.295 313.606 125.775C312.778 127.091 311.175 130.133 311.175 130.391C311.175 130.45 311.029 130.821 310.85 131.215C310.672 131.61 310.526 132.008 310.526 132.1C310.526 132.191 310.472 132.322 310.405 132.391C310.23 132.572 309.411 135.848 309.176 137.306C308.974 138.557 308.901 139.302 308.774 141.375C308.662 143.214 308.329 143.469 305.993 143.505C304.182 143.533 303.851 143.392 303.523 142.455C303.28 141.758 303.448 140.84 304.298 138.225C304.995 136.08 305.144 135.702 305.882 134.222C307.056 131.868 308.078 130.292 309.63 128.447C311.731 125.95 314.171 123.951 314.158 124.739ZM332.139 151.05C329.99 151.103 324.268 151.368 321.365 151.549C318.999 151.696 317.945 151.756 314.42 151.941C312.385 152.048 310.02 152.192 309.163 152.263C308.306 152.333 305.941 152.456 303.906 152.536C301.871 152.615 300.126 152.707 300.027 152.74C299.843 152.8 299.857 153.014 300.129 154.369C300.331 155.37 300.905 157.285 301.182 157.882C301.327 158.194 301.54 158.697 301.654 159.001C302.239 160.552 303.49 162.745 304.617 164.196C304.961 164.638 305.252 165 305.264 165C305.275 165 305.573 164.86 305.926 164.688C307.725 163.813 308.572 163.432 309.141 163.239C310.984 162.616 314.065 162.213 316.167 162.32C318.121 162.419 328.369 162.416 329.802 162.315C331.302 162.21 332.184 162.031 333.048 161.655C333.333 161.531 334.209 161.164 334.995 160.84C335.78 160.516 336.481 160.204 336.552 160.146C336.624 160.089 337.366 159.743 338.201 159.376C339.036 159.01 339.825 158.652 339.954 158.581C340.233 158.425 341.247 157.96 343.692 156.866C344.691 156.419 345.801 155.913 346.158 155.743C346.515 155.573 347.158 155.276 347.586 155.084C348.442 154.699 349.491 154.209 351.115 153.433C351.7 153.153 352.215 152.925 352.259 152.925C352.444 152.925 353.734 152.272 353.817 152.137C353.867 152.056 353.799 151.867 353.667 151.717C353.082 151.053 351.942 150.919 350.433 151.337C349.132 151.697 347.368 152.248 347.067 152.389C346.924 152.455 346.34 152.662 345.769 152.847C344.182 153.362 340.696 154.594 340.22 154.809C339.988 154.914 339.505 155.099 339.148 155.221C338.791 155.343 337.915 155.648 337.201 155.9C335.777 156.401 331.397 157.349 329.921 157.475C328.78 157.573 328.376 157.48 328.104 157.06C327.633 156.334 327.985 155.331 328.826 155.003C329.277 154.827 331.134 154.505 331.715 154.502C332.197 154.5 335.161 154.021 337.003 153.648C338.303 153.385 339.274 152.879 339.532 152.329C339.784 151.792 339.783 151.681 339.52 151.275L339.307 150.947L336.307 150.984C334.657 151.005 332.781 151.035 332.139 151.05Z" fill="white"/>
<path d="M277 395C277 382.85 286.85 373 299 373H389C401.15 373 411 382.85 411 395C411 407.15 401.15 417 389 417H299C286.85 417 277 407.15 277 395Z" fill="#F4F4F5"/>
<path d="M334.575 393.129H333.024C332.964 392.798 332.853 392.506 332.691 392.254C332.529 392.002 332.33 391.789 332.094 391.613C331.859 391.437 331.596 391.305 331.304 391.215C331.016 391.126 330.709 391.081 330.384 391.081C329.798 391.081 329.272 391.228 328.808 391.523C328.348 391.818 327.983 392.251 327.714 392.821C327.449 393.391 327.317 394.087 327.317 394.909C327.317 395.738 327.449 396.437 327.714 397.007C327.983 397.577 328.349 398.008 328.813 398.3C329.277 398.591 329.799 398.737 330.379 398.737C330.701 398.737 331.006 398.694 331.294 398.608C331.586 398.518 331.849 398.388 332.085 398.215C332.32 398.043 332.519 397.832 332.681 397.584C332.847 397.332 332.961 397.044 333.024 396.719L334.575 396.724C334.492 397.224 334.332 397.685 334.093 398.106C333.858 398.523 333.554 398.885 333.183 399.19C332.815 399.491 332.394 399.725 331.92 399.891C331.446 400.056 330.929 400.139 330.369 400.139C329.488 400.139 328.702 399.93 328.013 399.513C327.323 399.092 326.78 398.49 326.382 397.708C325.988 396.926 325.79 395.993 325.79 394.909C325.79 393.822 325.989 392.889 326.387 392.11C326.785 391.328 327.328 390.728 328.018 390.31C328.707 389.889 329.491 389.679 330.369 389.679C330.91 389.679 331.413 389.757 331.881 389.913C332.351 390.065 332.774 390.29 333.148 390.589C333.523 390.884 333.833 391.245 334.078 391.673C334.323 392.097 334.489 392.582 334.575 393.129ZM337.781 389.818V400H336.294V389.818H337.781ZM342.997 400.154C342.281 400.154 341.656 399.99 341.123 399.662C340.589 399.334 340.175 398.875 339.88 398.285C339.585 397.695 339.438 397.005 339.438 396.217C339.438 395.424 339.585 394.732 339.88 394.138C340.175 393.545 340.589 393.085 341.123 392.756C341.656 392.428 342.281 392.264 342.997 392.264C343.713 392.264 344.338 392.428 344.871 392.756C345.405 393.085 345.819 393.545 346.114 394.138C346.409 394.732 346.557 395.424 346.557 396.217C346.557 397.005 346.409 397.695 346.114 398.285C345.819 398.875 345.405 399.334 344.871 399.662C344.338 399.99 343.713 400.154 342.997 400.154ZM343.002 398.906C343.466 398.906 343.851 398.784 344.156 398.538C344.46 398.293 344.686 397.967 344.832 397.559C344.981 397.151 345.055 396.702 345.055 396.212C345.055 395.724 344.981 395.277 344.832 394.869C344.686 394.458 344.46 394.129 344.156 393.88C343.851 393.631 343.466 393.507 343.002 393.507C342.535 393.507 342.147 393.631 341.839 393.88C341.534 394.129 341.307 394.458 341.158 394.869C341.012 395.277 340.939 395.724 340.939 396.212C340.939 396.702 341.012 397.151 341.158 397.559C341.307 397.967 341.534 398.293 341.839 398.538C342.147 398.784 342.535 398.906 343.002 398.906ZM353.938 394.228L352.591 394.467C352.535 394.294 352.445 394.13 352.323 393.974C352.203 393.819 352.041 393.691 351.835 393.592C351.63 393.492 351.373 393.442 351.065 393.442C350.644 393.442 350.293 393.537 350.011 393.726C349.729 393.911 349.588 394.152 349.588 394.447C349.588 394.702 349.683 394.907 349.872 395.063C350.061 395.219 350.365 395.347 350.786 395.446L351.999 395.724C352.702 395.887 353.226 396.137 353.57 396.475C353.915 396.813 354.088 397.252 354.088 397.793C354.088 398.25 353.955 398.658 353.69 399.016C353.428 399.37 353.062 399.649 352.591 399.851C352.124 400.053 351.582 400.154 350.965 400.154C350.11 400.154 349.413 399.972 348.872 399.607C348.332 399.239 348.001 398.717 347.878 398.041L349.315 397.822C349.404 398.197 349.588 398.48 349.867 398.673C350.145 398.862 350.508 398.956 350.955 398.956C351.443 398.956 351.832 398.855 352.124 398.653C352.415 398.447 352.561 398.197 352.561 397.902C352.561 397.663 352.472 397.463 352.293 397.3C352.117 397.138 351.847 397.015 351.482 396.933L350.19 396.649C349.477 396.487 348.95 396.228 348.609 395.874C348.271 395.519 348.102 395.07 348.102 394.526C348.102 394.076 348.228 393.681 348.48 393.343C348.731 393.005 349.079 392.741 349.524 392.553C349.968 392.36 350.477 392.264 351.05 392.264C351.875 392.264 352.525 392.443 352.999 392.801C353.473 393.156 353.786 393.631 353.938 394.228ZM359.013 400.154C358.261 400.154 357.613 399.993 357.069 399.672C356.529 399.347 356.111 398.891 355.816 398.305C355.525 397.715 355.379 397.024 355.379 396.232C355.379 395.449 355.525 394.76 355.816 394.163C356.111 393.567 356.522 393.101 357.049 392.766C357.58 392.432 358.199 392.264 358.909 392.264C359.34 392.264 359.757 392.335 360.162 392.478C360.566 392.621 360.929 392.844 361.25 393.149C361.572 393.454 361.825 393.85 362.011 394.337C362.197 394.821 362.289 395.41 362.289 396.102V396.629H356.219V395.516H360.833C360.833 395.125 360.753 394.778 360.594 394.477C360.435 394.172 360.211 393.931 359.923 393.756C359.638 393.58 359.303 393.492 358.919 393.492C358.501 393.492 358.136 393.595 357.825 393.8C357.517 394.003 357.278 394.268 357.109 394.596C356.943 394.921 356.86 395.274 356.86 395.655V396.525C356.86 397.035 356.95 397.469 357.129 397.827C357.311 398.185 357.565 398.459 357.89 398.648C358.214 398.833 358.594 398.926 359.028 398.926C359.31 398.926 359.567 398.886 359.799 398.807C360.031 398.724 360.231 398.601 360.4 398.439C360.569 398.277 360.699 398.076 360.788 397.837L362.195 398.091C362.082 398.505 361.88 398.868 361.588 399.18C361.3 399.488 360.937 399.728 360.5 399.901C360.065 400.07 359.57 400.154 359.013 400.154Z" fill="#18181B"/>
</g>
<defs>
<filter id="filter0_dd_322_4745" x="0" y="0" width="688" height="463" filterUnits="userSpaceOnUse" color-interpolation-filters="sRGB">
<feFlood flood-opacity="0" result="BackgroundImageFix"/>
<feColorMatrix in="SourceAlpha" type="matrix" values="0 0 0 0 0 0 0 0 0 0 0 0 0 0 0 0 0 0 127 0" result="hardAlpha"/>
<feMorphology radius="3" operator="erode" in="SourceAlpha" result="effect1_dropShadow_322_4745"/>
<feOffset dy="10"/>
<feGaussianBlur stdDeviation="7.5"/>
<feComposite in2="hardAlpha" operator="out"/>
<feColorMatrix type="matrix" values="0 0 0 0 0 0 0 0 0 0 0 0 0 0 0 0 0 0 0.1 0"/>
<feBlend mode="normal" in2="BackgroundImageFix" result="effect1_dropShadow_322_4745"/>
<feColorMatrix in="SourceAlpha" type="matrix" values="0 0 0 0 0 0 0 0 0 0 0 0 0 0 0 0 0 0 127 0" result="hardAlpha"/>
<feMorphology radius="4" operator="erode" in="SourceAlpha" result="effect2_dropShadow_322_4745"/>
<feOffset dy="4"/>
<feGaussianBlur stdDeviation="3"/>
<feComposite in2="hardAlpha" operator="out"/>
<feColorMatrix type="matrix" values="0 0 0 0 0 0 0 0 0 0 0 0 0 0 0 0 0 0 0.1 0"/>
<feBlend mode="normal" in2="effect1_dropShadow_322_4745" result="effect2_dropShadow_322_4745"/>
<feBlend mode="normal" in="SourceGraphic" in2="effect2_dropShadow_322_4745" result="shape"/>
</filter>
</defs>
</svg>
